<svg xmlns="http://www.w3.org/2000/svg" width="48" height="40" viewBox="0 0 48 40" fill="none">
  <path d="M26.3438 30.9501H7.78125C7.78125 29.3372 6.43809 28.0297 4.78125 28.0297V7.40473C6.43809 7.40473 7.78125 6.09723 7.78125 4.48438H40.2188C40.2188 6.09723 41.5619 7.40473 43.2188 7.40473V28.0297C41.5619 28.0297 40.2188 29.3372 40.2188 30.9501H33.8438" fill="#607987" fill-opacity="0.1"/>
  <path d="M47.0625 0H0.9375C0.419719 0 0 0.408575 0 0.91261V34.5419C0 35.0459 0.419719 35.4545 0.9375 35.4545H25.3967V39.0864C25.3967 39.8936 26.3996 40.3035 26.9913 39.7374L30.069 36.7933L33.1467 39.7374C33.7356 40.3007 34.7413 39.8955 34.7413 39.0864V35.4545H47.0625C47.5803 35.4545 48 35.0459 48 34.5419V0.91261C48 0.408575 47.5803 0 47.0625 0ZM33.1791 28.8379C31.4062 30.38 28.7325 30.3801 26.9594 28.8383C25.9711 27.9764 25.4044 26.7425 25.4044 25.4529C25.4044 22.949 27.497 20.9121 30.069 20.9121C32.6411 20.9121 34.7336 22.949 34.7336 25.4529C34.7336 26.7428 34.1667 27.9768 33.1791 28.8379ZM32.8662 36.9102L30.726 34.863C30.3613 34.5141 29.7766 34.514 29.4119 34.863L27.2717 36.9102V31.2092C29.038 32.0237 31.1063 32.0201 32.8662 31.2092V36.9102ZM46.125 33.6293H34.7412V29.9051C35.932 28.7191 36.6085 27.1198 36.6085 25.4529C36.6085 21.9426 33.6749 19.0869 30.0689 19.0869C26.4629 19.0869 23.5293 21.9426 23.5293 25.4529C23.5293 27.1196 24.2056 28.7185 25.3967 29.9049V33.6293H1.875V1.82522H46.125V33.6293Z" fill="#4E6575"/>
  <path d="M30.0686 22.7227C28.522 22.7227 27.2637 23.9475 27.2637 25.453C27.2637 26.9615 28.5212 28.184 30.0682 28.184C31.6191 28.184 32.8734 26.9579 32.8734 25.453C32.8734 23.9476 31.6152 22.7227 30.0686 22.7227ZM30.6888 26.1277C30.089 26.6494 29.1387 26.2325 29.1387 25.453C29.1387 24.9538 29.5559 24.5479 30.0686 24.5479C30.5813 24.5479 30.9984 24.9539 30.9984 25.453C30.9984 25.714 30.8881 25.9539 30.6888 26.1277Z" fill="#4E6575"/>
  <path d="M21.0486 23.4287C19.7537 22.9551 18.5933 23.2161 17.7075 23.6941C17.5454 23.3104 17.2723 22.9699 16.8193 22.7783C16.0337 22.4461 15.0663 22.7375 13.8619 23.6689C13.5632 22.4695 13.0141 21.3837 11.928 21.1981C10.9395 21.029 9.9332 21.6769 8.85188 23.1787C8.18504 24.1049 7.70907 25.0486 7.6891 25.0883C7.46185 25.5412 7.6547 26.0876 8.11988 26.3089C8.58516 26.5302 9.14654 26.3424 9.37379 25.8896C9.37754 25.8821 9.75366 25.1361 10.2839 24.3726C10.9584 23.4014 11.4161 23.0778 11.59 23.011C11.7033 23.1325 12.0754 23.667 12.2869 25.5862C12.3727 26.3648 13.3649 26.6838 13.9097 26.1061C14.6141 25.359 15.5541 24.6477 16.0059 24.5C16.0394 24.6428 16.0736 24.9213 16.0343 25.4187C15.9923 25.9488 16.4196 26.4044 16.9688 26.4044C17.2608 26.4044 17.543 26.2714 17.7228 26.0314C17.7686 25.9719 18.8642 24.5795 20.3893 25.1372C20.874 25.3144 21.4146 25.0756 21.5965 24.6037C21.7786 24.132 21.5333 23.6059 21.0486 23.4287Z" fill="#4E6575"/>
  <path d="M8.53125 17.2633H39.4688C39.9865 17.2633 40.4062 16.8547 40.4062 16.3507V11.7876C40.4062 11.2836 39.9865 10.875 39.4688 10.875H8.53125C8.01347 10.875 7.59375 11.2836 7.59375 11.7876V16.3507C7.59375 16.8546 8.01347 17.2633 8.53125 17.2633ZM9.46875 12.7002H38.5312V15.438H9.46875V12.7002Z" fill="#4E6575"/>
  <path d="M14.1563 9.04787H33.8438C34.3615 9.04787 34.7813 8.6393 34.7813 8.13527C34.7813 7.63123 34.3615 7.22266 33.8438 7.22266H14.1563C13.6385 7.22266 13.2188 7.63123 13.2188 8.13527C13.2188 8.63921 13.6385 9.04787 14.1563 9.04787Z" fill="#4E6575"/>
</svg>