<svg xmlns="http://www.w3.org/2000/svg" width="48" height="48" viewBox="0 0 48 48" fill="none">
  <g clip-path="url(#clip0_820_42424)">
    <path d="M12.4688 31.8555C10.7629 31.8555 9.09533 31.3496 7.67696 30.4019C6.25859 29.4542 5.1531 28.1071 4.50029 26.5311C3.84749 24.9551 3.67668 23.2209 4.00948 21.5478C4.34228 19.8747 5.16373 18.3379 6.36996 17.1317C7.57619 15.9254 9.11301 15.104 10.7861 14.7712C12.4592 14.4384 14.1934 14.6092 15.7694 15.262C17.3454 15.9148 18.6925 17.0203 19.6402 18.4387C20.5879 19.8571 21.0938 21.5246 21.0938 23.2305C21.0911 25.5172 20.1816 27.7094 18.5646 29.3264C16.9477 30.9433 14.7554 31.8528 12.4688 31.8555ZM12.4688 16.4805C11.1337 16.4805 9.82869 16.8764 8.71865 17.6181C7.60862 18.3598 6.74346 19.414 6.23257 20.6474C5.72168 21.8808 5.588 23.238 5.84845 24.5473C6.1089 25.8567 6.75178 27.0594 7.69578 28.0034C8.63979 28.9474 9.84252 29.5903 11.1519 29.8508C12.4613 30.1112 13.8185 29.9776 15.0519 29.4667C16.2853 28.9558 17.3395 28.0906 18.0812 26.9806C18.8229 25.8705 19.2188 24.5655 19.2188 23.2305C19.2168 21.4409 18.505 19.7251 17.2395 18.4596C15.9741 17.1942 14.2584 16.4823 12.4688 16.4803V16.4805Z" fill="#4E6575"/>
    <circle cx="12.5" cy="23.5" r="4.5" fill="#EFF2F3"/>
    <path d="M24 47.9992H0.9375C0.68886 47.9992 0.450403 47.9004 0.274587 47.7246C0.098772 47.5488 0 47.3104 0 47.0617L0 42.4492C0 39.1423 1.31367 35.9708 3.65201 33.6325C5.99036 31.2941 9.16183 29.9805 12.4688 29.9805C15.7757 29.9805 18.9471 31.2941 21.2855 33.6325C23.6238 35.9708 24.9375 39.1423 24.9375 42.4492V47.0617C24.9375 47.3104 24.8387 47.5488 24.6629 47.7246C24.4871 47.9004 24.2486 47.9992 24 47.9992ZM1.875 46.1242H23.0625V42.4492C23.0625 39.6396 21.9464 36.945 19.9597 34.9583C17.9729 32.9716 15.2784 31.8555 12.4688 31.8555C9.65911 31.8555 6.96455 32.9716 4.97784 34.9583C2.99112 36.945 1.875 39.6396 1.875 42.4492V46.1242Z" fill="#4E6575"/>
    <path d="M35.5313 17.3125C33.8254 17.3125 32.1578 16.8067 30.7395 15.8589C29.3211 14.9112 28.2156 13.5642 27.5628 11.9881C26.91 10.4121 26.7392 8.67794 27.072 7.00485C27.4048 5.33176 28.2262 3.79494 29.4325 2.58871C30.6387 1.38248 32.1755 0.561028 33.8486 0.228231C35.5217 -0.104567 37.2559 0.0662371 38.8319 0.719043C40.4079 1.37185 41.755 2.47734 42.7027 3.89571C43.6504 5.31408 44.1563 6.98164 44.1563 8.6875C44.1537 10.9742 43.2441 13.1665 41.6272 14.7835C40.0103 16.4004 37.818 17.3099 35.5313 17.3125ZM35.5313 1.9375C34.1962 1.9375 32.8912 2.33338 31.7812 3.07508C30.6711 3.81678 29.806 4.87099 29.2951 6.10439C28.7842 7.33779 28.6505 8.69499 28.911 10.0044C29.1714 11.3137 29.8143 12.5165 30.7583 13.4605C31.7023 14.4045 32.905 15.0474 34.2144 15.3078C35.5238 15.5683 36.881 15.4346 38.1144 14.9237C39.3478 14.4128 40.402 13.5476 41.1437 12.4376C41.8854 11.3276 42.2813 10.0225 42.2813 8.6875C42.2792 6.89792 41.5674 5.18221 40.302 3.91678C39.0365 2.65135 37.3208 1.93954 35.5313 1.9375Z" fill="#4E6575"/>
    <path d="M47.0625 33.4562H24C23.7514 33.4562 23.5129 33.3575 23.3371 33.1817C23.1613 33.0058 23.0625 32.7674 23.0625 32.5187V27.9062C23.0625 24.5993 24.3762 21.4279 26.7145 19.0895C29.0529 16.7512 32.2243 15.4375 35.5312 15.4375C38.8382 15.4375 42.0096 16.7512 44.348 19.0895C46.6863 21.4279 48 24.5993 48 27.9062V32.5187C48 32.7674 47.9012 33.0058 47.7254 33.1817C47.5496 33.3575 47.3111 33.4562 47.0625 33.4562ZM24.9375 31.5812H46.125V27.9062C46.125 25.0966 45.0089 22.4021 43.0222 20.4153C41.0354 18.4286 38.3409 17.3125 35.5312 17.3125C32.7216 17.3125 30.0271 18.4286 28.0403 20.4153C26.0536 22.4021 24.9375 25.0966 24.9375 27.9062V31.5812Z" fill="#4E6575"/>
    <circle cx="35.5" cy="8.5" r="4.5" fill="#EFF2F3"/>
  </g>
  <defs>
    <clipPath id="clip0_820_42424">
      <rect width="48" height="48" fill="white"/>
    </clipPath>
  </defs>
</svg>