<svg xmlns="http://www.w3.org/2000/svg" width="49" height="48" fill="none">
  <g clip-path="url(#a)">
    <path d="M35.468 15.335v-7.59H15.766v9.041l.128.076c2.1 1.298 3.39 3.652 3.39 6.341 0 2.69-1.29 5.044-3.39 6.342l-.128.076v7.005h19.703v-8.331h-9.852v-12.96h9.851Z" fill="#607987" fill-opacity=".1"/>
    <path d="M15.256 20.698a.947.947 0 0 0-1.327 0l-3.09 3.048-1.212-1.197a.947.947 0 0 0-1.327 0 .917.917 0 0 0 0 1.31l1.876 1.85a.947.947 0 0 0 1.327 0l3.753-3.702a.917.917 0 0 0 0-1.31Z" fill="#4E6575"/>
    <path d="M44.85 15.397h-4.69V5.492C40.16 2.684 37.845.4 35 .4H16.234c-2.846 0-5.16 2.284-5.16 5.092v10.417c-4.347.454-7.741 3.995-7.741 8.282s3.394 7.828 7.74 8.282v10.232c0 2.808 2.315 5.092 5.16 5.092H35c2.846 0 5.16-2.284 5.16-5.092V30.208h4.692a.932.932 0 0 0 .938-.925v-12.96a.932.932 0 0 0-.938-.926Zm-.937 3.703H26.555v-1.852h17.358V19.1ZM31.716 2.252v1.851H19.518V2.252h12.198ZM5.21 24.192c0-3.574 3.055-6.48 6.81-6.48 1.247 0 2.383.31 3.376.922 3.935 2.432 3.935 8.681.001 11.113-.994.613-2.13.924-3.377.924-3.755 0-6.81-2.907-6.81-6.48ZM35 45.944H16.234c-1.811 0-3.284-1.453-3.284-3.24v-.463h25.332v.463c0 1.787-1.473 3.24-3.284 3.24Zm3.283-5.554H12.951v-7.918a8.182 8.182 0 0 0 3.441-1.156c5.105-3.155 5.113-11.092 0-14.252a8.18 8.18 0 0 0-3.441-1.156V5.492c0-1.787 1.473-3.24 3.284-3.24h1.407v2.777c0 .511.42.926.938.926h14.074a.932.932 0 0 0 .938-.926V2.252h1.407c1.811 0 3.284 1.453 3.284 3.24v9.905H26.555v-.926a.932.932 0 0 0-.938-.926.932.932 0 0 0-.938.926v16.663c0 .511.42.926.938.926a.932.932 0 0 0 .938-.926v-.926h11.728v10.183ZM26.555 28.357V20.95h17.358v7.406H26.555Z" fill="#4E6575"/>
    <path d="M41.098 23.666a.946.946 0 0 0-.938.926c0 .502.43.925.938.925a.948.948 0 0 0 .938-.925c0-.499-.435-.926-.938-.926ZM37.345 23.666a.942.942 0 0 0-.938.926c0 .502.43.925.938.925.5 0 .938-.433.938-.925 0-.5-.432-.926-.938-.926ZM33.592 23.666c-.505 0-.938.43-.938.926 0 .5.432.925.938.925.51 0 .938-.422.938-.925a.944.944 0 0 0-.938-.926ZM30.108 25.463a.924.924 0 0 0 .634-1.15.94.94 0 0 0-1.165-.626.924.924 0 0 0-.634 1.15.94.94 0 0 0 1.165.626Z" fill="#4E6575"/>
  </g>
  <defs>
    <clipPath id="a">
      <path fill="#fff" transform="translate(.543 .4)" d="M0 0h48.038v47.396H0z"/>
    </clipPath>
  </defs>
</svg>