<svg xmlns="http://www.w3.org/2000/svg" width="49" height="45" fill="none">
  <g clip-path="url(#a)">
    <path fill-rule="evenodd" clip-rule="evenodd" d="M24.562 18.479V5.829H3.358c-1.032 0-1.877.76-1.877 1.687v10.963h23.081ZM47.173 18.479H24.562v12.65h23.08v-12.65h-.469Z" fill="#607987" fill-opacity=".1"/>
    <path d="M45.766 4.985H3.358C1.806 4.985.543 6.12.543 7.515v25.3c0 1.395 1.263 2.53 2.815 2.53H19.72l-1.509 5.06h-1.156c-1.245.044-1.244 1.642 0 1.686h15.012c1.244-.044 1.244-1.642 0-1.686H30.91l-1.509-5.06h16.364c1.552 0 2.815-1.135 2.815-2.53v-25.3c0-1.395-1.263-2.53-2.815-2.53Zm-8.15 20.172c-.084 1.806-2.945 1.804-3.028 0v-1.102c0-.75.68-1.36 1.514-1.36.835 0 1.514.61 1.514 1.36v1.102Zm-3.447 2.502c1.097.72 2.77.72 3.867 0 .88.564 1.419 1.487 1.419 2.457v.169h-6.706v-.17c0-.97.539-1.892 1.42-2.456Zm5.053-1.31c.174-.366.27-.769.27-1.192v-1.102c-.187-4.043-6.595-4.04-6.78 0v1.102c0 .423.096.826.27 1.193-1.312.883-2.11 2.288-2.11 3.766v.169H18.25v-.17c0-1.477-.797-2.882-2.109-3.765.174-.367.27-.77.27-1.193v-1.102c-.186-4.043-6.595-4.04-6.78 0v1.102c0 .423.097.826.27 1.193-1.312.883-2.109 2.288-2.109 3.766v.169H2.42V19.322h44.285v10.963h-5.373v-.17c0-1.477-.797-2.882-2.11-3.765Zm-24.687-1.192c-.083 1.806-2.944 1.804-3.027 0v-1.102c.083-1.805 2.944-1.803 3.027 0v1.102Zm-3.447 2.502c1.097.72 2.77.72 3.867 0 .88.564 1.419 1.487 1.419 2.457v.169H9.669v-.17c0-.97.538-1.892 1.419-2.456Zm3.447-15.151c-.083 1.805-2.944 1.804-3.027 0v-1.102c.083-1.805 2.944-1.804 3.027 0v1.102Zm-3.447 2.501c1.097.721 2.77.721 3.867 0 .88.565 1.419 1.487 1.419 2.457v.17H9.669v-.17c0-.97.538-1.892 1.419-2.457Zm26.528-2.501c-.084 1.805-2.945 1.804-3.028 0v-1.102c0-.75.68-1.36 1.514-1.36.835 0 1.514.61 1.514 1.36v1.102Zm-3.447 2.501c1.097.721 2.77.721 3.867 0 .88.565 1.419 1.487 1.419 2.457v.17h-6.706v-.17c0-.97.539-1.892 1.42-2.457ZM3.358 6.672h42.408c.517 0 .938.378.938.843v10.12h-5.373v-.169c0-1.478-.797-2.883-2.11-3.766.175-.366.271-.77.271-1.192v-1.102c-.187-4.043-6.595-4.04-6.78 0v1.102c0 .423.096.826.27 1.192-1.312.883-2.11 2.288-2.11 3.766v.17H18.25v-.17c0-1.478-.797-2.883-2.109-3.766.174-.366.27-.77.27-1.192v-1.102c-.186-4.044-6.595-4.04-6.78 0v1.102c0 .423.097.826.27 1.192-1.312.883-2.109 2.288-2.109 3.766v.17H2.42V7.515c0-.466.421-.844.939-.844Zm25.61 33.733h-8.813l1.509-5.06h5.796l1.508 5.06Zm17.736-7.59c0 .465-.42.843-.938.843H3.358c-.518 0-.939-.378-.939-.843v-.844h44.285v.844Z" fill="#4E6575"/>
  </g>
  <defs>
    <clipPath id="a">
      <path fill="#fff" transform="translate(.543 .962)" d="M0 0h48.038v43.178H0z"/>
    </clipPath>
  </defs>
</svg>