<svg xmlns="http://www.w3.org/2000/svg" width="48" height="32" viewBox="0 0 48 32" fill="none">
  <path d="M47.0625 25.2686H45.176V0.838865C45.176 0.375644 44.7563 0 44.2385 0H3.76153C3.24375 0 2.82403 0.375644 2.82403 0.838865V25.2686H0.9375C0.419719 25.2686 0 25.6443 0 26.1075C0 29.3566 2.95425 32 6.58547 32H41.4145C45.0457 32 48 29.3566 48 26.1075C48 25.6443 47.5803 25.2686 47.0625 25.2686ZM4.69903 1.67773H43.3011V25.2686H4.69903V1.67773ZM41.4145 30.3223H6.58547C4.30894 30.3223 2.4045 28.87 1.96866 26.9463H46.0312C45.5955 28.87 43.6911 30.3223 41.4145 30.3223Z" fill="#4E6575"/>
  <path d="M16.2139 18.0958C18.6396 17.5851 21.602 18.1244 23.3646 19.5801C23.7237 19.8742 24.272 19.8784 24.6363 19.5801C26.3951 18.1275 29.3563 17.584 31.787 18.0958C32.3732 18.2191 32.9392 17.8217 32.9392 17.2792V7.80342C32.9392 7.4141 32.6399 7.07604 32.2164 6.98686C29.5407 6.42365 26.2982 6.86909 23.992 8.40664C21.6326 6.86347 18.4053 6.38926 15.7676 6.99056C15.3522 7.08526 15.0615 7.41989 15.0615 7.80342V17.2791C15.0617 17.819 15.6245 18.2194 16.2139 18.0958ZM31.0643 8.50051V16.2859C29.0059 16.0821 26.7725 16.4245 24.938 17.3363V9.87256C26.565 8.7078 28.9622 8.24365 31.0643 8.50051ZM16.9367 8.49061C19.0082 8.21949 21.3654 8.68909 23.063 9.87986V17.3364C21.2307 16.4258 18.9978 16.082 16.9367 16.286V8.49061Z" fill="#4E6575"/>
  <path d="M36.7078 21.8984H11.292C10.7742 21.8984 10.3545 22.2741 10.3545 22.7373C10.3545 23.2005 10.7742 23.5762 11.292 23.5762H36.7078C37.2256 23.5762 37.6453 23.2005 37.6453 22.7373C37.6453 22.2741 37.2256 21.8984 36.7078 21.8984Z" fill="#4E6575"/>
</svg>