<svg xmlns="http://www.w3.org/2000/svg" width="48" height="44" viewBox="0 0 48 44" fill="none">
  <path d="M42.9231 0.308594H5.07694C2.27747 0.308594 0 2.58616 0 5.38553V26.1547V29.3855C0 32.1849 2.27747 34.4625 5.07694 34.4625H17.3356L15.8587 41.8471H11.0769C10.5671 41.8471 10.1539 42.2603 10.1539 42.7701C10.1539 43.2799 10.5671 43.6932 11.0769 43.6932H36.9231C37.4329 43.6932 37.8461 43.2799 37.8461 42.7701C37.8461 42.2603 37.4329 41.8471 36.9231 41.8471H32.1413L30.6644 34.4625H42.9231C45.7224 34.4625 48 32.185 48 29.3855V26.1547V5.38553C48 2.58616 45.7225 0.308594 42.9231 0.308594ZM17.7413 41.8471L19.2183 34.4625H28.7817L30.2587 41.8471H17.7413ZM46.1539 29.3855C46.1539 31.167 44.7046 32.6163 42.9231 32.6163H5.07694C3.2955 32.6163 1.84612 31.1671 1.84612 29.3855V27.0779H46.1538V29.3855H46.1539ZM46.1539 25.2318H1.84612V23.3856H7.38459C7.89441 23.3856 8.30766 22.9724 8.30766 22.4626C8.30766 21.9528 7.89441 21.5395 7.38459 21.5395H1.84612V5.38553C1.84612 3.60409 3.29541 2.15472 5.07694 2.15472H42.9231C44.7045 2.15472 46.1539 3.604 46.1539 5.38553V25.2318Z" fill="#4E6575"/>
  <rect x="5" y="4" width="38" height="15" fill="#EFF2F3"/>
  <g clip-path="url(#clip0_2968_39273)">
    <path d="M20.2022 13.8906L20.2023 13.8904C20.2976 13.7951 20.3511 13.666 20.3511 13.5312C20.3511 13.3965 20.2976 13.2674 20.2023 13.1721C20.1071 13.0769 19.9779 13.0233 19.8432 13.0233C19.7085 13.0233 19.5793 13.0769 19.484 13.1721L17.8593 14.7968C17.8593 14.7969 17.8592 14.7969 17.8592 14.7969C17.8118 14.844 17.7742 14.8999 17.7485 14.9616C17.7228 15.0232 17.7096 15.0894 17.7096 15.1562C17.7096 15.2231 17.7228 15.2893 17.7485 15.3509C17.7742 15.4125 17.8118 15.4685 17.8591 15.5155C17.8592 15.5156 17.8593 15.5156 17.8593 15.5157L19.4837 17.1401C19.4838 17.1402 19.4839 17.1402 19.4839 17.1403C19.531 17.1877 19.5869 17.2253 19.6485 17.2509C19.7102 17.2766 19.7763 17.2899 19.8432 17.2899C19.91 17.2899 19.9762 17.2766 20.0379 17.2509C20.0994 17.2253 20.1553 17.1877 20.2023 17.1404C20.2496 17.0934 20.2872 17.0375 20.3128 16.9759C20.3385 16.9143 20.3518 16.8481 20.3518 16.7812C20.3518 16.7144 20.3385 16.6482 20.3128 16.5866C20.2872 16.5249 20.2495 16.469 20.2021 16.4219C20.2021 16.4219 20.2021 16.4218 20.202 16.4218L19.4394 15.6625H25.9369C26.7177 15.6625 27.4664 15.3524 28.0185 14.8003C28.5705 14.2482 28.8807 13.4995 28.8807 12.7188V11.5C28.8807 11.3657 28.8273 11.237 28.7324 11.142C28.6375 11.0471 28.5087 10.9937 28.3744 10.9937C28.2402 10.9937 28.1114 11.0471 28.0165 11.142C27.9215 11.237 27.8682 11.3657 27.8682 11.5V12.7188C27.8682 12.9724 27.8182 13.2235 27.7212 13.4578C27.6241 13.6921 27.4819 13.905 27.3025 14.0843C27.1232 14.2637 26.9103 14.4059 26.676 14.503C26.4417 14.6 26.1905 14.65 25.9369 14.65H19.4394L20.2022 13.8906Z" fill="#4E6575" stroke="#4E6575" stroke-width="0.2"/>
    <path d="M26.7968 6.57971L26.7966 6.57956C26.7014 6.48431 26.6479 6.35512 26.6479 6.22041C26.6479 6.08571 26.7014 5.95652 26.7966 5.86126C26.8919 5.76601 27.0211 5.7125 27.1558 5.7125C27.2225 5.7125 27.2885 5.72564 27.3501 5.75116C27.4118 5.77669 27.4677 5.8141 27.5149 5.86126L29.1396 7.48597C29.1397 7.48604 29.1398 7.48611 29.1398 7.48618C29.1872 7.5332 29.2248 7.58912 29.2504 7.65072C29.2761 7.71241 29.2894 7.77858 29.2894 7.84541C29.2894 7.91224 29.2761 7.97841 29.2504 8.0401C29.2248 8.1017 29.1872 8.15761 29.1398 8.20463L29.1399 8.20456L29.0692 8.13385L29.1396 8.20485L26.7968 6.57971ZM26.7968 6.57971L27.5595 7.33916M26.7968 6.57971L27.5595 7.33916M27.5595 7.33916H21.062C20.2813 7.33916 19.5325 7.64931 18.9805 8.20137C18.4284 8.75343 18.1183 9.50218 18.1183 10.2829V11.5017C18.1183 11.6359 18.1716 11.7647 18.2665 11.8596C18.3615 11.9546 18.4902 12.0079 18.6245 12.0079C18.7588 12.0079 18.8875 11.9546 18.9825 11.8596C19.0774 11.7647 19.1308 11.6359 19.1308 11.5017V10.2829C19.1308 9.77071 19.3342 9.27949 19.6964 8.91731C20.0586 8.55513 20.5498 8.35166 21.062 8.35166H27.5595L26.7969 9.11097C26.7969 9.11101 26.7968 9.11104 26.7968 9.11108L26.7968 9.11111L26.8673 9.18197L27.5595 7.33916ZM27.5152 9.82927L27.4443 9.75891L27.5149 9.82956L27.515 9.82946C27.5151 9.82939 27.5151 9.82933 27.5152 9.82927ZM26.7966 9.82956C26.7967 9.82966 26.7968 9.82975 26.7969 9.82985L26.8673 9.75885L26.7963 9.82927C26.7964 9.82937 26.7965 9.82946 26.7966 9.82956Z" fill="#4E6575" stroke="#4E6575" stroke-width="0.2"/>
  </g>
  <defs>
    <clipPath id="clip0_2968_39273">
      <rect width="13" height="13" fill="white" transform="translate(17 5)"/>
    </clipPath>
  </defs>
</svg>