<?xml version="1.0" encoding="UTF-8"?>
<svg id="Layer_2" data-name="Layer 2" xmlns="http://www.w3.org/2000/svg" xmlns:xlink="http://www.w3.org/1999/xlink" viewBox="0 0 1195.25 1337.72">
  <defs>
    <style>
      .cls-1 {
        fill: url(#linear-gradient-2);
      }

      .cls-2 {
        fill: #f4f4f4;
      }

      .cls-3 {
        fill: #fff;
      }

      .cls-4 {
        fill: url(#linear-gradient-17);
      }

      .cls-5 {
        fill: #5ec5ed;
      }

      .cls-6 {
        fill: #125a9e;
      }

      .cls-7 {
        fill: #3092c4;
      }

      .cls-8 {
        fill: url(#linear-gradient-15);
      }

      .cls-9 {
        fill: url(#linear-gradient-18);
      }

      .cls-10 {
        fill: url(#linear-gradient-14);
      }

      .cls-11 {
        fill: url(#linear-gradient-20);
      }

      .cls-12 {
        fill: url(#linear-gradient-6);
      }

      .cls-13 {
        fill: #127bca;
      }

      .cls-14 {
        fill: url(#linear-gradient-11);
      }

      .cls-15, .cls-16 {
        opacity: .4;
      }

      .cls-17 {
        fill: #390091;
      }

      .cls-18 {
        fill: url(#linear-gradient-10);
      }

      .cls-19 {
        fill: #1969bc;
      }

      .cls-20 {
        opacity: .3;
      }

      .cls-21 {
        fill: url(#linear-gradient-16);
      }

      .cls-22 {
        fill: #0d82ca;
      }

      .cls-23 {
        fill: #a179dc;
      }

      .cls-24 {
        fill: #175fab;
      }

      .cls-25 {
        fill: url(#linear-gradient-21);
      }

      .cls-26 {
        fill: url(#linear-gradient-25);
      }

      .cls-27 {
        fill: url(#linear-gradient-5);
      }

      .cls-28, .cls-16 {
        fill: #06033e;
      }

      .cls-29 {
        fill: #1e5cb3;
      }

      .cls-30 {
        fill: #1d60b5;
      }

      .cls-31 {
        fill: #280068;
      }

      .cls-32 {
        fill: url(#linear-gradient-7);
      }

      .cls-33 {
        fill: #7dcbec;
      }

      .cls-16, .cls-34 {
        isolation: isolate;
      }

      .cls-35 {
        fill: url(#linear-gradient-24);
      }

      .cls-36 {
        fill: url(#linear-gradient-9);
      }

      .cls-37 {
        fill: url(#linear-gradient-22);
      }

      .cls-38 {
        fill: url(#linear-gradient-3);
      }

      .cls-39 {
        fill: #2b74b1;
      }

      .cls-40 {
        fill: url(#linear-gradient);
      }

      .cls-41 {
        fill: #05a1e6;
      }

      .cls-42 {
        fill: url(#linear-gradient-23);
      }

      .cls-43 {
        fill: url(#linear-gradient-19);
      }

      .cls-44 {
        fill: #079ae1;
      }

      .cls-45 {
        fill: url(#linear-gradient-4);
      }

      .cls-46 {
        fill: #14559a;
      }

      .cls-34 {
        fill: #020230;
        opacity: .1;
      }

      .cls-47 {
        fill: url(#linear-gradient-8);
      }

      .cls-48 {
        fill: url(#linear-gradient-12);
      }

      .cls-49 {
        fill: url(#linear-gradient-13);
      }

      .cls-50 {
        fill: url(#linear-gradient-26);
      }
    </style>
    <linearGradient id="linear-gradient" x1="408.08" y1="-7486.18" x2="1147.4" y2="-7499.1" gradientTransform="translate(0 -6951.13) scale(1 -1)" gradientUnits="userSpaceOnUse">
      <stop offset="0" stop-color="#a8c0ff"/>
      <stop offset=".18" stop-color="#99abf0"/>
      <stop offset=".48" stop-color="#828bd9"/>
      <stop offset=".84" stop-color="#6460bb"/>
      <stop offset="1" stop-color="#3f2b96"/>
    </linearGradient>
    <linearGradient id="linear-gradient-2" x1=".17" y1="-7851.36" x2="978.54" y2="-7851.36" gradientTransform="translate(0 -6951.13) scale(1 -1)" gradientUnits="userSpaceOnUse">
      <stop offset="0" stop-color="#a8c0ff"/>
      <stop offset=".14" stop-color="#99abf0"/>
      <stop offset=".36" stop-color="#828bd9"/>
      <stop offset=".65" stop-color="#6460bb"/>
      <stop offset=".97" stop-color="#43319a"/>
      <stop offset="1" stop-color="#3f2b96"/>
    </linearGradient>
    <linearGradient id="linear-gradient-3" x1="0" y1="-7834.52" x2="978.71" y2="-7834.52" xlink:href="#linear-gradient-2"/>
    <linearGradient id="linear-gradient-4" x1="397.6" y1="-7494.56" x2="1125.79" y2="-7494.56" gradientTransform="translate(0 -6951.13) scale(1 -1)" gradientUnits="userSpaceOnUse">
      <stop offset="0" stop-color="#a8c0ff"/>
      <stop offset=".14" stop-color="#99abf0"/>
      <stop offset=".36" stop-color="#828bd9"/>
      <stop offset=".65" stop-color="#6460bb"/>
      <stop offset=".97" stop-color="#4d43d6"/>
      <stop offset="1" stop-color="#564aed"/>
    </linearGradient>
    <linearGradient id="linear-gradient-5" x1="409.77" y1="-7494.75" x2="1113.85" y2="-7494.75" gradientTransform="translate(0 -6951.13) scale(1 -1)" gradientUnits="userSpaceOnUse">
      <stop offset="0" stop-color="#3919ba"/>
      <stop offset="1" stop-color="#6507f9"/>
    </linearGradient>
    <linearGradient id="linear-gradient-6" x1="935.79" y1="-7731.9" x2="1106.02" y2="-7731.9" gradientTransform="translate(0 -6951.13) scale(1 -1)" gradientUnits="userSpaceOnUse">
      <stop offset="0" stop-color="#0cf"/>
      <stop offset=".14" stop-color="#00c3ff"/>
      <stop offset=".36" stop-color="#01acff"/>
      <stop offset=".65" stop-color="#0185ff"/>
      <stop offset=".97" stop-color="#0250ff"/>
      <stop offset="1" stop-color="#024bff"/>
    </linearGradient>
    <linearGradient id="linear-gradient-7" x1="1025" y1="-7457.01" x2="1195.25" y2="-7457.01" xlink:href="#linear-gradient-6"/>
    <linearGradient id="linear-gradient-8" x1="443.52" y1="-7144.62" x2="815.22" y2="-7144.62" xlink:href="#linear-gradient-6"/>
    <linearGradient id="linear-gradient-9" x1="5403.59" y1="-2815.94" x2="5403.59" y2="-2816.6" gradientTransform="translate(-245452 -228302.23) scale(45.61 -81.34)" gradientUnits="userSpaceOnUse">
      <stop offset="0" stop-color="#0994dc"/>
      <stop offset=".35" stop-color="#66cef5"/>
      <stop offset=".35" stop-color="#66cef5"/>
      <stop offset=".85" stop-color="#127bca"/>
      <stop offset=".85" stop-color="#127bca"/>
      <stop offset="1" stop-color="#127bca"/>
    </linearGradient>
    <linearGradient id="linear-gradient-10" x1="5408.33" y1="-2814.47" x2="5408.33" y2="-2815.12" gradientTransform="translate(-257897.15 -234017.93) scale(47.87 -83.41)" gradientUnits="userSpaceOnUse">
      <stop offset="0" stop-color="#0e76bc"/>
      <stop offset=".36" stop-color="#36aee8"/>
      <stop offset=".36" stop-color="#36aee8"/>
      <stop offset=".85" stop-color="#00adef"/>
      <stop offset=".85" stop-color="#00adef"/>
      <stop offset="1" stop-color="#00adef"/>
    </linearGradient>
    <linearGradient id="linear-gradient-11" x1="5402.87" y1="-2814.41" x2="5402.87" y2="-2813.91" gradientTransform="translate(-244567.01 -237038.81) scale(45.45 -84.5)" gradientUnits="userSpaceOnUse">
      <stop offset="0" stop-color="#1c63b7"/>
      <stop offset=".5" stop-color="#33bdf2"/>
      <stop offset="1" stop-color="#33bdf2" stop-opacity=".42"/>
    </linearGradient>
    <linearGradient id="linear-gradient-12" x1="5401.95" y1="-2812.43" x2="5401.95" y2="-2813.07" gradientTransform="translate(-242142.04 -242820.08) scale(45.01 -86.6)" gradientUnits="userSpaceOnUse">
      <stop offset="0" stop-color="#166ab8"/>
      <stop offset=".4" stop-color="#36aee8"/>
      <stop offset=".4" stop-color="#36aee8"/>
      <stop offset=".85" stop-color="#0798dd"/>
      <stop offset=".85" stop-color="#0798dd"/>
      <stop offset="1" stop-color="#0798dd"/>
    </linearGradient>
    <linearGradient id="linear-gradient-13" x1="5425.6" y1="-2809.02" x2="5425.6" y2="-2809.63" gradientTransform="translate(-315590.53 -257929.81) scale(58.35 -92.08)" gradientUnits="userSpaceOnUse">
      <stop offset="0" stop-color="#124379"/>
      <stop offset=".39" stop-color="#1487cb"/>
      <stop offset=".39" stop-color="#1487cb"/>
      <stop offset=".78" stop-color="#165197"/>
      <stop offset=".78" stop-color="#165197"/>
      <stop offset="1" stop-color="#165197"/>
    </linearGradient>
    <linearGradient id="linear-gradient-14" x1="5267.92" y1="-2914.78" x2="5268.38" y2="-2914.78" gradientTransform="translate(-101309.27 -89389.68) scale(19.42 -30.92)" gradientUnits="userSpaceOnUse">
      <stop offset="0" stop-color="#33bdf2" stop-opacity=".7"/>
      <stop offset="1" stop-color="#1dacd8"/>
    </linearGradient>
    <linearGradient id="linear-gradient-15" x1="5445.68" y1="-2806.02" x2="5445.68" y2="-2805.79" gradientTransform="translate(-429956.91 -276111.25) scale(79.14 -98.68)" gradientUnits="userSpaceOnUse">
      <stop offset="0" stop-color="#136ab4"/>
      <stop offset=".6" stop-color="#59caf5" stop-opacity=".55"/>
      <stop offset="1" stop-color="#59caf5" stop-opacity=".24"/>
    </linearGradient>
    <linearGradient id="linear-gradient-16" x1="5441.26" y1="-2805.32" x2="5441.73" y2="-2805.32" gradientTransform="translate(-390940.77 -277438.96) scale(72.02 -99.16)" gradientUnits="userSpaceOnUse">
      <stop offset="0" stop-color="#05a1e6" stop-opacity=".25"/>
      <stop offset="1" stop-color="#05a1e6"/>
    </linearGradient>
    <linearGradient id="linear-gradient-17" x1="5411.74" y1="-2822.51" x2="5411.74" y2="-2822.21" gradientTransform="translate(-264479.61 -207613.5) scale(49.05 -73.82)" gradientUnits="userSpaceOnUse">
      <stop offset="0" stop-color="#318ed5"/>
      <stop offset="1" stop-color="#38a7e4"/>
    </linearGradient>
    <linearGradient id="linear-gradient-18" x1="5404.52" y1="-2841.48" x2="5404.52" y2="-2841.09" gradientTransform="translate(-245494.85 -161572.41) scale(45.6 -57.13)" gradientUnits="userSpaceOnUse">
      <stop offset="0" stop-color="#05a1e6"/>
      <stop offset="1" stop-color="#05a1e6" stop-opacity=".55"/>
    </linearGradient>
    <linearGradient id="linear-gradient-19" x1="5417.71" y1="-2816.39" x2="5417.71" y2="-2816.15" gradientTransform="translate(-283559.51 -227634.36) scale(52.52 -81.09)" gradientUnits="userSpaceOnUse">
      <stop offset="0" stop-color="#1959a6"/>
      <stop offset=".5" stop-color="#05a1e6"/>
      <stop offset=".5" stop-color="#05a1e6"/>
      <stop offset=".92" stop-color="#7ec5ea"/>
      <stop offset="1" stop-color="#7ec5ea"/>
    </linearGradient>
    <linearGradient id="linear-gradient-20" x1="5441.97" y1="-2805.52" x2="5441.93" y2="-2805.32" gradientTransform="translate(-394531.04 -277007.26) scale(72.68 -99)" gradientUnits="userSpaceOnUse">
      <stop offset="0" stop-color="#165096"/>
      <stop offset="1" stop-color="#0d82ca"/>
    </linearGradient>
    <linearGradient id="linear-gradient-21" x1="5362.17" y1="-2842.25" x2="5362.17" y2="-2842.06" gradientTransform="translate(-174673.83 -161883.84) scale(32.77 -57.23)" gradientUnits="userSpaceOnUse">
      <stop offset="0" stop-color="#05a1e6"/>
      <stop offset=".87" stop-color="#0495d6"/>
      <stop offset="1" stop-color="#0495d6"/>
    </linearGradient>
    <linearGradient id="linear-gradient-22" x1="5427.21" y1="-2806.98" x2="5427.12" y2="-2807.3" gradientTransform="translate(-326063.76 -269620.23) scale(60.27 -96.32)" gradientUnits="userSpaceOnUse">
      <stop offset="0" stop-color="#38a7e4" stop-opacity=".33"/>
      <stop offset=".96" stop-color="#0e88d3"/>
      <stop offset=".96" stop-color="#0e88d3"/>
      <stop offset="1" stop-color="#0e88d3"/>
    </linearGradient>
    <linearGradient id="linear-gradient-23" x1="5438.33" y1="-2806.04" x2="5438.33" y2="-2806.32" gradientTransform="translate(-381189.38 -274545.47) scale(70.28 -98.11)" gradientUnits="userSpaceOnUse">
      <stop offset="0" stop-color="#168cd4"/>
      <stop offset=".5" stop-color="#1c87cc"/>
      <stop offset="1" stop-color="#154b8d"/>
    </linearGradient>
    <linearGradient id="linear-gradient-24" x1="5362.63" y1="-1598.99" x2="5363.55" y2="-1596.07" gradientTransform="translate(-173096.82 7519.6) scale(32.46 4.25)" gradientUnits="userSpaceOnUse">
      <stop offset="0" stop-color="#97d6ee"/>
      <stop offset=".7" stop-color="#55c1ea"/>
      <stop offset="1" stop-color="#55c1ea"/>
    </linearGradient>
    <linearGradient id="linear-gradient-25" x1="5330.78" y1="-2097.76" x2="5330.91" y2="-2097.97" gradientTransform="translate(-140123.36 16436.82) scale(26.47 7.48)" gradientUnits="userSpaceOnUse">
      <stop offset="0" stop-color="#7accec"/>
      <stop offset="1" stop-color="#3fb7ed"/>
    </linearGradient>
    <linearGradient id="linear-gradient-26" x1="5415.16" y1="-2816.97" x2="5415.16" y2="-2817.27" gradientTransform="translate(-280810.63 -226392.05) scale(52.04 -80.64)" gradientUnits="userSpaceOnUse">
      <stop offset="0" stop-color="#1da7e7"/>
      <stop offset="1" stop-color="#37abe7" stop-opacity="0"/>
    </linearGradient>
  </defs>
  <g id="Layer_1-2" data-name="Layer 1">
    <g>
      <path class="cls-34" d="M573.8,1334.5L5.59,1006.44c-8.28-4.78-7.24-13.14,2.33-18.66l364.67-210.54c9.57-5.52,24.03-6.13,32.29-1.36l568.23,328.06c8.29,4.79,7.25,13.21-2.32,18.66l-364.68,210.54c-9.56,5.52-24.03,6.13-32.31,1.36Z"/>
      <path class="cls-40" d="M1124.08,477L558.09,150.23c-1.71-1.05-3.62-1.74-5.6-2.03-1.99-.29-4.01-.16-5.95,.37l-10.57,3.68,3.68,.88c-1.58,1.9-2.76,4.1-3.46,6.47l-127.93,415.55c-3.17,10.28,1.47,22.83,10.38,27.96l565.97,326.77c1.31,.75,2.71,1.32,4.16,1.7l-1.47,3.06,10.01-3.51c2.22-.97,4.19-2.42,5.77-4.25,1.57-1.84,2.72-4,3.34-6.34l127.99-415.58c3.2-10.32-1.44-22.84-10.33-27.98Z"/>
      <path class="cls-1" d="M964.33,945.42l.2,.25L405.49,622.89c-8.22-4.74-22.59-4.14-32.07,1.34L12.22,832.77l-12.05-4.59,3.39,16.97c.35,1.45,1.02,2.79,1.96,3.95,.94,1.16,2.12,2.09,3.46,2.73l564.21,325.74c8.21,4.76,22.58,4.15,32.07-1.33l362.15-209.06c4.4-2.58,7.03-5.78,7.68-8.96l3.47-16.44-14.21,3.64Z"/>
      <path class="cls-38" d="M573.8,1162.69L5.59,834.64c-8.28-4.78-7.24-13.21,2.33-18.66l364.67-210.55c9.57-5.53,24.03-6.12,32.29-1.35l568.23,328.06c8.29,4.79,7.25,13.21-2.32,18.66l-364.68,210.54c-9.56,5.52-24.03,6.13-32.31,1.34Z"/>
      <path class="cls-3" d="M970.8,946.42l-364.69,210.5c-9.56,5.52-24.03,6.13-32.29,1.34L5.59,830.2c-2.41-1.23-4.25-3.33-5.17-5.87-1.09,3.8,.51,7.61,5.17,10.28l568.21,328.07c8.28,4.79,22.75,4.18,32.29-1.34l364.7-210.52c6.31-3.64,8.81-8.5,7.48-12.75-.85,2.94-3.3,5.89-7.48,8.35Z"/>
      <g class="cls-15">
        <path class="cls-28" d="M276.63,781.39l-19.19-11.12c-1.54-.88-1.35-2.44,.43-3.47l22.68-13.04c.91-.51,1.93-.8,2.97-.84,1.04-.04,2.08,.16,3.03,.59l19.19,11.09c1.54,.9,1.35,2.43-.44,3.47l-22.64,13.08c-.92,.51-1.94,.8-2.99,.85-1.05,.04-2.09-.16-3.05-.6Z"/>
        <path class="cls-28" d="M306.25,798.51l-19.19-11.09c-1.54-.88-1.35-2.43,.43-3.46l22.65-13.07c.91-.51,1.93-.8,2.97-.84,1.04-.04,2.08,.16,3.03,.59l19.19,11.07c1.54,.9,1.35,2.46-.43,3.47l-22.65,13.08c-.91,.52-1.93,.8-2.97,.85-1.04,.04-2.08-.16-3.03-.59Z"/>
        <path class="cls-28" d="M335.87,815.6l-19.19-11.07c-1.54-.9-1.35-2.45,.43-3.48l22.65-13.06c.91-.51,1.93-.8,2.97-.84,1.04-.04,2.08,.16,3.03,.59l19.19,11.07c1.54,.9,1.35,2.45-.43,3.48l-22.65,13.06c-.91,.51-1.93,.8-2.97,.84-1.04,.05-2.08-.16-3.03-.59Z"/>
        <path class="cls-28" d="M376.85,801.48l-19.19-11.08c-1.47-.88-1.35-2.44,.44-3.47l19-10.97c.91-.51,1.93-.8,2.98-.84,1.05-.04,2.09,.16,3.04,.59l19.19,11.07c1.54,.9,1.34,2.43-.44,3.47l-19.01,10.98c-.91,.51-1.93,.79-2.97,.83-1.04,.04-2.08-.16-3.03-.59Z"/>
        <path class="cls-28" d="M406.46,818.57l-19.19-11.07c-1.47-.9-1.34-2.46,.44-3.48l19.07-10.97c.91-.51,1.93-.8,2.97-.84,1.04-.04,2.08,.16,3.03,.59l19.19,11.07c1.54,.9,1.35,2.45-.44,3.48l-19,10.97c-.92,.52-1.95,.81-3.01,.85-1.06,.04-2.11-.16-3.07-.61Z"/>
        <path class="cls-28" d="M436.14,835.67l-19.24-11.09c-1.47-.9-1.34-2.46,.44-3.48l19.01-10.97c.91-.51,1.93-.8,2.97-.84,1.04-.04,2.08,.16,3.03,.59l19.19,11.07c1.54,.9,1.35,2.45-.44,3.48l-19,10.97c-.9,.5-1.91,.79-2.95,.84-1.03,.05-2.07-.15-3.01-.56Z"/>
        <path class="cls-28" d="M465.71,852.79l-19.17-11.07c-1.54-.9-1.35-2.43,.43-3.47l19.01-10.97c.91-.52,1.93-.8,2.97-.85,1.04-.04,2.08,.16,3.03,.59l19.19,11.09c1.47,.88,1.35,2.43-.43,3.47l-19.01,10.9c-.91,.52-1.93,.82-2.97,.87-1.05,.06-2.09-.13-3.05-.56Z"/>
        <path class="cls-28" d="M495.35,869.89l-19.19-11.09c-1.54-.88-1.35-2.43,.43-3.46l19.01-10.98c.91-.51,1.93-.8,2.97-.84,1.04-.04,2.08,.16,3.03,.59l19.19,11.09c1.47,.88,1.35,2.43-.43,3.47l-19.01,10.98c-.91,.5-1.93,.79-2.97,.83s-2.08-.16-3.03-.59Z"/>
        <path class="cls-28" d="M524.97,886.99l-19.19-11.04c-1.54-.88-1.35-2.43,.43-3.47l19.01-10.98c.91-.5,1.93-.79,2.97-.83,1.04-.04,2.08,.16,3.03,.59l19.19,11.08c1.54,.88,1.35,2.44-.43,3.47l-19.01,10.98c-.92,.5-1.94,.78-2.98,.82-1.04,.04-2.08-.18-3.03-.61Z"/>
        <path class="cls-28" d="M554.59,904.09l-19.19-11.08c-1.54-.88-1.35-2.43,.43-3.47l19.01-10.97c.91-.51,1.93-.8,2.98-.84,1.05-.04,2.09,.16,3.04,.59l19.14,11.07c1.54,.9,1.35,2.43-.43,3.47l-19.08,10.98c-.9,.49-1.9,.77-2.92,.81-1.02,.05-2.04-.15-2.98-.56Z"/>
        <path class="cls-28" d="M584.22,921.21l-19.19-11.07c-1.54-.9-1.35-2.46,.43-3.48l19.08-10.97c.92-.51,1.93-.8,2.99-.84,1.04-.04,2.08,.16,3.03,.59l19.19,11.07c1.47,.9,1.33,2.45-.44,3.48l-19.08,10.97c-.91,.51-1.93,.8-2.97,.84-1.04,.04-2.08-.16-3.03-.59Z"/>
        <path class="cls-28" d="M613.83,938.3l-19.15-11.07c-1.54-.9-1.35-2.46,.44-3.48l19-10.97c.91-.51,1.93-.8,2.98-.84,1.04-.05,2.09,.16,3.04,.59l19.18,11.07c1.55,.9,1.34,2.45-.44,3.48l-19.08,10.97c-.9,.5-1.92,.78-2.95,.83-1.04,.04-2.07-.16-3.01-.58Z"/>
        <path class="cls-28" d="M643.47,955.4l-19.19-11.07c-1.47-.89-1.33-2.43,.44-3.46l19.01-10.98c.91-.52,1.93-.8,2.97-.85,1.04-.04,2.08,.16,3.03,.59l19.19,11.09c1.47,.88,1.35,2.43-.44,3.47l-18.99,11.04c-.92,.49-1.95,.77-2.99,.8-1.04,.03-2.08-.18-3.03-.63Z"/>
        <path class="cls-28" d="M420.5,793.38l-19.19-11.07c-1.47-.9-1.35-2.45,.43-3.48l19.01-10.96c.91-.52,1.93-.8,2.97-.85,1.04-.04,2.08,.16,3.03,.59l19.19,11.07c1.54,.89,1.35,2.45-.43,3.48l-19.01,10.96c-.91,.52-1.93,.8-2.97,.85-1.04,.04-2.08-.16-3.03-.59Z"/>
        <path class="cls-28" d="M390.43,776.02l-19.17-11.08c-1.54-.88-1.35-2.44,.43-3.47l18.97-10.98c.91-.51,1.93-.79,2.97-.84,1.04-.04,2.08,.16,3.03,.59l19.19,11.08c1.54,.88,1.35,2.43-.43,3.47l-18.89,10.98c-.92,.52-1.96,.81-3.02,.85-1.06,.04-2.11-.16-3.08-.61Z"/>
        <path class="cls-28" d="M360.31,758.63l-41.32-23.85c-1.54-.88-1.35-2.43,.44-3.47l19-10.95c.91-.5,1.93-.79,2.98-.83,1.04-.04,2.09,.16,3.04,.59l41.31,23.85c1.54,.9,1.35,2.45-.43,3.48l-19.01,10.97c-.91,.5-1.93,.79-2.98,.83-1.04,.04-2.08-.17-3.03-.61Z"/>
        <path class="cls-28" d="M381.36,737.48l-33.53-19.36c-1.47-.9-1.35-2.43,.43-3.47l19.01-10.98c.91-.51,1.93-.79,2.97-.83,1.04-.04,2.08,.16,3.03,.59l33.51,19.36c1.54,.88,1.35,2.44-.43,3.47l-19.08,10.98c-.9,.49-1.9,.77-2.93,.81-1.03,.05-2.05-.15-2.99-.56Z"/>
        <path class="cls-28" d="M450.13,810.48l-19.19-11.07c-1.54-.9-1.35-2.43,.43-3.47l19.01-10.99c.91-.52,1.93-.8,2.98-.85,1.05-.04,2.09,.16,3.04,.59l19.17,11.09c1.47,.88,1.35,2.43-.43,3.46l-19.01,10.97c-.91,.52-1.93,.8-2.97,.85-1.04,.04-2.08-.16-3.03-.59Z"/>
        <path class="cls-28" d="M479.75,827.6l-19.19-11.09c-1.54-.88-1.35-2.43,.43-3.47l19.01-10.97c.91-.51,1.94-.8,2.98-.84,1.05-.04,2.09,.16,3.04,.59l19.13,11.02c1.54,.88,1.35,2.44-.43,3.47l-19.01,10.98c-.9,.51-1.91,.8-2.94,.85-1.03,.06-2.07-.13-3.02-.54Z"/>
        <path class="cls-28" d="M509.37,844.69l-19.19-11.09c-1.54-.88-1.35-2.43,.44-3.47l19-10.98c.91-.5,1.94-.79,2.98-.83,1.04-.04,2.09,.16,3.04,.59l19.19,11.09c1.47,.88,1.34,2.43-.44,3.46l-18.97,10.98c-.92,.52-1.94,.8-2.99,.85-1.05,.04-2.1-.16-3.05-.59Z"/>
        <path class="cls-28" d="M539,861.79l-19.17-11.09c-1.54-.88-1.34-2.43,.44-3.47l19-10.92c.91-.51,1.93-.8,2.97-.84,1.04-.05,2.08,.16,3.03,.59l19.19,11.07c1.54,.9,1.34,2.43-.44,3.47l-19,10.98c-.92,.5-1.94,.78-2.98,.82-1.05,.04-2.08-.18-3.03-.61Z"/>
        <path class="cls-28" d="M568.6,878.89l-19.19-11.07c-1.47-.9-1.34-2.46,.44-3.48l19.01-10.97c.91-.51,1.93-.8,2.97-.84,1.04-.05,2.08,.16,3.03,.59l19.18,11.09c1.55,.9,1.35,2.45-.44,3.48l-19,10.97c-.91,.51-1.93,.79-2.98,.83s-2.09-.16-3.04-.6Z"/>
        <path class="cls-28" d="M598.24,896.01l-19.18-11.07c-1.54-.9-1.35-2.45,.43-3.48l19.08-10.96c.91-.52,1.93-.8,2.97-.85,1.04-.04,2.08,.16,3.03,.59l19.19,11.07c1.47,.89,1.35,2.45-.42,3.48l-19.08,10.96c-.92,.52-1.93,.8-2.99,.85-1.04,.04-2.08-.16-3.03-.59Z"/>
        <path class="cls-28" d="M627.88,913.11l-19.18-11.07c-1.55-.9-1.36-2.43,.42-3.47l19.01-10.98c.92-.51,1.93-.8,2.98-.84,1.04-.04,2.08,.16,3.03,.59l19.19,11.09c1.47,.88,1.35,2.43-.43,3.46l-19.01,10.97c-.91,.51-1.93,.8-2.97,.84-1.04,.05-2.08-.16-3.03-.59Z"/>
        <path class="cls-28" d="M657.49,930.26l-19.18-11.09c-1.55-.88-1.36-2.43,.42-3.47l19.08-10.98c.91-.5,1.93-.79,2.97-.83,1.04-.04,2.08,.16,3.03,.59l19.11,11.1c1.47,.88,1.35,2.43-.42,3.46l-19.08,10.98c-.9,.49-1.91,.77-2.94,.81-1.02,.04-2.05-.16-2.99-.57Z"/>
        <path class="cls-28" d="M687.17,947.33l-19.18-11.09c-1.47-.88-1.36-2.43,.42-3.47l19.01-10.98c.91-.5,1.93-.79,2.98-.83,1.04-.04,2.08,.16,3.03,.59l19.18,11.08c1.54,.88,1.35,2.44-.43,3.47l-19.08,10.98c-.9,.49-1.91,.78-2.94,.82-1.02,.04-2.05-.15-2.99-.56Z"/>
        <path class="cls-28" d="M739.8,977.72l-41.86-24.16c-1.55-.9-1.35-2.44,.44-3.47l19-11.01c.91-.51,1.93-.8,2.98-.84s2.08,.16,3.04,.59l41.85,24.16c1.54,.9,1.35,2.45-.43,3.48l-19.01,10.97c-.91,.52-1.93,.8-2.97,.85-1.04,.05-2.08-.15-3.03-.58Z"/>
        <path class="cls-28" d="M797.46,944.44l-35.33-20.4c-1.55-.88-1.36-2.44,.42-3.47l19.01-10.98c.91-.51,1.93-.79,2.98-.84,1.04-.04,2.08,.16,3.03,.59l35.32,20.4c1.47,.88,1.35,2.43-.42,3.47l-19.01,10.98c-.91,.5-1.93,.79-2.97,.83-1.04,.04-2.08-.16-3.03-.59Z"/>
        <path class="cls-28" d="M502.01,807.13l-19.19-11.07c-1.54-.9-1.35-2.44,.43-3.47l18.97-10.98c.91-.51,1.93-.8,2.98-.84,1.05-.05,2.09,.16,3.04,.59l19.19,11.08c1.47,.88,1.34,2.43-.44,3.47l-18.89,11.05c-.93,.51-1.96,.78-3.02,.81-1.06,.03-2.1-.2-3.06-.65Z"/>
        <path class="cls-28" d="M471.64,789.6l-19.19-11.07c-1.54-.9-1.35-2.45,.43-3.48l19.08-10.97c.91-.51,1.93-.8,2.97-.84,1.04-.04,2.08,.16,3.03,.59l19.19,11.07c1.54,.9,1.35,2.46-.43,3.48l-19.08,10.97c-.91,.51-1.93,.8-2.97,.84-1.04,.05-2.08-.16-3.03-.59Z"/>
        <path class="cls-28" d="M441.27,772.06l-19.19-11.07c-1.47-.9-1.34-2.46,.44-3.48l19.01-10.97c.91-.51,1.93-.8,2.97-.84,1.04-.04,2.08,.16,3.03,.59l19.19,11.07c1.54,.9,1.35,2.45-.44,3.48l-19,10.97c-.91,.51-1.93,.8-2.98,.84-1.05,.04-2.09-.16-3.04-.59Z"/>
        <path class="cls-28" d="M410.92,754.53l-19.19-11.07c-1.54-.89-1.35-2.45,.43-3.47l19.08-10.97c.91-.52,1.93-.8,2.98-.84,1.05-.05,2.09,.16,3.04,.59l19.19,11.07c1.47,.9,1.34,2.43-.44,3.47l-19.08,10.97c-.91,.52-1.93,.8-2.97,.85-1.04,.04-2.08-.16-3.03-.59Z"/>
        <path class="cls-28" d="M531.57,824.23l-19.08-11.08c-1.54-.88-1.35-2.44,.44-3.47l19-10.98c.91-.51,1.94-.79,2.98-.83,1.05-.05,2.09,.16,3.04,.59l19.19,11.08c1.54,.88,1.34,2.43-.44,3.47l-19.01,10.98c-.93,.52-1.96,.82-3.02,.86-1.06,.04-2.12-.17-3.08-.61Z"/>
        <path class="cls-28" d="M561.24,841.34l-19.19-11.08c-1.47-.88-1.34-2.43,.44-3.47l19.01-11.02c.91-.51,1.93-.79,2.97-.84,1.04-.04,2.08,.16,3.03,.59l19.18,11.08c1.55,.9,1.35,2.43-.44,3.47l-19,10.98c-.91,.52-1.93,.8-2.97,.85-1.05,.06-2.09-.14-3.04-.56Z"/>
        <path class="cls-28" d="M590.87,858.43l-19.18-11.08c-1.47-.88-1.35-2.43,.42-3.47l19.01-10.97c.91-.51,1.93-.8,2.97-.84s2.08,.16,3.03,.59l19.18,11.07c1.47,.9,1.36,2.44-.42,3.47l-19.08,10.98c-.9,.5-1.91,.78-2.94,.83-1.03,.04-2.06-.16-3-.58Z"/>
        <path class="cls-28" d="M620.49,875.55l-19.18-11.07c-1.47-.9-1.35-2.45,.43-3.48l19.01-10.97c.91-.51,1.93-.8,2.97-.84,1.04-.04,2.08,.16,3.03,.59l19.18,11.07c1.55,.9,1.36,2.46-.42,3.48l-19.08,10.97c-.9,.49-1.91,.78-2.94,.83-1.03,.04-2.06-.16-3-.58Z"/>
        <path class="cls-28" d="M650.13,892.65l-19.18-11.07c-1.55-.9-1.36-2.46,.42-3.48l19.08-10.97c.91-.51,1.93-.8,2.97-.84,1.04-.04,2.08,.16,3.03,.59l19.18,11.07c1.47,.9,1.36,2.45-.42,3.48l-19.01,10.97c-.92,.52-1.95,.81-3.01,.86-1.06,.04-2.11-.17-3.07-.61Z"/>
        <path class="cls-28" d="M679.82,909.73l-19.18-11.07c-1.47-.9-1.36-2.43,.42-3.47l19.08-10.98c.92-.51,1.93-.79,2.98-.83,1.04-.04,2.09,.16,3.04,.59l19.02,11.08c1.55,.88,1.36,2.44-.42,3.47l-19.08,10.98c-.9,.48-1.88,.76-2.9,.79-1.02,.04-2.03-.15-2.96-.56Z"/>
        <path class="cls-28" d="M709.38,926.87l-19.19-11.08c-1.47-.88-1.35-2.44,.42-3.47l19.01-10.98c.92-.51,1.93-.79,2.98-.84,1.04-.04,2.09,.16,3.04,.59l19.17,11.08c1.47,.88,1.35,2.43-.42,3.47l-19.01,10.98c-.91,.51-1.93,.79-2.97,.83-1.04,.04-2.08-.16-3.03-.59Z"/>
        <path class="cls-28" d="M739.01,943.96l-19.19-11.08c-1.47-.88-1.35-2.44,.44-3.47l18.99-10.98c.92-.51,1.93-.8,2.98-.84,1.04-.04,2.09,.16,3.04,.59l19.18,11.08c1.55,.9,1.34,2.43-.44,3.47l-19.08,10.98c-.9,.49-1.91,.77-2.94,.82-1.03,.04-2.05-.16-2.99-.57Z"/>
        <path class="cls-28" d="M768.62,961.1l-19.18-11.07c-1.47-.9-1.34-2.45,.44-3.48l19.01-10.97c.91-.51,1.93-.8,2.97-.84,1.04-.04,2.08,.16,3.03,.59l19.19,11.08c1.47,.9,1.35,2.44-.44,3.47l-19.01,10.98c-.91,.51-1.93,.8-2.97,.83-1.04,.04-2.08-.16-3.03-.6Z"/>
        <path class="cls-28" d="M486.4,764.82l-19.19-11.08c-1.54-.9-1.34-2.44,.44-3.47l19.08-10.98c.91-.51,1.93-.79,2.97-.83,1.04-.05,2.08,.16,3.03,.59l19.19,11.08c1.54,.88,1.35,2.43-.44,3.47l-19,10.98c-.93,.52-1.96,.8-3.02,.85-1.06,.04-2.11-.16-3.08-.6Z"/>
        <path class="cls-28" d="M456.93,747.81l-19.19-11.07c-1.54-.9-1.34-2.45,.44-3.48l19.01-10.96c.91-.52,1.93-.8,2.97-.85,1.04-.04,2.08,.16,3.03,.59l19.19,11.07c1.54,.89,1.35,2.45-.44,3.48l-19,10.96c-.91,.52-1.93,.8-2.98,.85-1.05,.04-2.09-.16-3.04-.59Z"/>
        <path class="cls-28" d="M427.43,730.81l-19.19-11.09c-1.54-.88-1.35-2.43,.44-3.46l19-10.98c.91-.51,1.94-.8,2.98-.84,1.05-.04,2.09,.16,3.04,.59l19.19,11.09c1.47,.88,1.34,2.43-.44,3.47l-19.01,10.98c-.91,.5-1.93,.79-2.97,.83-1.04,.04-2.08-.16-3.03-.59Z"/>
        <path class="cls-28" d="M397.98,713.77l-19.2-11.02c-1.54-.9-1.35-2.45,.44-3.47l19-10.98c.91-.51,1.93-.8,2.98-.84,1.05-.04,2.09,.16,3.04,.59l19.19,11.07c1.54,.9,1.34,2.46-.44,3.48l-19.01,10.97c-.91,.5-1.93,.78-2.97,.82-1.04,.04-2.07-.18-3.02-.61Z"/>
        <path class="cls-28" d="M428.28,696.27l-19.19-11.07c-1.54-.9-1.35-2.45,.43-3.48l6.3-3.63c.91-.51,1.93-.79,2.97-.83,1.04-.04,2.08,.16,3.03,.59l19.19,11.08c1.54,.88,1.34,2.43-.44,3.47l-6.28,3.63c-.91,.51-1.93,.8-2.97,.84-1.04,.04-2.08-.16-3.03-.59Z"/>
        <path class="cls-28" d="M466.75,718.49l-19.17-11.07c-1.47-.9-1.35-2.45,.43-3.48l6.28-3.62c.91-.51,1.93-.8,2.97-.84,1.04-.04,2.08,.16,3.03,.59l19.19,11.09c1.54,.88,1.35,2.43-.43,3.47l-6.28,3.62c-.91,.52-1.93,.8-2.98,.85-1.05,.04-2.09-.16-3.04-.59Z"/>
        <path class="cls-28" d="M496.1,735.42l-19.19-11.09c-1.47-.88-1.34-2.43,.44-3.46l6.28-3.63c.91-.51,1.93-.8,2.97-.84,1.04-.05,2.08,.16,3.03,.59l19.19,11.07c1.54,.9,1.35,2.45-.43,3.48l-6.28,3.62c-.91,.51-1.94,.8-2.98,.84-1.05,.04-2.09-.16-3.04-.59Z"/>
        <path class="cls-28" d="M525.47,752.37l-19.19-11.07c-1.47-.9-1.35-2.45,.43-3.48l6.3-3.63c.91-.5,1.93-.79,2.97-.83,1.04-.04,2.08,.16,3.03,.59l19.19,11.08c1.54,.88,1.34,2.44-.44,3.47l-6.28,3.63c-.91,.51-1.93,.8-2.97,.84-1.04,.04-2.08-.16-3.03-.59Z"/>
        <path class="cls-28" d="M554.81,769.33l-19.19-11.08c-1.47-.88-1.35-2.43,.43-3.47l6.28-3.63c.91-.51,1.93-.8,2.98-.84,1.05-.04,2.09,.16,3.04,.59l19.17,11.07c1.54,.9,1.35,2.46-.43,3.48l-6.28,3.63c-.91,.51-1.93,.79-2.97,.84-1.04,.04-2.08-.16-3.03-.59Z"/>
        <path class="cls-28" d="M718.69,863.93l-19.19-11.07c-1.47-.9-1.35-2.43,.43-3.47l6.28-3.64c.92-.5,1.93-.78,2.98-.83,1.04-.04,2.09,.16,3.04,.59l19.18,11.08c1.55,.9,1.34,2.44-.44,3.47l-6.28,3.63c-.91,.51-1.93,.8-2.97,.84-1.04,.04-2.08-.16-3.03-.59Z"/>
        <path class="cls-28" d="M748.05,880.9l-19.18-11.09c-1.47-.88-1.36-2.43,.42-3.46l6.31-3.6c.91-.51,1.93-.8,2.97-.84,1.04-.04,2.08,.16,3.03,.59l19.19,11.08c1.54,.88,1.35,2.43-.43,3.47l-6.28,3.63c-.92,.51-1.94,.79-2.99,.83-1.04,.04-2.09-.18-3.04-.61Z"/>
        <path class="cls-28" d="M777.4,897.85l-19.18-11.08c-1.47-.9-1.33-2.43,.44-3.47l6.28-3.63c.92-.51,1.93-.8,2.98-.84,1.04-.04,2.08,.16,3.03,.59l19.19,11.07c1.54,.9,1.35,2.44-.43,3.47l-6.28,3.64c-.91,.51-1.93,.79-2.98,.84-1.04,.04-2.09-.16-3.04-.59Z"/>
        <path class="cls-28" d="M806.75,914.8l-19.18-11.07c-1.47-.9-1.35-2.46,.44-3.48l6.28-3.63c.92-.51,1.93-.79,2.98-.83,1.04-.05,2.07,.16,3.03,.59l19.19,11.08c1.54,.88,1.35,2.43-.44,3.47l-6.28,3.63c-.91,.51-1.93,.8-2.97,.84-1.04,.04-2.08-.16-3.03-.59Z"/>
        <path class="cls-28" d="M516.01,782l-19.17-11.09c-1.54-.88-1.35-2.43,.43-3.47l19.01-10.97c.91-.51,1.93-.8,2.97-.84,1.04-.04,2.08,.16,3.03,.59l19.19,11.09c1.54,.88,1.35,2.43-.43,3.47l-19.01,10.97c-.91,.51-1.94,.8-2.98,.84-1.05,.04-2.09-.16-3.04-.59Z"/>
        <path class="cls-28" d="M545.65,799.04l-19.19-11.09c-1.47-.88-1.35-2.43,.43-3.46l19.01-10.98c.91-.51,1.93-.8,2.97-.84,1.04-.04,2.08,.16,3.03,.59l19.19,11.09c1.54,.9,1.35,2.43-.42,3.47l-19.01,10.97c-.91,.51-1.93,.8-2.97,.84-1.04,.04-2.08-.16-3.03-.59Z"/>
        <path class="cls-28" d="M575.28,816.14l-19.19-11.07c-1.47-.9-1.35-2.45,.43-3.48l19.08-10.97c.91-.51,1.93-.8,2.98-.84,1.04-.04,2.08,.16,3.03,.59l19.19,11.07c1.54,.9,1.35,2.46-.43,3.47l-19.01,10.98c-.92,.52-1.95,.82-3.01,.86-1.05,.04-2.1-.17-3.06-.61Z"/>
        <path class="cls-28" d="M604.96,833.24l-19.19-11.07c-1.54-.9-1.35-2.46,.43-3.48l19.01-10.97c.92-.51,1.93-.8,2.99-.84,1.04-.04,2.08,.16,3.03,.59l19.18,11.07c1.54,.9,1.35,2.45-.43,3.48l-19.01,10.97c-.91,.51-1.93,.8-2.97,.84-1.04,.04-2.08-.16-3.03-.59Z"/>
        <path class="cls-28" d="M634.52,850.35l-19.18-11.08c-1.54-.9-1.35-2.46,.42-3.48l19.01-10.97c.91-.51,1.93-.8,2.98-.84,1.04-.04,2.09,.16,3.04,.59l19.18,11.07c1.47,.9,1.33,2.45-.44,3.48l-19.01,10.97c-.91,.51-1.93,.8-2.97,.85-1.04,.04-2.08-.16-3.03-.59Z"/>
        <path class="cls-28" d="M664.14,867.46l-19.18-11.08c-1.47-.9-1.36-2.44,.44-3.47l19-10.98c.91-.51,1.93-.79,2.98-.83,1.04-.05,2.08,.16,3.03,.59l19.19,11.08c1.54,.88,1.33,2.43-.44,3.47l-19.08,10.98c-.9,.49-1.91,.78-2.94,.82-1.03,.04-2.05-.16-3-.57Z"/>
        <path class="cls-28" d="M693.78,884.55l-19.19-11.08c-1.47-.88-1.33-2.44,.44-3.47l19.01-10.98c.91-.51,1.93-.79,2.97-.84,1.04-.04,2.08,.16,3.03,.59l19.18,11.08c1.47,.88,1.35,2.43-.44,3.47l-18.99,10.98c-.92,.5-1.94,.79-2.99,.83-1.04,.04-2.08-.16-3.03-.59Z"/>
        <path class="cls-28" d="M723.4,901.66l-19.19-11.02c-1.47-.88-1.33-2.43,.44-3.47l19.08-10.98c.91-.5,1.93-.78,2.97-.83,1.04-.04,2.08,.16,3.03,.59l19.08,11.01c1.54,.9,1.35,2.43-.43,3.47l-19.08,10.98c-.9,.49-1.9,.77-2.93,.81-1.02,.04-2.05-.15-2.99-.56Z"/>
        <path class="cls-28" d="M753.03,918.75l-19.17-11.07c-1.47-.9-1.36-2.45,.42-3.48l18.95-10.97c.91-.51,1.93-.8,2.97-.84,1.04-.04,2.08,.16,3.03,.59l19.18,11.07c1.47,.9,1.36,2.46-.42,3.47l-18.89,11c-.92,.52-1.95,.81-3.01,.85-1.06,.04-2.11-.17-3.07-.61Z"/>
        <path class="cls-28" d="M346.61,784.05l-56.49-32.63c-1.54-.88-1.35-2.43,.43-3.47l19.08-10.96c.91-.52,1.93-.8,2.97-.85,1.04-.04,2.08,.16,3.03,.59l56.5,32.62c1.54,.88,1.35,2.43-.43,3.47l-19.01,10.98c-.92,.52-1.96,.81-3.02,.85-1.06,.04-2.11-.16-3.08-.61Z"/>
        <path class="cls-28" d="M710.66,994.18l-56.5-32.62c-1.54-.9-1.35-2.46,.42-3.47l19.08-10.98c.91-.51,1.93-.8,2.97-.84,1.04-.04,2.08,.16,3.03,.59l56.5,32.62c1.54,.89,1.35,2.43-.42,3.46l-19.08,10.98c-.92,.51-1.93,.8-2.98,.84-1.04,.04-2.07-.16-3.03-.59Z"/>
        <path class="cls-28" d="M592.13,963.56l-19.19-11.09c-1.54-.88-1.35-2.43,.42-3.47l22.65-13.06c.91-.51,1.93-.8,2.97-.84,1.04-.04,2.08,.16,3.03,.59l19.18,11.07c1.47,.9,1.35,2.43-.42,3.47l-22.65,13.08c-.91,.51-1.93,.8-2.97,.84-1.04,.05-2.08-.16-3.03-.59Z"/>
        <path class="cls-28" d="M376.98,839.34l-30.68-17.69c-1.54-.9-1.35-2.45,.44-3.48l22.64-13.06c.91-.51,1.93-.8,2.97-.84,1.04-.04,2.08,.16,3.03,.59l30.68,17.71c1.54,.88,1.35,2.43-.43,3.47l-22.65,13.08c-.91,.5-1.93,.78-2.98,.83-1.04,.04-2.08-.17-3.03-.6Z"/>
        <path class="cls-28" d="M563.57,947.06l-30.68-17.7c-1.54-.9-1.34-2.45,.44-3.48l22.64-13.06c.91-.52,1.93-.8,2.98-.85,1.05-.04,2.09,.16,3.04,.59l30.68,17.71c1.55,.9,1.33,2.45-.44,3.48l-22.64,13.06c-.91,.51-1.93,.8-2.98,.84-1.05,.04-2.09-.16-3.04-.59Z"/>
        <path class="cls-28" d="M419.73,864.02l-30.68-17.72c-1.54-.9-1.35-2.43,.43-3.47l22.65-13.08c.91-.51,1.93-.8,2.97-.84,1.04-.04,2.08,.16,3.03,.59l30.68,17.71c1.54,.88,1.35,2.44-.43,3.47l-22.65,13.08c-.91,.5-1.93,.79-2.97,.83-1.04,.04-2.08-.16-3.03-.59Z"/>
        <path class="cls-28" d="M418.34,829.62l133.39,77c.36,.13,.67,.36,.89,.67,.22,.31,.34,.68,.34,1.07s-.12,.75-.34,1.06c-.22,.31-.53,.54-.89,.67l-23.11,13.33c-.93,.47-1.95,.71-2.99,.71s-2.07-.24-2.99-.71l-133.39-77.01,29.09-16.79Z"/>
        <path class="cls-28" d="M674.93,994.56l21.37,12.34c1.26,.73,1.1,2-.35,2.84l-9.27,5.34c-.75,.42-1.59,.66-2.44,.69-.85,.04-1.71-.13-2.49-.49l-21.36-12.34c-1.26-.72-1.12-2,.35-2.83l9.26-5.36c.75-.42,1.58-.65,2.43-.68,.85-.04,1.71,.13,2.48,.49Z"/>
        <path class="cls-28" d="M645.05,977.32l21.37,12.33c1.26,.73,1.1,2.01-.35,2.85l-9.26,5.29c-.75,.42-1.59,.66-2.44,.7-.86,.04-1.71-.13-2.49-.49l-21.36-12.34c-1.26-.73-1.12-2.01,.35-2.84l9.27-5.34c.75-.42,1.58-.64,2.43-.67,.86-.03,1.71,.14,2.48,.51Z"/>
        <path class="cls-28" d="M615.43,960.21l21.38,12.33c1.26,.73,1.1,2-.35,2.85l-9.27,5.34c-.75,.42-1.58,.66-2.44,.69-.85,.04-1.71-.13-2.49-.49l-21.36-12.34c-1.26-.72-1.12-2,.35-2.83l9.26-5.36c.75-.41,1.59-.64,2.44-.68,.85-.04,1.7,.13,2.48,.49Z"/>
        <path class="cls-28" d="M661.41,967.88l21.35,12.32c1.26,.72,1.12,2-.35,2.84l-9.27,5.36c-.75,.41-1.58,.64-2.43,.68-.85,.04-1.7-.13-2.48-.48l-21.38-12.34c-1.26-.72-1.1-2,.35-2.84l9.27-5.36c.75-.41,1.59-.64,2.45-.67,.86-.04,1.71,.13,2.49,.49Z"/>
      </g>
      <path class="cls-3" d="M276.63,781.39l-19.19-11.12c-1.54-.88-1.35-2.44,.43-3.47l22.68-13.04c.91-.51,1.93-.8,2.97-.84,1.04-.04,2.08,.16,3.03,.59l19.19,11.09c1.54,.9,1.35,2.43-.44,3.47l-22.64,13.08c-.92,.51-1.94,.8-2.99,.85-1.05,.04-2.09-.16-3.05-.6Z"/>
      <path class="cls-3" d="M306.25,798.51l-19.19-11.09c-1.54-.88-1.35-2.43,.43-3.46l22.65-13.07c.91-.51,1.93-.8,2.97-.84,1.04-.04,2.08,.16,3.03,.59l19.19,11.07c1.54,.9,1.35,2.46-.43,3.47l-22.65,13.08c-.91,.52-1.93,.8-2.97,.85-1.04,.04-2.08-.16-3.03-.59Z"/>
      <path class="cls-3" d="M335.87,815.6l-19.19-11.07c-1.54-.89-1.35-2.45,.43-3.48l22.65-13.06c.91-.51,1.93-.8,2.97-.84,1.04-.04,2.08,.16,3.03,.59l19.19,11.07c1.54,.9,1.35,2.46-.43,3.48l-22.65,13.06c-.91,.52-1.93,.8-2.97,.85-1.04,.04-2.08-.16-3.03-.59Z"/>
      <path class="cls-3" d="M376.85,801.48l-19.19-11.08c-1.47-.88-1.35-2.44,.44-3.47l19-10.97c.91-.51,1.93-.8,2.98-.84,1.05-.04,2.09,.16,3.04,.59l19.19,11.07c1.54,.9,1.34,2.43-.44,3.47l-19.01,10.98c-.91,.5-1.93,.79-2.97,.83-1.04,.04-2.08-.16-3.03-.59Z"/>
      <path class="cls-3" d="M406.46,818.57l-19.19-11.07c-1.47-.9-1.34-2.46,.44-3.48l19.07-10.97c.91-.51,1.93-.8,2.97-.84,1.04-.04,2.08,.16,3.03,.59l19.19,11.07c1.54,.9,1.35,2.45-.44,3.48l-19,10.97c-.92,.52-1.95,.81-3.01,.85-1.06,.04-2.11-.16-3.07-.61Z"/>
      <path class="cls-3" d="M436.14,835.69l-19.24-11.09c-1.47-.9-1.34-2.46,.44-3.48l19.01-10.97c.91-.51,1.93-.8,2.97-.84,1.04-.05,2.08,.16,3.03,.59l19.19,11.07c1.54,.9,1.35,2.45-.44,3.48l-19,10.97c-.9,.5-1.91,.79-2.95,.84-1.03,.05-2.07-.15-3.01-.56Z"/>
      <path class="cls-3" d="M465.71,852.79l-19.17-11.07c-1.54-.9-1.35-2.43,.43-3.47l19.01-10.97c.91-.52,1.93-.8,2.97-.85,1.04-.04,2.08,.16,3.03,.59l19.19,11.09c1.47,.88,1.35,2.43-.43,3.47l-19.01,10.9c-.91,.52-1.93,.82-2.97,.87-1.05,.06-2.09-.13-3.05-.56Z"/>
      <path class="cls-3" d="M495.35,869.92l-19.19-11.09c-1.54-.88-1.35-2.43,.43-3.46l19.01-10.98c.91-.51,1.93-.8,2.97-.84,1.04-.04,2.08,.16,3.03,.59l19.19,11.09c1.47,.88,1.35,2.43-.43,3.47l-19.01,10.97c-.91,.51-1.93,.8-2.97,.84s-2.08-.16-3.03-.59Z"/>
      <path class="cls-3" d="M524.97,886.99l-19.19-11.04c-1.54-.88-1.35-2.43,.43-3.47l19.01-10.98c.91-.5,1.93-.79,2.97-.83,1.04-.04,2.08,.16,3.03,.59l19.19,11.08c1.54,.88,1.35,2.44-.43,3.47l-19.01,10.98c-.92,.5-1.94,.78-2.98,.82-1.04,.04-2.08-.18-3.03-.61Z"/>
      <path class="cls-3" d="M554.59,904.12l-19.19-11.08c-1.54-.88-1.35-2.44,.43-3.47l19.01-10.97c.91-.51,1.93-.8,2.98-.84,1.05-.04,2.09,.16,3.04,.59l19.14,11.07c1.54,.9,1.35,2.43-.43,3.47l-19.08,10.98c-.9,.49-1.9,.77-2.92,.81-1.02,.05-2.04-.15-2.98-.56Z"/>
      <path class="cls-3" d="M584.22,921.21l-19.19-11.07c-1.54-.9-1.35-2.46,.43-3.48l19.08-10.97c.92-.51,1.93-.8,2.99-.84,1.04-.04,2.08,.16,3.03,.59l19.19,11.07c1.47,.9,1.33,2.45-.44,3.48l-19.08,10.97c-.91,.51-1.93,.8-2.97,.84-1.04,.04-2.08-.16-3.03-.59Z"/>
      <path class="cls-3" d="M613.85,938.3l-19.15-11.07c-1.54-.9-1.35-2.46,.44-3.48l19-10.97c.91-.51,1.93-.8,2.98-.84,1.04-.05,2.09,.16,3.04,.59l19.18,11.07c1.55,.9,1.34,2.45-.44,3.48l-19.08,10.97c-.9,.5-1.92,.78-2.95,.83-1.04,.04-2.07-.16-3.01-.58Z"/>
      <path class="cls-3" d="M643.47,955.42l-19.19-11.07c-1.47-.9-1.33-2.43,.44-3.47l19.01-10.97c.91-.52,1.93-.8,2.97-.85,1.04-.04,2.08,.16,3.03,.59l19.19,11.09c1.47,.88,1.35,2.43-.44,3.47l-18.99,11.04c-.92,.49-1.95,.77-2.99,.8-1.04,.03-2.08-.18-3.03-.63Z"/>
      <path class="cls-3" d="M420.5,793.38l-19.19-11.07c-1.47-.9-1.35-2.45,.43-3.48l19.01-10.96c.91-.52,1.93-.8,2.97-.85,1.04-.04,2.08,.16,3.03,.59l19.19,11.07c1.54,.89,1.35,2.45-.43,3.48l-19.01,10.96c-.91,.52-1.93,.8-2.97,.85-1.04,.04-2.08-.16-3.03-.59Z"/>
      <path class="cls-3" d="M390.43,776.02l-19.17-11.08c-1.54-.88-1.35-2.44,.43-3.47l18.97-10.98c.91-.51,1.93-.79,2.97-.84,1.04-.04,2.08,.16,3.03,.59l19.19,11.08c1.54,.88,1.35,2.43-.43,3.47l-18.89,10.98c-.92,.52-1.96,.81-3.02,.85-1.06,.04-2.11-.16-3.08-.61Z"/>
      <path class="cls-3" d="M360.31,758.63l-41.32-23.85c-1.54-.88-1.35-2.43,.44-3.47l19-10.95c.91-.5,1.93-.79,2.98-.83,1.04-.04,2.09,.16,3.04,.59l41.31,23.85c1.54,.9,1.35,2.45-.43,3.48l-19.01,10.97c-.91,.5-1.93,.79-2.98,.83-1.04,.04-2.08-.17-3.03-.61Z"/>
      <path class="cls-3" d="M381.36,737.48l-33.53-19.36c-1.47-.9-1.35-2.43,.43-3.47l19.01-10.98c.91-.51,1.93-.79,2.97-.83,1.04-.04,2.08,.16,3.03,.59l33.51,19.36c1.54,.88,1.35,2.44-.43,3.47l-19.08,10.98c-.9,.49-1.9,.77-2.93,.81-1.03,.05-2.05-.15-2.99-.56Z"/>
      <path class="cls-3" d="M450.13,810.48l-19.19-11.07c-1.54-.9-1.35-2.43,.43-3.47l19.01-10.99c.91-.52,1.93-.8,2.98-.85,1.05-.04,2.09,.16,3.04,.59l19.17,11.09c1.47,.88,1.35,2.43-.43,3.46l-19.01,10.97c-.91,.52-1.93,.8-2.97,.85-1.04,.04-2.08-.16-3.03-.59Z"/>
      <path class="cls-3" d="M479.75,827.6l-19.19-11.09c-1.54-.88-1.35-2.43,.43-3.47l19.01-10.97c.91-.51,1.94-.8,2.98-.84,1.05-.04,2.09,.16,3.04,.59l19.13,11.02c1.54,.88,1.35,2.44-.43,3.47l-19.01,10.98c-.9,.51-1.91,.8-2.94,.85-1.03,.06-2.07-.13-3.02-.54Z"/>
      <path class="cls-3" d="M509.37,844.69l-19.19-11.09c-1.54-.88-1.35-2.43,.44-3.47l19-10.98c.91-.5,1.94-.79,2.98-.83,1.04-.04,2.09,.16,3.04,.59l19.19,11.09c1.47,.88,1.34,2.43-.44,3.46l-18.97,10.98c-.92,.52-1.94,.8-2.99,.85-1.05,.04-2.1-.16-3.05-.59Z"/>
      <path class="cls-3" d="M539,861.81l-19.17-11.09c-1.54-.88-1.34-2.43,.44-3.47l19-10.92c.91-.51,1.93-.8,2.97-.84,1.04-.05,2.08,.16,3.03,.59l19.19,11.07c1.54,.9,1.34,2.43-.44,3.47l-19,10.97c-.92,.51-1.94,.79-2.98,.83-1.05,.04-2.08-.18-3.03-.61Z"/>
      <path class="cls-3" d="M568.62,878.89l-19.19-11.07c-1.47-.9-1.34-2.46,.44-3.48l19.01-10.97c.91-.51,1.93-.8,2.97-.84,1.04-.05,2.08,.16,3.03,.59l19.18,11.09c1.54,.9,1.35,2.45-.44,3.48l-19,10.97c-.91,.51-1.93,.79-2.98,.83s-2.09-.16-3.04-.6Z"/>
      <path class="cls-3" d="M598.24,896.01l-19.18-11.07c-1.54-.9-1.35-2.45,.43-3.48l19.08-10.96c.91-.52,1.93-.8,2.97-.85,1.04-.04,2.08,.16,3.03,.59l19.19,11.07c1.47,.89,1.35,2.45-.42,3.48l-19.08,10.96c-.92,.52-1.93,.8-2.99,.85-1.04,.04-2.08-.16-3.03-.59Z"/>
      <path class="cls-3" d="M627.87,913.11l-19.18-11.07c-1.55-.9-1.36-2.43,.42-3.47l19.01-10.98c.92-.51,1.93-.8,2.98-.84,1.04-.04,2.08,.16,3.03,.59l19.19,11.09c1.47,.88,1.35,2.43-.43,3.46l-19.01,10.97c-.91,.51-1.93,.8-2.97,.84-1.04,.05-2.08-.16-3.03-.59Z"/>
      <path class="cls-3" d="M657.49,930.28l-19.18-11.08c-1.55-.88-1.36-2.43,.42-3.47l19.08-10.98c.91-.5,1.93-.79,2.97-.83,1.04-.04,2.08,.16,3.03,.59l19.11,11.09c1.47,.88,1.35,2.44-.42,3.47l-19.08,10.98c-.9,.49-1.91,.77-2.94,.81-1.02,.04-2.05-.16-2.99-.58Z"/>
      <path class="cls-3" d="M687.17,947.33l-19.18-11.09c-1.47-.88-1.36-2.43,.42-3.47l19.01-10.98c.91-.5,1.93-.79,2.98-.83,1.04-.04,2.08,.16,3.03,.59l19.18,11.08c1.54,.88,1.35,2.44-.43,3.47l-19.08,10.98c-.9,.49-1.91,.78-2.94,.82-1.02,.04-2.05-.15-2.99-.56Z"/>
      <path class="cls-3" d="M739.79,977.72l-41.86-24.16c-1.54-.9-1.35-2.44,.44-3.47l19-11.01c.91-.51,1.93-.8,2.98-.84s2.09,.16,3.04,.59l41.85,24.16c1.54,.9,1.35,2.45-.43,3.48l-19.01,10.97c-.91,.52-1.93,.8-2.97,.85-1.04,.05-2.08-.15-3.03-.58Z"/>
      <path class="cls-3" d="M797.46,944.44l-35.33-20.4c-1.55-.88-1.36-2.44,.42-3.47l19.01-10.98c.91-.51,1.93-.79,2.98-.84,1.04-.04,2.08,.16,3.03,.59l35.32,20.4c1.47,.88,1.35,2.43-.42,3.47l-19.01,10.98c-.91,.5-1.93,.79-2.97,.83-1.04,.04-2.08-.16-3.03-.59Z"/>
      <path class="cls-3" d="M502.01,807.13l-19.19-11.07c-1.54-.9-1.35-2.44,.43-3.47l18.97-10.98c.91-.51,1.93-.8,2.98-.84,1.05-.05,2.09,.16,3.04,.59l19.19,11.08c1.47,.88,1.34,2.43-.44,3.47l-18.89,11.05c-.93,.51-1.96,.78-3.02,.81-1.06,.03-2.1-.2-3.06-.65Z"/>
      <path class="cls-3" d="M471.64,789.6l-19.19-11.07c-1.54-.9-1.35-2.45,.43-3.48l19.08-10.97c.91-.51,1.93-.8,2.97-.84,1.04-.04,2.08,.16,3.03,.59l19.19,11.07c1.54,.9,1.35,2.46-.43,3.48l-19.08,10.97c-.91,.51-1.93,.8-2.97,.84-1.04,.05-2.08-.16-3.03-.59Z"/>
      <path class="cls-3" d="M441.27,772.06l-19.19-11.07c-1.47-.9-1.34-2.46,.44-3.48l19.01-10.97c.91-.51,1.93-.8,2.97-.84,1.04-.04,2.08,.16,3.03,.59l19.19,11.07c1.54,.9,1.35,2.45-.44,3.48l-19,10.97c-.91,.51-1.93,.8-2.98,.84-1.05,.04-2.09-.16-3.04-.59Z"/>
      <path class="cls-3" d="M410.92,754.56l-19.19-11.07c-1.54-.89-1.35-2.45,.43-3.48l19.08-10.96c.91-.52,1.93-.8,2.98-.85,1.05-.04,2.09,.16,3.04,.59l19.19,11.07c1.47,.9,1.34,2.43-.44,3.47l-19.08,10.97c-.91,.52-1.93,.8-2.97,.85-1.04,.04-2.08-.16-3.03-.59Z"/>
      <path class="cls-3" d="M531.57,824.23l-19.08-11.08c-1.54-.88-1.35-2.44,.44-3.47l19-10.98c.91-.51,1.94-.79,2.98-.83,1.05-.05,2.09,.16,3.04,.59l19.19,11.08c1.54,.88,1.34,2.43-.44,3.47l-19.01,10.98c-.93,.52-1.96,.82-3.02,.86-1.06,.04-2.12-.17-3.08-.61Z"/>
      <path class="cls-3" d="M561.24,841.34l-19.19-11.08c-1.47-.88-1.34-2.43,.44-3.47l19.01-11.02c.91-.51,1.93-.79,2.97-.84,1.04-.04,2.08,.16,3.03,.59l19.18,11.08c1.55,.9,1.35,2.43-.44,3.47l-19,10.98c-.91,.52-1.93,.8-2.97,.85-1.05,.06-2.09-.14-3.04-.56Z"/>
      <path class="cls-3" d="M590.87,858.46l-19.18-11.08c-1.47-.88-1.35-2.43,.42-3.47l19.01-10.97c.91-.51,1.93-.8,2.97-.84,1.04-.04,2.08,.16,3.03,.59l19.18,11.07c1.47,.9,1.36,2.44-.42,3.47l-19.08,10.98c-.9,.5-1.91,.78-2.94,.83-1.03,.04-2.06-.16-3-.58Z"/>
      <path class="cls-3" d="M620.49,875.55l-19.18-11.07c-1.47-.9-1.35-2.45,.43-3.48l19.01-10.97c.91-.51,1.93-.8,2.97-.84,1.04-.04,2.08,.16,3.03,.59l19.18,11.07c1.55,.9,1.36,2.46-.42,3.48l-19.08,10.97c-.9,.49-1.91,.78-2.94,.83-1.03,.04-2.06-.16-3-.58Z"/>
      <path class="cls-3" d="M650.13,892.65l-19.18-11.07c-1.55-.9-1.36-2.46,.42-3.48l19.08-10.97c.91-.51,1.93-.8,2.97-.84,1.04-.04,2.08,.16,3.03,.59l19.18,11.07c1.47,.9,1.36,2.45-.42,3.48l-19.01,10.97c-.92,.52-1.95,.81-3.01,.86-1.06,.04-2.11-.17-3.07-.61Z"/>
      <path class="cls-3" d="M679.82,909.73l-19.18-11.07c-1.47-.9-1.36-2.43,.42-3.47l19.08-10.98c.92-.51,1.93-.79,2.98-.83,1.04-.04,2.09,.16,3.04,.59l19.02,11.08c1.55,.88,1.36,2.44-.42,3.47l-19.08,10.98c-.9,.48-1.88,.76-2.9,.79-1.02,.04-2.03-.15-2.96-.56Z"/>
      <path class="cls-3" d="M709.38,926.87l-19.19-11.08c-1.47-.88-1.35-2.44,.42-3.47l19.01-10.98c.92-.51,1.93-.79,2.98-.84,1.04-.04,2.09,.16,3.04,.59l19.17,11.08c1.47,.88,1.35,2.43-.42,3.47l-19.01,10.98c-.91,.51-1.93,.79-2.97,.83-1.04,.04-2.08-.16-3.03-.59Z"/>
      <path class="cls-3" d="M739,943.96l-19.19-11.08c-1.47-.88-1.35-2.44,.44-3.47l18.99-10.98c.92-.51,1.93-.8,2.98-.84,1.04-.04,2.09,.16,3.04,.59l19.18,11.08c1.55,.9,1.34,2.43-.44,3.47l-19.08,10.98c-.9,.49-1.91,.77-2.94,.82-1.03,.04-2.05-.16-2.99-.57Z"/>
      <path class="cls-3" d="M768.62,961.1l-19.18-11.07c-1.47-.9-1.34-2.45,.44-3.48l19.01-10.97c.91-.51,1.93-.8,2.97-.84,1.04-.04,2.08,.16,3.03,.59l19.19,11.08c1.47,.9,1.35,2.44-.44,3.47l-19.01,10.98c-.91,.51-1.93,.79-2.97,.83-1.04,.04-2.08-.16-3.03-.6Z"/>
      <path class="cls-3" d="M486.4,764.85l-19.19-11.08c-1.54-.9-1.34-2.44,.44-3.47l19.08-10.98c.91-.51,1.93-.79,2.97-.84,1.04-.04,2.08,.16,3.03,.59l19.19,11.08c1.54,.88,1.35,2.43-.44,3.47l-19,10.98c-.93,.52-1.96,.8-3.02,.85-1.06,.04-2.11-.16-3.08-.6Z"/>
      <path class="cls-3" d="M456.93,747.81l-19.19-11.07c-1.54-.9-1.34-2.45,.44-3.48l19.01-10.96c.91-.52,1.93-.8,2.97-.85,1.04-.04,2.08,.16,3.03,.59l19.19,11.07c1.54,.89,1.35,2.45-.44,3.48l-19,10.96c-.91,.52-1.93,.8-2.98,.85-1.05,.04-2.09-.16-3.04-.59Z"/>
      <path class="cls-3" d="M427.45,730.81l-19.19-11.09c-1.54-.88-1.35-2.43,.44-3.46l19-10.98c.92-.51,1.94-.8,2.98-.84,1.04-.04,2.08,.16,3.04,.59l19.19,11.09c1.47,.88,1.34,2.43-.44,3.47l-19.01,10.98c-.91,.5-1.93,.79-2.97,.83-1.04,.04-2.08-.16-3.03-.59Z"/>
      <path class="cls-3" d="M397.98,713.77l-19.2-11.02c-1.54-.9-1.35-2.45,.44-3.47l19-10.98c.91-.51,1.93-.8,2.98-.84,1.05-.04,2.09,.16,3.04,.59l19.19,11.07c1.54,.9,1.34,2.46-.44,3.48l-19.01,10.97c-.91,.5-1.93,.78-2.97,.82-1.04,.04-2.07-.18-3.02-.61Z"/>
      <path class="cls-3" d="M428.28,696.27l-19.19-11.07c-1.54-.9-1.35-2.45,.43-3.48l6.3-3.63c.91-.51,1.93-.79,2.97-.83,1.04-.04,2.08,.16,3.03,.59l19.19,11.08c1.54,.88,1.34,2.43-.44,3.47l-6.28,3.63c-.91,.51-1.93,.8-2.97,.84-1.04,.04-2.08-.16-3.03-.59Z"/>
      <path class="cls-3" d="M466.75,718.49l-19.17-11.07c-1.47-.9-1.35-2.45,.43-3.48l6.28-3.62c.91-.51,1.93-.8,2.97-.84,1.04-.04,2.08,.16,3.03,.59l19.19,11.09c1.54,.88,1.35,2.43-.43,3.47l-6.28,3.62c-.91,.52-1.93,.8-2.98,.85-1.05,.04-2.09-.16-3.04-.59Z"/>
      <path class="cls-3" d="M496.1,735.45l-19.19-11.09c-1.47-.88-1.34-2.43,.44-3.47l6.28-3.62c.91-.52,1.93-.8,2.97-.85,1.04-.04,2.08,.16,3.03,.59l19.19,11.07c1.54,.9,1.35,2.45-.43,3.48l-6.28,3.62c-.91,.51-1.94,.8-2.98,.84-1.05,.04-2.09-.16-3.04-.59Z"/>
      <path class="cls-3" d="M525.47,752.37l-19.19-11.07c-1.47-.9-1.35-2.45,.43-3.48l6.3-3.63c.91-.5,1.93-.79,2.97-.83,1.04-.04,2.08,.16,3.03,.59l19.19,11.08c1.54,.88,1.34,2.44-.44,3.47l-6.28,3.63c-.91,.51-1.93,.8-2.97,.84-1.04,.04-2.08-.16-3.03-.59Z"/>
      <path class="cls-3" d="M554.81,769.33l-19.19-11.09c-1.47-.88-1.35-2.43,.43-3.47l6.28-3.63c.91-.51,1.93-.8,2.98-.84,1.05-.04,2.09,.16,3.04,.59l19.17,11.07c1.54,.9,1.35,2.46-.43,3.48l-6.28,3.63c-.91,.51-1.93,.8-2.97,.84-1.04,.04-2.08-.16-3.03-.59Z"/>
      <path class="cls-3" d="M718.69,863.93l-19.19-11.07c-1.47-.9-1.35-2.43,.43-3.47l6.28-3.64c.92-.5,1.93-.78,2.98-.83,1.04-.04,2.09,.16,3.04,.59l19.18,11.08c1.55,.9,1.34,2.44-.44,3.47l-6.28,3.63c-.91,.51-1.93,.8-2.97,.84-1.04,.04-2.08-.16-3.03-.59Z"/>
      <path class="cls-3" d="M748.05,880.9l-19.18-11.09c-1.47-.88-1.36-2.43,.42-3.46l6.31-3.6c.91-.51,1.93-.8,2.97-.84,1.04-.04,2.08,.16,3.03,.59l19.19,11.08c1.54,.88,1.35,2.43-.43,3.47l-6.28,3.63c-.92,.51-1.94,.79-2.99,.83-1.04,.04-2.09-.18-3.04-.61Z"/>
      <path class="cls-3" d="M777.4,897.85l-19.18-11.08c-1.47-.9-1.33-2.43,.44-3.47l6.28-3.63c.92-.51,1.93-.8,2.98-.84,1.04-.04,2.08,.16,3.03,.59l19.19,11.07c1.54,.9,1.35,2.44-.43,3.47l-6.28,3.64c-.91,.51-1.93,.79-2.98,.84-1.04,.04-2.09-.16-3.04-.59Z"/>
      <path class="cls-3" d="M806.75,914.8l-19.18-11.07c-1.47-.9-1.35-2.46,.44-3.48l6.28-3.63c.92-.51,1.93-.79,2.98-.83,1.04-.05,2.07,.16,3.03,.59l19.19,11.08c1.54,.88,1.35,2.43-.44,3.47l-6.28,3.63c-.91,.51-1.93,.8-2.97,.84-1.04,.04-2.08-.16-3.03-.59Z"/>
      <path class="cls-3" d="M516.01,782.03l-19.17-11.09c-1.54-.88-1.35-2.43,.43-3.47l19.01-10.97c.91-.51,1.93-.8,2.97-.84,1.04-.04,2.08,.16,3.03,.59l19.19,11.09c1.54,.88,1.35,2.43-.43,3.46l-19.01,10.98c-.91,.51-1.94,.8-2.98,.84-1.05,.04-2.09-.16-3.04-.59Z"/>
      <path class="cls-3" d="M545.65,799.04l-19.19-11.09c-1.47-.88-1.35-2.43,.43-3.46l19.01-10.98c.91-.51,1.93-.8,2.97-.84,1.04-.04,2.08,.16,3.03,.59l19.19,11.09c1.54,.9,1.35,2.43-.42,3.47l-19.01,10.97c-.91,.51-1.93,.8-2.97,.84-1.04,.04-2.08-.16-3.03-.59Z"/>
      <path class="cls-3" d="M575.28,816.14l-19.19-11.07c-1.47-.9-1.35-2.45,.43-3.48l19.08-10.97c.91-.51,1.93-.8,2.98-.84,1.04-.04,2.08,.16,3.03,.59l19.19,11.07c1.54,.9,1.35,2.46-.43,3.47l-19.01,10.98c-.92,.52-1.95,.82-3.01,.86-1.05,.04-2.1-.17-3.06-.61Z"/>
      <path class="cls-3" d="M604.96,833.24l-19.19-11.07c-1.54-.9-1.35-2.46,.43-3.48l19.01-10.97c.92-.51,1.93-.8,2.99-.84,1.04-.04,2.08,.16,3.03,.59l19.18,11.07c1.54,.9,1.35,2.45-.43,3.48l-19.01,10.97c-.91,.51-1.93,.8-2.97,.84-1.04,.04-2.08-.16-3.03-.59Z"/>
      <path class="cls-3" d="M634.52,850.35l-19.18-11.08c-1.54-.9-1.35-2.46,.42-3.48l19.01-10.97c.91-.51,1.93-.8,2.98-.84,1.04-.04,2.09,.16,3.04,.59l19.18,11.07c1.47,.9,1.33,2.45-.44,3.48l-19.01,10.97c-.91,.51-1.93,.8-2.97,.85-1.04,.04-2.08-.16-3.03-.59Z"/>
      <path class="cls-3" d="M664.14,867.46l-19.18-11.08c-1.47-.9-1.36-2.44,.44-3.47l19-10.98c.91-.51,1.93-.79,2.98-.83,1.04-.05,2.08,.16,3.03,.59l19.19,11.08c1.54,.88,1.33,2.43-.44,3.47l-19.08,10.98c-.9,.49-1.91,.78-2.94,.82-1.03,.04-2.05-.16-3-.57Z"/>
      <path class="cls-3" d="M693.78,884.55l-19.19-11.08c-1.47-.88-1.33-2.44,.44-3.47l19.01-10.98c.91-.51,1.93-.79,2.97-.84,1.04-.04,2.08,.16,3.03,.59l19.18,11.08c1.47,.88,1.35,2.43-.44,3.47l-18.99,10.98c-.92,.5-1.94,.79-2.99,.83-1.04,.04-2.08-.16-3.03-.59Z"/>
      <path class="cls-3" d="M723.4,901.66l-19.19-11.02c-1.47-.88-1.33-2.43,.44-3.47l19.08-10.98c.91-.5,1.93-.78,2.97-.83,1.04-.04,2.08,.16,3.03,.59l19.08,11.01c1.54,.9,1.35,2.43-.43,3.47l-19.08,10.98c-.9,.49-1.9,.77-2.93,.81-1.02,.04-2.05-.15-2.99-.56Z"/>
      <path class="cls-3" d="M753.01,918.78l-19.17-11.07c-1.47-.9-1.36-2.45,.42-3.48l18.95-10.97c.91-.51,1.93-.8,2.97-.84,1.04-.04,2.08,.16,3.03,.59l19.19,11.07c1.47,.9,1.35,2.46-.43,3.47l-18.89,11c-.92,.52-1.95,.81-3.01,.85-1.06,.04-2.11-.17-3.07-.61Z"/>
      <path class="cls-3" d="M346.61,784.05l-56.49-32.63c-1.54-.88-1.35-2.43,.43-3.47l19.08-10.96c.91-.52,1.93-.8,2.97-.85,1.04-.04,2.08,.16,3.03,.59l56.5,32.62c1.54,.88,1.35,2.43-.43,3.47l-19.01,10.98c-.92,.52-1.96,.81-3.02,.85-1.06,.04-2.11-.16-3.08-.61Z"/>
      <path class="cls-3" d="M710.66,994.18l-56.5-32.62c-1.54-.9-1.35-2.46,.42-3.47l19.08-10.98c.91-.51,1.93-.8,2.97-.84,1.04-.04,2.08,.16,3.03,.59l56.5,32.62c1.54,.89,1.35,2.43-.42,3.46l-19.08,10.98c-.92,.51-1.93,.8-2.98,.84-1.04,.04-2.07-.16-3.03-.59Z"/>
      <path class="cls-3" d="M592.13,963.56l-19.19-11.09c-1.54-.88-1.35-2.43,.42-3.47l22.65-13.06c.91-.51,1.93-.8,2.97-.84,1.04-.04,2.08,.16,3.03,.59l19.18,11.07c1.47,.9,1.35,2.43-.42,3.47l-22.65,13.08c-.91,.51-1.93,.8-2.97,.84-1.04,.05-2.08-.16-3.03-.59Z"/>
      <path class="cls-3" d="M376.98,839.34l-30.68-17.69c-1.54-.9-1.35-2.45,.44-3.48l22.64-13.06c.91-.51,1.93-.8,2.97-.84,1.04-.04,2.08,.16,3.03,.59l30.68,17.71c1.54,.88,1.35,2.43-.43,3.47l-22.65,13.08c-.91,.5-1.93,.78-2.98,.83-1.04,.04-2.08-.17-3.03-.6Z"/>
      <path class="cls-3" d="M563.57,947.06l-30.68-17.7c-1.54-.9-1.34-2.45,.44-3.48l22.64-13.06c.91-.52,1.93-.8,2.98-.85,1.05-.04,2.09,.16,3.04,.59l30.68,17.71c1.55,.9,1.33,2.45-.44,3.48l-22.64,13.06c-.91,.51-1.93,.8-2.98,.84-1.05,.04-2.09-.16-3.04-.59Z"/>
      <path class="cls-3" d="M419.73,864.04l-30.68-17.72c-1.54-.9-1.35-2.43,.43-3.47l22.65-13.08c.91-.51,1.93-.8,2.97-.84,1.04-.04,2.08,.16,3.03,.59l30.68,17.71c1.54,.88,1.35,2.44-.43,3.47l-22.65,13.08c-.91,.51-1.93,.8-2.97,.84-1.04,.04-2.08-.16-3.03-.59Z"/>
      <path class="cls-3" d="M418.34,829.62l133.39,77c.36,.13,.67,.36,.89,.67,.22,.31,.34,.68,.34,1.07s-.12,.75-.34,1.06c-.22,.31-.53,.54-.89,.67l-23.11,13.33c-.93,.47-1.95,.71-2.99,.71s-2.07-.24-2.99-.71l-133.39-77.01,29.09-16.79Z"/>
      <path class="cls-3" d="M674.93,994.59l21.37,12.34c1.26,.73,1.1,1.99-.35,2.84l-9.27,5.34c-.75,.42-1.59,.66-2.44,.69-.85,.04-1.71-.13-2.49-.49l-21.36-12.34c-1.26-.72-1.12-2,.35-2.83l9.26-5.36c.75-.41,1.58-.64,2.43-.68,.85-.04,1.71,.13,2.48,.49Z"/>
      <path class="cls-3" d="M645.05,977.32l21.37,12.33c1.26,.73,1.1,2.01-.35,2.85l-9.26,5.29c-.75,.42-1.59,.66-2.44,.7-.86,.04-1.71-.13-2.49-.49l-21.36-12.34c-1.26-.73-1.12-2.01,.35-2.84l9.27-5.34c.75-.42,1.58-.64,2.43-.67,.86-.03,1.71,.14,2.48,.51Z"/>
      <path class="cls-3" d="M615.43,960.24l21.38,12.33c1.26,.73,1.1,2-.35,2.85l-9.27,5.34c-.75,.42-1.58,.66-2.44,.69-.85,.04-1.71-.13-2.49-.49l-21.36-12.34c-1.26-.72-1.12-2,.35-2.84l9.26-5.36c.75-.41,1.59-.65,2.44-.68,.85-.04,1.7,.13,2.48,.49Z"/>
      <path class="cls-3" d="M661.41,967.88l21.35,12.32c1.26,.72,1.12,2-.35,2.84l-9.27,5.36c-.75,.41-1.58,.64-2.43,.68-.85,.04-1.7-.13-2.48-.48l-21.38-12.34c-1.26-.72-1.1-2,.35-2.84l9.27-5.36c.75-.41,1.59-.64,2.45-.67,.86-.04,1.71,.13,2.49,.49Z"/>
      <path class="cls-45" d="M974.88,933.21L408.98,606.5c-8.9-5.14-13.55-17.62-10.38-27.96l127.99-415.56c3.17-10.28,12.96-14.5,21.86-9.37l565.98,326.76c8.9,5.14,13.54,17.62,10.37,27.97l-127.99,415.57c-3.17,10.3-12.94,14.49-21.91,9.29Z"/>
      <path class="cls-27" d="M969.62,918.72L420.65,601.46c-8.51-4.92-12.96-16.9-9.92-26.76l122.31-397.23c3.02-9.86,12.39-13.87,20.92-8.95l549.01,317.21c8.51,4.92,12.96,16.9,9.92,26.76l-122.35,397.24c-3.03,9.91-12.41,13.92-20.92,9Z"/>
      <path class="cls-16" d="M969.62,918.72L420.65,601.46c-8.51-4.92-12.96-16.9-9.92-26.76l122.31-397.23c3.02-9.86,12.39-13.87,20.92-8.95l549.01,317.21c8.51,4.92,12.96,16.9,9.92,26.76l-122.35,397.24c-3.03,9.91-12.41,13.92-20.92,9Z"/>
      <path d="M969.62,918.72L420.65,601.46c-8.51-4.92-12.96-16.9-9.92-26.76l122.31-397.23c3.02-9.86,12.39-13.87,20.92-8.95l549.01,317.21c8.51,4.92,12.96,16.9,9.92,26.76l-122.35,397.24c-3.03,9.91-12.41,13.92-20.92,9Z"/>
      <path class="cls-3" d="M421.23,1026.72c-4.79,.12-9.54-1-13.78-3.23l-148.91-85.97c-3.95-2.27-6.12-5.53-6.12-9.17,0-4.21,2.94-8.36,8.21-11.38l76.64-44.24c9.37-5.4,23.11-5.87,31.31-1.2l148.91,85.95c3.95,2.27,6.12,5.53,6.12,9.17,0,4.23-2.94,8.37-8.21,11.38l-76.64,44.26c-5.37,2.95-11.4,4.47-17.53,4.43Zm-66.34-154.13c-5.39-.06-10.7,1.26-15.44,3.82l-76.64,44.24c-3.86,2.22-6.06,5.02-6.06,7.65s2.16,4.4,3.96,5.46l148.89,86.07c6.75,3.89,19.08,3.35,27-1.22l76.64-44.29c3.86-2.23,6.06-5.02,6.06-7.66s-2.16-4.4-3.96-5.45l-148.89-85.96c-3.57-1.83-7.54-2.72-11.55-2.6v-.06Z"/>
      <path class="cls-2" d="M1044.03,917.3l-159.03-86.83c-1.85-1.21-3.26-2.98-4.03-5.05-.76-2.07-.85-4.33-.23-6.45l52.61-170.85c1.31-4.23,5.33-5.96,8.98-3.85l159.02,86.86c1.86,1.21,3.27,2.97,4.04,5.04,.77,2.07,.85,4.33,.23,6.46l-52.63,170.83c-1.31,4.24-5.33,5.96-8.98,3.85Z"/>
      <path class="cls-12" d="M1101.35,731.12l-159.02-86.86c-1-.62-2.15-.92-3.31-.88-1.16,.04-2.29,.43-3.24,1.12,1.18-.05,2.34,.25,3.36,.85l159.04,86.85c1.86,1.2,3.27,2.97,4.04,5.05,.76,2.07,.84,4.34,.22,6.46l-52.63,170.84c-.4,1.44-1.26,2.71-2.43,3.63,1.32-.08,2.58-.58,3.59-1.43,1.01-.85,1.72-2,2.03-3.29l52.61-170.84c.61-2.12,.54-4.38-.23-6.45-.76-2.07-2.18-3.84-4.03-5.04Z"/>
      <g>
        <path class="cls-2" d="M1133.24,642.45l-159.03-86.84c-1.85-1.2-3.27-2.97-4.03-5.04-.77-2.07-.85-4.33-.23-6.45l52.61-170.84c1.31-4.24,5.33-5.96,8.98-3.85l159.03,86.84c1.86,1.2,3.27,2.97,4.04,5.04,.77,2.07,.85,4.33,.23,6.45l-52.61,170.84c-1.33,4.24-5.35,5.96-9,3.85Z"/>
        <path class="cls-32" d="M1190.57,456.25l-159.03-86.84c-.99-.62-2.14-.93-3.3-.89-1.16,.04-2.29,.42-3.24,1.11,1.18-.03,2.34,.27,3.36,.87l159.03,86.84c1.85,1.2,3.26,2.97,4.03,5.04,.76,2.07,.85,4.33,.23,6.45l-52.61,170.78c-.4,1.44-1.26,2.71-2.43,3.63,1.31-.07,2.57-.56,3.59-1.4,1.01-.84,1.73-1.98,2.05-3.25l52.61-170.84c.62-2.12,.54-4.38-.23-6.45-.77-2.07-2.19-3.84-4.04-5.04Z"/>
      </g>
      <g>
        <path class="cls-2" d="M756.79,386.88L395.65,176.31c-1.73-1.13-3.06-2.79-3.78-4.73-.72-1.94-.8-4.06-.23-6.05L441.22,4.53c1.2-3.99,5.02-5.62,8.47-3.59l361.13,210.54c1.73,1.13,3.06,2.79,3.78,4.73,.72,1.94,.81,4.06,.24,6.05l-49.58,160.98c-1.23,3.99-5.03,5.62-8.47,3.63Z"/>
        <path class="cls-47" d="M810.82,211.48L449.69,.86c-.93-.59-2.01-.89-3.12-.86-1.1,.04-2.17,.41-3.05,1.06,1.11-.03,2.2,.26,3.16,.81l361.14,210.56c1.73,1.13,3.05,2.79,3.78,4.73,.73,1.94,.81,4.06,.24,6.05l-49.58,161c-.18,.58-.43,1.14-.74,1.66-.07,.14-.1,.3-.08,.46,.02,.16,.1,.3,.21,.42,.11,.11,.26,.19,.41,.21,.16,.02,.32,0,.46-.08,1.34-.85,2.31-2.16,2.74-3.69l49.59-160.94c.56-1.99,.48-4.11-.25-6.05-.73-1.94-2.05-3.6-3.78-4.73Z"/>
      </g>
      <g class="cls-20">
        <path class="cls-3" d="M633.45,308.3l-65.56-37.39c-2.03-1.16-4.14-.56-4.73,1.34-.21,1.08-.06,2.2,.41,3.19,.47,.99,1.25,1.81,2.22,2.33l65.59,37.45c2.03,1.16,4.14,.56,4.73-1.34,.22-1.09,.08-2.23-.4-3.23-.48-1.01-1.27-1.83-2.26-2.35Z"/>
        <path class="cls-3" d="M816.57,412.72l-108.63-61.98c-2.04-1.14-4.15-.56-4.73,1.34-.2,1.08-.06,2.2,.41,3.19,.47,.99,1.25,1.81,2.22,2.33l108.63,61.98c2.04,1.16,4.15,.56,4.73-1.34,.2-1.08,.06-2.2-.42-3.19-.47-.99-1.25-1.81-2.22-2.33Z"/>
        <path class="cls-3" d="M686.26,338.39l-30.4-17.31c-2.04-1.14-4.15-.56-4.72,1.34-.21,1.08-.07,2.2,.4,3.19,.47,.99,1.26,1.81,2.22,2.33l30.47,17.32c2.04,1.14,4.16,.56,4.73-1.34,.2-1.09,.04-2.22-.44-3.21-.49-1-1.28-1.81-2.27-2.32Z"/>
        <path class="cls-3" d="M570.33,344.94l-21.32-12.11c-2.03-1.16-4.14-.56-4.71,1.34-.21,1.08-.07,2.2,.41,3.19,.47,.99,1.25,1.81,2.22,2.33l21.33,12.11c2.04,1.16,4.15,.56,4.73-1.34,.2-1.08,.06-2.2-.42-3.2-.47-.99-1.26-1.81-2.23-2.32Z"/>
        <path class="cls-3" d="M662.63,397.68l-75.22-42.82c-2.03-1.16-4.14-.56-4.73,1.34-.2,1.08-.06,2.2,.41,3.19,.47,.99,1.25,1.81,2.22,2.33l75.22,42.89c2.04,1.16,4.16,.56,4.73-1.34,.23-1.09,.09-2.22-.39-3.23-.47-1.01-1.26-1.84-2.24-2.36Z"/>
        <path class="cls-3" d="M703.69,420.99l-21.31-12.16c-2.03-1.16-4.14-.56-4.71,1.34-.2,1.08-.06,2.2,.41,3.19,.47,.99,1.25,1.81,2.22,2.33l21.3,12.15c2.04,1.16,4.15,.56,4.73-1.34,.2-1.08,.06-2.2-.42-3.19-.47-.99-1.25-1.81-2.22-2.33Z"/>
        <path class="cls-3" d="M795.98,473.76l-75.22-42.89c-2.03-1.16-4.14-.56-4.72,1.34-.21,1.08-.06,2.2,.41,3.19,.47,.99,1.25,1.81,2.22,2.33l75.22,42.89c2.04,1.16,4.15,.56,4.73-1.34,.2-1.08,.06-2.2-.41-3.19-.47-.99-1.26-1.81-2.22-2.33Z"/>
        <path class="cls-3" d="M654.42,429.2l-114.84-65.47c-2.03-1.16-4.14-.56-4.71,1.34-.21,1.08-.06,2.2,.41,3.19,.47,.99,1.25,1.81,2.22,2.33l114.82,65.47c2.04,1.16,4.15,.56,4.73-1.32,.2-1.08,.06-2.2-.41-3.2-.47-1-1.25-1.81-2.22-2.34Z"/>
        <path class="cls-3" d="M765.88,492.82l-86.28-49.21c-2.03-1.14-4.14-.56-4.71,1.34-.21,1.08-.07,2.2,.4,3.19,.47,.99,1.26,1.81,2.23,2.33l86.27,49.21c2.04,1.16,4.15,.56,4.73-1.34,.2-1.08,.06-2.2-.42-3.19-.47-.99-1.25-1.81-2.22-2.33Z"/>
        <path class="cls-3" d="M595.71,432.04l-65.62-37.37c-2.04-1.16-4.15-.57-4.73,1.32-.21,1.08-.06,2.2,.41,3.2,.47,1,1.25,1.81,2.22,2.34l65.57,37.37c2.03,1.16,4.14,.57,4.71-1.32,.21-1.08,.08-2.19-.38-3.19-.47-1-1.23-1.82-2.19-2.35Z"/>
        <path class="cls-3" d="M699.28,491.11l-81.12-46.3c-2.03-1.16-4.14-.56-4.71,1.34-.2,1.08-.06,2.2,.42,3.19,.47,.99,1.25,1.81,2.22,2.33l81.17,46.3c2.04,1.16,4.16,.56,4.73-1.34,.2-1.09,.05-2.21-.44-3.21-.49-.99-1.28-1.81-2.27-2.31Z"/>
        <path class="cls-3" d="M872.24,444.39l-30.41-17.34c-2.03-1.16-4.14-.56-4.71,1.34-.2,1.08-.06,2.2,.41,3.19,.47,.99,1.25,1.81,2.22,2.33l30.4,17.34c2.03,1.16,4.14,.56,4.73-1.34,.2-1.08,.06-2.2-.41-3.19-.47-.99-1.26-1.81-2.22-2.33Z"/>
        <path class="cls-3" d="M941.63,484.04l-46.66-26.6c-2.03-1.16-4.14-.56-4.71,1.34-.2,1.08-.06,2.2,.41,3.19,.47,.99,1.25,1.81,2.22,2.33l46.66,26.6c2.04,1.16,4.15,.57,4.72-1.32,.21-1.08,.07-2.2-.4-3.2s-1.25-1.81-2.22-2.34Z"/>
        <path class="cls-3" d="M866.62,477.56l121.92,69.58c.97,.52,1.75,1.34,2.22,2.33,.47,.99,.61,2.11,.41,3.19-.59,1.89-2.7,2.5-4.73,1.34l-121.84-69.52c-.97-.52-1.75-1.34-2.22-2.33-.47-.99-.61-2.11-.4-3.19,.49-1.95,2.61-2.55,4.64-1.39Z"/>
        <path class="cls-3" d="M828.41,493.88l121.84,69.52c.97,.52,1.75,1.34,2.22,2.33,.47,.99,.62,2.11,.42,3.19-.59,1.89-2.69,2.5-4.73,1.34l-121.84-69.52c-.97-.52-1.74-1.34-2.22-2.33s-.62-2.11-.41-3.19c.57-1.89,2.68-2.5,4.72-1.34Z"/>
        <path class="cls-3" d="M626.16,340.44l108.63,61.98c.97,.52,1.75,1.33,2.22,2.33,.47,.99,.61,2.11,.4,3.19-.57,1.89-2.68,2.48-4.72,1.34l-108.63-61.98c-.97-.52-1.75-1.34-2.22-2.33-.47-.99-.61-2.11-.41-3.19,.59-1.89,2.7-2.5,4.73-1.34Z"/>
        <path class="cls-3" d="M813.83,447.45l30.4,17.34c.97,.52,1.75,1.34,2.22,2.34s.61,2.12,.4,3.2c-.57,1.89-2.69,2.48-4.71,1.32l-30.4-17.34c-.97-.52-1.76-1.33-2.23-2.32-.48-.99-.62-2.11-.42-3.19,.59-1.89,2.7-2.48,4.73-1.34Z"/>
        <path class="cls-3" d="M760.37,416.96l30.4,17.34c.97,.52,1.75,1.34,2.22,2.34,.47,1,.61,2.12,.41,3.2-.57,1.89-2.69,2.48-4.73,1.34l-30.4-17.34c-.97-.52-1.74-1.34-2.22-2.34s-.61-2.12-.41-3.2c.52-1.89,2.69-2.48,4.73-1.34Z"/>
        <path class="cls-3" d="M558.46,301.85l46.65,26.57c.97,.52,1.76,1.33,2.23,2.32,.47,.99,.62,2.11,.41,3.19-.59,1.89-2.7,2.5-4.72,1.34l-46.65-26.57c-.97-.52-1.75-1.34-2.23-2.33-.47-1-.61-2.12-.4-3.2,.57-1.89,2.69-2.48,4.71-1.32Z"/>
        <path class="cls-3" d="M586.27,462.98l-65.56-37.39c-2.03-1.16-4.14-.56-4.73,1.34-.21,1.08-.06,2.2,.41,3.19,.47,.99,1.25,1.81,2.22,2.33l65.58,37.39c2.03,1.16,4.14,.56,4.72-1.34,.21-1.08,.06-2.2-.41-3.19-.48-.99-1.26-1.81-2.23-2.32Z"/>
        <path class="cls-3" d="M769.38,567.4l-108.63-61.96c-2.05-1.16-4.16-.57-4.73,1.32-.21,1.08-.06,2.2,.41,3.2s1.25,1.81,2.22,2.34l108.63,61.96c2.03,1.16,4.14,.56,4.73-1.34,.2-1.08,.06-2.2-.41-3.19-.47-.99-1.25-1.81-2.22-2.33Z"/>
        <path class="cls-3" d="M639.08,493.11l-30.4-17.34c-2.04-1.16-4.16-.56-4.73,1.34-.19,1.07-.04,2.18,.43,3.16,.47,.98,1.24,1.79,2.2,2.3l30.4,17.34c2.04,1.16,4.16,.56,4.73-1.34,.19-1.07,.04-2.18-.43-3.16-.47-.98-1.24-1.79-2.19-2.3Z"/>
        <path class="cls-3" d="M523.15,499.63l-21.31-12.16c-2.03-1.14-4.14-.56-4.71,1.34-.21,1.08-.07,2.2,.4,3.2,.47,1,1.25,1.81,2.23,2.33l21.3,12.14c2.04,1.16,4.15,.57,4.73-1.32,.21-1.08,.06-2.2-.41-3.2-.47-1-1.25-1.81-2.22-2.34Z"/>
        <path class="cls-3" d="M615.46,552.37l-75.22-42.88c-2.03-1.16-4.14-.57-4.73,1.32-.21,1.08-.06,2.2,.41,3.2,.47,1,1.25,1.81,2.22,2.34l75.22,42.88c2.04,1.16,4.15,.57,4.73-1.32,.2-1.08,.06-2.2-.41-3.2s-1.25-1.81-2.22-2.34Z"/>
        <path class="cls-3" d="M656.49,575.67l-21.31-12.15c-2.03-1.16-4.14-.56-4.71,1.34-.21,1.08-.07,2.2,.4,3.19,.47,.99,1.26,1.81,2.23,2.33l21.3,12.15c2.04,1.16,4.15,.56,4.73-1.34,.2-1.08,.06-2.2-.42-3.19-.47-.99-1.25-1.81-2.22-2.33Z"/>
        <path class="cls-3" d="M748.81,628.41l-75.22-42.89c-2.03-1.15-4.14-.56-4.73,1.34-.2,1.08-.06,2.2,.41,3.19,.47,.99,1.25,1.81,2.22,2.33l75.2,42.86c2.05,1.16,4.16,.56,4.73-1.34,.2-1.07,.06-2.18-.41-3.17-.47-.99-1.24-1.8-2.2-2.32Z"/>
        <path class="cls-3" d="M607.24,583.85l-114.84-65.48c-2.03-1.16-4.14-.56-4.71,1.34-.21,1.08-.07,2.2,.41,3.19,.47,.99,1.25,1.81,2.22,2.33l114.82,65.49c2.05,1.14,4.14,.56,4.73-1.34,.21-1.08,.07-2.2-.4-3.19s-1.26-1.81-2.22-2.33Z"/>
        <path class="cls-3" d="M796.39,691.75l-163.98-93.49c-2.03-1.16-4.14-.57-4.73,1.32-.2,1.08-.06,2.2,.42,3.2,.47,1,1.26,1.81,2.22,2.33l164,93.51c2.03,1.14,4.14,.56,4.71-1.34,.2-1.08,.06-2.2-.41-3.2-.48-1-1.26-1.81-2.24-2.34Z"/>
        <path class="cls-3" d="M548.53,586.79l-65.56-37.42c-2.04-1.16-4.15-.56-4.73,1.34-.21,1.08-.06,2.2,.41,3.19,.47,.99,1.25,1.81,2.22,2.33l65.57,37.39c2.03,1.16,4.14,.56,4.71-1.34,.2-1.08,.06-2.19-.42-3.17-.47-.99-1.25-1.8-2.21-2.32Z"/>
        <path class="cls-3" d="M601.32,616.85l-30.4-17.34c-2.02-1.14-4.14-.56-4.71,1.34-.21,1.08-.07,2.2,.4,3.19,.47,.99,1.25,1.81,2.22,2.33l30.4,17.34c2.03,1.16,4.14,.57,4.72-1.32,.21-1.08,.06-2.2-.41-3.2-.48-1-1.26-1.81-2.23-2.33Z"/>
        <path class="cls-3" d="M825.06,599.13l-30.42-17.34c-2.03-1.16-4.14-.56-4.71,1.34-.21,1.08-.07,2.2,.4,3.19,.47,.99,1.25,1.81,2.22,2.33l30.4,17.34c2.03,1.16,4.14,.56,4.72-1.34,.21-1.08,.06-2.2-.41-3.19-.47-.99-1.25-1.81-2.22-2.33Z"/>
        <path class="cls-3" d="M826.3,527.02l-30.4-17.34c-2.03-1.16-4.14-.57-4.71,1.32-.2,1.08-.06,2.2,.41,3.2,.47,1,1.25,1.81,2.22,2.34l30.4,17.41c2.03,1.16,4.14,.56,4.73-1.34,.23-1.09,.09-2.23-.39-3.24-.47-1.01-1.26-1.84-2.25-2.36Z"/>
        <path class="cls-3" d="M894.45,638.71l-46.66-26.61c-2.03-1.16-4.14-.56-4.71,1.34-.21,1.08-.07,2.2,.4,3.19s1.26,1.81,2.22,2.33l46.66,26.61c2.04,1.16,4.14,.56,4.72-1.34,.21-1.08,.07-2.2-.4-3.19-.47-.99-1.25-1.81-2.22-2.33Z"/>
        <path class="cls-3" d="M819.44,632.29l121.84,69.52c.97,.52,1.76,1.33,2.23,2.33,.47,.99,.62,2.11,.42,3.19-.59,1.9-2.7,2.5-4.73,1.34l-121.84-69.52c-.97-.52-1.75-1.33-2.22-2.33s-.61-2.11-.41-3.19c.58-1.92,2.69-2.51,4.71-1.34Z"/>
        <path class="cls-3" d="M578.98,495.16l108.63,61.96c.97,.52,1.74,1.34,2.22,2.33,.47,.99,.61,2.11,.41,3.19-.57,1.89-2.69,2.5-4.73,1.34l-108.63-61.96c-.97-.52-1.74-1.34-2.22-2.34-.47-1-.61-2.12-.41-3.2,.59-1.89,2.7-2.48,4.73-1.32Z"/>
        <path class="cls-3" d="M766.65,602.17l30.4,17.34c.97,.52,1.74,1.34,2.22,2.33s.62,2.11,.41,3.19c-.57,1.89-2.69,2.5-4.71,1.34l-30.41-17.34c-.97-.52-1.74-1.34-2.22-2.33-.47-.99-.62-2.11-.42-3.19,.59-1.89,2.7-2.5,4.73-1.34Z"/>
        <path class="cls-3" d="M713.18,571.68l30.42,17.34c.97,.52,1.74,1.34,2.22,2.33,.47,.99,.61,2.11,.41,3.19-.59,1.89-2.7,2.5-4.73,1.34l-30.4-17.34c-.97-.52-1.75-1.34-2.22-2.33-.47-.99-.61-2.11-.41-3.19,.57-1.89,2.69-2.5,4.71-1.34Z"/>
        <path class="cls-3" d="M511.27,456.55l46.71,26.6c.97,.52,1.75,1.33,2.23,2.32,.47,.99,.61,2.11,.4,3.19-.57,1.89-2.69,2.5-4.71,1.34l-46.71-26.53c-.97-.52-1.75-1.33-2.23-2.32-.48-.99-.62-2.11-.41-3.19,.59-1.97,2.7-2.57,4.73-1.41Z"/>
      </g>
      <g>
        <path class="cls-23" d="M1128.9,512.07c.43-1.4,.48-2.83,.13-4.27-.34-1.42-1.06-2.85-2.18-4.3-9.22-11.89-18.46-23.77-27.68-35.67-2.49-3.21-5.37-4.77-8.79-4.87-5.08-.15-30.43-1.25-37.99-1.54-3.12-.12-5.08,1.28-5.94,4.06-3.53,11.44-7.05,22.88-10.57,34.32-.42,1.37-.48,2.76-.15,4.17,.33,1.45,1.06,2.92,2.2,4.39,5.47,7.08,23.88,30.7,27.54,35.48,2.46,3.22,5.31,4.89,8.74,5.03,12.73,.5,25.46,1.04,38.18,1.55,1.58,.06,2.86-.27,3.85-.97,.97-.68,1.66-1.71,2.08-3.08,0,0,7.05-22.87,10.57-34.31"/>
        <path class="cls-31" d="M1082.57,505.9l-46.83-1.92c.33,1.45,1.06,2.92,2.2,4.39,5.47,7.08,23.88,30.7,27.54,35.48,2.46,3.22,5.31,4.89,8.74,5.03,12.73,.5,25.46,1.04,38.18,1.55,1.58,.06,2.86-.27,3.85-.97l-33.69-43.57"/>
        <path class="cls-17" d="M1128.9,512.07c.43-1.4,.48-2.83,.13-4.27l-46.47-1.9,33.69,43.57c.97-.68,1.66-1.72,2.08-3.08,0,0,7.05-22.87,10.57-34.31"/>
        <path class="cls-3" d="M1108.75,511.52l-1.2,3.91,4.35,2.46,1.2-3.91,2.17,1.23-1.2,3.91,4.35,2.46-.6,1.95-4.35-2.46-1.2,3.91,4.35,2.46-.6,1.95-4.35-2.46-1.2,3.91-2.17-1.23,1.2-3.91-4.35-2.46-1.2,3.91-2.17-1.23,1.2-3.91-4.35-2.46,.6-1.95,4.35,2.46,1.2-3.91-4.35-2.46,.6-1.95,4.35,2.46,1.2-3.91,2.17,1.23Zm2.54,8.32l-4.35-2.46-1.2,3.91,4.35,2.46,1.2-3.91Z"/>
        <path class="cls-3" d="M1091.11,478.52c11.34,6.41,19.53,17.53,22.29,28.76l-.03-.11-15.46-.63c-1.4-5.48-5.38-10.91-10.89-14.08l-.17-.1c-8.43-4.76-17.15-2.48-19.49,5.09-.76,2.48-.74,5.21-.08,7.94,1.36,5.61,5.45,11.19,11.12,14.4,5.71,3.22,11.55,3.21,15.45,.52l-.09,.06,11.18,14.46c-7.75,5.19-19.21,5.2-30.45-1.02l-.34-.19c-11.37-6.42-19.58-17.6-22.33-28.86-1.34-5.5-1.37-11.01,.16-16,4.69-15.22,22.21-19.8,39.13-10.23Z"/>
      </g>
      <g>
        <g>
          <path d="M1019.29,799.99c.05-.15,.04-.28-.02-.39-.06-.12-.2-.25-.41-.37l-.3-.17-.27,.88,.37,.21c.34,.19,.55,.14,.64-.16h0Zm-.09,2.1l-.42-.23-.07-.77c-.04-.39-.14-.62-.29-.71l-.22-.13-.33,1.08-.34-.19,.79-2.58,.69,.39c.31,.17,.51,.37,.63,.61,.09,.2,.11,.4,.05,.6-.05,.18-.16,.3-.3,.36-.15,.07-.32,.06-.53,0h0c.13,.12,.21,.36,.26,.72l.11,.87h0Zm1.15-.84c.16-.51,.12-1.03-.1-1.55-.22-.52-.57-.92-1.04-1.19s-.94-.33-1.37-.17c-.43,.16-.72,.5-.87,1s-.12,1.04,.1,1.57c.22,.53,.57,.92,1.04,1.19s.92,.32,1.36,.16c.43-.16,.73-.49,.89-1h0Zm.23,.12c-.18,.57-.51,.94-1,1.12-.49,.18-1.01,.11-1.55-.19s-.95-.76-1.19-1.34c-.25-.58-.28-1.16-.1-1.74s.5-.94,.99-1.12c.49-.18,1.01-.12,1.55,.19s.93,.74,1.18,1.32c.26,.59,.3,1.18,.12,1.76h0Z"/>
          <path d="M966.24,779.12l-1.18-.67,2.2-7.16c.17-.57,.42-1.23,.73-2.01l-.03-.02c-.26,.41-.46,.7-.62,.86l-5.96,6.25-.58-.33-.94-10.08c-.03-.28-.02-.7,.03-1.26h-.03c-.1,.43-.29,1.14-.58,2.1l-2.2,7.14-1.14-.64,3.28-10.66,1.56,.88,.8,9.18c.06,.69,.08,1.2,.06,1.53l.05,.03c.38-.47,.67-.82,.88-1.03l5.44-5.62,1.48,.84-3.28,10.66h0Z"/>
          <path d="M969.88,781.17l-1.15-.65,2.34-7.61,1.15,.65-2.34,7.61h0Zm3.38-10.23c-.07,.22-.2,.37-.4,.44-.19,.07-.4,.05-.61-.07s-.36-.29-.46-.52c-.1-.23-.11-.46-.04-.7,.07-.22,.2-.37,.39-.44,.19-.07,.39-.04,.6,.07s.37,.29,.47,.53c.1,.24,.12,.47,.05,.69h0Z"/>
          <path d="M977.17,784.88c-.66,.05-1.37-.15-2.14-.58-1.03-.58-1.75-1.41-2.16-2.5-.4-1.05-.43-2.13-.09-3.24,.38-1.25,1.03-2.07,1.95-2.45,.91-.39,1.94-.26,3.08,.39,.62,.35,1.14,.8,1.55,1.33l-.39,1.25c-.41-.7-.92-1.22-1.53-1.56-.73-.41-1.41-.48-2.04-.2-.65,.28-1.12,.88-1.41,1.8s-.27,1.71,.02,2.48c.29,.77,.8,1.36,1.54,1.78,.63,.36,1.29,.47,1.97,.35l-.36,1.16h0Z"/>
          <path d="M984.51,781.96c-.15-.28-.42-.52-.8-.74-.47-.26-.93-.27-1.38,0-.51,.29-.91,.88-1.18,1.77l-1.19,3.88-1.15-.65,2.34-7.61,1.15,.65-.48,1.57,.03,.02c.34-.46,.73-.74,1.18-.85,.41-.09,.82-.02,1.23,.21,.31,.17,.52,.34,.66,.49l-.39,1.26h0Z"/>
          <path d="M990.14,788.17c.3-.97,.32-1.84,.06-2.58-.25-.72-.74-1.28-1.47-1.69s-1.37-.48-1.95-.23c-.62,.27-1.07,.89-1.37,1.87-.28,.91-.28,1.75,0,2.5,.27,.76,.78,1.34,1.51,1.76s1.42,.49,1.97,.2c.55-.29,.96-.9,1.25-1.83m1.19,.62c-.37,1.21-1,2-1.87,2.37-.87,.37-1.86,.24-2.95-.38s-1.83-1.46-2.23-2.55c-.4-1.06-.42-2.16-.07-3.32,.41-1.32,1.07-2.15,2-2.47,.86-.3,1.83-.15,2.92,.46s1.8,1.43,2.19,2.48c.38,1.04,.38,2.18,0,3.42"/>
          <path d="M996.48,793.82c-.19,.62-.57,1.01-1.14,1.18-.62,.17-1.35,.02-2.18-.45-.68-.38-1.23-.87-1.64-1.47l.4-1.31c.41,.8,.96,1.4,1.64,1.79,.91,.52,1.48,.42,1.7-.29,.09-.3,.07-.6-.08-.91-.14-.31-.46-.76-.97-1.37-.52-.62-.86-1.15-1.02-1.59-.2-.52-.21-1.07-.03-1.63,.19-.63,.6-1.02,1.2-1.17,.6-.15,1.27-.02,2.02,.4,.57,.32,1.05,.73,1.43,1.23l-.38,1.23c-.36-.63-.85-1.12-1.47-1.47-.38-.22-.72-.29-1.01-.22-.29,.07-.49,.26-.58,.57-.1,.34-.09,.65,.05,.95,.12,.27,.41,.69,.88,1.24,.53,.62,.89,1.15,1.07,1.59,.24,.56,.27,1.13,.1,1.69"/>
          <path d="M1004.06,796.04c.3-.97,.32-1.84,.06-2.58-.25-.72-.74-1.28-1.47-1.69s-1.37-.48-1.95-.23c-.62,.27-1.07,.9-1.37,1.87-.28,.91-.28,1.75-.01,2.5,.28,.76,.78,1.35,1.52,1.76s1.42,.49,1.97,.2c.55-.29,.96-.9,1.25-1.83m1.2,.63c-.37,1.21-1,2-1.87,2.37-.87,.37-1.86,.24-2.95-.38s-1.83-1.46-2.23-2.55c-.4-1.06-.42-2.16-.07-3.32,.41-1.32,1.08-2.14,2-2.47,.86-.3,1.83-.15,2.92,.47s1.8,1.43,2.19,2.47c.38,1.04,.39,2.19,0,3.42"/>
          <path d="M1012.29,793.17c-.19-.26-.42-.47-.7-.63-.81-.46-1.37-.14-1.7,.93l-.36,1.17,1.69,.95-.32,1.03-1.69-.95-2.03,6.58-1.15-.65,2.03-6.58-1.22-.69,.32-1.03,1.22,.69,.38-1.23c.26-.84,.7-1.36,1.34-1.55,.55-.17,1.13-.09,1.74,.26,.36,.2,.62,.4,.79,.6l-.34,1.1h0Z"/>
          <path d="M1013.72,805.86c-.32,.01-.71-.11-1.16-.36-1.26-.71-1.65-1.81-1.19-3.31l1.39-4.5-1.23-.7,.32-1.03,1.23,.7,.57-1.86c.41,.09,.83,.17,1.28,.26l-.69,2.25,1.81,1.02-.32,1.03-1.81-1.02-1.32,4.29c-.16,.51-.19,.92-.09,1.22,.1,.31,.34,.57,.72,.79,.29,.16,.56,.22,.82,.18l-.32,1.04h0Z"/>
        </g>
        <g>
          <path d="M942.31,800.46c-.18,.6-.54,1-1.08,1.2-.54,.21-1.1,.15-1.67-.18s-.98-.81-1.24-1.46c-.26-.66-.3-1.28-.11-1.88s.54-1.02,1.07-1.23c.53-.21,1.07-.15,1.63,.17s1,.82,1.27,1.48c.27,.67,.31,1.3,.13,1.89"/>
          <path d="M967.55,816.78l-3.75-2.12-6.77-29.97c-.15-.72-.25-1.45-.29-2.22l-.11-.06c-.09,.65-.43,1.96-1.04,3.92l-6.22,20.19-3.1-1.75,8.6-27.94,4.02,2.27,6.47,29.39c.26,1.17,.43,1.99,.49,2.47l.07,.04c.12-.87,.48-2.28,1.08-4.21l6.06-19.68,3.08,1.74-8.6,27.94h0Z"/>
          <path d="M987.39,828l-14-7.91,8.6-27.94,13.39,7.57-.91,2.96-10.3-5.82-2.86,9.29,9.54,5.39-.91,2.96-9.54-5.39-3.01,9.76,10.9,6.16-.91,2.96h0Z"/>
          <path d="M1016.31,815.02l-7.61-4.3-7.69,24.98-3.09-1.75,7.69-24.98-7.62-4.31,.91-2.96,18.32,10.36-.91,2.96h0Z"/>
        </g>
        <g>
          <path class="cls-36" d="M989.97,739.99c.01,11.35-4.17,29.23,4.57,34.16h0c.66,.38,1.36,.69,2.07,.93h0c-7.33-6.44-3.02-24.02-5.15-35.59h0c-.49,.15-.99,.32-1.49,.5"/>
          <path class="cls-18" d="M991.46,739.49c2.12,11.57-2.19,29.15,5.15,35.59h0c.66,.23,1.34,.4,2.04,.52h0c-5.99-7.72-2.86-25.39-5.9-36.47h0c-.42,.11-.85,.22-1.29,.35"/>
          <path class="cls-46" d="M1000.05,738.18c-.66-.38-1.36-.69-2.08-.93-1.88-.65-3.92-.86-6.1-.66,.34,.8,.62,1.65,.87,2.55,2.34-.58,4.53-.74,6.58-.42,.77,.12,1.51,.3,2.23,.56-.45-.41-.95-.77-1.5-1.08"/>
          <path class="cls-14" d="M1005.26,775.34c.92-.2,1.86-.47,2.82-.79-.07-11.33,4.23-29.43-4.57-34.4-.63-.36-1.28-.65-1.95-.89,7.36,6.64,2.71,25.65,3.7,36.08"/>
          <path class="cls-7" d="M1001.55,739.26c-.45-.41-.95-.77-1.5-1.08l3.45,1.97c-.63-.36-1.28-.65-1.95-.88"/>
          <path class="cls-19" d="M1004.47,777.3c-.24-.54-.45-1.11-.64-1.69-1.82,.27-3.55,.28-5.19,0,.44,.56,.92,1.07,1.46,1.52,.42,.35,.87,.66,1.36,.94,1.64,.93,3.01,1.46,4.28,1.52-.5-.69-.92-1.46-1.28-2.29"/>
          <path class="cls-48" d="M999.32,738.71c5.95,8.03,1.04,26.36,4.51,36.89h0c.47-.07,.95-.16,1.42-.26h0c-1-10.42,3.66-29.44-3.7-36.08h0c-.73-.25-1.47-.44-2.24-.55"/>
          <path class="cls-49" d="M992.74,739.13c3.05,11.08-.08,28.75,5.9,36.47h0c1.63,.28,3.37,.27,5.19,0h0c-3.48-10.54,1.44-28.87-4.51-36.89h0c-2.04-.31-4.24-.15-6.58,.42"/>
          <path class="cls-10" d="M986.52,737.76c-1.5,1.58-3.21,3.79-5.37,6.73,3.09-1.96,6.04-3.49,8.82-4.5,0-1.1-.04-2.15-.14-3.11-1.07,.21-2.18,.5-3.31,.89"/>
          <path class="cls-39" d="M990.77,736.71c-.31,.05-.63,.1-.95,.16,.1,.96,.14,2,.14,3.11,.5-.18,1-.35,1.49-.5-.18-.97-.4-1.89-.68-2.77"/>
          <path class="cls-6" d="M991.87,736.59c-.36,.03-.73,.07-1.1,.13,.28,.88,.5,1.8,.68,2.77,.43-.13,.86-.25,1.29-.35-.24-.89-.53-1.75-.87-2.55"/>
          <path class="cls-8" d="M1041.83,760.93c-9.16,14.26-21.73,22.77-29.87,22.11h-.01c-.15-.02-.29-.03-.44-.05-.02,0-.04,0-.05,0-.04,0-.08-.01-.12-.02-.02,0-.04,0-.06,0-.07-.01-.13-.03-.2-.03-.03,0-.05,0-.08-.01-.03,0-.06-.01-.1-.02-.03,0-.06-.01-.1-.02-.03,0-.06-.01-.08-.02-.06-.01-.11-.03-.17-.04-.02-.01-.05-.01-.07-.02-.04,0-.07-.02-.11-.03-.03,0-.05-.01-.08-.02-.04,0-.08-.02-.12-.03-.05-.02-.1-.03-.15-.05,.28,.31,.6,.56,.96,.76,6.74,3.81,17.46-5.13,35.25-20.02l-4.41-2.49h0Z"/>
          <path class="cls-21" d="M983.94,729.86s.01,0,.02,0c0,0,.01,0,.02,0h0s.08,.02,.12,.02c0,0,.01,0,.02,0,0,0,.02,0,.03,0,.04,0,.09,.02,.13,.02h0c.1,.03,.19,.04,.29,.05,.01,0,.03,0,.04,.01,.04,0,.08,.02,.12,.03,.02,0,.04,0,.06,.01,.04,0,.08,.02,.12,.03,.02,0,.03,0,.05,.01,.14,.03,.27,.07,.4,.11,.02,0,.04,0,.05,.02,.04,0,.07,.02,.11,.04,.02,0,.04,0,.06,.01,.04,0,.07,.03,.12,.04h.03c.08,.04,.16,.07,.24,.1l.05,.03s.07,.03,.11,.04c.02,.01,.04,.01,.06,.02,.03,.02,.07,.03,.1,.04,.02,0,.03,.02,.06,.02,.08,.03,.16,.07,.25,.11-.23-.16-.46-.31-.7-.44-7.59-4.29-22.63,4.7-33.28,21.33l.91,.51c2.38-1.99,4.57-3.92,6.58-5.74,7.51-11.8,17.09-17.32,23.82-16.42"/>
          <path class="cls-22" d="M986.52,737.76c1.13-.38,2.24-.68,3.31-.89-.06-.56-.13-1.1-.23-1.61-.97,.5-1.97,1.32-3.08,2.49"/>
          <path class="cls-22" d="M988.8,732.74c.36,.72,.62,1.58,.8,2.53,.18-.09,.36-.17,.53-.24-.39-.88-.86-1.68-1.42-2.39,.02,.03,.04,.06,.07,.09,0,0,0,.02,.01,.02"/>
          <path class="cls-4" d="M960.12,746.28c11.26-10.2,17.29-17.27,23.82-16.42h0c-6.73-.9-16.31,4.62-23.82,16.42"/>
          <path class="cls-13" d="M990.13,735.03c-.18,.07-.35,.15-.53,.24,.1,.51,.17,1.04,.23,1.61,.32-.06,.63-.11,.95-.16-.19-.59-.4-1.15-.64-1.69"/>
          <path class="cls-9" d="M960.8,756.05h0s-.09-.04-.13-.05h-.02s-.08-.04-.11-.06h-.02c-.09-.05-.18-.1-.26-.14l-.03-.02c7.07,3.75,11.41,1.85,14.65-2.63,2.46-3.4,4.51-6.27,6.27-8.66-4.28,2.71-8.83,6.25-13.59,10.41-2.29,2-4.83,1.95-6.77,1.15"/>
          <path class="cls-43" d="M960.8,756.05h0c1.94,.8,4.47,.86,6.77-1.15h0c4.76-4.16,9.31-7.7,13.58-10.41h0c2.16-2.94,3.87-5.15,5.37-6.73h0c-7.65,2.58-16.53,9.05-25.72,18.28"/>
          <path class="cls-41" d="M960.12,746.28c-2.02,1.83-4.2,3.75-6.58,5.74l2.64,1.49c1.22-2.63,2.54-5.04,3.94-7.23"/>
          <path class="cls-11" d="M986.36,730.52s-.04,0-.06-.02h0s-.07-.03-.1-.04h0s-.04-.02-.06-.02h0s-.07-.03-.11-.04h0s-.03-.02-.05-.01h0c-.08-.03-.16-.06-.24-.09h-.03s-.08-.04-.12-.05h0s-.04,0-.06-.02h0s-.08-.02-.11-.04h0s-.04,0-.05-.02h0c-.13-.04-.27-.07-.4-.11h0s-.03,0-.05-.01h0s-.08-.02-.12-.03h0s-.04,0-.06-.01h0s-.08-.02-.12-.03h0s-.03,0-.04-.01h0c-.1-.01-.19-.03-.29-.05h0s-.09-.02-.13-.02h0s-.03,0-.06,0h0s-.08-.01-.12-.02h0s-.03,0-.04,0h0c-6.53-.85-12.56,6.22-23.82,16.42h0c-1.4,2.19-2.72,4.61-3.94,7.23h0l.37,.21c1.04,.59,1.34,.75,2.54,1.42h0l.06,.03,.18,.1,.06,.03h.02s.06,.04,.06,.04l.03,.02h.02s.05,.04,.05,.04l.15,.08,.15,.08,.13,.07,.03,.02,.22,.12h0c.09,.04,.17,.08,.26,.13h.02s.08,.04,.11,.06h.03s.09,.05,.13,.07h0c9.19-9.23,18.07-15.7,25.72-18.28h0c1.12-1.18,2.11-1.99,3.08-2.49h0c-.18-.95-.44-1.81-.8-2.53h0s-.01,0-.01-.02h0s-.05-.06-.07-.09h0s-.04-.06-.07-.09h0s-.05-.06-.07-.09h0s-.05-.06-.08-.09h0s-.04-.05-.06-.08h0c-.05-.05-.09-.1-.13-.15h0s-.04-.04-.06-.06h0s-.07-.08-.1-.11h0s-.04-.04-.05-.06h0c-.05-.05-.1-.1-.14-.15h-.01c-.05-.06-.11-.11-.17-.17h0s-.02-.03-.04-.04h0s-.09-.09-.14-.13h0s-.02-.03-.03-.03h0c-.11-.11-.24-.21-.36-.31h0s-.02-.03-.04-.03h0c-.05-.04-.1-.08-.16-.12h0s-.02-.02-.03-.03h0c-.06-.05-.13-.09-.19-.14h0l-.03-.02h0s-.1-.07-.15-.1h0c-.09-.04-.17-.08-.25-.11"/>
          <path class="cls-25" d="M1023.16,761.14c-2.72,3.76-4.95,6.87-6.83,9.4h0c5.29-3.25,10.95-7.91,16.75-13.69h0c-4.41-.93-7.47,.9-9.93,4.29"/>
          <path class="cls-37" d="M1012.61,783.07c-.22,0-.43-.01-.64-.03,8.14,.66,20.71-7.84,29.87-22.11l-.82-.46c-14.75,12.35-21.38,22.45-28.4,22.6"/>
          <path class="cls-44" d="M1008.43,778.97c2.16-1.12,4.46-3.8,7.91-8.43-2.87,1.76-5.63,3.11-8.25,4t-.02,.01c.01,1.63,.11,3.12,.35,4.41"/>
          <path class="cls-19" d="M1008.43,778.97c-.74,.38-1.45,.58-2.19,.62-.16,0-.32,0-.49,0,.54,.74,1.18,1.4,1.95,1.95h0c.11,.08,.23,.16,.34,.23h.02c.05,.04,.11,.08,.17,.12h.02s.17,.11,.17,.11l.19,.11,.06,.03,.13,.08s.04,.02,.07,.03c.04,.02,.09,.05,.13,.06h.02s.05,.04,.05,.04c.04,.02,.1,.04,.14,.06h.01s.03,.01,.05,.02c.05,.02,.11,.04,.16,.06l.04,.02c.06,.02,.12,.04,.18,.06h.01s.02,.02,.02,.02c.12,.04,.24,.08,.35,.11-.81-.87-1.32-2.14-1.61-3.71"/>
          <path class="cls-29" d="M994.53,774.15c.66,.38,1.36,.69,2.07,.93,.66,.23,1.34,.4,2.04,.53,.44,.56,.92,1.07,1.46,1.52,.42,.35,.87,.66,1.36,.94l-6.94-3.92h0Z"/>
          <path class="cls-29" d="M1001.47,778.07c1.64,.93,3.01,1.46,4.28,1.52,.54,.74,1.18,1.4,1.95,1.95h0c.11,.08,.23,.16,.34,.23h.02c.05,.04,.11,.08,.17,.12h.02s.17,.11,.17,.11l-6.96-3.94h0Z"/>
          <path class="cls-30" d="M1008.43,782l.19,.11,.06,.03,.13,.07s.04,.02,.07,.03c.04,.02,.09,.05,.13,.06h.01s.05,.04,.05,.04c.04,.02,.1,.04,.14,.06h.01s.03,.01,.05,.02c.05,.02,.11,.04,.16,.06,.02,0,.03,.02,.05,.01,.06,.02,.12,.05,.18,.07h.01s.02,.02,.02,.02c.12,.04,.24,.08,.35,.11h0c.28,.31,.6,.56,.96,.76l-2.56-1.44h0Z"/>
          <path class="cls-24" d="M1008.07,774.56h0c-.96,.32-1.9,.58-2.82,.78-.48,.1-.95,.19-1.42,.26,.2,.59,.41,1.15,.64,1.69,.36,.83,.78,1.6,1.28,2.29,.16,0,.32,0,.48,0,.74-.03,1.46-.24,2.19-.62-.24-1.29-.34-2.78-.35-4.41"/>
          <path class="cls-42" d="M1038.4,759l-3.46-1.95-.34-.19h0l-.33-.18h-.01c-.23-.12-.45-.24-.67-.34h0c-.17,.17-.35,.34-.52,.52h0c-5.8,5.78-11.46,10.44-16.75,13.69h0c-3.44,4.62-5.75,7.3-7.91,8.43h0c.29,1.57,.8,2.84,1.61,3.71h0s.05,.02,.08,.02h.01s.04,.02,.05,.03h0s.08,.03,.12,.03h0s.05,.01,.07,.02h0s.08,.02,.11,.03h0s.05,0,.07,.02h0c.06,.01,.11,.03,.17,.04h0s.06,0,.08,.02h0s.06,.01,.1,.02h0s.07,.02,.1,.02h0s.05,0,.08,.01h0c.07,.01,.13,.03,.2,.03h0s.04,0,.06,0h0s.08,.01,.12,.02h0s.03,0,.05,0h0c.14,.02,.29,.03,.44,.04h.01c.21,.03,.43,.04,.64,.04h0c7.02-.15,13.65-10.25,28.4-22.6h0l-2.6-1.47h0Z"/>
          <path class="cls-33" d="M986.61,730.63s.03,.02,.04,.04c.04,.02,.07,.04,.1,.07l.04,.02c.06,.05,.13,.09,.19,.14,.01,0,.02,.01,.03,.03,.05,.04,.1,.08,.16,.12,.01,0,.02,.03,.04,.03,.12,.1,.24,.2,.36,.31,.01,0,.02,.02,.03,.03,.05,.04,.09,.09,.14,.13,.02,0,.02,.03,.04,.04,.06,.05,.11,.1,.17,.16,0,0,0,0,.01,.02,.05,.05,.09,.1,.14,.15,.02,.02,.04,.04,.05,.06,.03,.04,.07,.08,.1,.11,.02,.01,.04,.04,.06,.06,.04,.05,.09,.1,.13,.15,.02,.03,.04,.05,.06,.08,.02,.03,.05,.06,.08,.09,.02,.03,.05,.06,.07,.09,.02,.03,.05,.06,.07,.09,.55,.72,1.02,1.52,1.42,2.39,.28-.11,.56-.2,.84-.26-.95-1.62-2.18-2.94-3.79-3.85-.19-.11-.38-.2-.57-.29"/>
          <path class="cls-5" d="M990.13,735.03c.24,.53,.45,1.1,.64,1.69,.37-.05,.74-.1,1.1-.13-.27-.64-.57-1.25-.9-1.82-.28,.06-.56,.14-.84,.26"/>
          <path class="cls-35" d="M986.61,730.63c.19,.09,.38,.19,.57,.29,1.61,.91,2.85,2.23,3.79,3.85,1.63-.35,3.32,.16,5.51,1.39l-10.58-5.98c.24,.14,.48,.29,.71,.44"/>
          <path class="cls-26" d="M996.48,736.16c-2.18-1.23-3.87-1.74-5.51-1.39,.33,.57,.63,1.18,.9,1.82,2.19-.19,4.23,.01,6.1,.66,.72,.25,1.41,.56,2.07,.93l-3.57-2.02h0Z"/>
          <path class="cls-50" d="M1016.33,770.55c1.88-2.53,4.1-5.65,6.83-9.41,2.45-3.39,5.52-5.22,9.92-4.29,.18-.17,.35-.35,.52-.52-6.64-3.27-10.77-1.48-13.9,2.84-5.47,7.55-8.9,12.51-11.62,15.37,2.62-.89,5.38-2.24,8.25-4"/>
          <path d="M1022.45,787.09l-.74-.42-.75,2.43-.3-.17,.75-2.43-.74-.42,.09-.29,1.78,1.01-.09,.29h0Z"/>
          <path d="M1024.73,791.23l-.3-.17,.56-1.82c.04-.14,.11-.31,.19-.51h0c-.07,.11-.12,.18-.16,.22l-1.52,1.59-.15-.08-.24-2.57c0-.07,0-.18,0-.33h-.01c-.02,.11-.07,.29-.15,.53l-.56,1.82-.29-.16,.84-2.72,.4,.22,.2,2.34c.02,.18,.02,.31,.02,.39h.01c.1-.11,.18-.2,.23-.26l1.38-1.43,.38,.21-.84,2.72h0Z"/>
        </g>
      </g>
      <g>
        <path d="M495.57,155.99l-18.51-10.92,5.47-17.77,18.51,10.92-5.47,17.77Z"/>
        <path d="M571.43,132.03l4.74-15.39,16.93,9.99-22.65,73.55-19.14-11.29-9.27-40.13c-2.79-12.47-4.62-21.44-5.5-26.93-2.63,9.6-5.97,21.01-10.05,34.23l-4.74,15.39-16.93-9.99,22.65-73.55,19.14,11.29,9.27,40.13c2.63,11.64,4.44,20.69,5.44,27.13,2.67-9.74,6.04-21.22,10.11-34.44Z"/>
        <path d="M661.68,167.1l-4.8,15.6-39.44-23.27-4.1,13.32,35.87,21.16-4.52,14.67-35.87-21.16-4.42,14.36,39.34,23.21-4.8,15.6-57.11-33.7,22.65-73.55,57.22,33.76Z"/>
        <path d="M665.57,169.39l63.84,37.67-4.8,15.6-23.03-13.59-17.85,57.95-17.88-10.55,17.85-57.95-22.93-13.53,4.8-15.6Z"/>
        <path d="M492.59,173.37l5.82-6.91,5.15,3.04-5.66,18.39-3.39-2,1.73-5.6c1.06-3.44,2.03-6.46,2.91-9.05-.78,1.06-1.69,2.2-2.72,3.4l-7.02,8.25-2.92-1.72-.58-12.73c-.08-2.3-.11-3.97-.11-5.01-.74,2.66-1.63,5.7-2.69,9.13l-1.73,5.6-3.42-2.02,5.66-18.39,5.15,3.04,.48,10.84c.02,.73,.05,2.7,.07,5.93,1.15-1.58,2.23-2.98,3.25-4.19Z"/>
        <path d="M508.44,194.56c-2.44-1.44-4.15-3.21-5.15-5.31-1-2.1-1.14-4.31-.43-6.62l3.53-11.47,3.55,2.09-3.54,11.49c-.43,1.39-.39,2.67,.13,3.83,.51,1.16,1.46,2.14,2.85,2.96s2.56,1.08,3.52,.79c.96-.29,1.65-1.13,2.08-2.53l3.54-11.49,3.55,2.09-3.53,11.47c-.72,2.34-1.97,3.74-3.74,4.18-1.77,.45-3.89-.05-6.34-1.5Z"/>
        <path d="M523.4,181.2l15.57,9.18-.96,3.12-6-3.54-4.7,15.26-3.58-2.11,4.7-15.26-5.99-3.54,.96-3.12Z"/>
        <path d="M549.24,218.18l-3.76-2.22-.22-4.92-8.2-4.84-2.69,3.2-3.65-2.16,12.79-14.18,4.15,2.45,1.59,22.67Zm-8.87-15.89l-1.32,1.57,6.05,3.57-.12-2.42c-.14-1.89-.27-4.45-.37-7.67-1.39,1.7-2.8,3.35-4.23,4.95Z"/>
        <path d="M571.73,209.72l-8.93,5.29,3.64,13.32-4.13-2.44-1.14-4.18c-.51-1.91-.96-3.65-1.34-5.22-1.09,.7-2.3,1.46-3.65,2.27l-2.99,1.74-4.02-2.37,9.49-5.48-3.43-12.67,4.1,2.42,1.02,3.84c.27,.95,.67,2.58,1.22,4.9,.51-.33,1.04-.66,1.58-1,.54-.34,.95-.6,1.23-.78,.28-.18,.49-.3,.61-.37l2.74-1.62,4,2.36Z"/>
        <path d="M584.87,239.2l-3.76-2.22-.22-4.92-8.2-4.84-2.69,3.2-3.65-2.16,12.79-14.18,4.15,2.45,1.59,22.67Zm-8.87-15.89l-1.32,1.57,6.05,3.57-.12-2.42c-.14-1.89-.27-4.45-.37-7.67-1.39,1.7-2.8,3.35-4.23,4.95Z"/>
        <path d="M592.84,244.39c-2.54-1.5-4.34-3.22-5.39-5.16-1.05-1.94-1.26-3.96-.64-6.05l3.5,2.06c-.39,1.32-.28,2.49,.33,3.52,.6,1.03,1.66,1.99,3.17,2.88,1.23,.72,2.23,1.05,3.02,.98,.79-.07,1.32-.54,1.58-1.4,.22-.72,.12-1.44-.32-2.14-.44-.7-1.34-1.63-2.7-2.78l-1.48-1.24c-3.79-3.11-5.22-6.15-4.3-9.13,.49-1.58,1.49-2.48,3.01-2.7,1.52-.21,3.36,.32,5.54,1.6,2.47,1.46,4.18,3.08,5.14,4.86s1.18,3.62,.68,5.53l-3.45-2.03c.25-1.09,.14-2.08-.35-2.95-.49-.88-1.43-1.73-2.83-2.56-1.09-.64-1.98-.93-2.68-.88-.7,.06-1.16,.44-1.38,1.17s-.14,1.47,.28,2.18c.41,.71,1.26,1.61,2.54,2.69l1.54,1.27c2.06,1.72,3.44,3.3,4.15,4.72,.71,1.43,.84,2.89,.37,4.39-.55,1.79-1.65,2.79-3.28,2.99-1.64,.2-3.65-.4-6.03-1.8Z"/>
        <path d="M609.77,254.38c-2.54-1.5-4.34-3.22-5.39-5.16-1.05-1.94-1.26-3.96-.64-6.05l3.5,2.06c-.39,1.32-.28,2.49,.33,3.52,.6,1.03,1.66,1.99,3.17,2.88,1.23,.72,2.23,1.05,3.02,.98,.79-.07,1.32-.54,1.58-1.4,.22-.72,.12-1.44-.32-2.14-.44-.7-1.34-1.63-2.7-2.78l-1.48-1.24c-3.79-3.11-5.22-6.15-4.3-9.13,.49-1.58,1.49-2.48,3.01-2.7,1.52-.21,3.36,.32,5.54,1.6,2.47,1.46,4.18,3.08,5.14,4.86,.95,1.78,1.18,3.62,.68,5.53l-3.44-2.03c.25-1.09,.14-2.08-.35-2.95-.49-.88-1.43-1.73-2.83-2.56-1.09-.64-1.98-.93-2.68-.88-.7,.06-1.16,.44-1.38,1.17-.23,.74-.14,1.47,.28,2.18,.41,.71,1.26,1.61,2.54,2.69l1.54,1.27c2.06,1.72,3.44,3.3,4.15,4.72,.71,1.43,.84,2.89,.37,4.39-.55,1.79-1.65,2.79-3.28,2.99-1.64,.2-3.65-.4-6.03-1.8Z"/>
        <path d="M623.07,261.74l-3.55-2.09,5.66-18.39,3.55,2.09-5.66,18.39Z"/>
        <path d="M633.15,268.17c-2.54-1.5-4.34-3.22-5.39-5.16-1.05-1.94-1.26-3.96-.64-6.05l3.5,2.06c-.39,1.32-.28,2.49,.33,3.52,.6,1.03,1.66,1.99,3.17,2.88,1.23,.72,2.23,1.05,3.02,.98,.79-.07,1.32-.54,1.58-1.4,.22-.72,.12-1.44-.32-2.14-.44-.7-1.34-1.63-2.7-2.78l-1.48-1.24c-3.79-3.11-5.22-6.15-4.3-9.13,.49-1.58,1.49-2.48,3.01-2.7,1.52-.21,3.36,.32,5.54,1.6,2.47,1.46,4.18,3.08,5.14,4.86,.95,1.78,1.18,3.62,.68,5.53l-3.44-2.03c.25-1.09,.14-2.08-.35-2.95-.49-.88-1.43-1.73-2.83-2.56-1.09-.64-1.98-.93-2.68-.88-.7,.06-1.16,.44-1.38,1.17s-.14,1.47,.28,2.18c.41,.71,1.26,1.61,2.54,2.69l1.54,1.27c2.06,1.72,3.44,3.3,4.15,4.72,.71,1.43,.84,2.89,.37,4.39-.55,1.79-1.65,2.79-3.28,2.99-1.64,.2-3.65-.4-6.03-1.8Z"/>
        <path d="M652.11,257.15l-4.7,15.26,8.91,5.26-.96,3.13-12.46-7.35,5.66-18.39,3.55,2.09Z"/>
        <path d="M660.86,284.04l-3.55-2.09,5.66-18.39,3.55,2.09-5.66,18.39Z"/>
        <path d="M675.09,284.04l.87-2.81,8.36,4.93-3.05,9.92-2.58-1.52,.25-2.72c-1.93,1.1-4.26,.84-6.98-.76-2.7-1.59-4.59-3.75-5.68-6.47-1.09-2.72-1.19-5.52-.3-8.42,.89-2.89,2.44-4.73,4.65-5.52,2.2-.76,4.72-.3,7.56,1.38,2.35,1.39,4.12,3.13,5.32,5.22,1.18,2.08,1.62,4.22,1.32,6.42l-3.65-2.16c.07-1.24-.24-2.43-.94-3.57-.69-1.14-1.68-2.09-2.96-2.85-1.72-1.01-3.26-1.23-4.62-.65-1.36,.58-2.35,1.89-2.98,3.92-.63,2.03-.61,3.93,.05,5.7,.66,1.77,1.87,3.18,3.64,4.22,1.4,.83,2.73,1.12,3.98,.89s2.13-.99,2.62-2.27l-4.89-2.89Z"/>
        <path d="M687.6,299.82l-3.55-2.09,5.66-18.39,3.55,2.09-5.66,18.39Z"/>
      </g>
    </g>
  </g>
</svg>