<?xml version="1.0" encoding="UTF-8"?>
<svg id="Layer_2" data-name="Layer 2"
  xmlns="http://www.w3.org/2000/svg"
  xmlns:xlink="http://www.w3.org/1999/xlink" viewBox="0 0 1195.25 1331.01">
  <defs>
    <style>
      .cls-1 {
        fill: #636464;
      }

      .cls-2 {
        fill: url(#linear-gradient-2);
      }

      .cls-3 {
        fill: #253699;
      }

      .cls-4 {
        fill: #f4f4f4;
      }

      .cls-5 {
        fill: #fff;
      }

      .cls-6 {
        fill: #020230;
        opacity: .1;
      }

      .cls-6, .cls-7 {
        isolation: isolate;
      }

      .cls-8 {
        fill: url(#linear-gradient-6);
      }

      .cls-9 {
        fill: #1474a7;
      }

      .cls-10 {
        fill: #646464;
      }

      .cls-11 {
        fill: #586cc4;
      }

      .cls-12 {
        fill: #3449af;
      }

      .cls-13 {
        fill: url(#linear-gradient-5);
      }

      .cls-14, .cls-7 {
        fill: #06033e;
      }

      .cls-15 {
        fill: #fed000;
      }

      .cls-16 {
        opacity: .3;
      }

      .cls-17 {
        fill: url(#linear-gradient-7);
      }

      .cls-18 {
        fill: url(#linear-gradient-3);
      }

      .cls-7, .cls-19 {
        opacity: .4;
      }

      .cls-20 {
        fill: url(#linear-gradient);
      }

      .cls-21 {
        fill: url(#linear-gradient-4);
      }

      .cls-22 {
        fill: url(#linear-gradient-8);
      }

      .cls-23 {
        fill: #fcfcfc;
      }
    </style>
    <linearGradient id="linear-gradient" x1="408.08" y1="-11585.8" x2="1147.4" y2="-11598.72" gradientTransform="translate(0 -11057.46) scale(1 -1)" gradientUnits="userSpaceOnUse">
      <stop offset="0" stop-color="#fcff9e"/>
      <stop offset="1" stop-color="#a05000"/>
    </linearGradient>
    <linearGradient id="linear-gradient-2" x1=".17" y1="-11950.98" x2="978.54" y2="-11950.98" gradientTransform="translate(0 -11057.46) scale(1 -1)" gradientUnits="userSpaceOnUse">
      <stop offset="0" stop-color="#fcff9e"/>
      <stop offset="1" stop-color="#c67700"/>
    </linearGradient>
    <linearGradient id="linear-gradient-3" x1="0" y1="-11934.14" x2="978.71" y2="-11934.14" gradientTransform="translate(0 -11057.46) scale(1 -1)" gradientUnits="userSpaceOnUse">
      <stop offset="0" stop-color="#fcff9e"/>
      <stop offset=".14" stop-color="#f5ec88"/>
      <stop offset=".36" stop-color="#e9ce66"/>
      <stop offset=".65" stop-color="#d9a738"/>
      <stop offset=".97" stop-color="#c87c06"/>
      <stop offset="1" stop-color="#c67700"/>
    </linearGradient>
    <linearGradient id="linear-gradient-4" x1="397.6" y1="-11594.18" x2="1125.79" y2="-11594.18" xlink:href="#linear-gradient-2"/>
    <linearGradient id="linear-gradient-5" x1="409.77" y1="-11594.38" x2="1113.85" y2="-11594.38" gradientTransform="translate(0 -11057.46) scale(1 -1)" gradientUnits="userSpaceOnUse">
      <stop offset="0" stop-color="#3919ba"/>
      <stop offset="1" stop-color="#6507f9"/>
    </linearGradient>
    <linearGradient id="linear-gradient-6" x1="935.79" y1="-11831.52" x2="1106.02" y2="-11831.52" gradientTransform="translate(0 -11057.46) scale(1 -1)" gradientUnits="userSpaceOnUse">
      <stop offset="0" stop-color="#0cf"/>
      <stop offset=".14" stop-color="#00c3ff"/>
      <stop offset=".36" stop-color="#01acff"/>
      <stop offset=".65" stop-color="#0185ff"/>
      <stop offset=".97" stop-color="#0250ff"/>
      <stop offset="1" stop-color="#024bff"/>
    </linearGradient>
    <linearGradient id="linear-gradient-7" x1="1025" y1="-11556.63" x2="1195.25" y2="-11556.63" xlink:href="#linear-gradient-6"/>
    <linearGradient id="linear-gradient-8" x1="440.52" y1="-11294.6" x2="896.08" y2="-11294.6" xlink:href="#linear-gradient-6"/>
  </defs>
  <g id="Layer_1-2" data-name="Layer 1">
    <g>
      <path class="cls-6" d="M573.8,1327.8L5.59,999.74c-8.28-4.78-7.24-13.14,2.33-18.66l364.67-210.54c9.57-5.52,24.03-6.13,32.29-1.36l568.23,328.06c8.29,4.79,7.25,13.21-2.32,18.66l-364.68,210.54c-9.56,5.52-24.03,6.13-32.31,1.36Z"/>
      <path class="cls-20" d="M1124.08,470.29L558.09,143.53c-1.71-1.05-3.62-1.74-5.6-2.03-1.99-.29-4.01-.16-5.95,.37l-10.57,3.68,3.68,.88c-1.58,1.9-2.76,4.1-3.46,6.47l-127.93,415.55c-3.17,10.28,1.47,22.83,10.38,27.96l565.97,326.77c1.31,.75,2.71,1.32,4.16,1.7l-1.47,3.06,10.01-3.51c2.22-.97,4.19-2.42,5.77-4.25,1.57-1.84,2.72-4,3.34-6.34l127.99-415.58c3.2-10.32-1.44-22.84-10.33-27.98Z"/>
      <path class="cls-2" d="M964.33,938.71l.2,.25L405.49,616.19c-8.22-4.74-22.59-4.14-32.07,1.34L12.22,826.06l-12.05-4.59,3.39,16.97c.35,1.45,1.02,2.79,1.96,3.95,.94,1.16,2.12,2.09,3.46,2.73l564.21,325.74c8.21,4.76,22.58,4.15,32.07-1.33l362.15-209.06c4.4-2.58,7.03-5.78,7.68-8.96l3.47-16.44-14.21,3.64Z"/>
      <path class="cls-18" d="M573.8,1155.98L5.59,827.94c-8.28-4.78-7.24-13.21,2.33-18.66l364.67-210.55c9.57-5.53,24.03-6.12,32.29-1.35l568.23,328.06c8.29,4.79,7.25,13.21-2.32,18.66l-364.68,210.54c-9.56,5.52-24.03,6.13-32.31,1.34Z"/>
      <path class="cls-5" d="M970.8,939.71l-364.69,210.5c-9.56,5.52-24.03,6.13-32.29,1.34L5.59,823.5c-2.41-1.23-4.25-3.33-5.17-5.87-1.09,3.8,.51,7.61,5.17,10.28l568.21,328.07c8.28,4.79,22.75,4.18,32.29-1.34l364.7-210.52c6.31-3.64,8.81-8.5,7.48-12.75-.85,2.94-3.3,5.89-7.48,8.35Z"/>
      <g class="cls-19">
        <path class="cls-14" d="M276.63,774.69l-19.19-11.12c-1.54-.88-1.35-2.44,.43-3.47l22.68-13.04c.91-.51,1.93-.8,2.97-.84,1.04-.04,2.08,.16,3.03,.59l19.19,11.09c1.54,.9,1.35,2.43-.44,3.47l-22.64,13.08c-.92,.51-1.94,.8-2.99,.85-1.05,.04-2.09-.16-3.05-.6Z"/>
        <path class="cls-14" d="M306.25,791.81l-19.19-11.09c-1.54-.88-1.35-2.43,.43-3.46l22.65-13.07c.91-.51,1.93-.8,2.97-.84,1.04-.04,2.08,.16,3.03,.59l19.19,11.07c1.54,.9,1.35,2.46-.43,3.47l-22.65,13.08c-.91,.52-1.93,.8-2.97,.85-1.04,.04-2.08-.16-3.03-.59Z"/>
        <path class="cls-14" d="M335.87,808.9l-19.19-11.07c-1.54-.9-1.35-2.45,.43-3.48l22.65-13.06c.91-.51,1.93-.8,2.97-.84,1.04-.04,2.08,.16,3.03,.59l19.19,11.07c1.54,.9,1.35,2.45-.43,3.48l-22.65,13.06c-.91,.51-1.93,.8-2.97,.84-1.04,.05-2.08-.16-3.03-.59Z"/>
        <path class="cls-14" d="M376.85,794.78l-19.19-11.08c-1.47-.88-1.35-2.44,.44-3.47l19-10.97c.91-.51,1.93-.8,2.98-.84,1.05-.04,2.09,.16,3.04,.59l19.19,11.07c1.54,.9,1.34,2.43-.44,3.47l-19.01,10.98c-.91,.51-1.93,.79-2.97,.83-1.04,.04-2.08-.16-3.03-.59Z"/>
        <path class="cls-14" d="M406.46,811.87l-19.19-11.07c-1.47-.9-1.34-2.46,.44-3.48l19.07-10.97c.91-.51,1.93-.8,2.97-.84,1.04-.04,2.08,.16,3.03,.59l19.19,11.07c1.54,.9,1.35,2.45-.44,3.48l-19,10.97c-.92,.52-1.95,.81-3.01,.85-1.06,.04-2.11-.16-3.07-.61Z"/>
        <path class="cls-14" d="M436.14,828.96l-19.24-11.09c-1.47-.9-1.34-2.46,.44-3.48l19.01-10.97c.91-.51,1.93-.8,2.97-.84,1.04-.04,2.08,.16,3.03,.59l19.19,11.07c1.54,.9,1.35,2.45-.44,3.48l-19,10.97c-.9,.5-1.91,.79-2.95,.84-1.03,.05-2.07-.15-3.01-.56Z"/>
        <path class="cls-14" d="M465.71,846.08l-19.17-11.07c-1.54-.9-1.35-2.43,.43-3.47l19.01-10.97c.91-.52,1.93-.8,2.97-.85,1.04-.04,2.08,.16,3.03,.59l19.19,11.09c1.47,.88,1.35,2.43-.43,3.47l-19.01,10.9c-.91,.52-1.93,.82-2.97,.87-1.05,.06-2.09-.13-3.05-.56Z"/>
        <path class="cls-14" d="M495.35,863.18l-19.19-11.09c-1.54-.88-1.35-2.43,.43-3.46l19.01-10.98c.91-.51,1.93-.8,2.97-.84,1.04-.04,2.08,.16,3.03,.59l19.19,11.09c1.47,.88,1.35,2.43-.43,3.47l-19.01,10.98c-.91,.5-1.93,.79-2.97,.83s-2.08-.16-3.03-.59Z"/>
        <path class="cls-14" d="M524.97,880.28l-19.19-11.04c-1.54-.88-1.35-2.43,.43-3.47l19.01-10.98c.91-.5,1.93-.79,2.97-.83,1.04-.04,2.08,.16,3.03,.59l19.19,11.08c1.54,.88,1.35,2.44-.43,3.47l-19.01,10.98c-.92,.5-1.94,.78-2.98,.82-1.04,.04-2.08-.18-3.03-.61Z"/>
        <path class="cls-14" d="M554.59,897.38l-19.19-11.08c-1.54-.88-1.35-2.43,.43-3.47l19.01-10.97c.91-.51,1.93-.8,2.98-.84,1.05-.04,2.09,.16,3.04,.59l19.14,11.07c1.54,.9,1.35,2.43-.43,3.47l-19.08,10.98c-.9,.49-1.9,.77-2.92,.81-1.02,.05-2.04-.15-2.98-.56Z"/>
        <path class="cls-14" d="M584.22,914.51l-19.19-11.07c-1.54-.9-1.35-2.46,.43-3.48l19.08-10.97c.92-.51,1.93-.8,2.99-.84,1.04-.04,2.08,.16,3.03,.59l19.19,11.07c1.47,.9,1.33,2.45-.44,3.48l-19.08,10.97c-.91,.51-1.93,.8-2.97,.84-1.04,.04-2.08-.16-3.03-.59Z"/>
        <path class="cls-14" d="M613.83,931.6l-19.15-11.07c-1.54-.9-1.35-2.46,.44-3.48l19-10.97c.91-.51,1.93-.8,2.98-.84,1.04-.05,2.09,.16,3.04,.59l19.18,11.07c1.55,.9,1.34,2.45-.44,3.48l-19.08,10.97c-.9,.5-1.92,.78-2.95,.83-1.04,.04-2.07-.16-3.01-.58Z"/>
        <path class="cls-14" d="M643.47,948.69l-19.19-11.07c-1.47-.89-1.33-2.43,.44-3.46l19.01-10.98c.91-.52,1.93-.8,2.97-.85,1.04-.04,2.08,.16,3.03,.59l19.19,11.09c1.47,.88,1.35,2.43-.44,3.47l-18.99,11.04c-.92,.49-1.95,.77-2.99,.8-1.04,.03-2.08-.18-3.03-.63Z"/>
        <path class="cls-14" d="M420.5,786.67l-19.19-11.07c-1.47-.9-1.35-2.45,.43-3.48l19.01-10.96c.91-.52,1.93-.8,2.97-.85,1.04-.04,2.08,.16,3.03,.59l19.19,11.07c1.54,.89,1.35,2.45-.43,3.48l-19.01,10.96c-.91,.52-1.93,.8-2.97,.85-1.04,.04-2.08-.16-3.03-.59Z"/>
        <path class="cls-14" d="M390.43,769.31l-19.17-11.08c-1.54-.88-1.35-2.44,.43-3.47l18.97-10.98c.91-.51,1.93-.79,2.97-.84,1.04-.04,2.08,.16,3.03,.59l19.19,11.08c1.54,.88,1.35,2.43-.43,3.47l-18.89,10.98c-.92,.52-1.96,.81-3.02,.85-1.06,.04-2.11-.16-3.08-.61Z"/>
        <path class="cls-14" d="M360.31,751.92l-41.32-23.85c-1.54-.88-1.35-2.43,.44-3.47l19-10.95c.91-.5,1.93-.79,2.98-.83,1.04-.04,2.09,.16,3.04,.59l41.31,23.85c1.54,.9,1.35,2.45-.43,3.48l-19.01,10.97c-.91,.5-1.93,.79-2.98,.83-1.04,.04-2.08-.17-3.03-.61Z"/>
        <path class="cls-14" d="M381.36,730.78l-33.53-19.36c-1.47-.9-1.35-2.43,.43-3.47l19.01-10.98c.91-.51,1.93-.79,2.97-.83,1.04-.04,2.08,.16,3.03,.59l33.51,19.36c1.54,.88,1.35,2.44-.43,3.47l-19.08,10.98c-.9,.49-1.9,.77-2.93,.81-1.03,.05-2.05-.15-2.99-.56Z"/>
        <path class="cls-14" d="M450.13,803.78l-19.19-11.07c-1.54-.9-1.35-2.43,.43-3.47l19.01-10.99c.91-.52,1.93-.8,2.98-.85,1.05-.04,2.09,.16,3.04,.59l19.17,11.09c1.47,.88,1.35,2.43-.43,3.46l-19.01,10.97c-.91,.52-1.93,.8-2.97,.85-1.04,.04-2.08-.16-3.03-.59Z"/>
        <path class="cls-14" d="M479.75,820.9l-19.19-11.09c-1.54-.88-1.35-2.43,.43-3.47l19.01-10.97c.91-.51,1.94-.8,2.98-.84,1.05-.04,2.09,.16,3.04,.59l19.13,11.02c1.54,.88,1.35,2.44-.43,3.47l-19.01,10.98c-.9,.51-1.91,.8-2.94,.85-1.03,.06-2.07-.13-3.02-.54Z"/>
        <path class="cls-14" d="M509.37,837.99l-19.19-11.09c-1.54-.88-1.35-2.43,.44-3.47l19-10.98c.91-.5,1.94-.79,2.98-.83,1.04-.04,2.09,.16,3.04,.59l19.19,11.09c1.47,.88,1.34,2.43-.44,3.46l-18.97,10.98c-.92,.52-1.94,.8-2.99,.85-1.05,.04-2.1-.16-3.05-.59Z"/>
        <path class="cls-14" d="M539,855.08l-19.17-11.09c-1.54-.88-1.34-2.43,.44-3.47l19-10.92c.91-.51,1.93-.8,2.97-.84,1.04-.05,2.08,.16,3.03,.59l19.19,11.07c1.54,.9,1.34,2.43-.44,3.47l-19,10.98c-.92,.5-1.94,.78-2.98,.82-1.05,.04-2.08-.18-3.03-.61Z"/>
        <path class="cls-14" d="M568.6,872.19l-19.19-11.07c-1.47-.9-1.34-2.46,.44-3.48l19.01-10.97c.91-.51,1.93-.8,2.97-.84,1.04-.05,2.08,.16,3.03,.59l19.18,11.09c1.55,.9,1.35,2.45-.44,3.48l-19,10.97c-.91,.51-1.93,.79-2.98,.83s-2.09-.16-3.04-.6Z"/>
        <path class="cls-14" d="M598.24,889.31l-19.18-11.07c-1.54-.9-1.35-2.45,.43-3.48l19.08-10.96c.91-.52,1.93-.8,2.97-.85,1.04-.04,2.08,.16,3.03,.59l19.19,11.07c1.47,.89,1.35,2.45-.42,3.48l-19.08,10.96c-.92,.52-1.93,.8-2.99,.85-1.04,.04-2.08-.16-3.03-.59Z"/>
        <path class="cls-14" d="M627.88,906.4l-19.18-11.07c-1.55-.9-1.36-2.43,.42-3.47l19.01-10.98c.92-.51,1.93-.8,2.98-.84,1.04-.04,2.08,.16,3.03,.59l19.19,11.09c1.47,.88,1.35,2.43-.43,3.46l-19.01,10.97c-.91,.51-1.93,.8-2.97,.84-1.04,.05-2.08-.16-3.03-.59Z"/>
        <path class="cls-14" d="M657.49,923.56l-19.18-11.09c-1.55-.88-1.36-2.43,.42-3.47l19.08-10.98c.91-.5,1.93-.79,2.97-.83,1.04-.04,2.08,.16,3.03,.59l19.11,11.1c1.47,.88,1.35,2.43-.42,3.46l-19.08,10.98c-.9,.49-1.91,.77-2.94,.81-1.02,.04-2.05-.16-2.99-.57Z"/>
        <path class="cls-14" d="M687.17,940.63l-19.18-11.09c-1.47-.88-1.36-2.43,.42-3.47l19.01-10.98c.91-.5,1.93-.79,2.98-.83,1.04-.04,2.08,.16,3.03,.59l19.18,11.08c1.54,.88,1.35,2.44-.43,3.47l-19.08,10.98c-.9,.49-1.91,.78-2.94,.82-1.02,.04-2.05-.15-2.99-.56Z"/>
        <path class="cls-14" d="M739.8,971.01l-41.86-24.16c-1.55-.9-1.35-2.44,.44-3.47l19-11.01c.91-.51,1.93-.8,2.98-.84s2.08,.16,3.04,.59l41.85,24.16c1.54,.9,1.35,2.45-.43,3.48l-19.01,10.97c-.91,.52-1.93,.8-2.97,.85-1.04,.05-2.08-.15-3.03-.58Z"/>
        <path class="cls-14" d="M797.46,937.73l-35.33-20.4c-1.55-.88-1.36-2.44,.42-3.47l19.01-10.98c.91-.51,1.93-.79,2.98-.84,1.04-.04,2.08,.16,3.03,.59l35.32,20.4c1.47,.88,1.35,2.43-.42,3.47l-19.01,10.98c-.91,.5-1.93,.79-2.97,.83-1.04,.04-2.08-.16-3.03-.59Z"/>
        <path class="cls-14" d="M502.01,800.43l-19.19-11.07c-1.54-.9-1.35-2.44,.43-3.47l18.97-10.98c.91-.51,1.93-.8,2.98-.84,1.05-.05,2.09,.16,3.04,.59l19.19,11.08c1.47,.88,1.34,2.43-.44,3.47l-18.89,11.05c-.93,.51-1.96,.78-3.02,.81-1.06,.03-2.1-.2-3.06-.65Z"/>
        <path class="cls-14" d="M471.64,782.9l-19.19-11.07c-1.54-.9-1.35-2.45,.43-3.48l19.08-10.97c.91-.51,1.93-.8,2.97-.84,1.04-.04,2.08,.16,3.03,.59l19.19,11.07c1.54,.9,1.35,2.46-.43,3.48l-19.08,10.97c-.91,.51-1.93,.8-2.97,.84-1.04,.05-2.08-.16-3.03-.59Z"/>
        <path class="cls-14" d="M441.27,765.36l-19.19-11.07c-1.47-.9-1.34-2.46,.44-3.48l19.01-10.97c.91-.51,1.93-.8,2.97-.84,1.04-.04,2.08,.16,3.03,.59l19.19,11.07c1.54,.9,1.35,2.45-.44,3.48l-19,10.97c-.91,.51-1.93,.8-2.98,.84-1.05,.04-2.09-.16-3.04-.59Z"/>
        <path class="cls-14" d="M410.92,747.83l-19.19-11.07c-1.54-.89-1.35-2.45,.43-3.47l19.08-10.97c.91-.52,1.93-.8,2.98-.84,1.05-.05,2.09,.16,3.04,.59l19.19,11.07c1.47,.9,1.34,2.43-.44,3.47l-19.08,10.97c-.91,.52-1.93,.8-2.97,.85-1.04,.04-2.08-.16-3.03-.59Z"/>
        <path class="cls-14" d="M531.57,817.53l-19.08-11.08c-1.54-.88-1.35-2.44,.44-3.47l19-10.98c.91-.51,1.94-.79,2.98-.83,1.05-.05,2.09,.16,3.04,.59l19.19,11.08c1.54,.88,1.34,2.43-.44,3.47l-19.01,10.98c-.93,.52-1.96,.82-3.02,.86-1.06,.04-2.12-.17-3.08-.61Z"/>
        <path class="cls-14" d="M561.24,834.64l-19.19-11.08c-1.47-.88-1.34-2.43,.44-3.47l19.01-11.02c.91-.51,1.93-.79,2.97-.84,1.04-.04,2.08,.16,3.03,.59l19.18,11.08c1.55,.9,1.35,2.43-.44,3.47l-19,10.98c-.91,.52-1.93,.8-2.97,.85-1.05,.06-2.09-.14-3.04-.56Z"/>
        <path class="cls-14" d="M590.87,851.73l-19.18-11.08c-1.47-.88-1.35-2.43,.42-3.47l19.01-10.97c.91-.51,1.93-.8,2.97-.84s2.08,.16,3.03,.59l19.18,11.07c1.47,.9,1.36,2.44-.42,3.47l-19.08,10.98c-.9,.5-1.91,.78-2.94,.83-1.03,.04-2.06-.16-3-.58Z"/>
        <path class="cls-14" d="M620.49,868.85l-19.18-11.07c-1.47-.9-1.35-2.45,.43-3.48l19.01-10.97c.91-.51,1.93-.8,2.97-.84,1.04-.04,2.08,.16,3.03,.59l19.18,11.07c1.55,.9,1.36,2.46-.42,3.48l-19.08,10.97c-.9,.49-1.91,.78-2.94,.83-1.03,.04-2.06-.16-3-.58Z"/>
        <path class="cls-14" d="M650.13,885.94l-19.18-11.07c-1.55-.9-1.36-2.46,.42-3.48l19.08-10.97c.91-.51,1.93-.8,2.97-.84,1.04-.04,2.08,.16,3.03,.59l19.18,11.07c1.47,.9,1.36,2.45-.42,3.48l-19.01,10.97c-.92,.52-1.95,.81-3.01,.86-1.06,.04-2.11-.17-3.07-.61Z"/>
        <path class="cls-14" d="M679.82,903.03l-19.18-11.07c-1.47-.9-1.36-2.43,.42-3.47l19.08-10.98c.92-.51,1.93-.79,2.98-.83,1.04-.04,2.09,.16,3.04,.59l19.02,11.08c1.55,.88,1.36,2.44-.42,3.47l-19.08,10.98c-.9,.48-1.88,.76-2.9,.79-1.02,.04-2.03-.15-2.96-.56Z"/>
        <path class="cls-14" d="M709.38,920.17l-19.19-11.08c-1.47-.88-1.35-2.44,.42-3.47l19.01-10.98c.92-.51,1.93-.79,2.98-.84,1.04-.04,2.09,.16,3.04,.59l19.17,11.08c1.47,.88,1.35,2.43-.42,3.47l-19.01,10.98c-.91,.51-1.93,.79-2.97,.83-1.04,.04-2.08-.16-3.03-.59Z"/>
        <path class="cls-14" d="M739.01,937.26l-19.19-11.08c-1.47-.88-1.35-2.44,.44-3.47l18.99-10.98c.92-.51,1.93-.8,2.98-.84,1.04-.04,2.09,.16,3.04,.59l19.18,11.08c1.55,.9,1.34,2.43-.44,3.47l-19.08,10.98c-.9,.49-1.91,.77-2.94,.82-1.03,.04-2.05-.16-2.99-.57Z"/>
        <path class="cls-14" d="M768.62,954.39l-19.18-11.07c-1.47-.9-1.34-2.45,.44-3.48l19.01-10.97c.91-.51,1.93-.8,2.97-.84,1.04-.04,2.08,.16,3.03,.59l19.19,11.08c1.47,.9,1.35,2.44-.44,3.47l-19.01,10.98c-.91,.51-1.93,.8-2.97,.83-1.04,.04-2.08-.16-3.03-.6Z"/>
        <path class="cls-14" d="M486.4,758.12l-19.19-11.08c-1.54-.9-1.34-2.44,.44-3.47l19.08-10.98c.91-.51,1.93-.79,2.97-.83,1.04-.05,2.08,.16,3.03,.59l19.19,11.08c1.54,.88,1.35,2.43-.44,3.47l-19,10.98c-.93,.52-1.96,.8-3.02,.85-1.06,.04-2.11-.16-3.08-.6Z"/>
        <path class="cls-14" d="M456.93,741.1l-19.19-11.07c-1.54-.9-1.34-2.45,.44-3.48l19.01-10.96c.91-.52,1.93-.8,2.97-.85,1.04-.04,2.08,.16,3.03,.59l19.19,11.07c1.54,.89,1.35,2.45-.44,3.48l-19,10.96c-.91,.52-1.93,.8-2.98,.85-1.05,.04-2.09-.16-3.04-.59Z"/>
        <path class="cls-14" d="M427.43,724.1l-19.19-11.09c-1.54-.88-1.35-2.43,.44-3.46l19-10.98c.91-.51,1.94-.8,2.98-.84,1.05-.04,2.09,.16,3.04,.59l19.19,11.09c1.47,.88,1.34,2.43-.44,3.47l-19.01,10.98c-.91,.5-1.93,.79-2.97,.83-1.04,.04-2.08-.16-3.03-.59Z"/>
        <path class="cls-14" d="M397.98,707.07l-19.2-11.02c-1.54-.9-1.35-2.45,.44-3.47l19-10.98c.91-.51,1.93-.8,2.98-.84,1.05-.04,2.09,.16,3.04,.59l19.19,11.07c1.54,.9,1.34,2.46-.44,3.48l-19.01,10.97c-.91,.5-1.93,.78-2.97,.82-1.04,.04-2.07-.18-3.02-.61Z"/>
        <path class="cls-14" d="M428.28,689.56l-19.19-11.07c-1.54-.9-1.35-2.45,.43-3.48l6.3-3.63c.91-.51,1.93-.79,2.97-.83,1.04-.04,2.08,.16,3.03,.59l19.19,11.08c1.54,.88,1.34,2.43-.44,3.47l-6.28,3.63c-.91,.51-1.93,.8-2.97,.84-1.04,.04-2.08-.16-3.03-.59Z"/>
        <path class="cls-14" d="M466.75,711.79l-19.17-11.07c-1.47-.9-1.35-2.45,.43-3.48l6.28-3.62c.91-.51,1.93-.8,2.97-.84,1.04-.04,2.08,.16,3.03,.59l19.19,11.09c1.54,.88,1.35,2.43-.43,3.47l-6.28,3.62c-.91,.52-1.93,.8-2.98,.85-1.05,.04-2.09-.16-3.04-.59Z"/>
        <path class="cls-14" d="M496.1,728.72l-19.19-11.09c-1.47-.88-1.34-2.43,.44-3.46l6.28-3.63c.91-.51,1.93-.8,2.97-.84,1.04-.05,2.08,.16,3.03,.59l19.19,11.07c1.54,.9,1.35,2.45-.43,3.48l-6.28,3.62c-.91,.51-1.94,.8-2.98,.84-1.05,.04-2.09-.16-3.04-.59Z"/>
        <path class="cls-14" d="M525.47,745.66l-19.19-11.07c-1.47-.9-1.35-2.45,.43-3.48l6.3-3.63c.91-.5,1.93-.79,2.97-.83,1.04-.04,2.08,.16,3.03,.59l19.19,11.08c1.54,.88,1.34,2.44-.44,3.47l-6.28,3.63c-.91,.51-1.93,.8-2.97,.84-1.04,.04-2.08-.16-3.03-.59Z"/>
        <path class="cls-14" d="M554.81,762.62l-19.19-11.08c-1.47-.88-1.35-2.43,.43-3.47l6.28-3.63c.91-.51,1.93-.8,2.98-.84,1.05-.04,2.09,.16,3.04,.59l19.17,11.07c1.54,.9,1.35,2.46-.43,3.48l-6.28,3.63c-.91,.51-1.93,.79-2.97,.84-1.04,.04-2.08-.16-3.03-.59Z"/>
        <path class="cls-14" d="M718.69,857.23l-19.19-11.07c-1.47-.9-1.35-2.43,.43-3.47l6.28-3.64c.92-.5,1.93-.78,2.98-.83,1.04-.04,2.09,.16,3.04,.59l19.18,11.08c1.55,.9,1.34,2.44-.44,3.47l-6.28,3.63c-.91,.51-1.93,.8-2.97,.84-1.04,.04-2.08-.16-3.03-.59Z"/>
        <path class="cls-14" d="M748.05,874.19l-19.18-11.09c-1.47-.88-1.36-2.43,.42-3.46l6.31-3.6c.91-.51,1.93-.8,2.97-.84,1.04-.04,2.08,.16,3.03,.59l19.19,11.08c1.54,.88,1.35,2.43-.43,3.47l-6.28,3.63c-.92,.51-1.94,.79-2.99,.83-1.04,.04-2.09-.18-3.04-.61Z"/>
        <path class="cls-14" d="M777.4,891.15l-19.18-11.08c-1.47-.9-1.33-2.43,.44-3.47l6.28-3.63c.92-.51,1.93-.8,2.98-.84,1.04-.04,2.08,.16,3.03,.59l19.19,11.07c1.54,.9,1.35,2.44-.43,3.47l-6.28,3.64c-.91,.51-1.93,.79-2.98,.84-1.04,.04-2.09-.16-3.04-.59Z"/>
        <path class="cls-14" d="M806.75,908.1l-19.18-11.07c-1.47-.9-1.35-2.46,.44-3.48l6.28-3.63c.92-.51,1.93-.79,2.98-.83,1.04-.05,2.07,.16,3.03,.59l19.19,11.08c1.54,.88,1.35,2.43-.44,3.47l-6.28,3.63c-.91,.51-1.93,.8-2.97,.84-1.04,.04-2.08-.16-3.03-.59Z"/>
        <path class="cls-14" d="M516.01,775.3l-19.17-11.09c-1.54-.88-1.35-2.43,.43-3.47l19.01-10.97c.91-.51,1.93-.8,2.97-.84,1.04-.04,2.08,.16,3.03,.59l19.19,11.09c1.54,.88,1.35,2.43-.43,3.47l-19.01,10.97c-.91,.51-1.94,.8-2.98,.84-1.05,.04-2.09-.16-3.04-.59Z"/>
        <path class="cls-14" d="M545.65,792.33l-19.19-11.09c-1.47-.88-1.35-2.43,.43-3.46l19.01-10.98c.91-.51,1.93-.8,2.97-.84,1.04-.04,2.08,.16,3.03,.59l19.19,11.09c1.54,.9,1.35,2.43-.42,3.47l-19.01,10.97c-.91,.51-1.93,.8-2.97,.84-1.04,.04-2.08-.16-3.03-.59Z"/>
        <path class="cls-14" d="M575.28,809.44l-19.19-11.07c-1.47-.9-1.35-2.45,.43-3.48l19.08-10.97c.91-.51,1.93-.8,2.98-.84,1.04-.04,2.08,.16,3.03,.59l19.19,11.07c1.54,.9,1.35,2.46-.43,3.47l-19.01,10.98c-.92,.52-1.95,.82-3.01,.86-1.05,.04-2.1-.17-3.06-.61Z"/>
        <path class="cls-14" d="M604.96,826.53l-19.19-11.07c-1.54-.9-1.35-2.46,.43-3.48l19.01-10.97c.92-.51,1.93-.8,2.99-.84,1.04-.04,2.08,.16,3.03,.59l19.18,11.07c1.54,.9,1.35,2.45-.43,3.48l-19.01,10.97c-.91,.51-1.93,.8-2.97,.84-1.04,.04-2.08-.16-3.03-.59Z"/>
        <path class="cls-14" d="M634.52,843.64l-19.18-11.08c-1.54-.9-1.35-2.46,.42-3.48l19.01-10.97c.91-.51,1.93-.8,2.98-.84,1.04-.04,2.09,.16,3.04,.59l19.18,11.07c1.47,.9,1.33,2.45-.44,3.48l-19.01,10.97c-.91,.51-1.93,.8-2.97,.85-1.04,.04-2.08-.16-3.03-.59Z"/>
        <path class="cls-14" d="M664.14,860.76l-19.18-11.08c-1.47-.9-1.36-2.44,.44-3.47l19-10.98c.91-.51,1.93-.79,2.98-.83,1.04-.05,2.08,.16,3.03,.59l19.19,11.08c1.54,.88,1.33,2.43-.44,3.47l-19.08,10.98c-.9,.49-1.91,.78-2.94,.82-1.03,.04-2.05-.16-3-.57Z"/>
        <path class="cls-14" d="M693.78,877.85l-19.19-11.08c-1.47-.88-1.33-2.44,.44-3.47l19.01-10.98c.91-.51,1.93-.79,2.97-.84,1.04-.04,2.08,.16,3.03,.59l19.18,11.08c1.47,.88,1.35,2.43-.44,3.47l-18.99,10.98c-.92,.5-1.94,.79-2.99,.83-1.04,.04-2.08-.16-3.03-.59Z"/>
        <path class="cls-14" d="M723.4,894.96l-19.19-11.02c-1.47-.88-1.33-2.43,.44-3.47l19.08-10.98c.91-.5,1.93-.78,2.97-.83,1.04-.04,2.08,.16,3.03,.59l19.08,11.01c1.54,.9,1.35,2.43-.43,3.47l-19.08,10.98c-.9,.49-1.9,.77-2.93,.81-1.02,.04-2.05-.15-2.99-.56Z"/>
        <path class="cls-14" d="M753.03,912.05l-19.17-11.07c-1.47-.9-1.36-2.45,.42-3.48l18.95-10.97c.91-.51,1.93-.8,2.97-.84,1.04-.04,2.08,.16,3.03,.59l19.18,11.07c1.47,.9,1.36,2.46-.42,3.47l-18.89,11c-.92,.52-1.95,.81-3.01,.85-1.06,.04-2.11-.17-3.07-.61Z"/>
        <path class="cls-14" d="M346.61,777.34l-56.49-32.63c-1.54-.88-1.35-2.43,.43-3.47l19.08-10.96c.91-.52,1.93-.8,2.97-.85,1.04-.04,2.08,.16,3.03,.59l56.5,32.62c1.54,.88,1.35,2.43-.43,3.47l-19.01,10.98c-.92,.52-1.96,.81-3.02,.85-1.06,.04-2.11-.16-3.08-.61Z"/>
        <path class="cls-14" d="M710.66,987.47l-56.5-32.62c-1.54-.9-1.35-2.46,.42-3.47l19.08-10.98c.91-.51,1.93-.8,2.97-.84,1.04-.04,2.08,.16,3.03,.59l56.5,32.62c1.54,.89,1.35,2.43-.42,3.46l-19.08,10.98c-.92,.51-1.93,.8-2.98,.84-1.04,.04-2.07-.16-3.03-.59Z"/>
        <path class="cls-14" d="M592.13,956.86l-19.19-11.09c-1.54-.88-1.35-2.43,.42-3.47l22.65-13.06c.91-.51,1.93-.8,2.97-.84,1.04-.04,2.08,.16,3.03,.59l19.18,11.07c1.47,.9,1.35,2.43-.42,3.47l-22.65,13.08c-.91,.51-1.93,.8-2.97,.84-1.04,.05-2.08-.16-3.03-.59Z"/>
        <path class="cls-14" d="M376.98,832.64l-30.68-17.69c-1.54-.9-1.35-2.45,.44-3.48l22.64-13.06c.91-.51,1.93-.8,2.97-.84,1.04-.04,2.08,.16,3.03,.59l30.68,17.71c1.54,.88,1.35,2.43-.43,3.47l-22.65,13.08c-.91,.5-1.93,.78-2.98,.83-1.04,.04-2.08-.17-3.03-.6Z"/>
        <path class="cls-14" d="M563.57,940.36l-30.68-17.7c-1.54-.9-1.34-2.45,.44-3.48l22.64-13.06c.91-.52,1.93-.8,2.98-.85,1.05-.04,2.09,.16,3.04,.59l30.68,17.71c1.55,.9,1.33,2.45-.44,3.48l-22.64,13.06c-.91,.51-1.93,.8-2.98,.84-1.05,.04-2.09-.16-3.04-.59Z"/>
        <path class="cls-14" d="M419.73,857.31l-30.68-17.72c-1.54-.9-1.35-2.43,.43-3.47l22.65-13.08c.91-.51,1.93-.8,2.97-.84,1.04-.04,2.08,.16,3.03,.59l30.68,17.71c1.54,.88,1.35,2.44-.43,3.47l-22.65,13.08c-.91,.5-1.93,.79-2.97,.83-1.04,.04-2.08-.16-3.03-.59Z"/>
        <path class="cls-14" d="M418.34,822.92l133.39,77c.36,.13,.67,.36,.89,.67,.22,.31,.34,.68,.34,1.07s-.12,.75-.34,1.06c-.22,.31-.53,.54-.89,.67l-23.11,13.33c-.93,.47-1.95,.71-2.99,.71s-2.07-.24-2.99-.71l-133.39-77.01,29.09-16.79Z"/>
        <path class="cls-14" d="M674.93,987.85l21.37,12.34c1.26,.73,1.1,2-.35,2.84l-9.27,5.34c-.75,.42-1.59,.66-2.44,.69-.85,.04-1.71-.13-2.49-.49l-21.36-12.34c-1.26-.72-1.12-2,.35-2.83l9.26-5.36c.75-.42,1.58-.65,2.43-.68,.85-.04,1.71,.13,2.48,.49Z"/>
        <path class="cls-14" d="M645.05,970.62l21.37,12.33c1.26,.73,1.1,2.01-.35,2.85l-9.26,5.29c-.75,.42-1.59,.66-2.44,.7-.86,.04-1.71-.13-2.49-.49l-21.36-12.34c-1.26-.73-1.12-2.01,.35-2.84l9.27-5.34c.75-.42,1.58-.64,2.43-.67,.86-.03,1.71,.14,2.48,.51Z"/>
        <path class="cls-14" d="M615.43,953.51l21.38,12.33c1.26,.73,1.1,2-.35,2.85l-9.27,5.34c-.75,.42-1.58,.66-2.44,.69-.85,.04-1.71-.13-2.49-.49l-21.36-12.34c-1.26-.72-1.12-2,.35-2.83l9.26-5.36c.75-.41,1.59-.64,2.44-.68,.85-.04,1.7,.13,2.48,.49Z"/>
        <path class="cls-14" d="M661.41,961.18l21.35,12.32c1.26,.72,1.12,2-.35,2.84l-9.27,5.36c-.75,.41-1.58,.64-2.43,.68-.85,.04-1.7-.13-2.48-.48l-21.38-12.34c-1.26-.72-1.1-2,.35-2.84l9.27-5.36c.75-.41,1.59-.64,2.45-.67,.86-.04,1.71,.13,2.49,.49Z"/>
      </g>
      <path class="cls-5" d="M276.63,774.69l-19.19-11.12c-1.54-.88-1.35-2.44,.43-3.47l22.68-13.04c.91-.51,1.93-.8,2.97-.84,1.04-.04,2.08,.16,3.03,.59l19.19,11.09c1.54,.9,1.35,2.43-.44,3.47l-22.64,13.08c-.92,.51-1.94,.8-2.99,.85-1.05,.04-2.09-.16-3.05-.6Z"/>
      <path class="cls-5" d="M306.25,791.81l-19.19-11.09c-1.54-.88-1.35-2.43,.43-3.46l22.65-13.07c.91-.51,1.93-.8,2.97-.84,1.04-.04,2.08,.16,3.03,.59l19.19,11.07c1.54,.9,1.35,2.46-.43,3.47l-22.65,13.08c-.91,.52-1.93,.8-2.97,.85-1.04,.04-2.08-.16-3.03-.59Z"/>
      <path class="cls-5" d="M335.87,808.9l-19.19-11.07c-1.54-.89-1.35-2.45,.43-3.48l22.65-13.06c.91-.51,1.93-.8,2.97-.84,1.04-.04,2.08,.16,3.03,.59l19.19,11.07c1.54,.9,1.35,2.46-.43,3.48l-22.65,13.06c-.91,.52-1.93,.8-2.97,.85-1.04,.04-2.08-.16-3.03-.59Z"/>
      <path class="cls-5" d="M376.85,794.78l-19.19-11.08c-1.47-.88-1.35-2.44,.44-3.47l19-10.97c.91-.51,1.93-.8,2.98-.84,1.05-.04,2.09,.16,3.04,.59l19.19,11.07c1.54,.9,1.34,2.43-.44,3.47l-19.01,10.98c-.91,.5-1.93,.79-2.97,.83-1.04,.04-2.08-.16-3.03-.59Z"/>
      <path class="cls-5" d="M406.46,811.87l-19.19-11.07c-1.47-.9-1.34-2.46,.44-3.48l19.07-10.97c.91-.51,1.93-.8,2.97-.84,1.04-.04,2.08,.16,3.03,.59l19.19,11.07c1.54,.9,1.35,2.45-.44,3.48l-19,10.97c-.92,.52-1.95,.81-3.01,.85-1.06,.04-2.11-.16-3.07-.61Z"/>
      <path class="cls-5" d="M436.14,828.99l-19.24-11.09c-1.47-.9-1.34-2.46,.44-3.48l19.01-10.97c.91-.51,1.93-.8,2.97-.84,1.04-.05,2.08,.16,3.03,.59l19.19,11.07c1.54,.9,1.35,2.45-.44,3.48l-19,10.97c-.9,.5-1.91,.79-2.95,.84-1.03,.05-2.07-.15-3.01-.56Z"/>
      <path class="cls-5" d="M465.71,846.08l-19.17-11.07c-1.54-.9-1.35-2.43,.43-3.47l19.01-10.97c.91-.52,1.93-.8,2.97-.85,1.04-.04,2.08,.16,3.03,.59l19.19,11.09c1.47,.88,1.35,2.43-.43,3.47l-19.01,10.9c-.91,.52-1.93,.82-2.97,.87-1.05,.06-2.09-.13-3.05-.56Z"/>
      <path class="cls-5" d="M495.35,863.21l-19.19-11.09c-1.54-.88-1.35-2.43,.43-3.46l19.01-10.98c.91-.51,1.93-.8,2.97-.84,1.04-.04,2.08,.16,3.03,.59l19.19,11.09c1.47,.88,1.35,2.43-.43,3.47l-19.01,10.97c-.91,.51-1.93,.8-2.97,.84s-2.08-.16-3.03-.59Z"/>
      <path class="cls-5" d="M524.97,880.28l-19.19-11.04c-1.54-.88-1.35-2.43,.43-3.47l19.01-10.98c.91-.5,1.93-.79,2.97-.83,1.04-.04,2.08,.16,3.03,.59l19.19,11.08c1.54,.88,1.35,2.44-.43,3.47l-19.01,10.98c-.92,.5-1.94,.78-2.98,.82-1.04,.04-2.08-.18-3.03-.61Z"/>
      <path class="cls-5" d="M554.59,897.41l-19.19-11.08c-1.54-.88-1.35-2.44,.43-3.47l19.01-10.97c.91-.51,1.93-.8,2.98-.84,1.05-.04,2.09,.16,3.04,.59l19.14,11.07c1.54,.9,1.35,2.43-.43,3.47l-19.08,10.98c-.9,.49-1.9,.77-2.92,.81-1.02,.05-2.04-.15-2.98-.56Z"/>
      <path class="cls-5" d="M584.22,914.51l-19.19-11.07c-1.54-.9-1.35-2.46,.43-3.48l19.08-10.97c.92-.51,1.93-.8,2.99-.84,1.04-.04,2.08,.16,3.03,.59l19.19,11.07c1.47,.9,1.33,2.45-.44,3.48l-19.08,10.97c-.91,.51-1.93,.8-2.97,.84-1.04,.04-2.08-.16-3.03-.59Z"/>
      <path class="cls-5" d="M613.85,931.6l-19.15-11.07c-1.54-.9-1.35-2.46,.44-3.48l19-10.97c.91-.51,1.93-.8,2.98-.84,1.04-.05,2.09,.16,3.04,.59l19.18,11.07c1.55,.9,1.34,2.45-.44,3.48l-19.08,10.97c-.9,.5-1.92,.78-2.95,.83-1.04,.04-2.07-.16-3.01-.58Z"/>
      <path class="cls-5" d="M643.47,948.72l-19.19-11.07c-1.47-.9-1.33-2.43,.44-3.47l19.01-10.97c.91-.52,1.93-.8,2.97-.85,1.04-.04,2.08,.16,3.03,.59l19.19,11.09c1.47,.88,1.35,2.43-.44,3.47l-18.99,11.04c-.92,.49-1.95,.77-2.99,.8-1.04,.03-2.08-.18-3.03-.63Z"/>
      <path class="cls-5" d="M420.5,786.67l-19.19-11.07c-1.47-.9-1.35-2.45,.43-3.48l19.01-10.96c.91-.52,1.93-.8,2.97-.85,1.04-.04,2.08,.16,3.03,.59l19.19,11.07c1.54,.89,1.35,2.45-.43,3.48l-19.01,10.96c-.91,.52-1.93,.8-2.97,.85-1.04,.04-2.08-.16-3.03-.59Z"/>
      <path class="cls-5" d="M390.43,769.31l-19.17-11.08c-1.54-.88-1.35-2.44,.43-3.47l18.97-10.98c.91-.51,1.93-.79,2.97-.84,1.04-.04,2.08,.16,3.03,.59l19.19,11.08c1.54,.88,1.35,2.43-.43,3.47l-18.89,10.98c-.92,.52-1.96,.81-3.02,.85-1.06,.04-2.11-.16-3.08-.61Z"/>
      <path class="cls-5" d="M360.31,751.92l-41.32-23.85c-1.54-.88-1.35-2.43,.44-3.47l19-10.95c.91-.5,1.93-.79,2.98-.83,1.04-.04,2.09,.16,3.04,.59l41.31,23.85c1.54,.9,1.35,2.45-.43,3.48l-19.01,10.97c-.91,.5-1.93,.79-2.98,.83-1.04,.04-2.08-.17-3.03-.61Z"/>
      <path class="cls-5" d="M381.36,730.78l-33.53-19.36c-1.47-.9-1.35-2.43,.43-3.47l19.01-10.98c.91-.51,1.93-.79,2.97-.83,1.04-.04,2.08,.16,3.03,.59l33.51,19.36c1.54,.88,1.35,2.44-.43,3.47l-19.08,10.98c-.9,.49-1.9,.77-2.93,.81-1.03,.05-2.05-.15-2.99-.56Z"/>
      <path class="cls-5" d="M450.13,803.78l-19.19-11.07c-1.54-.9-1.35-2.43,.43-3.47l19.01-10.99c.91-.52,1.93-.8,2.98-.85,1.05-.04,2.09,.16,3.04,.59l19.17,11.09c1.47,.88,1.35,2.43-.43,3.46l-19.01,10.97c-.91,.52-1.93,.8-2.97,.85-1.04,.04-2.08-.16-3.03-.59Z"/>
      <path class="cls-5" d="M479.75,820.9l-19.19-11.09c-1.54-.88-1.35-2.43,.43-3.47l19.01-10.97c.91-.51,1.94-.8,2.98-.84,1.05-.04,2.09,.16,3.04,.59l19.13,11.02c1.54,.88,1.35,2.44-.43,3.47l-19.01,10.98c-.9,.51-1.91,.8-2.94,.85-1.03,.06-2.07-.13-3.02-.54Z"/>
      <path class="cls-5" d="M509.37,837.99l-19.19-11.09c-1.54-.88-1.35-2.43,.44-3.47l19-10.98c.91-.5,1.94-.79,2.98-.83,1.04-.04,2.09,.16,3.04,.59l19.19,11.09c1.47,.88,1.34,2.43-.44,3.46l-18.97,10.98c-.92,.52-1.94,.8-2.99,.85-1.05,.04-2.1-.16-3.05-.59Z"/>
      <path class="cls-5" d="M539,855.11l-19.17-11.09c-1.54-.88-1.34-2.43,.44-3.47l19-10.92c.91-.51,1.93-.8,2.97-.84,1.04-.05,2.08,.16,3.03,.59l19.19,11.07c1.54,.9,1.34,2.43-.44,3.47l-19,10.97c-.92,.51-1.94,.79-2.98,.83-1.05,.04-2.08-.18-3.03-.61Z"/>
      <path class="cls-5" d="M568.62,872.19l-19.19-11.07c-1.47-.9-1.34-2.46,.44-3.48l19.01-10.97c.91-.51,1.93-.8,2.97-.84,1.04-.05,2.08,.16,3.03,.59l19.18,11.09c1.54,.9,1.35,2.45-.44,3.48l-19,10.97c-.91,.51-1.93,.79-2.98,.83s-2.09-.16-3.04-.6Z"/>
      <path class="cls-5" d="M598.24,889.31l-19.18-11.07c-1.54-.9-1.35-2.45,.43-3.48l19.08-10.96c.91-.52,1.93-.8,2.97-.85,1.04-.04,2.08,.16,3.03,.59l19.19,11.07c1.47,.89,1.35,2.45-.42,3.48l-19.08,10.96c-.92,.52-1.93,.8-2.99,.85-1.04,.04-2.08-.16-3.03-.59Z"/>
      <path class="cls-5" d="M627.87,906.4l-19.18-11.07c-1.55-.9-1.36-2.43,.42-3.47l19.01-10.98c.92-.51,1.93-.8,2.98-.84,1.04-.04,2.08,.16,3.03,.59l19.19,11.09c1.47,.88,1.35,2.43-.43,3.46l-19.01,10.97c-.91,.51-1.93,.8-2.97,.84-1.04,.05-2.08-.16-3.03-.59Z"/>
      <path class="cls-5" d="M657.49,923.58l-19.18-11.08c-1.55-.88-1.36-2.43,.42-3.47l19.08-10.98c.91-.5,1.93-.79,2.97-.83,1.04-.04,2.08,.16,3.03,.59l19.11,11.09c1.47,.88,1.35,2.44-.42,3.47l-19.08,10.98c-.9,.49-1.91,.77-2.94,.81-1.02,.04-2.05-.16-2.99-.58Z"/>
      <path class="cls-5" d="M687.17,940.63l-19.18-11.09c-1.47-.88-1.36-2.43,.42-3.47l19.01-10.98c.91-.5,1.93-.79,2.98-.83,1.04-.04,2.08,.16,3.03,.59l19.18,11.08c1.54,.88,1.35,2.44-.43,3.47l-19.08,10.98c-.9,.49-1.91,.78-2.94,.82-1.02,.04-2.05-.15-2.99-.56Z"/>
      <path class="cls-5" d="M739.79,971.01l-41.86-24.16c-1.54-.9-1.35-2.44,.44-3.47l19-11.01c.91-.51,1.93-.8,2.98-.84s2.09,.16,3.04,.59l41.85,24.16c1.54,.9,1.35,2.45-.43,3.48l-19.01,10.97c-.91,.52-1.93,.8-2.97,.85-1.04,.05-2.08-.15-3.03-.58Z"/>
      <path class="cls-5" d="M797.46,937.73l-35.33-20.4c-1.55-.88-1.36-2.44,.42-3.47l19.01-10.98c.91-.51,1.93-.79,2.98-.84,1.04-.04,2.08,.16,3.03,.59l35.32,20.4c1.47,.88,1.35,2.43-.42,3.47l-19.01,10.98c-.91,.5-1.93,.79-2.97,.83-1.04,.04-2.08-.16-3.03-.59Z"/>
      <path class="cls-5" d="M502.01,800.43l-19.19-11.07c-1.54-.9-1.35-2.44,.43-3.47l18.97-10.98c.91-.51,1.93-.8,2.98-.84,1.05-.05,2.09,.16,3.04,.59l19.19,11.08c1.47,.88,1.34,2.43-.44,3.47l-18.89,11.05c-.93,.51-1.96,.78-3.02,.81-1.06,.03-2.1-.2-3.06-.65Z"/>
      <path class="cls-5" d="M471.64,782.9l-19.19-11.07c-1.54-.9-1.35-2.45,.43-3.48l19.08-10.97c.91-.51,1.93-.8,2.97-.84,1.04-.04,2.08,.16,3.03,.59l19.19,11.07c1.54,.9,1.35,2.46-.43,3.48l-19.08,10.97c-.91,.51-1.93,.8-2.97,.84-1.04,.05-2.08-.16-3.03-.59Z"/>
      <path class="cls-5" d="M441.27,765.36l-19.19-11.07c-1.47-.9-1.34-2.46,.44-3.48l19.01-10.97c.91-.51,1.93-.8,2.97-.84,1.04-.04,2.08,.16,3.03,.59l19.19,11.07c1.54,.9,1.35,2.45-.44,3.48l-19,10.97c-.91,.51-1.93,.8-2.98,.84-1.05,.04-2.09-.16-3.04-.59Z"/>
      <path class="cls-5" d="M410.92,747.86l-19.19-11.07c-1.54-.89-1.35-2.45,.43-3.48l19.08-10.96c.91-.52,1.93-.8,2.98-.85,1.05-.04,2.09,.16,3.04,.59l19.19,11.07c1.47,.9,1.34,2.43-.44,3.47l-19.08,10.97c-.91,.52-1.93,.8-2.97,.85-1.04,.04-2.08-.16-3.03-.59Z"/>
      <path class="cls-5" d="M531.57,817.53l-19.08-11.08c-1.54-.88-1.35-2.44,.44-3.47l19-10.98c.91-.51,1.94-.79,2.98-.83,1.05-.05,2.09,.16,3.04,.59l19.19,11.08c1.54,.88,1.34,2.43-.44,3.47l-19.01,10.98c-.93,.52-1.96,.82-3.02,.86-1.06,.04-2.12-.17-3.08-.61Z"/>
      <path class="cls-5" d="M561.24,834.64l-19.19-11.08c-1.47-.88-1.34-2.43,.44-3.47l19.01-11.02c.91-.51,1.93-.79,2.97-.84,1.04-.04,2.08,.16,3.03,.59l19.18,11.08c1.55,.9,1.35,2.43-.44,3.47l-19,10.98c-.91,.52-1.93,.8-2.97,.85-1.05,.06-2.09-.14-3.04-.56Z"/>
      <path class="cls-5" d="M590.87,851.76l-19.18-11.08c-1.47-.88-1.35-2.43,.42-3.47l19.01-10.97c.91-.51,1.93-.8,2.97-.84,1.04-.04,2.08,.16,3.03,.59l19.18,11.07c1.47,.9,1.36,2.44-.42,3.47l-19.08,10.98c-.9,.5-1.91,.78-2.94,.83-1.03,.04-2.06-.16-3-.58Z"/>
      <path class="cls-5" d="M620.49,868.85l-19.18-11.07c-1.47-.9-1.35-2.45,.43-3.48l19.01-10.97c.91-.51,1.93-.8,2.97-.84,1.04-.04,2.08,.16,3.03,.59l19.18,11.07c1.55,.9,1.36,2.46-.42,3.48l-19.08,10.97c-.9,.49-1.91,.78-2.94,.83-1.03,.04-2.06-.16-3-.58Z"/>
      <path class="cls-5" d="M650.13,885.94l-19.18-11.07c-1.55-.9-1.36-2.46,.42-3.48l19.08-10.97c.91-.51,1.93-.8,2.97-.84,1.04-.04,2.08,.16,3.03,.59l19.18,11.07c1.47,.9,1.36,2.45-.42,3.48l-19.01,10.97c-.92,.52-1.95,.81-3.01,.86-1.06,.04-2.11-.17-3.07-.61Z"/>
      <path class="cls-5" d="M679.82,903.03l-19.18-11.07c-1.47-.9-1.36-2.43,.42-3.47l19.08-10.98c.92-.51,1.93-.79,2.98-.83,1.04-.04,2.09,.16,3.04,.59l19.02,11.08c1.55,.88,1.36,2.44-.42,3.47l-19.08,10.98c-.9,.48-1.88,.76-2.9,.79-1.02,.04-2.03-.15-2.96-.56Z"/>
      <path class="cls-5" d="M709.38,920.17l-19.19-11.08c-1.47-.88-1.35-2.44,.42-3.47l19.01-10.98c.92-.51,1.93-.79,2.98-.84,1.04-.04,2.09,.16,3.04,.59l19.17,11.08c1.47,.88,1.35,2.43-.42,3.47l-19.01,10.98c-.91,.51-1.93,.79-2.97,.83-1.04,.04-2.08-.16-3.03-.59Z"/>
      <path class="cls-5" d="M739,937.26l-19.19-11.08c-1.47-.88-1.35-2.44,.44-3.47l18.99-10.98c.92-.51,1.93-.8,2.98-.84,1.04-.04,2.09,.16,3.04,.59l19.18,11.08c1.55,.9,1.34,2.43-.44,3.47l-19.08,10.98c-.9,.49-1.91,.77-2.94,.82-1.03,.04-2.05-.16-2.99-.57Z"/>
      <path class="cls-5" d="M768.62,954.39l-19.18-11.07c-1.47-.9-1.34-2.45,.44-3.48l19.01-10.97c.91-.51,1.93-.8,2.97-.84,1.04-.04,2.08,.16,3.03,.59l19.19,11.08c1.47,.9,1.35,2.44-.44,3.47l-19.01,10.98c-.91,.51-1.93,.79-2.97,.83-1.04,.04-2.08-.16-3.03-.6Z"/>
      <path class="cls-5" d="M486.4,758.15l-19.19-11.08c-1.54-.9-1.34-2.44,.44-3.47l19.08-10.98c.91-.51,1.93-.79,2.97-.84,1.04-.04,2.08,.16,3.03,.59l19.19,11.08c1.54,.88,1.35,2.43-.44,3.47l-19,10.98c-.93,.52-1.96,.8-3.02,.85-1.06,.04-2.11-.16-3.08-.6Z"/>
      <path class="cls-5" d="M456.93,741.1l-19.19-11.07c-1.54-.9-1.34-2.45,.44-3.48l19.01-10.96c.91-.52,1.93-.8,2.97-.85,1.04-.04,2.08,.16,3.03,.59l19.19,11.07c1.54,.89,1.35,2.45-.44,3.48l-19,10.96c-.91,.52-1.93,.8-2.98,.85-1.05,.04-2.09-.16-3.04-.59Z"/>
      <path class="cls-5" d="M427.45,724.1l-19.19-11.09c-1.54-.88-1.35-2.43,.44-3.46l19-10.98c.92-.51,1.94-.8,2.98-.84,1.04-.04,2.08,.16,3.04,.59l19.19,11.09c1.47,.88,1.34,2.43-.44,3.47l-19.01,10.98c-.91,.5-1.93,.79-2.97,.83-1.04,.04-2.08-.16-3.03-.59Z"/>
      <path class="cls-5" d="M397.98,707.07l-19.2-11.02c-1.54-.9-1.35-2.45,.44-3.47l19-10.98c.91-.51,1.93-.8,2.98-.84,1.05-.04,2.09,.16,3.04,.59l19.19,11.07c1.54,.9,1.34,2.46-.44,3.48l-19.01,10.97c-.91,.5-1.93,.78-2.97,.82-1.04,.04-2.07-.18-3.02-.61Z"/>
      <path class="cls-5" d="M428.28,689.56l-19.19-11.07c-1.54-.9-1.35-2.45,.43-3.48l6.3-3.63c.91-.51,1.93-.79,2.97-.83,1.04-.04,2.08,.16,3.03,.59l19.19,11.08c1.54,.88,1.34,2.43-.44,3.47l-6.28,3.63c-.91,.51-1.93,.8-2.97,.84-1.04,.04-2.08-.16-3.03-.59Z"/>
      <path class="cls-5" d="M466.75,711.79l-19.17-11.07c-1.47-.9-1.35-2.45,.43-3.48l6.28-3.62c.91-.51,1.93-.8,2.97-.84,1.04-.04,2.08,.16,3.03,.59l19.19,11.09c1.54,.88,1.35,2.43-.43,3.47l-6.28,3.62c-.91,.52-1.93,.8-2.98,.85-1.05,.04-2.09-.16-3.04-.59Z"/>
      <path class="cls-5" d="M496.1,728.75l-19.19-11.09c-1.47-.88-1.34-2.43,.44-3.47l6.28-3.62c.91-.52,1.93-.8,2.97-.85,1.04-.04,2.08,.16,3.03,.59l19.19,11.07c1.54,.9,1.35,2.45-.43,3.48l-6.28,3.62c-.91,.51-1.94,.8-2.98,.84-1.05,.04-2.09-.16-3.04-.59Z"/>
      <path class="cls-5" d="M525.47,745.66l-19.19-11.07c-1.47-.9-1.35-2.45,.43-3.48l6.3-3.63c.91-.5,1.93-.79,2.97-.83,1.04-.04,2.08,.16,3.03,.59l19.19,11.08c1.54,.88,1.34,2.44-.44,3.47l-6.28,3.63c-.91,.51-1.93,.8-2.97,.84-1.04,.04-2.08-.16-3.03-.59Z"/>
      <path class="cls-5" d="M554.81,762.63l-19.19-11.09c-1.47-.88-1.35-2.43,.43-3.47l6.28-3.63c.91-.51,1.93-.8,2.98-.84,1.05-.04,2.09,.16,3.04,.59l19.17,11.07c1.54,.9,1.35,2.46-.43,3.48l-6.28,3.63c-.91,.51-1.93,.8-2.97,.84-1.04,.04-2.08-.16-3.03-.59Z"/>
      <path class="cls-5" d="M718.69,857.23l-19.19-11.07c-1.47-.9-1.35-2.43,.43-3.47l6.28-3.64c.92-.5,1.93-.78,2.98-.83,1.04-.04,2.09,.16,3.04,.59l19.18,11.08c1.55,.9,1.34,2.44-.44,3.47l-6.28,3.63c-.91,.51-1.93,.8-2.97,.84-1.04,.04-2.08-.16-3.03-.59Z"/>
      <path class="cls-5" d="M748.05,874.19l-19.18-11.09c-1.47-.88-1.36-2.43,.42-3.46l6.31-3.6c.91-.51,1.93-.8,2.97-.84,1.04-.04,2.08,.16,3.03,.59l19.19,11.08c1.54,.88,1.35,2.43-.43,3.47l-6.28,3.63c-.92,.51-1.94,.79-2.99,.83-1.04,.04-2.09-.18-3.04-.61Z"/>
      <path class="cls-5" d="M777.4,891.15l-19.18-11.08c-1.47-.9-1.33-2.43,.44-3.47l6.28-3.63c.92-.51,1.93-.8,2.98-.84,1.04-.04,2.08,.16,3.03,.59l19.19,11.07c1.54,.9,1.35,2.44-.43,3.47l-6.28,3.64c-.91,.51-1.93,.79-2.98,.84-1.04,.04-2.09-.16-3.04-.59Z"/>
      <path class="cls-5" d="M806.75,908.1l-19.18-11.07c-1.47-.9-1.35-2.46,.44-3.48l6.28-3.63c.92-.51,1.93-.79,2.98-.83,1.04-.05,2.07,.16,3.03,.59l19.19,11.08c1.54,.88,1.35,2.43-.44,3.47l-6.28,3.63c-.91,.51-1.93,.8-2.97,.84-1.04,.04-2.08-.16-3.03-.59Z"/>
      <path class="cls-5" d="M516.01,775.33l-19.17-11.09c-1.54-.88-1.35-2.43,.43-3.47l19.01-10.97c.91-.51,1.93-.8,2.97-.84,1.04-.04,2.08,.16,3.03,.59l19.19,11.09c1.54,.88,1.35,2.43-.43,3.46l-19.01,10.98c-.91,.51-1.94,.8-2.98,.84-1.05,.04-2.09-.16-3.04-.59Z"/>
      <path class="cls-5" d="M545.65,792.33l-19.19-11.09c-1.47-.88-1.35-2.43,.43-3.46l19.01-10.98c.91-.51,1.93-.8,2.97-.84,1.04-.04,2.08,.16,3.03,.59l19.19,11.09c1.54,.9,1.35,2.43-.42,3.47l-19.01,10.97c-.91,.51-1.93,.8-2.97,.84-1.04,.04-2.08-.16-3.03-.59Z"/>
      <path class="cls-5" d="M575.28,809.44l-19.19-11.07c-1.47-.9-1.35-2.45,.43-3.48l19.08-10.97c.91-.51,1.93-.8,2.98-.84,1.04-.04,2.08,.16,3.03,.59l19.19,11.07c1.54,.9,1.35,2.46-.43,3.47l-19.01,10.98c-.92,.52-1.95,.82-3.01,.86-1.05,.04-2.1-.17-3.06-.61Z"/>
      <path class="cls-5" d="M604.96,826.53l-19.19-11.07c-1.54-.9-1.35-2.46,.43-3.48l19.01-10.97c.92-.51,1.93-.8,2.99-.84,1.04-.04,2.08,.16,3.03,.59l19.18,11.07c1.54,.9,1.35,2.45-.43,3.48l-19.01,10.97c-.91,.51-1.93,.8-2.97,.84-1.04,.04-2.08-.16-3.03-.59Z"/>
      <path class="cls-5" d="M634.52,843.64l-19.18-11.08c-1.54-.9-1.35-2.46,.42-3.48l19.01-10.97c.91-.51,1.93-.8,2.98-.84,1.04-.04,2.09,.16,3.04,.59l19.18,11.07c1.47,.9,1.33,2.45-.44,3.48l-19.01,10.97c-.91,.51-1.93,.8-2.97,.85-1.04,.04-2.08-.16-3.03-.59Z"/>
      <path class="cls-5" d="M664.14,860.76l-19.18-11.08c-1.47-.9-1.36-2.44,.44-3.47l19-10.98c.91-.51,1.93-.79,2.98-.83,1.04-.05,2.08,.16,3.03,.59l19.19,11.08c1.54,.88,1.33,2.43-.44,3.47l-19.08,10.98c-.9,.49-1.91,.78-2.94,.82-1.03,.04-2.05-.16-3-.57Z"/>
      <path class="cls-5" d="M693.78,877.85l-19.19-11.08c-1.47-.88-1.33-2.44,.44-3.47l19.01-10.98c.91-.51,1.93-.79,2.97-.84,1.04-.04,2.08,.16,3.03,.59l19.18,11.08c1.47,.88,1.35,2.43-.44,3.47l-18.99,10.98c-.92,.5-1.94,.79-2.99,.83-1.04,.04-2.08-.16-3.03-.59Z"/>
      <path class="cls-5" d="M723.4,894.96l-19.19-11.02c-1.47-.88-1.33-2.43,.44-3.47l19.08-10.98c.91-.5,1.93-.78,2.97-.83,1.04-.04,2.08,.16,3.03,.59l19.08,11.01c1.54,.9,1.35,2.43-.43,3.47l-19.08,10.98c-.9,.49-1.9,.77-2.93,.81-1.02,.04-2.05-.15-2.99-.56Z"/>
      <path class="cls-5" d="M753.01,912.08l-19.17-11.07c-1.47-.9-1.36-2.45,.42-3.48l18.95-10.97c.91-.51,1.93-.8,2.97-.84,1.04-.04,2.08,.16,3.03,.59l19.19,11.07c1.47,.9,1.35,2.46-.43,3.47l-18.89,11c-.92,.52-1.95,.81-3.01,.85-1.06,.04-2.11-.17-3.07-.61Z"/>
      <path class="cls-5" d="M346.61,777.34l-56.49-32.63c-1.54-.88-1.35-2.43,.43-3.47l19.08-10.96c.91-.52,1.93-.8,2.97-.85,1.04-.04,2.08,.16,3.03,.59l56.5,32.62c1.54,.88,1.35,2.43-.43,3.47l-19.01,10.98c-.92,.52-1.96,.81-3.02,.85-1.06,.04-2.11-.16-3.08-.61Z"/>
      <path class="cls-5" d="M710.66,987.47l-56.5-32.62c-1.54-.9-1.35-2.46,.42-3.47l19.08-10.98c.91-.51,1.93-.8,2.97-.84,1.04-.04,2.08,.16,3.03,.59l56.5,32.62c1.54,.89,1.35,2.43-.42,3.46l-19.08,10.98c-.92,.51-1.93,.8-2.98,.84-1.04,.04-2.07-.16-3.03-.59Z"/>
      <path class="cls-5" d="M592.13,956.86l-19.19-11.09c-1.54-.88-1.35-2.43,.42-3.47l22.65-13.06c.91-.51,1.93-.8,2.97-.84,1.04-.04,2.08,.16,3.03,.59l19.18,11.07c1.47,.9,1.35,2.43-.42,3.47l-22.65,13.08c-.91,.51-1.93,.8-2.97,.84-1.04,.05-2.08-.16-3.03-.59Z"/>
      <path class="cls-5" d="M376.98,832.64l-30.68-17.69c-1.54-.9-1.35-2.45,.44-3.48l22.64-13.06c.91-.51,1.93-.8,2.97-.84,1.04-.04,2.08,.16,3.03,.59l30.68,17.71c1.54,.88,1.35,2.43-.43,3.47l-22.65,13.08c-.91,.5-1.93,.78-2.98,.83-1.04,.04-2.08-.17-3.03-.6Z"/>
      <path class="cls-5" d="M563.57,940.36l-30.68-17.7c-1.54-.9-1.34-2.45,.44-3.48l22.64-13.06c.91-.52,1.93-.8,2.98-.85,1.05-.04,2.09,.16,3.04,.59l30.68,17.71c1.55,.9,1.33,2.45-.44,3.48l-22.64,13.06c-.91,.51-1.93,.8-2.98,.84-1.05,.04-2.09-.16-3.04-.59Z"/>
      <path class="cls-5" d="M419.73,857.34l-30.68-17.72c-1.54-.9-1.35-2.43,.43-3.47l22.65-13.08c.91-.51,1.93-.8,2.97-.84,1.04-.04,2.08,.16,3.03,.59l30.68,17.71c1.54,.88,1.35,2.44-.43,3.47l-22.65,13.08c-.91,.51-1.93,.8-2.97,.84-1.04,.04-2.08-.16-3.03-.59Z"/>
      <path class="cls-5" d="M418.34,822.92l133.39,77c.36,.13,.67,.36,.89,.67,.22,.31,.34,.68,.34,1.07s-.12,.75-.34,1.06c-.22,.31-.53,.54-.89,.67l-23.11,13.33c-.93,.47-1.95,.71-2.99,.71s-2.07-.24-2.99-.71l-133.39-77.01,29.09-16.79Z"/>
      <path class="cls-5" d="M674.93,987.88l21.37,12.34c1.26,.73,1.1,1.99-.35,2.84l-9.27,5.34c-.75,.42-1.59,.66-2.44,.69-.85,.04-1.71-.13-2.49-.49l-21.36-12.34c-1.26-.72-1.12-2,.35-2.83l9.26-5.36c.75-.41,1.58-.64,2.43-.68,.85-.04,1.71,.13,2.48,.49Z"/>
      <path class="cls-5" d="M645.05,970.62l21.37,12.33c1.26,.73,1.1,2.01-.35,2.85l-9.26,5.29c-.75,.42-1.59,.66-2.44,.7-.86,.04-1.71-.13-2.49-.49l-21.36-12.34c-1.26-.73-1.12-2.01,.35-2.84l9.27-5.34c.75-.42,1.58-.64,2.43-.67,.86-.03,1.71,.14,2.48,.51Z"/>
      <path class="cls-5" d="M615.43,953.53l21.38,12.33c1.26,.73,1.1,2-.35,2.85l-9.27,5.34c-.75,.42-1.58,.66-2.44,.69-.85,.04-1.71-.13-2.49-.49l-21.36-12.34c-1.26-.72-1.12-2,.35-2.84l9.26-5.36c.75-.41,1.59-.65,2.44-.68,.85-.04,1.7,.13,2.48,.49Z"/>
      <path class="cls-5" d="M661.41,961.18l21.35,12.32c1.26,.72,1.12,2-.35,2.84l-9.27,5.36c-.75,.41-1.58,.64-2.43,.68-.85,.04-1.7-.13-2.48-.48l-21.38-12.34c-1.26-.72-1.1-2,.35-2.84l9.27-5.36c.75-.41,1.59-.64,2.45-.67,.86-.04,1.71,.13,2.49,.49Z"/>
      <path class="cls-21" d="M974.88,926.5L408.98,599.79c-8.9-5.14-13.55-17.62-10.38-27.96l127.99-415.56c3.17-10.28,12.96-14.5,21.86-9.37l565.98,326.76c8.9,5.14,13.54,17.62,10.37,27.97l-127.99,415.57c-3.17,10.3-12.94,14.49-21.91,9.29Z"/>
      <path class="cls-13" d="M969.62,912.02L420.65,594.76c-8.51-4.92-12.96-16.9-9.92-26.76l122.31-397.23c3.02-9.86,12.39-13.87,20.92-8.95l549.01,317.21c8.51,4.92,12.96,16.9,9.92,26.76l-122.35,397.24c-3.03,9.91-12.41,13.92-20.92,9Z"/>
      <path class="cls-7" d="M969.62,912.02L420.65,594.76c-8.51-4.92-12.96-16.9-9.92-26.76l122.31-397.23c3.02-9.86,12.39-13.87,20.92-8.95l549.01,317.21c8.51,4.92,12.96,16.9,9.92,26.76l-122.35,397.24c-3.03,9.91-12.41,13.92-20.92,9Z"/>
      <path d="M969.62,912.02L420.65,594.76c-8.51-4.92-12.96-16.9-9.92-26.76l122.31-397.23c3.02-9.86,12.39-13.87,20.92-8.95l549.01,317.21c8.51,4.92,12.96,16.9,9.92,26.76l-122.35,397.24c-3.03,9.91-12.41,13.92-20.92,9Z"/>
      <path class="cls-5" d="M421.23,1020.01c-4.79,.12-9.54-1-13.78-3.23l-148.91-85.97c-3.95-2.27-6.12-5.53-6.12-9.17,0-4.21,2.94-8.36,8.21-11.38l76.64-44.24c9.37-5.4,23.11-5.87,31.31-1.2l148.91,85.95c3.95,2.27,6.12,5.53,6.12,9.17,0,4.23-2.94,8.37-8.21,11.38l-76.64,44.26c-5.37,2.95-11.4,4.47-17.53,4.43Zm-66.34-154.13c-5.39-.06-10.7,1.26-15.44,3.82l-76.64,44.24c-3.86,2.22-6.06,5.02-6.06,7.65s2.16,4.4,3.96,5.46l148.89,86.07c6.75,3.89,19.08,3.35,27-1.22l76.64-44.29c3.86-2.23,6.06-5.02,6.06-7.66s-2.16-4.4-3.96-5.45l-148.89-85.96c-3.57-1.83-7.54-2.72-11.55-2.6v-.06Z"/>
      <path class="cls-4" d="M1044.03,910.6l-159.03-86.83c-1.85-1.21-3.26-2.98-4.03-5.05-.76-2.07-.85-4.33-.23-6.45l52.61-170.85c1.31-4.23,5.33-5.96,8.98-3.85l159.02,86.86c1.86,1.21,3.27,2.97,4.04,5.04,.77,2.07,.85,4.33,.23,6.46l-52.63,170.83c-1.31,4.24-5.33,5.96-8.98,3.85Z"/>
      <path class="cls-8" d="M1101.35,724.41l-159.02-86.86c-1-.62-2.15-.92-3.31-.88-1.16,.04-2.29,.43-3.24,1.12,1.18-.05,2.34,.25,3.36,.85l159.04,86.85c1.86,1.2,3.27,2.97,4.04,5.05,.76,2.07,.84,4.34,.22,6.46l-52.63,170.84c-.4,1.44-1.26,2.71-2.43,3.63,1.32-.08,2.58-.58,3.59-1.43,1.01-.85,1.72-2,2.03-3.29l52.61-170.84c.61-2.12,.54-4.38-.23-6.45-.76-2.07-2.18-3.84-4.03-5.04Z"/>
      <path class="cls-10" d="M937.13,812.18c-.54-.69-1.14-1.28-1.73-1.91q-.31-.33-.2-.75c1.86-6.85,3.72-13.75,5.58-20.69,.03-.08,.08-.15,.14-.2,.06-.05,.13-.08,.21-.1,1.32-.56,2.79-.64,4.17-.22,.85,.22,1.67,.53,2.45,.92,.92,.42,1.75,1.02,2.46,1.74,.85,.9,1.46,1.99,1.77,3.19,.43,1.51,.56,3.09,.42,4.65-.08,.75-.21,1.48-.37,2.22-.12,.57-.28,1.13-.49,1.67-.3,.97-.77,1.87-1.4,2.66-.59,.76-1.36,1.36-2.24,1.73-.95,.35-1.99,.35-2.94,0-.71-.23-1.37-.56-1.97-1.01-.78-.56-1.49-1.24-2.08-2.01-.35-.44-.68-.9-.97-1.38l-2.6,9.62-.21-.13Zm4.66-16.72c-.46,1.69-.9,3.37-1.37,5.05-.03,.1-.04,.2-.01,.3,.01,.1,.06,.18,.12,.26,.38,.59,.8,1.15,1.28,1.67,.66,.81,1.52,1.44,2.5,1.82,.48,.19,1,.23,1.5,.11,.5-.12,.96-.38,1.31-.76,.81-.9,1.39-1.98,1.69-3.15,.35-1.09,.61-2.2,.76-3.34,.17-1.04,.17-2.1,0-3.14-.08-.64-.31-1.26-.67-1.81-.35-.55-.83-1.01-1.38-1.36-.43-.28-.88-.49-1.36-.66-.85-.3-1.76-.42-2.66-.35-.19,0-.28,.11-.34,.32-.45,1.69-.91,3.37-1.36,5.04Z"/>
      <path class="cls-15" d="M1001.48,784.4l-10.67-6.05c-.23-.13-.31-.08-.37,.18-.15,.59-.3,1.18-.47,1.75,0,.2,0,.29,.16,.4l14.3,8.07c.23,.11,.3,.2,.22,.48-.32,1.14-.64,2.27-.92,3.41-.35,1.47-.73,2.94-1.13,4.4-.13,.52-.36,1.01-.68,1.44-.32,.43-.73,.79-1.19,1.06-1.16,.61-2.49,.86-3.8,.72-1.31-.11-2.6-.39-3.85-.83-.81-.25-1.61-.55-2.38-.91l-1.74-.8c-1.47-.69-2.94-1.59-4.4-2.44-.71-.4-1.47-.86-2.07-1.33-1.63-1.11-3.15-2.36-4.55-3.74-.78-.76-1.5-1.59-2.15-2.47-.86-1.1-1.55-2.32-2.05-3.62s-.71-2.7-.59-4.09c0-.5,.12-1,.32-1.47,0-.06,0-.13,0-.2,1.4-5.17,2.79-10.33,4.17-15.48,.23-.8,.57-1.57,1.02-2.28,.49-.83,1.16-1.52,1.98-2.04,.7-.41,1.48-.66,2.28-.72,.99-.09,1.98,0,2.94,.28,.55,.16,1.09,.35,1.62,.57,.53,.23,1.02,.54,1.47,.82,4.76,2.69,9.49,5.39,14.25,8.05,1.33,.81,2.85,1.23,4.4,1.22,.97-.02,1.91-.3,2.72-.83,1.24-.83,2.22-1.98,2.85-3.33,.41-.86,.73-1.76,.97-2.68,.66-2.47,1.33-4.93,1.98-7.34,.07-.24,.13-.25,.32-.13,1.6,.91,3.2,1.83,4.81,2.7,1.17,.67,2.17,1.6,2.94,2.71,.7,1.01,1.26,2.1,1.67,3.26,.44,1.29,.73,2.63,.88,3.98,.16,1.46,.18,2.94,.07,4.4,0,.78-.13,1.55-.23,2.32-.11,.76-.19,1.17-.3,1.74-.28,1.54-.64,3.06-1.09,4.55-.26,.9-.56,1.76-.9,2.61-.34,.85-.56,1.47-.9,2.12-.35,.72-.74,1.41-1.19,2.08-.68,1.08-1.55,2.03-2.55,2.82-.54,.42-1.13,.76-1.76,1.02-1.43,.54-3.01,.6-4.49,.16-.56-.14-1.11-.36-1.62-.65l-10.28-5.89Zm-7.71,6.56c-.22,.85-.16,1.76,.18,2.58,.34,.82,.93,1.5,1.69,1.95,.31,.2,.67,.33,1.04,.37,.37,.04,.75-.03,1.09-.17,.35-.15,.65-.37,.88-.67,.23-.29,.39-.64,.45-1,.19-.84,.11-1.72-.23-2.51-.34-.79-.92-1.45-1.66-1.89-.3-.2-.65-.34-1.01-.38-.36-.04-.73,0-1.06,.14-.34,.13-.64,.34-.88,.61s-.4,.61-.49,.96Z"/>
      <path class="cls-9" d="M986.94,756.04c-.8-.49-1.68-.86-2.58-1.1-.7-.17-1.42-.23-2.13-.18-.75,.04-1.48,.23-2.16,.56-.92,.46-1.71,1.12-2.33,1.95-.61,.8-1.1,1.68-1.47,2.62-.11,.26-.2,.54-.28,.82-.75,2.77-1.47,5.53-2.23,8.31,0,.22-.12,.28-.32,.16l-5.06-2.94c-.81-.48-1.52-1.09-2.12-1.82-.79-.97-1.44-2.05-1.92-3.2-.53-1.25-.9-2.56-1.09-3.9-.28-1.88-.33-3.78-.16-5.67,0-.85,.16-1.69,.29-2.51,.13-.83,.25-1.47,.42-2.19,.23-1.1,.47-2.2,.78-3.26,.2-.72,.42-1.47,.67-2.1,.37-1.05,.8-2.08,1.3-3.08,.54-1.1,1.2-2.14,1.96-3.1,.66-.79,1.43-1.49,2.29-2.05,.72-.47,1.52-.78,2.36-.94,1.08-.2,2.19-.15,3.25,.16,.57,.15,1.12,.37,1.63,.64l21.14,11.95c.23,.13,.31,.13,.37-.14,.15-.62,.31-1.22,.49-1.82,.07-.2,0-.3-.16-.4l-14.3-8.07q-.29-.16-.2-.49c.66-2.42,1.32-4.83,1.94-7.26,.12-.61,.35-1.19,.67-1.71,.56-.8,1.38-1.4,2.32-1.67,1.33-.37,2.72-.4,4.07-.12,1,.18,1.98,.45,2.94,.81,.85,.3,1.7,.63,2.55,1.02,.85,.4,1.47,.72,2.24,1.09,1.04,.52,2.06,1.12,3.08,1.7,1.03,.59,1.62,.99,2.39,1.47,1.41,.97,2.75,2.03,4.01,3.18,1.62,1.47,2.98,3.2,4.02,5.12,.54,1.02,.92,2.12,1.13,3.27,.22,1.2,.17,2.43-.16,3.6-1.39,5.14-2.76,10.28-4.16,15.46-.32,1.38-.98,2.66-1.91,3.73-.65,.69-1.48,1.2-2.39,1.47-1.09,.3-2.24,.32-3.35,.07-.7-.15-1.38-.36-2.04-.65-.25-.1-.49-.25-.73-.35l-2.01-1.14-3.38-1.91-5.1-2.94-1.93-1.1c-.6-.34-1.21-.69-1.82-1.02-.25-.16-.52-.26-.8-.32Zm7.42-28.03c-.3-.2-.65-.32-1-.35-.36-.04-.73,.02-1.06,.16-.33,.13-.64,.35-.87,.61-.24,.28-.4,.6-.49,.95-.25,.88-.2,1.8,.13,2.63,.33,.84,.92,1.55,1.7,2.03,.31,.21,.66,.34,1.04,.37,.37,.04,.76-.01,1.1-.16,.35-.15,.65-.37,.88-.67,.23-.3,.39-.64,.46-1.01,.21-.86,.14-1.77-.2-2.59-.35-.82-.94-1.51-1.7-1.96Z"/>
      <path class="cls-10" d="M959.18,795.63l-.87,3.23c-.72,2.7-1.47,5.38-2.17,8.09-.19,.67-.24,1.37-.15,2.05,.12,.8,.43,1.55,.91,2.19,.42,.52,.91,.97,1.47,1.32,1.13,.78,2.51,1.14,3.87,.99,.2,0,.47,0,.61-.09,.13-.08,.16-.45,.22-.7l3.3-12.29c0-.24,.13-.27,.34-.15l1.93,1.1c.19,.1,.23,.18,.18,.41-.78,2.85-1.47,5.71-2.32,8.56-.57,2.12-1.13,4.27-1.72,6.38-.25,.92-.56,1.82-.88,2.7-.3,.87-.72,1.69-1.26,2.42-.27,.34-.6,.62-.98,.83-1.09,.49-2.31,.64-3.49,.41-.88-.15-1.73-.38-2.55-.71-.37-.13-.72-.32-1.07-.47-.07-.03-.13-.08-.17-.15-.04-.06-.05-.15-.04-.22v-1.47c0-.11,0-.15,.12-.11,.8,.31,1.62,.61,2.43,.85,.84,.28,1.74,.31,2.6,.1,.4-.13,.76-.35,1.06-.64,.3-.29,.54-.64,.69-1.03,.47-1.11,.84-2.26,1.12-3.44,0-.13,0-.2-.12-.22-1.12-.06-2.22-.29-3.27-.67-.9-.31-1.75-.73-2.54-1.26-.81-.6-1.5-1.35-2.03-2.22-.52-.87-.88-1.83-1.02-2.83-.08-.6-.05-1.21,.1-1.79,1-3.74,2.01-7.48,3.01-11.23,0-.28,.19-.32,.41-.28l1.63,.28c.22,0,.44,.01,.66,.04Z"/>
      <path class="cls-10" d="M986.03,800.15l-3.07,11.42c.63-.14,1.27-.19,1.91-.14,.74,.02,1.48,.16,2.17,.42,.61,.21,1.21,.49,1.76,.83,1,.66,1.77,1.6,2.23,2.69,.48,1.07,.68,2.25,.59,3.42-.02,.37-.08,.73-.18,1.09l-2.94,11.19c0,.23-.13,.25-.32,.13-.65-.38-1.29-.73-1.94-1.09-.2-.11-.25-.2-.18-.44,.96-3.52,1.93-7.06,2.85-10.61,.25-1.02,.2-2.09-.13-3.08-.14-.47-.37-.9-.69-1.28-.31-.38-.71-.68-1.14-.91-.64-.31-1.33-.48-2.04-.48-.75-.04-1.5,.02-2.23,.16-.08,0-.16,.04-.22,.09-.06,.06-.09,.13-.11,.21l-3.21,11.97c0,.26-.15,.28-.37,.14-.64-.38-1.28-.73-1.93-1.09-.15-.07-.19-.14-.13-.29,.06-.15,.13-.49,.19-.72,2.15-7.95,4.28-15.9,6.42-23.85,0-.22,.13-.28,.34-.23l2.36,.45Z"/>
      <path class="cls-10" d="M992.94,824.04c.34-1.4,1.04-2.69,2.04-3.73,.51-.53,1.12-.94,1.79-1.21,.68-.28,1.4-.4,2.13-.37,.73,.04,1.46,.23,2.12,.54,.32,.14,.64,.3,.92,.49,1.43,.85,2.58,2.09,3.34,3.57,.95,1.8,1.38,3.83,1.26,5.87,0,.54-.13,1.07-.2,1.59-.12,.69-.31,1.37-.57,2.03-.48,1.48-1.39,2.77-2.61,3.72-.92,.73-2.1,1.09-3.27,1-.71-.06-1.4-.25-2.04-.56-.34-.16-.66-.32-.98-.52-1.31-.78-2.39-1.91-3.11-3.25-.56-1.05-.94-2.19-1.13-3.37-.18-1.04-.21-2.11-.11-3.17,.04-.49,.1-.99,.2-1.47,.03-.37,.11-.69,.22-1.16Zm10.49,6.32c.18-.61,.32-1.24,.42-1.86,.16-1.04,.16-2.1,0-3.14-.13-.88-.49-1.71-1.02-2.41-.53-.71-1.22-1.28-2.03-1.66-.41-.2-.86-.3-1.32-.3s-.91,.11-1.32,.3c-.55,.31-1.01,.75-1.34,1.28-.43,.66-.76,1.39-1,2.15-.35,1.06-.59,2.15-.72,3.26-.14,1.15-.09,2.31,.15,3.45,.15,.78,.47,1.53,.92,2.19,.62,.85,1.51,1.47,2.53,1.74,.59,.2,1.24,.16,1.81-.1,.68-.35,1.24-.88,1.61-1.55,.6-1.04,1.04-2.17,1.31-3.35Z"/>
      <path class="cls-10" d="M1007.94,834.28l1.81-6.71c0-.16,.08-.25,.23-.28,1.17-.25,2.38-.3,3.56-.14,.89,.15,1.76,.4,2.58,.75,.72,.28,1.4,.65,2.03,1.1,1.28,.88,2.24,2.12,2.76,3.58,.28,.77,.36,1.6,.23,2.39-.28,1.47-.73,2.94-1.12,4.4-.73,2.76-1.47,5.52-2.22,8.3-.07,.25-.14,.26-.35,.13-.65-.38-1.3-.73-1.94-1.09-.19-.1-.22-.19-.16-.4,1-3.71,2.03-7.42,2.94-11.16,.17-.67,.18-1.37,.05-2.05-.14-.68-.44-1.32-.85-1.87-.33-.47-.75-.87-1.22-1.19-1.02-.77-2.29-1.14-3.56-1.03h-.13c-.34,0-.54,.13-.66,.54-1.13,4.27-2.27,8.51-3.42,12.75q-.11,.4-.46,.21c-.6-.35-1.21-.71-1.82-1.03-.19-.11-.2-.19-.15-.38,.66-2.32,1.28-4.58,1.88-6.84Z"/>
      <path class="cls-10" d="M971.11,811.24c.47-1.77,.95-3.55,1.47-5.33,0-.2,0-.29-.16-.4-.16-.1-.8-.45-1.21-.68-.04,0-.07-.03-.1-.05-.03-.03-.05-.06-.06-.09-.01-.03-.02-.07-.02-.11s0-.07,.03-.1l.35-1.3c0-.16,.08-.17,.22-.1,.41,.25,.83,.47,1.26,.72,.16,.1,.23,.08,.28-.12,.35-1.33,.72-2.67,1.07-4.01,0-.19,.11-.29,.31-.25,.78,.13,1.47,.23,2.31,.34,.13,0,.15,.08,.11,.2-.2,.64-.38,1.32-.56,1.98-.18,.66-.42,1.47-.59,2.29-.06,.29-.14,.58-.25,.85-.07,.19,0,.23,.13,.29,.75,.43,1.47,.87,2.27,1.28,.21,.12,.27,.23,.2,.46-.13,.39-.24,.78-.32,1.19,0,.23-.13,.23-.3,.12l-2.29-1.31c-.18-.11-.25,0-.28,.1-.16,.78-.4,1.47-.59,2.28-.19,.8-.37,1.31-.54,1.97-.18,.66-.28,1.1-.42,1.64-.15,.54-.24,.91-.37,1.36-.13,.45-.24,.91-.37,1.36-.13,.46-.25,.92-.38,1.38-.26,.73-.34,1.5-.24,2.26,.14,.6,.46,1.14,.91,1.56,.34,.3,.69,.57,1.06,.82,.02,0,.04,.02,.06,.04,.01,.02,.03,.04,.04,.06,0,.02,.01,.04,.01,.06s0,.05-.01,.06l-.31,1.15c0,.08,0,.11-.15,.07-1.01-.48-1.92-1.14-2.7-1.93-.92-.99-1.44-2.28-1.47-3.63,0-.44,.06-.89,.18-1.32l1.43-5.19Z"/>
      <path class="cls-1" d="M986.94,756.04c.3,.08,.58,.23,.83,.41,.61,.32,1.21,.68,1.81,1.02l1.93,1.1,5.11,2.94,3.37,1.91,2.01,1.15h-.18l-14.79-8.36-.09-.16Z"/>
      <path class="cls-4" d="M1133.24,635.74l-159.03-86.84c-1.85-1.2-3.27-2.97-4.03-5.04-.77-2.07-.85-4.33-.23-6.45l52.61-170.84c1.31-4.24,5.33-5.96,8.98-3.85l159.03,86.84c1.86,1.2,3.27,2.97,4.04,5.04,.77,2.07,.85,4.33,.23,6.45l-52.61,170.84c-1.33,4.24-5.35,5.96-9,3.85Z"/>
      <path class="cls-17" d="M1190.57,449.55l-159.03-86.84c-.99-.62-2.14-.93-3.3-.89-1.16,.04-2.29,.42-3.24,1.11,1.18-.03,2.34,.27,3.36,.87l159.03,86.84c1.85,1.2,3.26,2.97,4.03,5.04,.76,2.07,.85,4.33,.23,6.45l-52.61,170.78c-.4,1.44-1.26,2.71-2.43,3.63,1.31-.07,2.57-.56,3.59-1.4,1.01-.84,1.73-1.98,2.05-3.25l52.61-170.84c.62-2.12,.54-4.38-.23-6.45-.77-2.07-2.19-3.84-4.04-5.04Z"/>
      <path class="cls-3" d="M1068.83,548.31c-.73-.44-1.4-.97-2-1.57-.56-.81-1.16-1.6-1.81-2.35-.08-.21-.21-.39-.4-.53-.42-.68-.91-1.31-1.47-1.88-1.1-1.59-2.26-3.11-3.45-4.61-1.21-1.73-2.49-3.41-3.8-5.05-.23-.4-.51-.76-.84-1.07-.79-1.2-1.66-2.33-2.54-3.43l-.86-1.13c-.27-.47-.59-.91-.97-1.31-.61-.92-1.28-1.8-2.01-2.64l-.26-.34c-.42-.74-.91-1.44-1.47-2.08l-3.59-4.83c-1.16-1.66-2.36-3.26-3.62-4.8-.18-.35-.42-.68-.71-.95-.3-.53-.68-1.03-1.1-1.47-.49-.77-1.04-1.49-1.64-2.17-.08-.22-.22-.42-.41-.56-.6-.86-1.09-1.8-1.47-2.78v-.48c.29,.17,.64,.23,.97,.15,4.11-.31,8.22-.59,12.33-.92,.8,.06,1.62-.06,2.36-.35,.16,.53,.32,1.07,.45,1.61,4.4,17.76,18.77,31.72,33.76,32.93,3.24,.32,6.51-.05,9.58-1.1,3.08-1.05,5.9-2.74,8.27-4.96,.23,.13,.43,.33,.57,.56,2.11,2.79,4.24,5.56,6.35,8.34l5.08,6.72c-.53,.54-1.25,.86-2.01,.88-.85,.09-1.72,.15-2.58,.22-.63-.03-1.26,.02-1.88,.15-.08-.04-.18-.06-.28-.06-.09,0-.18,.02-.27,.06l-2.16,.13c-.52-.06-1.06-.02-1.57,.12h-.8c-1.62,.07-3.23,.12-4.81,.34-.98-.03-1.97,.04-2.94,.21-.62-.05-1.24-.01-1.85,.12-.82-.04-1.64,.01-2.43,.16h-.31c-.79-.02-1.59,.05-2.36,.22-.53-.06-1.07-.02-1.59,.12-.27-.08-.55-.08-.82,0-1.16,0-2.31,.08-3.47,.25-.44-.06-.89-.04-1.32,.07-1.61,.02-3.22,.12-4.81,.31-.9-.03-1.81,.04-2.69,.21-.72-.05-1.45-.02-2.16,.1-.76-.08-1.51-.25-2.23-.53Z"/>
      <path class="cls-11" d="M1050.13,501.13c-.75,.3-1.56,.42-2.36,.35-4.11,.34-8.21,.62-12.33,.93-.33,.08-.68,.03-.97-.15l-.13-.07c-.06-.84-.06-1.67,0-2.51,.3-.74,.48-1.51,.54-2.3,.28-.72,.46-1.48,.53-2.25,.29-.69,.46-1.42,.5-2.17,.27-.72,.44-1.47,.53-2.23,.28-.74,.46-1.53,.52-2.32,.3-.72,.47-1.48,.53-2.26,.3-.74,.47-1.52,.54-2.32,.29-.72,.47-1.49,.53-2.26,.29-.74,.47-1.52,.53-2.3,.28-.72,.47-1.49,.53-2.26,.3-.74,.48-1.51,.54-2.3,.28-.72,.45-1.49,.52-2.26,.35-1.53,.71-3.05,1.07-4.58,.33-.72,.55-1.48,.66-2.26,.28-.72,.45-1.49,.52-2.26,.3-.74,.48-1.51,.54-2.3,.28-.72,.46-1.49,.53-2.26,.29-.74,.47-1.51,.54-2.3,.23-.72,.53-1.42,.91-2.07l.73-.68,1.1-.51,1.47-.18c1.54-.02,3.08-.11,4.61-.29,.74,.06,1.49,0,2.22-.15,.03,.02,.07,.04,.11,.05,.04,0,.08,0,.11,0,.04,0,.08-.03,.11-.05,.03-.03,.06-.06,.07-.09,.66,.16,1.36,.16,2.03,0,.8,.06,1.62,0,2.41-.15h.35c.74,.03,1.48-.02,2.2-.15,.59,.06,1.19,.02,1.76-.12,.2,.07,.44,.07,.64,0,1.66,0,3.32-.11,4.96-.31,.99,.05,1.98-.03,2.94-.25,.59,.12,1.19,.12,1.76,0,1.61-.02,3.22-.13,4.81-.34,.71,.07,1.42,.02,2.12-.13,.08,.04,.18,.06,.27,.06s.19-.02,.28-.06c.73,.05,1.45,0,2.17-.15,.49,.08,1,.04,1.47-.12,.31,.11,.65,.11,.96,0h2.61c.72,.19,1.42,.45,2.08,.78,.65,.49,1.26,1.03,1.84,1.6,.49,.77,1.04,1.5,1.64,2.19,.18,.33,.41,.63,.68,.9,.32,.55,.71,1.07,1.14,1.54,1.22,1.69,2.45,3.36,3.76,4.95,.41,.67,.9,1.29,1.47,1.83,.61,.97,1.31,1.9,2.05,2.78,1.19,1.72,2.45,3.36,3.75,4.96,.18,.36,.43,.68,.73,.94,.36,.66,.81,1.27,1.34,1.81,1.1,1.59,2.24,3.11,3.46,4.59l1.57,2.11c.01,.07,.04,.13,.08,.18,.05,.05,.1,.1,.16,.12,.59,.9,1.24,1.75,1.94,2.57,.3,.5,.66,.97,1.07,1.38,.2,.38,.45,.73,.76,1.03,.53,.86,1.14,1.66,1.82,2.39,.15,.34,.37,.64,.64,.88,.32,.56,.71,1.08,1.16,1.54,.49,.77,1.04,1.5,1.64,2.19,.06,.22,.2,.41,.38,.56,.25,.53,.47,1.07,.66,1.63-.2-.13-.44-.19-.68-.16-4.28,.34-8.53,.69-12.8,.98-.74,.22-1.52,.22-2.27,0-.16-.33-.28-.69-.33-1.06-3.51-12.05-10.13-21.33-20.01-27.32-9.17-5.56-18.03-6.39-26.04-2.19-10,5.24-14.49,15.13-13.85,29.05-.13,1.6,.3,3.6,.54,5.59Z"/>
      <path class="cls-23" d="M1050.12,501.14c-.25-2-.68-3.99-.76-5.97-.65-13.92,3.85-23.81,13.84-29.05,8.02-4.2,16.87-3.38,26.04,2.19,9.88,5.99,16.5,15.27,20.01,27.32,.06,.37,.17,.72,.34,1.06,0,.4-.41,.28-.68,.31l-13.46,1.01c-.27,0-.53,.13-.83-.15v-.44c-1.86-6.88-7.34-13.09-13.21-15-7.16-2.29-13.34,.76-15.81,7.94-1.04,3.15-1.18,6.54-.4,9.76,0,.29,0,.6,.16,.9,2.05,7.68,6.34,13.04,12.84,15.68,2.07,1,4.4,1.36,6.68,1.03,2.27-.34,4.4-1.35,6.09-2.9,.32,.07,.49,.43,.68,.69,3.36,4.39,6.71,8.8,10.06,13.21,.28,.26,.48,.58,.6,.94-2.37,2.23-5.19,3.92-8.26,4.96-3.08,1.05-6.35,1.42-9.58,1.1-15.03-1.2-29.36-15.16-33.76-32.93-.26-.57-.42-1.12-.59-1.64Z"/>
      <path class="cls-12" d="M1094.65,497.88c.29,.28,.56,.16,.82,.15l13.47-1.01c.26,0,.6,.09,.67-.31,.74,.22,1.52,.22,2.27,0,4.27-.29,8.53-.65,12.8-.98,.25-.03,.49,.03,.69,.16l.42,1.2c.05,.88,.01,1.76-.11,2.63-.24,.74-.42,1.5-.53,2.27l-.53,2.29c-.24,.74-.42,1.5-.54,2.28l-.53,2.29c-.24,.75-.42,1.51-.53,2.29l-.53,2.29c-.25,.74-.42,1.5-.53,2.28l-.54,2.29c-.24,.74-.42,1.5-.53,2.28l-.53,2.29c-.25,.75-.42,1.51-.53,2.29l-.54,2.28c-.24,.75-.42,1.51-.53,2.29l-.53,2.29c-.25,.74-.42,1.5-.53,2.28-.23,.69-.4,1.4-.49,2.13-.25,.74-.42,1.5-.53,2.28l-.53,2.29-.53,2.29c-.23,.71-.55,1.38-.97,2l-.4,.26-5.07-6.72c-2.12-2.77-4.24-5.55-6.36-8.34-.14-.23-.34-.42-.57-.56-.12-.36-.33-.68-.6-.94-3.35-4.4-6.7-8.81-10.06-13.21-.19-.26-.35-.62-.68-.69-.06-.28-.19-.53-.4-.73-2.73-3.57-5.48-7.13-8.19-10.73-1.07-1.32-2.08-2.7-3.02-4.13,.2-.08,.42-.13,.63-.16,3.9-.29,7.78-.54,11.74-.85,1,.05,2.01-.04,2.99-.28Z"/>
      <path class="cls-11" d="M1094.64,497.89c-1,.27-2.03,.38-3.06,.35-3.89,.31-7.78,.56-11.74,.85-.22,.03-.43,.09-.63,.16l-9.17,.6c-1.66,.1-3.29,.35-5,.29-.78-3.23-.64-6.61,.4-9.76,2.46-7.18,8.65-10.28,15.81-7.94,5.87,1.91,11.4,8.12,13.21,15,.16,.1,.16,.25,.18,.44Z"/>
      <path class="cls-3" d="M1065.12,500.11c1.7,0,3.33-.19,4.99-.29l9.17-.6c.94,1.43,1.95,2.8,3.03,4.13,2.72,3.6,5.46,7.16,8.19,10.73,.2,.2,.33,.46,.4,.73-1.69,1.56-3.82,2.57-6.1,2.9-2.28,.34-4.6-.02-6.68-1.03-6.5-2.64-10.79-8-12.84-15.68-.08-.29-.1-.6-.16-.9Z"/>
      <g>
        <path class="cls-4" d="M824.47,474.17L381.84,216.09c-2.12-1.39-3.75-3.42-4.63-5.8-.88-2.38-.99-4.98-.29-7.41L437.7,5.55c1.47-4.89,6.15-6.88,10.38-4.4l442.61,258.05c2.12,1.39,3.75,3.42,4.64,5.8,.88,2.38,.99,4.97,.3,7.41l-60.77,197.31c-1.51,4.89-6.17,6.88-10.38,4.45Z"/>
        <path class="cls-22" d="M890.7,259.19L448.08,1.05c-1.14-.73-2.47-1.09-3.82-1.05-1.35,.04-2.65,.5-3.74,1.3,1.36-.03,2.7,.31,3.88,1l442.62,258.06c2.12,1.39,3.74,3.42,4.63,5.8,.89,2.38,1,4.97,.3,7.41l-60.77,197.32c-.22,.71-.52,1.4-.91,2.04-.09,.17-.13,.37-.1,.56,.03,.19,.12,.37,.26,.51,.13,.14,.32,.23,.51,.26,.2,.03,.4,0,.56-.1,1.64-1.04,2.84-2.65,3.36-4.52l60.78-197.25c.69-2.44,.59-5.04-.3-7.41-.89-2.38-2.51-4.41-4.63-5.8Z"/>
      </g>
      <g class="cls-16">
        <path class="cls-5" d="M633.45,301.6l-65.56-37.39c-2.03-1.16-4.14-.56-4.73,1.34-.21,1.08-.06,2.2,.41,3.19,.47,.99,1.25,1.81,2.22,2.33l65.59,37.45c2.03,1.16,4.14,.56,4.73-1.34,.22-1.09,.08-2.23-.4-3.23-.48-1.01-1.27-1.83-2.26-2.35Z"/>
        <path class="cls-5" d="M816.57,406.02l-108.63-61.98c-2.04-1.14-4.15-.56-4.73,1.34-.2,1.08-.06,2.2,.41,3.19,.47,.99,1.25,1.81,2.22,2.33l108.63,61.98c2.04,1.16,4.15,.56,4.73-1.34,.2-1.08,.06-2.2-.42-3.19-.47-.99-1.25-1.81-2.22-2.33Z"/>
        <path class="cls-5" d="M686.26,331.68l-30.4-17.31c-2.04-1.14-4.15-.56-4.72,1.34-.21,1.08-.07,2.2,.4,3.19,.47,.99,1.26,1.81,2.22,2.33l30.47,17.32c2.04,1.14,4.16,.56,4.73-1.34,.2-1.09,.04-2.22-.44-3.21-.49-1-1.28-1.81-2.27-2.32Z"/>
        <path class="cls-5" d="M570.33,338.24l-21.32-12.11c-2.03-1.16-4.14-.56-4.71,1.34-.21,1.08-.07,2.2,.41,3.19,.47,.99,1.25,1.81,2.22,2.33l21.33,12.11c2.04,1.16,4.15,.56,4.73-1.34,.2-1.08,.06-2.2-.42-3.2-.47-.99-1.26-1.81-2.23-2.32Z"/>
        <path class="cls-5" d="M662.63,390.97l-75.22-42.82c-2.03-1.16-4.14-.56-4.73,1.34-.2,1.08-.06,2.2,.41,3.19,.47,.99,1.25,1.81,2.22,2.33l75.22,42.89c2.04,1.16,4.16,.56,4.73-1.34,.23-1.09,.09-2.22-.39-3.23-.47-1.01-1.26-1.84-2.24-2.36Z"/>
        <path class="cls-5" d="M703.69,414.29l-21.31-12.16c-2.03-1.16-4.14-.56-4.71,1.34-.2,1.08-.06,2.2,.41,3.19,.47,.99,1.25,1.81,2.22,2.33l21.3,12.15c2.04,1.16,4.15,.56,4.73-1.34,.2-1.08,.06-2.2-.42-3.19-.47-.99-1.25-1.81-2.22-2.33Z"/>
        <path class="cls-5" d="M795.98,467.05l-75.22-42.89c-2.03-1.16-4.14-.56-4.72,1.34-.21,1.08-.06,2.2,.41,3.19,.47,.99,1.25,1.81,2.22,2.33l75.22,42.89c2.04,1.16,4.15,.56,4.73-1.34,.2-1.08,.06-2.2-.41-3.19-.47-.99-1.26-1.81-2.22-2.33Z"/>
        <path class="cls-5" d="M654.42,422.5l-114.84-65.47c-2.03-1.16-4.14-.56-4.71,1.34-.21,1.08-.06,2.2,.41,3.19,.47,.99,1.25,1.81,2.22,2.33l114.82,65.47c2.04,1.16,4.15,.56,4.73-1.32,.2-1.08,.06-2.2-.41-3.2-.47-1-1.25-1.81-2.22-2.34Z"/>
        <path class="cls-5" d="M765.88,486.12l-86.28-49.21c-2.03-1.14-4.14-.56-4.71,1.34-.21,1.08-.07,2.2,.4,3.19,.47,.99,1.26,1.81,2.23,2.33l86.27,49.21c2.04,1.16,4.15,.56,4.73-1.34,.2-1.08,.06-2.2-.42-3.19-.47-.99-1.25-1.81-2.22-2.33Z"/>
        <path class="cls-5" d="M595.71,425.34l-65.62-37.37c-2.04-1.16-4.15-.57-4.73,1.32-.21,1.08-.06,2.2,.41,3.2,.47,1,1.25,1.81,2.22,2.34l65.57,37.37c2.03,1.16,4.14,.57,4.71-1.32,.21-1.08,.08-2.19-.38-3.19-.47-1-1.23-1.82-2.19-2.35Z"/>
        <path class="cls-5" d="M699.28,484.41l-81.12-46.3c-2.03-1.16-4.14-.56-4.71,1.34-.2,1.08-.06,2.2,.42,3.19,.47,.99,1.25,1.81,2.22,2.33l81.17,46.3c2.04,1.16,4.16,.56,4.73-1.34,.2-1.09,.05-2.21-.44-3.21-.49-.99-1.28-1.81-2.27-2.31Z"/>
        <path class="cls-5" d="M872.24,437.69l-30.41-17.34c-2.03-1.16-4.14-.56-4.71,1.34-.2,1.08-.06,2.2,.41,3.19,.47,.99,1.25,1.81,2.22,2.33l30.4,17.34c2.03,1.16,4.14,.56,4.73-1.34,.2-1.08,.06-2.2-.41-3.19-.47-.99-1.26-1.81-2.22-2.33Z"/>
        <path class="cls-5" d="M941.63,477.33l-46.66-26.6c-2.03-1.16-4.14-.56-4.71,1.34-.2,1.08-.06,2.2,.41,3.19,.47,.99,1.25,1.81,2.22,2.33l46.66,26.6c2.04,1.16,4.15,.57,4.72-1.32,.21-1.08,.07-2.2-.4-3.2s-1.25-1.81-2.22-2.34Z"/>
        <path class="cls-5" d="M866.62,470.86l121.92,69.58c.97,.52,1.75,1.34,2.22,2.33,.47,.99,.61,2.11,.41,3.19-.59,1.89-2.7,2.5-4.73,1.34l-121.84-69.52c-.97-.52-1.75-1.34-2.22-2.33-.47-.99-.61-2.11-.4-3.19,.49-1.95,2.61-2.55,4.64-1.39Z"/>
        <path class="cls-5" d="M828.41,487.18l121.84,69.52c.97,.52,1.75,1.34,2.22,2.33,.47,.99,.62,2.11,.42,3.19-.59,1.89-2.69,2.5-4.73,1.34l-121.84-69.52c-.97-.52-1.74-1.34-2.22-2.33s-.62-2.11-.41-3.19c.57-1.89,2.68-2.5,4.72-1.34Z"/>
        <path class="cls-5" d="M626.16,333.73l108.63,61.98c.97,.52,1.75,1.33,2.22,2.33,.47,.99,.61,2.11,.4,3.19-.57,1.89-2.68,2.48-4.72,1.34l-108.63-61.98c-.97-.52-1.75-1.34-2.22-2.33-.47-.99-.61-2.11-.41-3.19,.59-1.89,2.7-2.5,4.73-1.34Z"/>
        <path class="cls-5" d="M813.83,440.75l30.4,17.34c.97,.52,1.75,1.34,2.22,2.34,.47,1,.61,2.12,.4,3.2-.57,1.89-2.69,2.48-4.71,1.32l-30.4-17.34c-.97-.52-1.76-1.33-2.23-2.32-.48-.99-.62-2.11-.42-3.19,.59-1.89,2.7-2.48,4.73-1.34Z"/>
        <path class="cls-5" d="M760.37,410.26l30.4,17.34c.97,.52,1.75,1.34,2.22,2.34,.47,1,.61,2.12,.41,3.2-.57,1.89-2.69,2.48-4.73,1.34l-30.4-17.34c-.97-.52-1.74-1.34-2.22-2.34-.47-1-.61-2.12-.41-3.2,.52-1.89,2.69-2.48,4.73-1.34Z"/>
        <path class="cls-5" d="M558.46,295.14l46.65,26.57c.97,.52,1.76,1.33,2.23,2.32,.47,.99,.62,2.11,.41,3.19-.59,1.89-2.7,2.5-4.72,1.34l-46.65-26.57c-.97-.52-1.75-1.34-2.23-2.33-.47-1-.61-2.12-.4-3.2,.57-1.89,2.69-2.48,4.71-1.32Z"/>
        <path class="cls-5" d="M586.27,456.28l-65.56-37.39c-2.03-1.16-4.14-.56-4.73,1.34-.21,1.08-.06,2.2,.41,3.19,.47,.99,1.25,1.81,2.22,2.33l65.58,37.39c2.03,1.16,4.14,.56,4.72-1.34,.21-1.08,.06-2.2-.41-3.19-.48-.99-1.26-1.81-2.23-2.32Z"/>
        <path class="cls-5" d="M769.38,560.7l-108.63-61.96c-2.05-1.16-4.16-.57-4.73,1.32-.21,1.08-.06,2.2,.41,3.2s1.25,1.81,2.22,2.34l108.63,61.96c2.03,1.16,4.14,.56,4.73-1.34,.2-1.08,.06-2.2-.41-3.19-.47-.99-1.25-1.81-2.22-2.33Z"/>
        <path class="cls-5" d="M639.08,486.4l-30.4-17.34c-2.04-1.16-4.16-.56-4.73,1.34-.19,1.07-.04,2.18,.43,3.16,.47,.98,1.24,1.79,2.2,2.3l30.4,17.34c2.04,1.16,4.16,.56,4.73-1.34,.19-1.07,.04-2.18-.43-3.16-.47-.98-1.24-1.79-2.19-2.3Z"/>
        <path class="cls-5" d="M523.15,492.93l-21.31-12.16c-2.03-1.14-4.14-.56-4.71,1.34-.21,1.08-.07,2.2,.4,3.2,.47,1,1.25,1.81,2.23,2.33l21.3,12.14c2.04,1.16,4.15,.57,4.73-1.32,.21-1.08,.06-2.2-.41-3.2-.47-1-1.25-1.81-2.22-2.34Z"/>
        <path class="cls-5" d="M615.46,545.67l-75.22-42.88c-2.03-1.16-4.14-.57-4.73,1.32-.21,1.08-.06,2.2,.41,3.2,.47,1,1.25,1.81,2.22,2.34l75.22,42.88c2.04,1.16,4.15,.57,4.73-1.32,.2-1.08,.06-2.2-.41-3.2-.47-1-1.25-1.81-2.22-2.34Z"/>
        <path class="cls-5" d="M656.49,568.97l-21.31-12.15c-2.03-1.16-4.14-.56-4.71,1.34-.21,1.08-.07,2.2,.4,3.19,.47,.99,1.26,1.81,2.23,2.33l21.3,12.15c2.04,1.16,4.15,.56,4.73-1.34,.2-1.08,.06-2.2-.42-3.19-.47-.99-1.25-1.81-2.22-2.33Z"/>
        <path class="cls-5" d="M748.81,621.7l-75.22-42.89c-2.03-1.15-4.14-.56-4.73,1.34-.2,1.08-.06,2.2,.41,3.19,.47,.99,1.25,1.81,2.22,2.33l75.2,42.86c2.05,1.16,4.16,.56,4.73-1.34,.2-1.07,.06-2.18-.41-3.17-.47-.99-1.24-1.8-2.2-2.32Z"/>
        <path class="cls-5" d="M607.24,577.14l-114.84-65.48c-2.03-1.16-4.14-.56-4.71,1.34-.21,1.08-.07,2.2,.41,3.19,.47,.99,1.25,1.81,2.22,2.33l114.82,65.49c2.05,1.14,4.14,.56,4.73-1.34,.21-1.08,.07-2.2-.4-3.19s-1.26-1.81-2.22-2.33Z"/>
        <path class="cls-5" d="M796.39,685.05l-163.98-93.49c-2.03-1.16-4.14-.57-4.73,1.32-.2,1.08-.06,2.2,.42,3.2,.47,1,1.26,1.81,2.22,2.33l164,93.51c2.03,1.14,4.14,.56,4.71-1.34,.2-1.08,.06-2.2-.41-3.2-.48-1-1.26-1.81-2.24-2.34Z"/>
        <path class="cls-5" d="M548.53,580.09l-65.56-37.42c-2.04-1.16-4.15-.56-4.73,1.34-.21,1.08-.06,2.2,.41,3.19,.47,.99,1.25,1.81,2.22,2.33l65.57,37.39c2.03,1.16,4.14,.56,4.71-1.34,.2-1.08,.06-2.19-.42-3.17-.47-.99-1.25-1.8-2.21-2.32Z"/>
        <path class="cls-5" d="M601.32,610.15l-30.4-17.34c-2.02-1.14-4.14-.56-4.71,1.34-.21,1.08-.07,2.2,.4,3.19,.47,.99,1.25,1.81,2.22,2.33l30.4,17.34c2.03,1.16,4.14,.57,4.72-1.32,.21-1.08,.06-2.2-.41-3.2-.48-1-1.26-1.81-2.23-2.33Z"/>
        <path class="cls-5" d="M825.06,592.43l-30.42-17.34c-2.03-1.16-4.14-.56-4.71,1.34-.21,1.08-.07,2.2,.4,3.19,.47,.99,1.25,1.81,2.22,2.33l30.4,17.34c2.03,1.16,4.14,.56,4.72-1.34,.21-1.08,.06-2.2-.41-3.19-.47-.99-1.25-1.81-2.22-2.33Z"/>
        <path class="cls-5" d="M826.3,520.32l-30.4-17.34c-2.03-1.16-4.14-.57-4.71,1.32-.2,1.08-.06,2.2,.41,3.2,.47,1,1.25,1.81,2.22,2.34l30.4,17.41c2.03,1.16,4.14,.56,4.73-1.34,.23-1.09,.09-2.23-.39-3.24-.47-1.01-1.26-1.84-2.25-2.36Z"/>
        <path class="cls-5" d="M894.45,632l-46.66-26.61c-2.03-1.16-4.14-.56-4.71,1.34-.21,1.08-.07,2.2,.4,3.19s1.26,1.81,2.22,2.33l46.66,26.61c2.04,1.16,4.14,.56,4.72-1.34,.21-1.08,.07-2.2-.4-3.19-.47-.99-1.25-1.81-2.22-2.33Z"/>
        <path class="cls-5" d="M819.44,625.58l121.84,69.52c.97,.52,1.76,1.33,2.23,2.33,.47,.99,.62,2.11,.42,3.19-.59,1.9-2.7,2.5-4.73,1.34l-121.84-69.52c-.97-.52-1.75-1.33-2.22-2.33s-.61-2.11-.41-3.19c.58-1.92,2.69-2.51,4.71-1.34Z"/>
        <path class="cls-5" d="M578.98,488.45l108.63,61.96c.97,.52,1.74,1.34,2.22,2.33,.47,.99,.61,2.11,.41,3.19-.57,1.89-2.69,2.5-4.73,1.34l-108.63-61.96c-.97-.52-1.74-1.34-2.22-2.34-.47-1-.61-2.12-.41-3.2,.59-1.89,2.7-2.48,4.73-1.32Z"/>
        <path class="cls-5" d="M766.65,595.47l30.4,17.34c.97,.52,1.74,1.34,2.22,2.33s.62,2.11,.41,3.19c-.57,1.89-2.69,2.5-4.71,1.34l-30.41-17.34c-.97-.52-1.74-1.34-2.22-2.33-.47-.99-.62-2.11-.42-3.19,.59-1.89,2.7-2.5,4.73-1.34Z"/>
        <path class="cls-5" d="M713.18,564.97l30.42,17.34c.97,.52,1.74,1.34,2.22,2.33,.47,.99,.61,2.11,.41,3.19-.59,1.89-2.7,2.5-4.73,1.34l-30.4-17.34c-.97-.52-1.75-1.34-2.22-2.33-.47-.99-.61-2.11-.41-3.19,.57-1.89,2.69-2.5,4.71-1.34Z"/>
        <path class="cls-5" d="M511.27,449.85l46.71,26.6c.97,.52,1.75,1.33,2.23,2.32,.47,.99,.61,2.11,.4,3.19-.57,1.89-2.69,2.5-4.71,1.34l-46.71-26.53c-.97-.52-1.75-1.33-2.23-2.32-.48-.99-.62-2.11-.41-3.19,.59-1.97,2.7-2.57,4.73-1.41Z"/>
      </g>
      <g>
        <path d="M500.91,78.36l13.64,8.05c5.49,3.24,8.94,8.17,10.37,14.79,1.43,6.62,.81,14.26-1.85,22.9-2.66,8.65-6.21,14.55-10.65,17.7-4.44,3.15-9.4,3.1-14.88-.15l-13.63-8.09,17-55.2Zm-5.7,48.79l5.6,3.32c2.87,1.7,5.5,1.62,7.89-.23,2.39-1.85,4.44-5.52,6.13-11.01,1.69-5.48,2.19-10.07,1.5-13.75-.69-3.68-2.47-6.37-5.34-8.06l-5.61-3.31-10.18,33.04Z"/>
        <path d="M547.83,171.49l-8.4-4.98,1-10.81-13.87-8.22-4.89,8.5-8.1-4.8,29.29-48.04,9.43,5.56-4.46,62.81Zm-10.86-42.01l-4.84,8.34,9.42,5.58,1-10.62c.27-3.15,.76-8.37,1.49-15.65-4.26,7.47-6.61,11.58-7.07,12.35Z"/>
        <path d="M561.82,181.26c-4.67-2.77-7.74-6.62-9.23-11.55-1.48-4.93-1.3-10.46,.56-16.6l7.7,4.56c-1.02,3.44-1.15,6.19-.39,8.23,.76,2.05,2.36,3.79,4.81,5.24,3.79,2.25,6.34,1.24,7.65-3.01,.58-1.87,.59-3.5,.04-4.9-.55-1.4-1.89-3.16-4.02-5.28l-2.46-2.47c-6.82-6.49-8.76-14.48-5.84-23.96,1.55-5.03,3.91-8.35,7.09-9.97,3.18-1.62,6.86-1.19,11.03,1.27,4.45,2.63,7.38,6.19,8.77,10.7,1.4,4.5,1.28,9.71-.35,15.62l-7.53-4.45c.74-2.75,.8-5.05,.2-6.88-.61-1.83-1.97-3.37-4.11-4.63-3.42-2.02-5.7-1.16-6.85,2.57-.57,1.87-.6,3.54-.07,5.02,.53,1.48,1.75,3.18,3.68,5.12l2.56,2.53c3.68,3.59,6.02,7.26,7.04,11.02,1.01,3.76,.79,8.01-.66,12.73-1.74,5.66-4.33,9.25-7.77,10.78-3.44,1.52-7.38,.96-11.83-1.68Z"/>
        <path d="M593.56,133.03l28.63,16.9-3.62,11.78-10.34-6.11-13.46,43.74-8.01-4.75,13.45-43.72-10.27-6.07,3.62-11.76Z"/>
        <path d="M621.55,216.7c-4.38-2.6-7.31-6.64-8.78-12.13-1.51-5.38-1.15-11.69,1.07-18.92l10.58-34.4,7.99,4.71-10.63,34.57c-1.09,3.54-1.34,6.57-.76,9.1,.58,2.53,1.93,4.42,4.04,5.67s4.04,1.3,5.77,.14c1.73-1.16,3.15-3.5,4.24-7.05l10.64-34.6,8,4.72-10.59,34.46c-2.19,7.14-5.19,11.89-9,14.25s-7.99,2.19-12.56-.53Z"/>
        <path d="M673.05,229.4l-2.17,7.97c-.74,2.52-1.04,4.72-.9,6.59l-8.26-4.9c-.03-1.87,.33-4.06,1.07-6.58l1.78-6.34c.88-3.11,1.12-5.49,.7-7.12-.42-1.63-1.48-2.95-3.18-3.97l-6.55-3.88-6.3,20.49-8.01-4.75,17.11-55.64,15.99,9.43c3.96,2.33,6.54,5.57,7.76,9.71,1.22,4.14,1.06,8.69-.46,13.64-1.97,6.42-5.15,9.75-9.53,9.99,1.45,1.97,2.22,4.12,2.31,6.45,.09,2.33-.37,5.3-1.36,8.91Zm-9.94-42.86l-4.52,14.7,7.07,4.18c1.55,.92,2.95,.99,4.2,.22,1.25-.77,2.24-2.36,2.98-4.76,1.49-4.85,.56-8.27-2.8-10.25l-6.93-4.09Z"/>
        <path d="M698.52,194.97l-13.5,43.93,15.52,9.2-3.64,11.84-23.55-13.97,17.13-55.73,8.04,4.74Z"/>
        <path d="M732.64,281.14l-8.55-5.07,.98-10.92-14.12-8.37-4.94,8.57-8.24-4.89,29.64-48.43,9.6,5.66-4.36,63.46Zm-11.16-42.51l-4.9,8.41,9.59,5.68,.98-10.73c.26-3.18,.75-8.45,1.47-15.81-4.31,7.53-6.69,11.68-7.15,12.45Z"/>
        <path d="M746.89,291.08c-4.75-2.82-7.89-6.72-9.41-11.71-1.52-4.99-1.35-10.58,.52-16.77l7.84,4.64c-1.03,3.47-1.16,6.25-.38,8.32,.78,2.07,2.41,3.84,4.9,5.32,3.86,2.29,6.45,1.29,7.77-3.01,.58-1.89,.59-3.54,.02-4.96-.57-1.42-1.93-3.2-4.1-5.35l-2.51-2.51c-6.95-6.59-8.95-14.67-6.01-24.25,1.56-5.08,3.95-8.42,7.18-10.04,3.23-1.62,6.97-1.18,11.21,1.33,4.53,2.68,7.52,6.29,8.95,10.85,1.43,4.56,1.33,9.82-.32,15.79l-7.67-4.53c.74-2.78,.8-5.1,.18-6.95-.62-1.85-2.02-3.42-4.19-4.7-3.48-2.05-5.8-1.2-6.95,2.57-.58,1.89-.6,3.58-.06,5.07,.54,1.5,1.79,3.23,3.75,5.19l2.61,2.56c3.75,3.64,6.14,7.36,7.19,11.17,1.04,3.81,.83,8.09-.64,12.86-1.75,5.71-4.38,9.33-7.87,10.86-3.49,1.52-7.5,.94-12.03-1.75Z"/>
        <path d="M797.61,278.73l6.57-21.41,8.13,4.8-17.21,56.08-8.12-4.82,6.96-22.67-13.74-8.13-6.96,22.66-8.11-4.81,17.19-55.99,8.11,4.79-6.57,21.4,13.74,8.12Z"/>
        <path d="M502.49,169.73l-3.68,11.96-16.86-10.04-3.14,10.21,15.57,9.28-3.49,11.33-15.57-9.29-7.05,22.88-8.04-4.8,17.35-56.33,24.91,14.81Z"/>
        <path d="M504.01,238.92c-5.19-3.1-8.56-8.31-10.11-15.62-1.54-7.36-.94-15.45,1.77-24.27,2.72-8.82,6.52-15,11.4-18.52,4.87-3.48,9.9-3.67,15.09-.59,5.19,3.09,8.57,8.28,10.13,15.6,1.54,7.36,.96,15.47-1.76,24.3-2.72,8.84-6.53,15.02-11.42,18.54-4.88,3.47-9.91,3.66-15.1,.55Zm-1.49-20.32c.65,4.14,2.34,7.03,5.07,8.66,2.71,1.62,5.39,1.34,8.06-.82,2.62-2.13,4.79-6,6.51-11.61,1.73-5.61,2.24-10.46,1.54-14.57-.71-4.18-2.42-7.07-5.13-8.68-2.74-1.63-5.41-1.34-8.01,.86-2.62,2.13-4.78,6-6.51,11.6-1.72,5.6-2.24,10.45-1.55,14.56Z"/>
        <path d="M539.49,260.14c-4.44-2.65-7.4-6.78-8.89-12.37-1.52-5.48-1.15-11.9,1.11-19.26l10.77-35,8.09,4.81-10.83,35.18c-1.11,3.6-1.37,6.69-.78,9.26,.59,2.58,1.95,4.5,4.09,5.78s4.09,1.33,5.85,.16c1.76-1.17,3.2-3.56,4.3-7.17l10.83-35.2,8.11,4.82-10.79,35.06c-2.23,7.26-5.28,12.09-9.14,14.49-3.86,2.4-8.11,2.21-12.74-.56Z"/>
        <path d="M595.48,239.04l3.65-11.86,7.75,4.61-17.44,56.7-8.76-5.24-1.41-27.6c-.39-8.58-.59-14.79-.59-18.61-2.11,7.34-4.73,16.1-7.86,26.29l-3.65,11.85-7.73-4.62,17.42-56.62,8.75,5.2,1.42,27.58c.38,8.01,.56,14.28,.54,18.79,2.14-7.45,4.78-16.28,7.91-26.46Z"/>
        <path d="M612.09,234.89l14.08,8.37c5.66,3.37,9.24,8.46,10.72,15.29,1.48,6.83,.86,14.68-1.87,23.57-2.73,8.88-6.38,14.93-10.96,18.15-4.57,3.22-9.69,3.13-15.35-.25l-14.07-8.41,17.44-56.72Zm-5.79,50.19l5.79,3.46c2.96,1.77,5.67,1.7,8.14-.19,2.47-1.89,4.57-5.66,6.3-11.29,1.73-5.64,2.24-10.35,1.52-14.14-.72-3.79-2.56-6.57-5.52-8.33l-5.79-3.45-10.44,33.95Z"/>
        <path d="M660.65,331.06l-8.67-5.19,1.01-11.12-14.33-8.56-5.03,8.71-8.36-5,30.14-49.27,9.73,5.79-4.5,64.63Zm-11.28-43.32l-4.98,8.56,9.73,5.8,1.01-10.93c.27-3.24,.77-8.61,1.51-16.1-4.38,7.66-6.8,11.88-7.27,12.67Z"/>
        <path d="M673.72,271.53l29.47,17.52-3.71,12.08-10.64-6.33-13.79,44.87-8.25-4.93,13.78-44.85-10.57-6.29,3.71-12.06Z"/>
        <path d="M696.97,352.78l-8.22-4.91,17.51-56.99,8.22,4.89-17.51,57.01Z"/>
        <path d="M718.15,366.96c-5.3-3.17-8.75-8.45-10.35-15.86-1.59-7.46-1.01-15.64,1.73-24.56,2.74-8.92,6.59-15.15,11.56-18.7,4.95-3.5,10.08-3.67,15.38-.52s8.76,8.43,10.38,15.84c1.6,7.46,1.03,15.66-1.72,24.6-2.74,8.93-6.6,15.17-11.58,18.72-4.96,3.49-10.09,3.65-15.39,.48Zm-1.58-20.58c.67,4.19,2.41,7.13,5.2,8.8,2.76,1.65,5.5,1.39,8.21-.79,2.66-2.14,4.86-6.05,6.6-11.72,1.74-5.67,2.25-10.58,1.53-14.74-.74-4.23-2.49-7.17-5.26-8.82-2.8-1.66-5.51-1.39-8.16,.83-2.66,2.15-4.86,6.05-6.59,11.71-1.74,5.66-2.25,10.57-1.53,14.73Z"/>
        <path d="M776.69,346.9l3.67-11.97,7.89,4.69-17.56,57.22-8.91-5.33-1.51-27.9c-.42-8.67-.64-14.95-.65-18.81-2.12,7.41-4.76,16.25-7.91,26.53l-3.67,11.96-7.87-4.7,17.54-57.13,8.9,5.29,1.52,27.87c.41,8.1,.61,14.43,.6,18.98,2.15-7.52,4.81-16.43,7.97-26.71Z"/>
      </g>
    </g>
  </g>
</svg>