<?xml version="1.0" encoding="UTF-8"?>
<svg id="Layer_2" data-name="Layer 2" xmlns="http://www.w3.org/2000/svg" xmlns:xlink="http://www.w3.org/1999/xlink" viewBox="0 0 1195.25 1319.28">
  <defs>
    <style>
      .cls-1 {
        fill: url(#linear-gradient-2);
      }

      .cls-2 {
        fill: #f4f4f4;
      }

      .cls-3 {
        fill: #fff;
      }

      .cls-4 {
        fill: #020230;
        opacity: .1;
      }

      .cls-4, .cls-5 {
        isolation: isolate;
      }

      .cls-6 {
        fill: url(#linear-gradient-6);
      }

      .cls-7 {
        fill: #539e43;
      }

      .cls-8 {
        fill: url(#linear-gradient-5);
      }

      .cls-9 {
        fill: #f0f1f1;
      }

      .cls-10, .cls-5 {
        fill: #06033e;
      }

      .cls-11 {
        opacity: .3;
      }

      .cls-12 {
        fill: url(#linear-gradient-7);
      }

      .cls-13 {
        fill: #42a4f4;
      }

      .cls-14 {
        fill: url(#linear-gradient-3);
      }

      .cls-5, .cls-15 {
        opacity: .4;
      }

      .cls-16 {
        fill: url(#linear-gradient);
      }

      .cls-17 {
        fill: url(#linear-gradient-4);
      }

      .cls-18 {
        fill: url(#linear-gradient-8);
      }

      .cls-19 {
        fill: #1e88e4;
      }
    </style>
    <linearGradient id="linear-gradient" x1="408.08" y1="-7323.53" x2="1147.4" y2="-7336.45" gradientTransform="translate(0 -6803.04) scale(1 -1)" gradientUnits="userSpaceOnUse">
      <stop offset="0" stop-color="#00ee6e"/>
      <stop offset=".18" stop-color="#02dd7f"/>
      <stop offset=".48" stop-color="#089fbc"/>
      <stop offset=".84" stop-color="#0a6fc1"/>
      <stop offset="1" stop-color="#0a60a0"/>
    </linearGradient>
    <linearGradient id="linear-gradient-2" x1=".17" y1="-7686.96" x2="978.54" y2="-7686.96" gradientTransform="translate(0 -6803.04) scale(1 -1)" gradientUnits="userSpaceOnUse">
      <stop offset="0" stop-color="#00ee6e"/>
      <stop offset=".14" stop-color="#02dd7f"/>
      <stop offset=".36" stop-color="#04c398"/>
      <stop offset=".65" stop-color="#089fbc"/>
      <stop offset=".97" stop-color="#0c7ae1"/>
      <stop offset="1" stop-color="#0c75e6"/>
    </linearGradient>
    <linearGradient id="linear-gradient-3" x1="0" y1="-7670.2" x2="978.71" y2="-7670.2" xlink:href="#linear-gradient-2"/>
    <linearGradient id="linear-gradient-4" x1="397.6" y1="-7331.9" x2="1125.79" y2="-7331.9" xlink:href="#linear-gradient-2"/>
    <linearGradient id="linear-gradient-5" x1="409.77" y1="-7332.09" x2="1113.85" y2="-7332.09" gradientTransform="translate(0 -6803.04) scale(1 -1)" gradientUnits="userSpaceOnUse">
      <stop offset="0" stop-color="#3919ba"/>
      <stop offset="1" stop-color="#6507f9"/>
    </linearGradient>
    <linearGradient id="linear-gradient-6" x1="935.79" y1="-7568.08" x2="1106.02" y2="-7568.08" gradientTransform="translate(0 -6803.04) scale(1 -1)" gradientUnits="userSpaceOnUse">
      <stop offset="0" stop-color="#0cf"/>
      <stop offset=".14" stop-color="#00c3ff"/>
      <stop offset=".36" stop-color="#01acff"/>
      <stop offset=".65" stop-color="#0185ff"/>
      <stop offset=".97" stop-color="#0250ff"/>
      <stop offset="1" stop-color="#024bff"/>
    </linearGradient>
    <linearGradient id="linear-gradient-7" x1="1025" y1="-7294.53" x2="1195.25" y2="-7294.53" xlink:href="#linear-gradient-6"/>
    <linearGradient id="linear-gradient-8" x1="441.39" y1="-7039.02" x2="896.95" y2="-7039.02" xlink:href="#linear-gradient-6"/>
  </defs>
  <g id="Layer_1-2" data-name="Layer 1">
    <g>
      <path class="cls-4" d="M573.8,1316.08L5.59,989.62c-8.28-4.76-7.24-13.08,2.33-18.57l364.67-209.52c9.57-5.49,24.03-6.1,32.29-1.35l568.23,326.46c8.29,4.76,7.25,13.15-2.32,18.57l-364.68,209.52c-9.56,5.49-24.03,6.1-32.31,1.35Z"/>
      <path class="cls-16" d="M1124.08,462.75L558.09,137.58c-1.71-1.05-3.62-1.73-5.6-2.02-1.99-.28-4.01-.16-5.95,.37l-10.57,3.67,3.68,.88c-1.58,1.89-2.76,4.08-3.46,6.44l-127.93,413.52c-3.17,10.23,1.47,22.72,10.38,27.83l565.97,325.18c1.31,.74,2.71,1.31,4.16,1.69l-1.47,3.04,10.01-3.49c2.22-.96,4.19-2.41,5.77-4.23,1.57-1.83,2.72-3.98,3.34-6.31l127.99-413.55c3.2-10.27-1.44-22.73-10.33-27.84Z"/>
      <path class="cls-1" d="M964.33,928.89l.2,.25L405.49,607.93c-8.22-4.72-22.59-4.12-32.07,1.33L12.22,816.79l-12.05-4.57,3.39,16.88c.35,1.44,1.02,2.78,1.96,3.93,.94,1.15,2.12,2.08,3.46,2.72l564.21,324.16c8.21,4.73,22.58,4.13,32.07-1.32l362.15-208.04c4.4-2.57,7.03-5.75,7.68-8.91l3.47-16.36-14.21,3.62Z"/>
      <path class="cls-14" d="M573.8,1145.1L5.59,818.66c-8.28-4.76-7.24-13.15,2.33-18.57l364.67-209.52c9.57-5.51,24.03-6.09,32.29-1.34l568.23,326.46c8.29,4.76,7.25,13.15-2.32,18.57l-364.68,209.52c-9.56,5.49-24.03,6.1-32.31,1.33Z"/>
      <path class="cls-3" d="M970.8,929.89l-364.69,209.48c-9.56,5.49-24.03,6.1-32.29,1.33L5.59,814.24c-2.41-1.22-4.25-3.31-5.17-5.84-1.09,3.78,.51,7.58,5.17,10.23l568.21,326.47c8.28,4.76,22.75,4.16,32.29-1.33l364.7-209.49c6.31-3.62,8.81-8.46,7.48-12.69-.85,2.92-3.3,5.86-7.48,8.31Z"/>
      <g class="cls-15">
        <path class="cls-10" d="M276.63,765.67l-19.19-11.07c-1.54-.88-1.35-2.43,.43-3.45l22.68-12.97c.91-.51,1.93-.79,2.97-.84,1.04-.04,2.08,.16,3.03,.58l19.19,11.03c1.54,.89,1.35,2.42-.44,3.45l-22.64,13.01c-.92,.51-1.94,.79-2.99,.84-1.05,.04-2.09-.16-3.05-.6Z"/>
        <path class="cls-10" d="M306.25,782.7l-19.19-11.03c-1.54-.87-1.35-2.42,.43-3.44l22.65-13.01c.91-.51,1.93-.79,2.97-.84,1.04-.04,2.08,.16,3.03,.59l19.19,11.01c1.54,.89,1.35,2.44-.43,3.45l-22.65,13.01c-.91,.51-1.93,.8-2.97,.84-1.04,.04-2.08-.16-3.03-.59Z"/>
        <path class="cls-10" d="M335.87,799.71l-19.19-11.02c-1.54-.89-1.35-2.44,.43-3.46l22.65-13c.91-.51,1.93-.79,2.97-.84,1.04-.04,2.08,.15,3.03,.59l19.19,11.01c1.54,.89,1.35,2.44-.43,3.46l-22.65,13c-.91,.51-1.93,.79-2.97,.84-1.04,.05-2.08-.15-3.03-.58Z"/>
        <path class="cls-10" d="M376.85,785.65l-19.19-11.03c-1.47-.88-1.35-2.43,.44-3.45l19-10.91c.91-.51,1.93-.79,2.98-.84,1.05-.04,2.09,.15,3.04,.59l19.19,11.01c1.54,.89,1.34,2.42-.44,3.45l-19.01,10.93c-.91,.51-1.93,.79-2.97,.83-1.04,.04-2.08-.15-3.03-.58Z"/>
        <path class="cls-10" d="M406.46,802.66l-19.19-11.01c-1.47-.89-1.34-2.44,.44-3.46l19.07-10.91c.91-.51,1.93-.79,2.97-.84,1.04-.04,2.08,.15,3.03,.59l19.19,11.01c1.54,.89,1.35,2.44-.44,3.46l-19,10.91c-.92,.51-1.95,.81-3.01,.85-1.06,.04-2.11-.16-3.07-.6Z"/>
        <path class="cls-10" d="M436.14,819.67l-19.24-11.04c-1.47-.89-1.34-2.44,.44-3.46l19.01-10.91c.91-.51,1.93-.79,2.97-.84,1.04-.04,2.08,.15,3.03,.59l19.19,11.01c1.54,.89,1.35,2.44-.44,3.46l-19,10.91c-.9,.5-1.91,.79-2.95,.84-1.03,.05-2.07-.15-3.01-.56Z"/>
        <path class="cls-10" d="M465.71,836.71l-19.17-11.02c-1.54-.89-1.35-2.42,.43-3.45l19.01-10.92c.91-.51,1.93-.79,2.97-.84,1.04-.04,2.08,.16,3.03,.59l19.19,11.03c1.47,.87,1.35,2.42-.43,3.45l-19.01,10.85c-.91,.52-1.93,.81-2.97,.86-1.05,.06-2.09-.13-3.05-.55Z"/>
        <path class="cls-10" d="M495.35,853.73l-19.19-11.03c-1.54-.87-1.35-2.42,.43-3.44l19.01-10.93c.91-.51,1.93-.79,2.97-.84,1.04-.04,2.08,.16,3.03,.58l19.19,11.03c1.47,.88,1.35,2.42-.43,3.45l-19.01,10.93c-.91,.5-1.93,.79-2.97,.83s-2.08-.15-3.03-.58Z"/>
        <path class="cls-10" d="M524.97,870.75l-19.19-10.98c-1.54-.88-1.35-2.42,.43-3.45l19.01-10.93c.91-.5,1.93-.79,2.97-.83,1.04-.04,2.08,.15,3.03,.58l19.19,11.03c1.54,.88,1.35,2.43-.43,3.45l-19.01,10.93c-.92,.5-1.94,.78-2.98,.81-1.04,.04-2.08-.18-3.03-.61Z"/>
        <path class="cls-10" d="M554.59,887.76l-19.19-11.03c-1.54-.88-1.35-2.42,.43-3.45l19.01-10.91c.91-.51,1.93-.79,2.98-.84,1.05-.04,2.09,.16,3.04,.59l19.14,11.01c1.54,.89,1.35,2.42-.43,3.45l-19.08,10.93c-.9,.49-1.9,.77-2.92,.81-1.02,.05-2.04-.15-2.98-.56Z"/>
        <path class="cls-10" d="M584.22,904.8l-19.19-11.01c-1.54-.89-1.35-2.44,.43-3.46l19.08-10.91c.92-.51,1.93-.79,2.99-.84,1.04-.04,2.08,.15,3.03,.59l19.19,11.01c1.47,.89,1.33,2.44-.44,3.46l-19.08,10.91c-.91,.51-1.93,.79-2.97,.84-1.04,.04-2.08-.16-3.03-.59Z"/>
        <path class="cls-10" d="M613.83,921.81l-19.15-11.01c-1.54-.89-1.35-2.44,.44-3.46l19-10.91c.91-.51,1.93-.79,2.98-.84,1.04-.05,2.09,.15,3.04,.58l19.18,11.02c1.55,.89,1.34,2.44-.44,3.46l-19.08,10.91c-.9,.5-1.92,.78-2.95,.82-1.04,.04-2.07-.15-3.01-.58Z"/>
        <path class="cls-10" d="M643.47,938.82l-19.19-11.02c-1.47-.88-1.33-2.42,.44-3.44l19.01-10.93c.91-.51,1.93-.79,2.97-.84,1.04-.04,2.08,.16,3.03,.59l19.19,11.03c1.47,.88,1.35,2.42-.44,3.45l-18.99,10.98c-.92,.49-1.95,.77-2.99,.8-1.04,.03-2.08-.18-3.03-.62Z"/>
        <path class="cls-10" d="M420.5,777.59l-19.19-11.02c-1.47-.89-1.35-2.44,.43-3.46l19.01-10.91c.91-.51,1.93-.79,2.97-.84,1.04-.04,2.08,.16,3.03,.59l19.19,11.02c1.54,.88,1.35,2.44-.43,3.46l-19.01,10.91c-.91,.51-1.93,.79-2.97,.84-1.04,.04-2.08-.16-3.03-.59Z"/>
        <path class="cls-10" d="M390.43,760.31l-19.17-11.03c-1.54-.88-1.35-2.43,.43-3.45l18.97-10.93c.91-.51,1.93-.79,2.97-.84,1.04-.04,2.08,.16,3.03,.59l19.19,11.03c1.54,.88,1.35,2.42-.43,3.45l-18.89,10.93c-.92,.51-1.96,.81-3.02,.85-1.06,.04-2.11-.16-3.08-.6Z"/>
        <path class="cls-10" d="M360.31,743.01l-41.32-23.74c-1.54-.88-1.35-2.42,.44-3.45l19-10.9c.91-.5,1.93-.79,2.98-.83,1.04-.04,2.09,.15,3.04,.58l41.31,23.74c1.54,.89,1.35,2.44-.43,3.46l-19.01,10.91c-.91,.5-1.93,.79-2.98,.82-1.04,.04-2.08-.17-3.03-.6Z"/>
        <path class="cls-10" d="M381.36,721.97l-33.53-19.26c-1.47-.89-1.35-2.42,.43-3.45l19.01-10.93c.91-.51,1.93-.79,2.97-.83,1.04-.04,2.08,.15,3.03,.58l33.51,19.26c1.54,.88,1.35,2.43-.43,3.45l-19.08,10.93c-.9,.49-1.9,.77-2.93,.81-1.03,.05-2.05-.15-2.99-.56Z"/>
        <path class="cls-10" d="M450.13,794.62l-19.19-11.02c-1.54-.89-1.35-2.42,.43-3.45l19.01-10.93c.91-.51,1.93-.8,2.98-.84,1.05-.04,2.09,.16,3.04,.59l19.17,11.03c1.47,.87,1.35,2.42-.43,3.44l-19.01,10.91c-.91,.51-1.93,.8-2.97,.85-1.04,.04-2.08-.15-3.03-.58Z"/>
        <path class="cls-10" d="M479.75,811.65l-19.19-11.03c-1.54-.87-1.35-2.42,.43-3.45l19.01-10.92c.91-.51,1.94-.79,2.98-.84,1.05-.04,2.09,.15,3.04,.58l19.13,10.97c1.54,.88,1.35,2.43-.43,3.45l-19.01,10.93c-.9,.51-1.91,.8-2.94,.85-1.03,.06-2.07-.13-3.02-.54Z"/>
        <path class="cls-10" d="M509.37,828.66l-19.19-11.03c-1.54-.88-1.35-2.42,.44-3.45l19-10.93c.91-.5,1.94-.79,2.98-.83,1.04-.04,2.09,.15,3.04,.58l19.19,11.03c1.47,.87,1.34,2.42-.44,3.44l-18.97,10.93c-.92,.51-1.94,.8-2.99,.84-1.05,.04-2.1-.16-3.05-.59Z"/>
        <path class="cls-10" d="M539,845.67l-19.17-11.03c-1.54-.88-1.34-2.42,.44-3.45l19-10.86c.91-.51,1.93-.79,2.97-.84,1.04-.05,2.08,.15,3.03,.59l19.19,11.01c1.54,.89,1.34,2.42-.44,3.45l-19,10.93c-.92,.5-1.94,.78-2.98,.81-1.05,.04-2.08-.18-3.03-.61Z"/>
        <path class="cls-10" d="M568.6,862.69l-19.19-11.01c-1.47-.89-1.34-2.44,.44-3.46l19.01-10.91c.91-.51,1.93-.79,2.97-.84,1.04-.05,2.08,.15,3.03,.58l19.18,11.03c1.55,.89,1.35,2.44-.44,3.46l-19,10.91c-.91,.51-1.93,.79-2.98,.83s-2.09-.16-3.04-.6Z"/>
        <path class="cls-10" d="M598.24,879.73l-19.18-11.02c-1.54-.89-1.35-2.44,.43-3.46l19.08-10.91c.91-.51,1.93-.79,2.97-.84,1.04-.04,2.08,.16,3.03,.59l19.19,11.02c1.47,.88,1.35,2.44-.42,3.46l-19.08,10.91c-.92,.51-1.93,.79-2.99,.84-1.04,.04-2.08-.16-3.03-.59Z"/>
        <path class="cls-10" d="M627.88,896.74l-19.18-11.02c-1.55-.89-1.36-2.42,.42-3.45l19.01-10.93c.92-.51,1.93-.79,2.98-.84,1.04-.04,2.08,.16,3.03,.59l19.19,11.03c1.47,.87,1.35,2.42-.43,3.44l-19.01,10.91c-.91,.51-1.93,.79-2.97,.84-1.04,.05-2.08-.15-3.03-.58Z"/>
        <path class="cls-10" d="M657.49,913.81l-19.18-11.03c-1.55-.88-1.36-2.42,.42-3.45l19.08-10.93c.91-.5,1.93-.79,2.97-.83,1.04-.04,2.08,.15,3.03,.58l19.11,11.05c1.47,.87,1.35,2.42-.42,3.44l-19.08,10.93c-.9,.49-1.91,.77-2.94,.81-1.02,.04-2.05-.15-2.99-.57Z"/>
        <path class="cls-10" d="M687.17,930.79l-19.18-11.03c-1.47-.88-1.36-2.42,.42-3.45l19.01-10.93c.91-.5,1.93-.79,2.98-.83,1.04-.04,2.08,.15,3.03,.58l19.18,11.03c1.54,.88,1.35,2.43-.43,3.45l-19.08,10.93c-.9,.49-1.91,.77-2.94,.81-1.02,.04-2.05-.15-2.99-.56Z"/>
        <path class="cls-10" d="M739.8,961.03l-41.86-24.04c-1.55-.89-1.35-2.43,.44-3.45l19-10.96c.91-.51,1.93-.79,2.98-.84s2.08,.15,3.04,.58l41.85,24.05c1.54,.89,1.35,2.44-.43,3.46l-19.01,10.91c-.91,.51-1.93,.8-2.97,.85-1.04,.05-2.08-.15-3.03-.58Z"/>
        <path class="cls-10" d="M797.46,927.91l-35.33-20.3c-1.55-.88-1.36-2.43,.42-3.45l19.01-10.93c.91-.51,1.93-.79,2.98-.84,1.04-.04,2.08,.16,3.03,.59l35.32,20.3c1.47,.88,1.35,2.42-.42,3.45l-19.01,10.93c-.91,.5-1.93,.79-2.97,.83-1.04,.04-2.08-.15-3.03-.58Z"/>
        <path class="cls-10" d="M502.01,791.28l-19.19-11.01c-1.54-.89-1.35-2.43,.43-3.45l18.97-10.93c.91-.51,1.93-.79,2.98-.84,1.05-.05,2.09,.15,3.04,.59l19.19,11.03c1.47,.88,1.34,2.42-.44,3.45l-18.89,11c-.93,.51-1.96,.78-3.02,.81-1.06,.03-2.1-.2-3.06-.65Z"/>
        <path class="cls-10" d="M471.64,773.83l-19.19-11.02c-1.54-.89-1.35-2.44,.43-3.46l19.08-10.91c.91-.51,1.93-.79,2.97-.84,1.04-.04,2.08,.16,3.03,.59l19.19,11.01c1.54,.89,1.35,2.44-.43,3.46l-19.08,10.91c-.91,.51-1.93,.79-2.97,.84-1.04,.05-2.08-.15-3.03-.58Z"/>
        <path class="cls-10" d="M441.27,756.38l-19.19-11.01c-1.47-.89-1.34-2.44,.44-3.46l19.01-10.91c.91-.51,1.93-.79,2.97-.84,1.04-.04,2.08,.15,3.03,.59l19.19,11.01c1.54,.89,1.35,2.44-.44,3.46l-19,10.91c-.91,.51-1.93,.79-2.98,.84-1.05,.04-2.09-.16-3.04-.59Z"/>
        <path class="cls-10" d="M410.92,738.94l-19.19-11.02c-1.54-.88-1.35-2.44,.43-3.46l19.08-10.91c.91-.51,1.93-.79,2.98-.84,1.05-.05,2.09,.15,3.04,.58l19.19,11.02c1.47,.89,1.34,2.42-.44,3.45l-19.08,10.92c-.91,.51-1.93,.8-2.97,.84-1.04,.04-2.08-.16-3.03-.59Z"/>
        <path class="cls-10" d="M531.57,808.3l-19.08-11.03c-1.54-.88-1.35-2.43,.44-3.45l19-10.93c.91-.51,1.94-.79,2.98-.83,1.05-.05,2.09,.15,3.04,.58l19.19,11.03c1.54,.88,1.34,2.42-.44,3.45l-19.01,10.93c-.93,.52-1.96,.81-3.02,.86-1.06,.04-2.12-.17-3.08-.61Z"/>
        <path class="cls-10" d="M561.24,825.32l-19.19-11.03c-1.47-.88-1.34-2.42,.44-3.45l19.01-10.97c.91-.51,1.93-.79,2.97-.84,1.04-.04,2.08,.16,3.03,.59l19.18,11.03c1.55,.89,1.35,2.42-.44,3.45l-19,10.93c-.91,.51-1.93,.8-2.97,.85-1.05,.06-2.09-.14-3.04-.56Z"/>
        <path class="cls-10" d="M590.87,842.33l-19.18-11.03c-1.47-.88-1.35-2.42,.42-3.45l19.01-10.91c.91-.51,1.93-.79,2.97-.84,1.04-.04,2.08,.16,3.03,.59l19.18,11.01c1.47,.89,1.36,2.43-.42,3.45l-19.08,10.93c-.9,.5-1.91,.78-2.94,.82-1.03,.04-2.06-.15-3-.58Z"/>
        <path class="cls-10" d="M620.49,859.37l-19.18-11.01c-1.47-.89-1.35-2.44,.43-3.46l19.01-10.91c.91-.51,1.93-.79,2.97-.84,1.04-.04,2.08,.16,3.03,.59l19.18,11.01c1.55,.89,1.36,2.44-.42,3.46l-19.08,10.91c-.9,.49-1.91,.77-2.94,.82-1.03,.04-2.06-.15-3-.58Z"/>
        <path class="cls-10" d="M650.13,876.38l-19.18-11.01c-1.55-.89-1.36-2.44,.42-3.46l19.08-10.91c.91-.51,1.93-.79,2.97-.84,1.04-.04,2.08,.15,3.03,.59l19.18,11.01c1.47,.89,1.36,2.44-.42,3.46l-19.01,10.91c-.92,.52-1.95,.81-3.01,.86-1.06,.04-2.11-.17-3.07-.61Z"/>
        <path class="cls-10" d="M679.82,893.38l-19.18-11.01c-1.47-.89-1.36-2.42,.42-3.45l19.08-10.93c.92-.51,1.93-.79,2.98-.83,1.04-.04,2.09,.15,3.04,.58l19.02,11.03c1.55,.88,1.36,2.43-.42,3.45l-19.08,10.93c-.9,.48-1.88,.75-2.9,.79-1.02,.04-2.03-.15-2.96-.55Z"/>
        <path class="cls-10" d="M709.38,910.43l-19.19-11.03c-1.47-.88-1.35-2.43,.42-3.45l19.01-10.93c.92-.51,1.93-.79,2.98-.84,1.04-.04,2.09,.16,3.04,.59l19.17,11.03c1.47,.88,1.35,2.42-.42,3.45l-19.01,10.93c-.91,.51-1.93,.79-2.97,.83-1.04,.04-2.08-.15-3.03-.58Z"/>
        <path class="cls-10" d="M739.01,927.44l-19.19-11.03c-1.47-.88-1.35-2.43,.44-3.45l18.99-10.93c.92-.51,1.93-.79,2.98-.84,1.04-.04,2.09,.16,3.04,.59l19.18,11.03c1.55,.89,1.34,2.42-.44,3.45l-19.08,10.93c-.9,.49-1.91,.77-2.94,.81-1.03,.04-2.05-.15-2.99-.57Z"/>
        <path class="cls-10" d="M768.62,944.49l-19.18-11.01c-1.47-.89-1.34-2.44,.44-3.46l19.01-10.91c.91-.51,1.93-.79,2.97-.84,1.04-.04,2.08,.16,3.03,.59l19.19,11.03c1.47,.89,1.35,2.43-.44,3.45l-19.01,10.93c-.91,.51-1.93,.79-2.97,.83-1.04,.04-2.08-.16-3.03-.6Z"/>
        <path class="cls-10" d="M486.4,749.18l-19.19-11.03c-1.54-.89-1.34-2.43,.44-3.45l19.08-10.93c.91-.51,1.93-.79,2.97-.83,1.04-.05,2.08,.15,3.03,.58l19.19,11.03c1.54,.88,1.35,2.42-.44,3.45l-19,10.93c-.93,.51-1.96,.8-3.02,.84-1.06,.04-2.11-.16-3.08-.6Z"/>
        <path class="cls-10" d="M456.93,732.24l-19.19-11.02c-1.54-.89-1.34-2.44,.44-3.46l19.01-10.91c.91-.51,1.93-.79,2.97-.84,1.04-.04,2.08,.16,3.03,.59l19.19,11.02c1.54,.88,1.35,2.44-.44,3.46l-19,10.91c-.91,.51-1.93,.79-2.98,.84-1.05,.04-2.09-.16-3.04-.59Z"/>
        <path class="cls-10" d="M427.43,715.32l-19.19-11.03c-1.54-.87-1.35-2.42,.44-3.44l19-10.93c.91-.51,1.94-.79,2.98-.84,1.05-.04,2.09,.16,3.04,.58l19.19,11.03c1.47,.88,1.34,2.42-.44,3.45l-19.01,10.93c-.91,.5-1.93,.79-2.97,.83-1.04,.04-2.08-.15-3.03-.58Z"/>
        <path class="cls-10" d="M397.98,698.37l-19.2-10.97c-1.54-.89-1.35-2.44,.44-3.45l19-10.93c.91-.51,1.93-.79,2.98-.84,1.05-.04,2.09,.16,3.04,.59l19.19,11.01c1.54,.89,1.34,2.44-.44,3.46l-19.01,10.91c-.91,.5-1.93,.77-2.97,.81-1.04,.04-2.07-.18-3.02-.61Z"/>
        <path class="cls-10" d="M428.28,680.95l-19.19-11.01c-1.54-.89-1.35-2.44,.43-3.46l6.3-3.61c.91-.51,1.93-.79,2.97-.83,1.04-.04,2.08,.15,3.03,.58l19.19,11.03c1.54,.88,1.34,2.42-.44,3.45l-6.28,3.61c-.91,.51-1.93,.79-2.97,.84-1.04,.04-2.08-.15-3.03-.59Z"/>
        <path class="cls-10" d="M466.75,703.07l-19.17-11.02c-1.47-.89-1.35-2.44,.43-3.46l6.28-3.6c.91-.51,1.93-.79,2.97-.84,1.04-.04,2.08,.15,3.03,.58l19.19,11.03c1.54,.87,1.35,2.42-.43,3.45l-6.28,3.6c-.91,.51-1.93,.79-2.98,.84-1.05,.04-2.09-.16-3.04-.59Z"/>
        <path class="cls-10" d="M496.1,719.92l-19.19-11.03c-1.47-.87-1.34-2.42,.44-3.44l6.28-3.61c.91-.51,1.93-.79,2.97-.84,1.04-.05,2.08,.15,3.03,.58l19.19,11.02c1.54,.89,1.35,2.44-.43,3.46l-6.28,3.6c-.91,.51-1.94,.79-2.98,.84-1.05,.04-2.09-.15-3.04-.58Z"/>
        <path class="cls-10" d="M525.47,736.78l-19.19-11.01c-1.47-.89-1.35-2.44,.43-3.46l6.3-3.61c.91-.5,1.93-.79,2.97-.83,1.04-.04,2.08,.15,3.03,.58l19.19,11.03c1.54,.88,1.34,2.43-.44,3.45l-6.28,3.61c-.91,.51-1.93,.79-2.97,.84-1.04,.04-2.08-.15-3.03-.59Z"/>
        <path class="cls-10" d="M554.81,753.66l-19.19-11.03c-1.47-.88-1.35-2.42,.43-3.45l6.28-3.61c.91-.51,1.93-.79,2.98-.84,1.05-.04,2.09,.16,3.04,.59l19.17,11.01c1.54,.89,1.35,2.44-.43,3.46l-6.28,3.61c-.91,.51-1.93,.79-2.97,.84-1.04,.04-2.08-.16-3.03-.59Z"/>
        <path class="cls-10" d="M718.69,847.8l-19.19-11.01c-1.47-.89-1.35-2.42,.43-3.45l6.28-3.62c.92-.5,1.93-.78,2.98-.83,1.04-.04,2.09,.16,3.04,.58l19.18,11.03c1.55,.89,1.34,2.43-.44,3.45l-6.28,3.61c-.91,.51-1.93,.79-2.97,.84-1.04,.04-2.08-.15-3.03-.59Z"/>
        <path class="cls-10" d="M748.05,864.68l-19.18-11.03c-1.47-.87-1.36-2.42,.42-3.44l6.31-3.58c.91-.51,1.93-.79,2.97-.84,1.04-.04,2.08,.15,3.03,.59l19.19,11.03c1.54,.88,1.35,2.42-.43,3.45l-6.28,3.61c-.92,.51-1.94,.79-2.99,.83-1.04,.04-2.09-.18-3.04-.61Z"/>
        <path class="cls-10" d="M777.4,881.55l-19.18-11.03c-1.47-.89-1.33-2.42,.44-3.45l6.28-3.61c.92-.51,1.93-.79,2.98-.84,1.04-.04,2.08,.16,3.03,.59l19.19,11.01c1.54,.89,1.35,2.43-.43,3.45l-6.28,3.62c-.91,.51-1.93,.79-2.98,.84-1.04,.04-2.09-.16-3.04-.59Z"/>
        <path class="cls-10" d="M806.75,898.42l-19.18-11.01c-1.47-.89-1.35-2.44,.44-3.46l6.28-3.61c.92-.51,1.93-.79,2.98-.83,1.04-.05,2.07,.15,3.03,.58l19.19,11.03c1.54,.88,1.35,2.42-.44,3.45l-6.28,3.61c-.91,.51-1.93,.79-2.97,.84-1.04,.04-2.08-.16-3.03-.59Z"/>
        <path class="cls-10" d="M516.01,766.27l-19.17-11.03c-1.54-.87-1.35-2.42,.43-3.45l19.01-10.92c.91-.51,1.93-.79,2.97-.84,1.04-.04,2.08,.15,3.03,.58l19.19,11.03c1.54,.87,1.35,2.42-.43,3.45l-19.01,10.92c-.91,.51-1.94,.79-2.98,.84-1.05,.04-2.09-.15-3.04-.58Z"/>
        <path class="cls-10" d="M545.65,783.22l-19.19-11.03c-1.47-.87-1.35-2.42,.43-3.44l19.01-10.93c.91-.51,1.93-.79,2.97-.84,1.04-.04,2.08,.16,3.03,.58l19.19,11.03c1.54,.89,1.35,2.42-.42,3.45l-19.01,10.92c-.91,.51-1.93,.79-2.97,.84-1.04,.04-2.08-.15-3.03-.58Z"/>
        <path class="cls-10" d="M575.28,800.25l-19.19-11.01c-1.47-.89-1.35-2.44,.43-3.46l19.08-10.91c.91-.51,1.93-.79,2.98-.84,1.04-.04,2.08,.16,3.03,.59l19.19,11.01c1.54,.89,1.35,2.44-.43,3.45l-19.01,10.93c-.92,.52-1.95,.81-3.01,.86-1.05,.04-2.1-.17-3.06-.61Z"/>
        <path class="cls-10" d="M604.96,817.26l-19.19-11.01c-1.54-.89-1.35-2.44,.43-3.46l19.01-10.91c.92-.51,1.93-.79,2.99-.84,1.04-.04,2.08,.15,3.03,.59l19.18,11.01c1.54,.89,1.35,2.44-.43,3.46l-19.01,10.91c-.91,.51-1.93,.79-2.97,.84-1.04,.04-2.08-.16-3.03-.59Z"/>
        <path class="cls-10" d="M634.52,834.28l-19.18-11.03c-1.54-.89-1.35-2.44,.42-3.46l19.01-10.91c.91-.51,1.93-.79,2.98-.84,1.04-.04,2.09,.15,3.04,.59l19.18,11.01c1.47,.89,1.33,2.44-.44,3.46l-19.01,10.91c-.91,.51-1.93,.79-2.97,.84-1.04,.04-2.08-.15-3.03-.58Z"/>
        <path class="cls-10" d="M664.14,851.31l-19.18-11.03c-1.47-.89-1.36-2.43,.44-3.45l19-10.93c.91-.51,1.93-.79,2.98-.83,1.04-.05,2.08,.15,3.03,.58l19.19,11.03c1.54,.88,1.33,2.42-.44,3.45l-19.08,10.93c-.9,.49-1.91,.77-2.94,.81-1.03,.04-2.05-.15-3-.57Z"/>
        <path class="cls-10" d="M693.78,868.32l-19.19-11.03c-1.47-.88-1.33-2.43,.44-3.45l19.01-10.93c.91-.51,1.93-.79,2.97-.84,1.04-.04,2.08,.16,3.03,.59l19.18,11.03c1.47,.88,1.35,2.42-.44,3.45l-18.99,10.93c-.92,.5-1.94,.79-2.99,.83-1.04,.04-2.08-.15-3.03-.58Z"/>
        <path class="cls-10" d="M723.4,885.35l-19.19-10.97c-1.47-.88-1.33-2.42,.44-3.45l19.08-10.93c.91-.5,1.93-.78,2.97-.82,1.04-.04,2.08,.16,3.03,.59l19.08,10.96c1.54,.89,1.35,2.42-.43,3.45l-19.08,10.93c-.9,.48-1.9,.77-2.93,.81-1.02,.04-2.05-.15-2.99-.56Z"/>
        <path class="cls-10" d="M753.03,902.36l-19.17-11.01c-1.47-.89-1.36-2.44,.42-3.46l18.95-10.91c.91-.51,1.93-.79,2.97-.84,1.04-.04,2.08,.16,3.03,.59l19.18,11.01c1.47,.89,1.36,2.44-.42,3.45l-18.89,10.94c-.92,.51-1.95,.81-3.01,.84-1.06,.04-2.11-.17-3.07-.61Z"/>
        <path class="cls-10" d="M346.61,768.31l-56.49-32.47c-1.54-.88-1.35-2.42,.43-3.45l19.08-10.91c.91-.51,1.93-.79,2.97-.84,1.04-.04,2.08,.16,3.03,.59l56.5,32.46c1.54,.88,1.35,2.42-.43,3.45l-19.01,10.93c-.92,.51-1.96,.81-3.02,.85-1.06,.04-2.11-.16-3.08-.6Z"/>
        <path class="cls-10" d="M710.66,977.41l-56.5-32.46c-1.54-.89-1.35-2.44,.42-3.45l19.08-10.93c.91-.51,1.93-.79,2.97-.84,1.04-.04,2.08,.15,3.03,.59l56.5,32.46c1.54,.88,1.35,2.42-.42,3.44l-19.08,10.93c-.92,.51-1.93,.79-2.98,.84-1.04,.04-2.07-.16-3.03-.58Z"/>
        <path class="cls-10" d="M592.13,946.95l-19.19-11.03c-1.54-.88-1.35-2.42,.42-3.45l22.65-13c.91-.51,1.93-.79,2.97-.84,1.04-.04,2.08,.15,3.03,.59l19.18,11.01c1.47,.89,1.35,2.42-.42,3.45l-22.65,13.01c-.91,.51-1.93,.79-2.97,.84-1.04,.05-2.08-.15-3.03-.58Z"/>
        <path class="cls-10" d="M376.98,823.33l-30.68-17.61c-1.54-.89-1.35-2.44,.44-3.46l22.64-13c.91-.51,1.93-.79,2.97-.84,1.04-.04,2.08,.15,3.03,.59l30.68,17.63c1.54,.88,1.35,2.42-.43,3.45l-22.65,13.01c-.91,.5-1.93,.78-2.98,.82-1.04,.04-2.08-.17-3.03-.6Z"/>
        <path class="cls-10" d="M563.57,930.53l-30.68-17.61c-1.54-.89-1.34-2.44,.44-3.46l22.64-13c.91-.51,1.93-.79,2.98-.84,1.05-.04,2.09,.16,3.04,.59l30.68,17.62c1.55,.89,1.33,2.44-.44,3.46l-22.64,13c-.91,.51-1.93,.79-2.98,.84-1.05,.04-2.09-.15-3.04-.59Z"/>
        <path class="cls-10" d="M419.73,847.89l-30.68-17.63c-1.54-.89-1.35-2.42,.43-3.45l22.65-13.01c.91-.51,1.93-.79,2.97-.84,1.04-.04,2.08,.16,3.03,.59l30.68,17.63c1.54,.88,1.35,2.43-.43,3.45l-22.65,13.02c-.91,.5-1.93,.79-2.97,.83-1.04,.04-2.08-.15-3.03-.58Z"/>
        <path class="cls-10" d="M418.34,813.66l133.39,76.63c.36,.13,.67,.36,.89,.67,.22,.31,.34,.68,.34,1.06s-.12,.74-.34,1.05c-.22,.31-.53,.54-.89,.67l-23.11,13.27c-.93,.47-1.95,.71-2.99,.71s-2.07-.24-2.99-.71l-133.39-76.64,29.09-16.71Z"/>
        <path class="cls-10" d="M674.93,977.79l21.37,12.28c1.26,.73,1.1,1.99-.35,2.83l-9.27,5.32c-.75,.41-1.59,.65-2.44,.69-.85,.04-1.71-.13-2.49-.48l-21.36-12.28c-1.26-.72-1.12-1.99,.35-2.82l9.26-5.33c.75-.41,1.58-.65,2.43-.68,.85-.04,1.71,.13,2.48,.48Z"/>
        <path class="cls-10" d="M645.05,960.64l21.37,12.27c1.26,.73,1.1,2-.35,2.84l-9.26,5.27c-.75,.42-1.59,.66-2.44,.7-.86,.04-1.71-.13-2.49-.48l-21.36-12.28c-1.26-.73-1.12-2,.35-2.83l9.27-5.32c.75-.41,1.58-.64,2.43-.67,.86-.03,1.71,.14,2.48,.51Z"/>
        <path class="cls-10" d="M615.43,943.61l21.38,12.27c1.26,.73,1.1,1.99-.35,2.84l-9.27,5.32c-.75,.41-1.58,.65-2.44,.69-.85,.04-1.71-.13-2.49-.48l-21.36-12.28c-1.26-.72-1.12-1.99,.35-2.82l9.26-5.34c.75-.41,1.59-.64,2.44-.67,.85-.04,1.7,.13,2.48,.48Z"/>
        <path class="cls-10" d="M661.41,951.24l21.35,12.26c1.26,.72,1.12,1.99-.35,2.82l-9.27,5.33c-.75,.41-1.58,.64-2.43,.68-.85,.04-1.7-.13-2.48-.48l-21.38-12.28c-1.26-.72-1.1-1.99,.35-2.82l9.27-5.33c.75-.41,1.59-.64,2.45-.67,.86-.04,1.71,.13,2.49,.49Z"/>
      </g>
      <path class="cls-3" d="M276.63,765.67l-19.19-11.07c-1.54-.88-1.35-2.43,.43-3.45l22.68-12.97c.91-.51,1.93-.79,2.97-.84,1.04-.04,2.08,.16,3.03,.58l19.19,11.03c1.54,.89,1.35,2.42-.44,3.45l-22.64,13.01c-.92,.51-1.94,.79-2.99,.84-1.05,.04-2.09-.16-3.05-.6Z"/>
      <path class="cls-3" d="M306.25,782.7l-19.19-11.03c-1.54-.87-1.35-2.42,.43-3.44l22.65-13.01c.91-.51,1.93-.79,2.97-.84,1.04-.04,2.08,.16,3.03,.59l19.19,11.01c1.54,.89,1.35,2.44-.43,3.45l-22.65,13.01c-.91,.51-1.93,.8-2.97,.84-1.04,.04-2.08-.16-3.03-.59Z"/>
      <path class="cls-3" d="M335.87,799.71l-19.19-11.02c-1.54-.88-1.35-2.44,.43-3.46l22.65-13c.91-.51,1.93-.79,2.97-.84,1.04-.04,2.08,.16,3.03,.59l19.19,11.01c1.54,.89,1.35,2.44-.43,3.46l-22.65,13c-.91,.51-1.93,.79-2.97,.84-1.04,.04-2.08-.16-3.03-.59Z"/>
      <path class="cls-3" d="M376.85,785.65l-19.19-11.03c-1.47-.88-1.35-2.43,.44-3.45l19-10.91c.91-.51,1.93-.79,2.98-.84,1.05-.04,2.09,.15,3.04,.59l19.19,11.01c1.54,.89,1.34,2.42-.44,3.45l-19.01,10.93c-.91,.5-1.93,.79-2.97,.83-1.04,.04-2.08-.15-3.03-.58Z"/>
      <path class="cls-3" d="M406.46,802.66l-19.19-11.01c-1.47-.89-1.34-2.44,.44-3.46l19.07-10.91c.91-.51,1.93-.79,2.97-.84,1.04-.04,2.08,.15,3.03,.59l19.19,11.01c1.54,.89,1.35,2.44-.44,3.46l-19,10.91c-.92,.51-1.95,.81-3.01,.85-1.06,.04-2.11-.16-3.07-.6Z"/>
      <path class="cls-3" d="M436.14,819.7l-19.24-11.04c-1.47-.89-1.34-2.44,.44-3.46l19.01-10.91c.91-.51,1.93-.79,2.97-.84,1.04-.05,2.08,.15,3.03,.58l19.19,11.02c1.54,.89,1.35,2.44-.44,3.46l-19,10.91c-.9,.5-1.91,.79-2.95,.84-1.03,.05-2.07-.15-3.01-.56Z"/>
      <path class="cls-3" d="M465.71,836.71l-19.17-11.02c-1.54-.89-1.35-2.42,.43-3.45l19.01-10.92c.91-.51,1.93-.79,2.97-.84,1.04-.04,2.08,.16,3.03,.59l19.19,11.03c1.47,.87,1.35,2.42-.43,3.45l-19.01,10.85c-.91,.52-1.93,.81-2.97,.86-1.05,.06-2.09-.13-3.05-.55Z"/>
      <path class="cls-3" d="M495.35,853.76l-19.19-11.03c-1.54-.87-1.35-2.42,.43-3.44l19.01-10.93c.91-.51,1.93-.79,2.97-.84,1.04-.04,2.08,.15,3.03,.58l19.19,11.03c1.47,.88,1.35,2.42-.43,3.45l-19.01,10.92c-.91,.51-1.93,.79-2.97,.84s-2.08-.15-3.03-.58Z"/>
      <path class="cls-3" d="M524.97,870.75l-19.19-10.98c-1.54-.88-1.35-2.42,.43-3.45l19.01-10.93c.91-.5,1.93-.79,2.97-.83,1.04-.04,2.08,.15,3.03,.58l19.19,11.03c1.54,.88,1.35,2.43-.43,3.45l-19.01,10.93c-.92,.5-1.94,.78-2.98,.81-1.04,.04-2.08-.18-3.03-.61Z"/>
      <path class="cls-3" d="M554.59,887.79l-19.19-11.03c-1.54-.88-1.35-2.43,.43-3.45l19.01-10.91c.91-.51,1.93-.79,2.98-.84,1.05-.04,2.09,.15,3.04,.59l19.14,11.01c1.54,.89,1.35,2.42-.43,3.45l-19.08,10.93c-.9,.49-1.9,.77-2.92,.81-1.02,.05-2.04-.15-2.98-.56Z"/>
      <path class="cls-3" d="M584.22,904.8l-19.19-11.01c-1.54-.89-1.35-2.44,.43-3.46l19.08-10.91c.92-.51,1.93-.79,2.99-.84,1.04-.04,2.08,.15,3.03,.59l19.19,11.01c1.47,.89,1.33,2.44-.44,3.46l-19.08,10.91c-.91,.51-1.93,.79-2.97,.84-1.04,.04-2.08-.16-3.03-.59Z"/>
      <path class="cls-3" d="M613.85,921.81l-19.15-11.01c-1.54-.89-1.35-2.44,.44-3.46l19-10.91c.91-.51,1.93-.79,2.98-.84,1.04-.05,2.09,.15,3.04,.58l19.18,11.02c1.55,.89,1.34,2.44-.44,3.46l-19.08,10.91c-.9,.5-1.92,.78-2.95,.82-1.04,.04-2.07-.15-3.01-.58Z"/>
      <path class="cls-3" d="M643.47,938.85l-19.19-11.02c-1.47-.89-1.33-2.42,.44-3.45l19.01-10.92c.91-.51,1.93-.8,2.97-.84,1.04-.04,2.08,.16,3.03,.59l19.19,11.03c1.47,.87,1.35,2.42-.44,3.45l-18.99,10.98c-.92,.49-1.95,.77-2.99,.8-1.04,.03-2.08-.18-3.03-.62Z"/>
      <path class="cls-3" d="M420.5,777.59l-19.19-11.02c-1.47-.89-1.35-2.44,.43-3.46l19.01-10.91c.91-.51,1.93-.79,2.97-.84,1.04-.04,2.08,.16,3.03,.59l19.19,11.02c1.54,.88,1.35,2.44-.43,3.46l-19.01,10.91c-.91,.51-1.93,.79-2.97,.84-1.04,.04-2.08-.16-3.03-.59Z"/>
      <path class="cls-3" d="M390.43,760.31l-19.17-11.03c-1.54-.88-1.35-2.43,.43-3.45l18.97-10.93c.91-.51,1.93-.79,2.97-.84,1.04-.04,2.08,.16,3.03,.59l19.19,11.03c1.54,.88,1.35,2.42-.43,3.45l-18.89,10.93c-.92,.51-1.96,.81-3.02,.85-1.06,.04-2.11-.16-3.08-.6Z"/>
      <path class="cls-3" d="M360.31,743.01l-41.32-23.74c-1.54-.88-1.35-2.42,.44-3.45l19-10.9c.91-.5,1.93-.79,2.98-.83,1.04-.04,2.09,.15,3.04,.58l41.31,23.74c1.54,.89,1.35,2.44-.43,3.46l-19.01,10.91c-.91,.5-1.93,.79-2.98,.82-1.04,.04-2.08-.17-3.03-.6Z"/>
      <path class="cls-3" d="M381.36,721.97l-33.53-19.26c-1.47-.89-1.35-2.42,.43-3.45l19.01-10.93c.91-.51,1.93-.79,2.97-.83,1.04-.04,2.08,.15,3.03,.58l33.51,19.26c1.54,.88,1.35,2.43-.43,3.45l-19.08,10.93c-.9,.49-1.9,.77-2.93,.81-1.03,.05-2.05-.15-2.99-.56Z"/>
      <path class="cls-3" d="M450.13,794.62l-19.19-11.02c-1.54-.89-1.35-2.42,.43-3.45l19.01-10.93c.91-.51,1.93-.8,2.98-.84,1.05-.04,2.09,.16,3.04,.59l19.17,11.03c1.47,.87,1.35,2.42-.43,3.44l-19.01,10.91c-.91,.51-1.93,.8-2.97,.85-1.04,.04-2.08-.15-3.03-.58Z"/>
      <path class="cls-3" d="M479.75,811.65l-19.19-11.03c-1.54-.87-1.35-2.42,.43-3.45l19.01-10.92c.91-.51,1.94-.79,2.98-.84,1.05-.04,2.09,.15,3.04,.58l19.13,10.97c1.54,.88,1.35,2.43-.43,3.45l-19.01,10.93c-.9,.51-1.91,.8-2.94,.85-1.03,.06-2.07-.13-3.02-.54Z"/>
      <path class="cls-3" d="M509.37,828.66l-19.19-11.03c-1.54-.88-1.35-2.42,.44-3.45l19-10.93c.91-.5,1.94-.79,2.98-.83,1.04-.04,2.09,.15,3.04,.58l19.19,11.03c1.47,.87,1.34,2.42-.44,3.44l-18.97,10.93c-.92,.51-1.94,.8-2.99,.84-1.05,.04-2.1-.16-3.05-.59Z"/>
      <path class="cls-3" d="M539,845.69l-19.17-11.03c-1.54-.88-1.34-2.42,.44-3.45l19-10.86c.91-.51,1.93-.79,2.97-.84,1.04-.05,2.08,.15,3.03,.58l19.19,11.02c1.54,.89,1.34,2.42-.44,3.45l-19,10.92c-.92,.51-1.94,.79-2.98,.82-1.05,.04-2.08-.18-3.03-.61Z"/>
      <path class="cls-3" d="M568.62,862.69l-19.19-11.01c-1.47-.89-1.34-2.44,.44-3.46l19.01-10.91c.91-.51,1.93-.79,2.97-.84,1.04-.05,2.08,.15,3.03,.58l19.18,11.03c1.54,.89,1.35,2.44-.44,3.46l-19,10.91c-.91,.51-1.93,.79-2.98,.83s-2.09-.16-3.04-.6Z"/>
      <path class="cls-3" d="M598.24,879.73l-19.18-11.02c-1.54-.89-1.35-2.44,.43-3.46l19.08-10.91c.91-.51,1.93-.79,2.97-.84,1.04-.04,2.08,.16,3.03,.59l19.19,11.02c1.47,.88,1.35,2.44-.42,3.46l-19.08,10.91c-.92,.51-1.93,.79-2.99,.84-1.04,.04-2.08-.16-3.03-.59Z"/>
      <path class="cls-3" d="M627.87,896.74l-19.18-11.02c-1.55-.89-1.36-2.42,.42-3.45l19.01-10.93c.92-.51,1.93-.79,2.98-.84,1.04-.04,2.08,.16,3.03,.59l19.19,11.03c1.47,.87,1.35,2.42-.43,3.44l-19.01,10.91c-.91,.51-1.93,.79-2.97,.84-1.04,.05-2.08-.15-3.03-.58Z"/>
      <path class="cls-3" d="M657.49,913.83l-19.18-11.03c-1.55-.88-1.36-2.42,.42-3.45l19.08-10.93c.91-.5,1.93-.79,2.97-.83,1.04-.04,2.08,.15,3.03,.58l19.11,11.04c1.47,.88,1.35,2.43-.42,3.45l-19.08,10.93c-.9,.49-1.91,.77-2.94,.81-1.02,.04-2.05-.15-2.99-.58Z"/>
      <path class="cls-3" d="M687.17,930.79l-19.18-11.03c-1.47-.88-1.36-2.42,.42-3.45l19.01-10.93c.91-.5,1.93-.79,2.98-.83,1.04-.04,2.08,.15,3.03,.58l19.18,11.03c1.54,.88,1.35,2.43-.43,3.45l-19.08,10.93c-.9,.49-1.91,.77-2.94,.81-1.02,.04-2.05-.15-2.99-.56Z"/>
      <path class="cls-3" d="M739.79,961.03l-41.86-24.04c-1.54-.89-1.35-2.43,.44-3.45l19-10.96c.91-.51,1.93-.79,2.98-.84s2.09,.15,3.04,.58l41.85,24.05c1.54,.89,1.35,2.44-.43,3.46l-19.01,10.91c-.91,.51-1.93,.8-2.97,.85-1.04,.05-2.08-.15-3.03-.58Z"/>
      <path class="cls-3" d="M797.46,927.91l-35.33-20.3c-1.55-.88-1.36-2.43,.42-3.45l19.01-10.93c.91-.51,1.93-.79,2.98-.84,1.04-.04,2.08,.16,3.03,.59l35.32,20.3c1.47,.88,1.35,2.42-.42,3.45l-19.01,10.93c-.91,.5-1.93,.79-2.97,.83-1.04,.04-2.08-.15-3.03-.58Z"/>
      <path class="cls-3" d="M502.01,791.28l-19.19-11.01c-1.54-.89-1.35-2.43,.43-3.45l18.97-10.93c.91-.51,1.93-.79,2.98-.84,1.05-.05,2.09,.15,3.04,.59l19.19,11.03c1.47,.88,1.34,2.42-.44,3.45l-18.89,11c-.93,.51-1.96,.78-3.02,.81-1.06,.03-2.1-.2-3.06-.65Z"/>
      <path class="cls-3" d="M471.64,773.83l-19.19-11.02c-1.54-.89-1.35-2.44,.43-3.46l19.08-10.91c.91-.51,1.93-.79,2.97-.84,1.04-.04,2.08,.16,3.03,.59l19.19,11.01c1.54,.89,1.35,2.44-.43,3.46l-19.08,10.91c-.91,.51-1.93,.79-2.97,.84-1.04,.05-2.08-.15-3.03-.58Z"/>
      <path class="cls-3" d="M441.27,756.38l-19.19-11.01c-1.47-.89-1.34-2.44,.44-3.46l19.01-10.91c.91-.51,1.93-.79,2.97-.84,1.04-.04,2.08,.15,3.03,.59l19.19,11.01c1.54,.89,1.35,2.44-.44,3.46l-19,10.91c-.91,.51-1.93,.79-2.98,.84-1.05,.04-2.09-.16-3.04-.59Z"/>
      <path class="cls-3" d="M410.92,738.96l-19.19-11.02c-1.54-.88-1.35-2.44,.43-3.46l19.08-10.91c.91-.51,1.93-.79,2.98-.84,1.05-.04,2.09,.16,3.04,.59l19.19,11.02c1.47,.89,1.34,2.42-.44,3.45l-19.08,10.92c-.91,.51-1.93,.79-2.97,.84-1.04,.04-2.08-.16-3.03-.59Z"/>
      <path class="cls-3" d="M531.57,808.3l-19.08-11.03c-1.54-.88-1.35-2.43,.44-3.45l19-10.93c.91-.51,1.94-.79,2.98-.83,1.05-.05,2.09,.15,3.04,.58l19.19,11.03c1.54,.88,1.34,2.42-.44,3.45l-19.01,10.93c-.93,.52-1.96,.81-3.02,.86-1.06,.04-2.12-.17-3.08-.61Z"/>
      <path class="cls-3" d="M561.24,825.32l-19.19-11.03c-1.47-.88-1.34-2.42,.44-3.45l19.01-10.97c.91-.51,1.93-.79,2.97-.84,1.04-.04,2.08,.16,3.03,.59l19.18,11.03c1.55,.89,1.35,2.42-.44,3.45l-19,10.93c-.91,.51-1.93,.8-2.97,.85-1.05,.06-2.09-.14-3.04-.56Z"/>
      <path class="cls-3" d="M590.87,842.36l-19.18-11.03c-1.47-.88-1.35-2.42,.42-3.45l19.01-10.91c.91-.51,1.93-.79,2.97-.84,1.04-.04,2.08,.16,3.03,.59l19.18,11.01c1.47,.89,1.36,2.43-.42,3.45l-19.08,10.93c-.9,.5-1.91,.78-2.94,.82-1.03,.04-2.06-.15-3-.58Z"/>
      <path class="cls-3" d="M620.49,859.37l-19.18-11.01c-1.47-.89-1.35-2.44,.43-3.46l19.01-10.91c.91-.51,1.93-.79,2.97-.84,1.04-.04,2.08,.16,3.03,.59l19.18,11.01c1.55,.89,1.36,2.44-.42,3.46l-19.08,10.91c-.9,.49-1.91,.77-2.94,.82-1.03,.04-2.06-.15-3-.58Z"/>
      <path class="cls-3" d="M650.13,876.38l-19.18-11.01c-1.55-.89-1.36-2.44,.42-3.46l19.08-10.91c.91-.51,1.93-.79,2.97-.84,1.04-.04,2.08,.15,3.03,.59l19.18,11.01c1.47,.89,1.36,2.44-.42,3.46l-19.01,10.91c-.92,.52-1.95,.81-3.01,.86-1.06,.04-2.11-.17-3.07-.61Z"/>
      <path class="cls-3" d="M679.82,893.38l-19.18-11.01c-1.47-.89-1.36-2.42,.42-3.45l19.08-10.93c.92-.51,1.93-.79,2.98-.83,1.04-.04,2.09,.15,3.04,.58l19.02,11.03c1.55,.88,1.36,2.43-.42,3.45l-19.08,10.93c-.9,.48-1.88,.75-2.9,.79-1.02,.04-2.03-.15-2.96-.55Z"/>
      <path class="cls-3" d="M709.38,910.43l-19.19-11.03c-1.47-.88-1.35-2.43,.42-3.45l19.01-10.93c.92-.51,1.93-.79,2.98-.84,1.04-.04,2.09,.16,3.04,.59l19.17,11.03c1.47,.88,1.35,2.42-.42,3.45l-19.01,10.93c-.91,.51-1.93,.79-2.97,.83-1.04,.04-2.08-.15-3.03-.58Z"/>
      <path class="cls-3" d="M739,927.44l-19.19-11.03c-1.47-.88-1.35-2.43,.44-3.45l18.99-10.93c.92-.51,1.93-.79,2.98-.84,1.04-.04,2.09,.16,3.04,.59l19.18,11.03c1.55,.89,1.34,2.42-.44,3.45l-19.08,10.93c-.9,.49-1.91,.77-2.94,.81-1.03,.04-2.05-.15-2.99-.57Z"/>
      <path class="cls-3" d="M768.62,944.49l-19.18-11.01c-1.47-.89-1.34-2.44,.44-3.46l19.01-10.91c.91-.51,1.93-.79,2.97-.84,1.04-.04,2.08,.16,3.03,.59l19.19,11.03c1.47,.89,1.35,2.43-.44,3.45l-19.01,10.93c-.91,.51-1.93,.79-2.97,.83-1.04,.04-2.08-.16-3.03-.6Z"/>
      <path class="cls-3" d="M486.4,749.2l-19.19-11.03c-1.54-.89-1.34-2.43,.44-3.45l19.08-10.93c.91-.51,1.93-.79,2.97-.84,1.04-.04,2.08,.16,3.03,.59l19.19,11.03c1.54,.88,1.35,2.42-.44,3.45l-19,10.93c-.93,.51-1.96,.8-3.02,.84-1.06,.04-2.11-.16-3.08-.6Z"/>
      <path class="cls-3" d="M456.93,732.24l-19.19-11.02c-1.54-.89-1.34-2.44,.44-3.46l19.01-10.91c.91-.51,1.93-.79,2.97-.84,1.04-.04,2.08,.16,3.03,.59l19.19,11.02c1.54,.88,1.35,2.44-.44,3.46l-19,10.91c-.91,.51-1.93,.79-2.98,.84-1.05,.04-2.09-.16-3.04-.59Z"/>
      <path class="cls-3" d="M427.45,715.32l-19.19-11.03c-1.54-.87-1.35-2.42,.44-3.44l19-10.93c.92-.51,1.94-.79,2.98-.84,1.04-.04,2.08,.16,3.04,.58l19.19,11.03c1.47,.88,1.34,2.42-.44,3.45l-19.01,10.93c-.91,.5-1.93,.79-2.97,.83-1.04,.04-2.08-.15-3.03-.58Z"/>
      <path class="cls-3" d="M397.98,698.37l-19.2-10.97c-1.54-.89-1.35-2.44,.44-3.45l19-10.93c.91-.51,1.93-.79,2.98-.84,1.05-.04,2.09,.16,3.04,.59l19.19,11.01c1.54,.89,1.34,2.44-.44,3.46l-19.01,10.91c-.91,.5-1.93,.77-2.97,.81-1.04,.04-2.07-.18-3.02-.61Z"/>
      <path class="cls-3" d="M428.28,680.95l-19.19-11.01c-1.54-.89-1.35-2.44,.43-3.46l6.3-3.61c.91-.51,1.93-.79,2.97-.83,1.04-.04,2.08,.15,3.03,.58l19.19,11.03c1.54,.88,1.34,2.42-.44,3.45l-6.28,3.61c-.91,.51-1.93,.79-2.97,.84-1.04,.04-2.08-.15-3.03-.59Z"/>
      <path class="cls-3" d="M466.75,703.07l-19.17-11.02c-1.47-.89-1.35-2.44,.43-3.46l6.28-3.6c.91-.51,1.93-.79,2.97-.84,1.04-.04,2.08,.15,3.03,.58l19.19,11.03c1.54,.87,1.35,2.42-.43,3.45l-6.28,3.6c-.91,.51-1.93,.79-2.98,.84-1.05,.04-2.09-.16-3.04-.59Z"/>
      <path class="cls-3" d="M496.1,719.95l-19.19-11.03c-1.47-.87-1.34-2.42,.44-3.45l6.28-3.6c.91-.51,1.93-.79,2.97-.84,1.04-.04,2.08,.16,3.03,.59l19.19,11.02c1.54,.89,1.35,2.44-.43,3.46l-6.28,3.6c-.91,.51-1.94,.79-2.98,.84-1.05,.04-2.09-.15-3.04-.58Z"/>
      <path class="cls-3" d="M525.47,736.78l-19.19-11.01c-1.47-.89-1.35-2.44,.43-3.46l6.3-3.61c.91-.5,1.93-.79,2.97-.83,1.04-.04,2.08,.15,3.03,.58l19.19,11.03c1.54,.88,1.34,2.43-.44,3.45l-6.28,3.61c-.91,.51-1.93,.79-2.97,.84-1.04,.04-2.08-.15-3.03-.59Z"/>
      <path class="cls-3" d="M554.81,753.66l-19.19-11.03c-1.47-.88-1.35-2.42,.43-3.45l6.28-3.61c.91-.51,1.93-.79,2.98-.84,1.05-.04,2.09,.16,3.04,.59l19.17,11.01c1.54,.89,1.35,2.44-.43,3.46l-6.28,3.61c-.91,.51-1.93,.79-2.97,.84-1.04,.04-2.08-.16-3.03-.58Z"/>
      <path class="cls-3" d="M718.69,847.8l-19.19-11.01c-1.47-.89-1.35-2.42,.43-3.45l6.28-3.62c.92-.5,1.93-.78,2.98-.83,1.04-.04,2.09,.16,3.04,.58l19.18,11.03c1.55,.89,1.34,2.43-.44,3.45l-6.28,3.61c-.91,.51-1.93,.79-2.97,.84-1.04,.04-2.08-.15-3.03-.59Z"/>
      <path class="cls-3" d="M748.05,864.68l-19.18-11.03c-1.47-.87-1.36-2.42,.42-3.44l6.31-3.58c.91-.51,1.93-.79,2.97-.84,1.04-.04,2.08,.15,3.03,.59l19.19,11.03c1.54,.88,1.35,2.42-.43,3.45l-6.28,3.61c-.92,.51-1.94,.79-2.99,.83-1.04,.04-2.09-.18-3.04-.61Z"/>
      <path class="cls-3" d="M777.4,881.55l-19.18-11.03c-1.47-.89-1.33-2.42,.44-3.45l6.28-3.61c.92-.51,1.93-.79,2.98-.84,1.04-.04,2.08,.16,3.03,.59l19.19,11.01c1.54,.89,1.35,2.43-.43,3.45l-6.28,3.62c-.91,.51-1.93,.79-2.98,.84-1.04,.04-2.09-.16-3.04-.59Z"/>
      <path class="cls-3" d="M806.75,898.42l-19.18-11.01c-1.47-.89-1.35-2.44,.44-3.46l6.28-3.61c.92-.51,1.93-.79,2.98-.83,1.04-.05,2.07,.15,3.03,.58l19.19,11.03c1.54,.88,1.35,2.42-.44,3.45l-6.28,3.61c-.91,.51-1.93,.79-2.97,.84-1.04,.04-2.08-.16-3.03-.59Z"/>
      <path class="cls-3" d="M516.01,766.3l-19.17-11.03c-1.54-.88-1.35-2.42,.43-3.45l19.01-10.92c.91-.51,1.93-.79,2.97-.84,1.04-.04,2.08,.15,3.03,.58l19.19,11.03c1.54,.87,1.35,2.42-.43,3.44l-19.01,10.93c-.91,.51-1.94,.79-2.98,.84-1.05,.04-2.09-.16-3.04-.58Z"/>
      <path class="cls-3" d="M545.65,783.22l-19.19-11.03c-1.47-.87-1.35-2.42,.43-3.44l19.01-10.93c.91-.51,1.93-.79,2.97-.84,1.04-.04,2.08,.16,3.03,.58l19.19,11.03c1.54,.89,1.35,2.42-.42,3.45l-19.01,10.92c-.91,.51-1.93,.79-2.97,.84-1.04,.04-2.08-.15-3.03-.58Z"/>
      <path class="cls-3" d="M575.28,800.25l-19.19-11.01c-1.47-.89-1.35-2.44,.43-3.46l19.08-10.91c.91-.51,1.93-.79,2.98-.84,1.04-.04,2.08,.16,3.03,.59l19.19,11.01c1.54,.89,1.35,2.44-.43,3.45l-19.01,10.93c-.92,.52-1.95,.81-3.01,.86-1.05,.04-2.1-.17-3.06-.61Z"/>
      <path class="cls-3" d="M604.96,817.26l-19.19-11.01c-1.54-.89-1.35-2.44,.43-3.46l19.01-10.91c.92-.51,1.93-.79,2.99-.84,1.04-.04,2.08,.15,3.03,.59l19.18,11.01c1.54,.89,1.35,2.44-.43,3.46l-19.01,10.91c-.91,.51-1.93,.79-2.97,.84-1.04,.04-2.08-.16-3.03-.59Z"/>
      <path class="cls-3" d="M634.52,834.28l-19.18-11.03c-1.54-.89-1.35-2.44,.42-3.46l19.01-10.91c.91-.51,1.93-.79,2.98-.84,1.04-.04,2.09,.15,3.04,.59l19.18,11.01c1.47,.89,1.33,2.44-.44,3.46l-19.01,10.91c-.91,.51-1.93,.79-2.97,.84-1.04,.04-2.08-.15-3.03-.58Z"/>
      <path class="cls-3" d="M664.14,851.31l-19.18-11.03c-1.47-.89-1.36-2.43,.44-3.45l19-10.93c.91-.51,1.93-.79,2.98-.83,1.04-.05,2.08,.15,3.03,.58l19.19,11.03c1.54,.88,1.33,2.42-.44,3.45l-19.08,10.93c-.9,.49-1.91,.77-2.94,.81-1.03,.04-2.05-.15-3-.57Z"/>
      <path class="cls-3" d="M693.78,868.32l-19.19-11.03c-1.47-.88-1.33-2.43,.44-3.45l19.01-10.93c.91-.51,1.93-.79,2.97-.84,1.04-.04,2.08,.16,3.03,.59l19.18,11.03c1.47,.88,1.35,2.42-.44,3.45l-18.99,10.93c-.92,.5-1.94,.79-2.99,.83-1.04,.04-2.08-.15-3.03-.58Z"/>
      <path class="cls-3" d="M723.4,885.35l-19.19-10.97c-1.47-.88-1.33-2.42,.44-3.45l19.08-10.93c.91-.5,1.93-.78,2.97-.82,1.04-.04,2.08,.16,3.03,.59l19.08,10.96c1.54,.89,1.35,2.42-.43,3.45l-19.08,10.93c-.9,.48-1.9,.77-2.93,.81-1.02,.04-2.05-.15-2.99-.56Z"/>
      <path class="cls-3" d="M753.01,902.38l-19.17-11.01c-1.47-.89-1.36-2.44,.42-3.46l18.95-10.91c.91-.51,1.93-.79,2.97-.84,1.04-.04,2.08,.16,3.03,.59l19.19,11.01c1.47,.89,1.35,2.44-.43,3.45l-18.89,10.94c-.92,.51-1.95,.81-3.01,.84-1.06,.04-2.11-.17-3.07-.61Z"/>
      <path class="cls-3" d="M346.61,768.31l-56.49-32.47c-1.54-.88-1.35-2.42,.43-3.45l19.08-10.91c.91-.51,1.93-.79,2.97-.84,1.04-.04,2.08,.16,3.03,.59l56.5,32.46c1.54,.88,1.35,2.42-.43,3.45l-19.01,10.93c-.92,.51-1.96,.81-3.02,.85-1.06,.04-2.11-.16-3.08-.6Z"/>
      <path class="cls-3" d="M710.66,977.41l-56.5-32.46c-1.54-.89-1.35-2.44,.42-3.45l19.08-10.93c.91-.51,1.93-.79,2.97-.84,1.04-.04,2.08,.15,3.03,.59l56.5,32.46c1.54,.88,1.35,2.42-.42,3.44l-19.08,10.93c-.92,.51-1.93,.79-2.98,.84-1.04,.04-2.07-.16-3.03-.58Z"/>
      <path class="cls-3" d="M592.13,946.95l-19.19-11.03c-1.54-.88-1.35-2.42,.42-3.45l22.65-13c.91-.51,1.93-.79,2.97-.84,1.04-.04,2.08,.15,3.03,.59l19.18,11.01c1.47,.89,1.35,2.42-.42,3.45l-22.65,13.01c-.91,.51-1.93,.79-2.97,.84-1.04,.05-2.08-.15-3.03-.58Z"/>
      <path class="cls-3" d="M376.98,823.33l-30.68-17.61c-1.54-.89-1.35-2.44,.44-3.46l22.64-13c.91-.51,1.93-.79,2.97-.84,1.04-.04,2.08,.15,3.03,.59l30.68,17.63c1.54,.88,1.35,2.42-.43,3.45l-22.65,13.01c-.91,.5-1.93,.78-2.98,.82-1.04,.04-2.08-.17-3.03-.6Z"/>
      <path class="cls-3" d="M563.57,930.53l-30.68-17.61c-1.54-.89-1.34-2.44,.44-3.46l22.64-13c.91-.51,1.93-.79,2.98-.84,1.05-.04,2.09,.16,3.04,.59l30.68,17.62c1.55,.89,1.33,2.44-.44,3.46l-22.64,13c-.91,.51-1.93,.79-2.98,.84-1.05,.04-2.09-.15-3.04-.59Z"/>
      <path class="cls-3" d="M419.73,847.91l-30.68-17.63c-1.54-.89-1.35-2.42,.43-3.45l22.65-13.01c.91-.51,1.93-.79,2.97-.84,1.04-.04,2.08,.15,3.03,.59l30.68,17.63c1.54,.88,1.35,2.43-.43,3.45l-22.65,13.01c-.91,.51-1.93,.79-2.97,.84-1.04,.04-2.08-.15-3.03-.58Z"/>
      <path class="cls-3" d="M418.34,813.66l133.39,76.63c.36,.13,.67,.36,.89,.67,.22,.31,.34,.68,.34,1.06s-.12,.74-.34,1.05c-.22,.31-.53,.54-.89,.67l-23.11,13.27c-.93,.47-1.95,.71-2.99,.71s-2.07-.24-2.99-.71l-133.39-76.64,29.09-16.71Z"/>
      <path class="cls-3" d="M674.93,977.82l21.37,12.28c1.26,.73,1.1,1.98-.35,2.83l-9.27,5.32c-.75,.41-1.59,.65-2.44,.69-.85,.04-1.71-.13-2.49-.48l-21.36-12.28c-1.26-.72-1.12-1.99,.35-2.82l9.26-5.34c.75-.41,1.58-.64,2.43-.67,.85-.04,1.71,.13,2.48,.48Z"/>
      <path class="cls-3" d="M645.05,960.64l21.37,12.27c1.26,.73,1.1,2-.35,2.84l-9.26,5.27c-.75,.42-1.59,.66-2.44,.7-.86,.04-1.71-.13-2.49-.48l-21.36-12.28c-1.26-.73-1.12-2,.35-2.83l9.27-5.32c.75-.41,1.58-.64,2.43-.67,.86-.03,1.71,.14,2.48,.51Z"/>
      <path class="cls-3" d="M615.43,943.64l21.38,12.27c1.26,.73,1.1,1.99-.35,2.84l-9.27,5.32c-.75,.41-1.58,.65-2.44,.69-.85,.04-1.71-.13-2.49-.48l-21.36-12.28c-1.26-.72-1.12-1.99,.35-2.82l9.26-5.33c.75-.41,1.59-.65,2.44-.67,.85-.04,1.7,.13,2.48,.48Z"/>
      <path class="cls-3" d="M661.41,951.24l21.35,12.26c1.26,.72,1.12,1.99-.35,2.82l-9.27,5.33c-.75,.41-1.58,.64-2.43,.68-.85,.04-1.7-.13-2.48-.48l-21.38-12.28c-1.26-.72-1.1-1.99,.35-2.82l9.27-5.33c.75-.41,1.59-.64,2.45-.67,.86-.04,1.71,.13,2.49,.49Z"/>
      <path class="cls-17" d="M974.88,916.74L408.98,591.62c-8.9-5.11-13.55-17.53-10.38-27.83l127.99-413.54c3.17-10.23,12.96-14.43,21.86-9.32l565.98,325.17c8.9,5.11,13.54,17.53,10.37,27.83l-127.99,413.55c-3.17,10.25-12.94,14.42-21.91,9.25Z"/>
      <path class="cls-8" d="M969.62,902.33L420.65,586.61c-8.51-4.89-12.96-16.81-9.92-26.63l122.31-395.29c3.02-9.82,12.39-13.8,20.92-8.91l549.01,315.66c8.51,4.89,12.96,16.81,9.92,26.63l-122.35,395.3c-3.03,9.86-12.41,13.85-20.92,8.95Z"/>
      <path class="cls-5" d="M969.62,902.33L420.65,586.61c-8.51-4.89-12.96-16.81-9.92-26.63l122.31-395.29c3.02-9.82,12.39-13.8,20.92-8.91l549.01,315.66c8.51,4.89,12.96,16.81,9.92,26.63l-122.35,395.3c-3.03,9.86-12.41,13.85-20.92,8.95Z"/>
      <path d="M969.62,902.33L420.65,586.61c-8.51-4.89-12.96-16.81-9.92-26.63l122.31-395.29c3.02-9.82,12.39-13.8,20.92-8.91l549.01,315.66c8.51,4.89,12.96,16.81,9.92,26.63l-122.35,395.3c-3.03,9.86-12.41,13.85-20.92,8.95Z"/>
      <path class="cls-3" d="M421.23,1009.79c-4.79,.12-9.54-.99-13.78-3.21l-148.91-85.55c-3.95-2.26-6.12-5.51-6.12-9.13,0-4.19,2.94-8.32,8.21-11.32l76.64-44.03c9.37-5.37,23.11-5.84,31.31-1.19l148.91,85.53c3.95,2.26,6.12,5.51,6.12,9.13,0,4.21-2.94,8.33-8.21,11.32l-76.64,44.04c-5.37,2.94-11.4,4.45-17.53,4.41Zm-66.34-153.38c-5.39-.06-10.7,1.25-15.44,3.8l-76.64,44.03c-3.86,2.21-6.06,5-6.06,7.61s2.16,4.38,3.96,5.44l148.89,85.65c6.75,3.87,19.08,3.33,27-1.22l76.64-44.07c3.86-2.22,6.06-5,6.06-7.63s-2.16-4.38-3.96-5.42l-148.89-85.54c-3.57-1.83-7.54-2.71-11.55-2.58v-.06Z"/>
      <path class="cls-2" d="M1044.03,900.91l-159.03-86.4c-1.85-1.2-3.26-2.96-4.03-5.02-.76-2.06-.85-4.31-.23-6.42l52.61-170.02c1.31-4.21,5.33-5.93,8.98-3.83l159.02,86.43c1.86,1.2,3.27,2.96,4.04,5.01,.77,2.06,.85,4.31,.23,6.43l-52.63,169.99c-1.31,4.22-5.33,5.93-8.98,3.83Z"/>
      <path class="cls-6" d="M1101.35,715.63l-159.02-86.44c-1-.61-2.15-.92-3.31-.88-1.16,.04-2.29,.43-3.24,1.11,1.18-.04,2.34,.25,3.36,.85l159.04,86.42c1.86,1.19,3.27,2.96,4.04,5.02,.76,2.06,.84,4.32,.22,6.43l-52.63,170.01c-.4,1.43-1.26,2.7-2.43,3.61,1.32-.08,2.58-.58,3.59-1.42,1.01-.85,1.72-1.99,2.03-3.27l52.61-170.01c.61-2.11,.54-4.35-.23-6.42-.76-2.06-2.18-3.82-4.03-5.01Z"/>
      <path class="cls-2" d="M1133.24,627.39l-159.03-86.42c-1.85-1.2-3.27-2.96-4.03-5.02-.77-2.06-.85-4.31-.23-6.42l52.61-170.01c1.31-4.22,5.33-5.93,8.98-3.83l159.03,86.42c1.86,1.2,3.27,2.95,4.04,5.02,.77,2.06,.85,4.31,.23,6.42l-52.61,170.01c-1.33,4.22-5.35,5.93-9,3.83Z"/>
      <path class="cls-12" d="M1190.57,442.11l-159.03-86.42c-.99-.61-2.14-.92-3.3-.88-1.16,.04-2.29,.42-3.24,1.1,1.18-.03,2.34,.27,3.36,.86l159.03,86.42c1.85,1.2,3.26,2.96,4.03,5.02,.76,2.06,.85,4.31,.23,6.42l-52.61,169.95c-.4,1.43-1.26,2.7-2.43,3.61,1.31-.07,2.57-.56,3.59-1.39,1.01-.83,1.73-1.97,2.05-3.24l52.61-170.01c.62-2.11,.54-4.36-.23-6.42-.77-2.06-2.19-3.82-4.04-5.02Z"/>
      <path class="cls-2" d="M825.34,471.86L382.72,215.03c-2.12-1.38-3.75-3.4-4.63-5.77-.88-2.37-.99-4.95-.29-7.38L438.57,5.53c1.47-4.86,6.15-6.85,10.38-4.38l442.61,256.79c2.12,1.38,3.75,3.4,4.64,5.77,.88,2.36,.99,4.95,.3,7.38l-60.77,196.35c-1.51,4.86-6.17,6.85-10.38,4.43Z"/>
      <path class="cls-18" d="M891.57,257.93L448.95,1.05c-1.14-.72-2.47-1.09-3.82-1.04-1.35,.04-2.65,.49-3.74,1.29,1.36-.03,2.7,.31,3.88,.99l442.62,256.81c2.12,1.38,3.74,3.4,4.63,5.77,.89,2.36,1,4.95,.3,7.38l-60.77,196.36c-.22,.71-.52,1.39-.91,2.03-.09,.17-.13,.37-.1,.56,.03,.19,.12,.37,.26,.51,.13,.14,.32,.23,.51,.26,.2,.03,.4,0,.56-.1,1.64-1.04,2.84-2.64,3.36-4.5l60.78-196.29c.69-2.43,.59-5.01-.3-7.38-.89-2.37-2.51-4.39-4.63-5.77Z"/>
      <g class="cls-11">
        <path class="cls-3" d="M633.45,294.88l-65.56-37.21c-2.03-1.15-4.14-.56-4.73,1.33-.21,1.08-.06,2.19,.41,3.17,.47,.99,1.25,1.8,2.22,2.32l65.59,37.27c2.03,1.15,4.14,.55,4.73-1.33,.22-1.09,.08-2.22-.4-3.22-.48-1-1.27-1.82-2.26-2.34Z"/>
        <path class="cls-3" d="M816.57,398.79l-108.63-61.68c-2.04-1.14-4.15-.55-4.73,1.33-.2,1.07-.06,2.19,.41,3.18,.47,.99,1.25,1.8,2.22,2.32l108.63,61.68c2.04,1.15,4.15,.55,4.73-1.33,.2-1.07,.06-2.19-.42-3.17-.47-.99-1.25-1.8-2.22-2.32Z"/>
        <path class="cls-3" d="M686.26,324.82l-30.4-17.22c-2.04-1.14-4.15-.55-4.72,1.33-.21,1.07-.07,2.19,.4,3.18,.47,.99,1.26,1.8,2.22,2.32l30.47,17.24c2.04,1.14,4.16,.55,4.73-1.33,.2-1.09,.04-2.21-.44-3.2-.49-.99-1.28-1.8-2.27-2.31Z"/>
        <path class="cls-3" d="M570.33,331.34l-21.32-12.05c-2.03-1.15-4.14-.55-4.71,1.33-.21,1.07-.07,2.19,.41,3.18,.47,.99,1.25,1.8,2.22,2.32l21.33,12.05c2.04,1.15,4.15,.55,4.73-1.33,.2-1.08,.06-2.19-.42-3.18-.47-.99-1.26-1.8-2.23-2.31Z"/>
        <path class="cls-3" d="M662.63,383.82l-75.22-42.61c-2.03-1.15-4.14-.55-4.73,1.33-.2,1.07-.06,2.19,.41,3.17,.47,.99,1.25,1.8,2.22,2.32l75.22,42.68c2.04,1.15,4.16,.56,4.73-1.33,.23-1.09,.09-2.21-.39-3.22-.47-1-1.26-1.83-2.24-2.35Z"/>
        <path class="cls-3" d="M703.69,407.02l-21.31-12.1c-2.03-1.15-4.14-.55-4.71,1.33-.2,1.07-.06,2.19,.41,3.18,.47,.99,1.25,1.8,2.22,2.32l21.3,12.1c2.04,1.15,4.15,.56,4.73-1.33,.2-1.08,.06-2.19-.42-3.17-.47-.99-1.25-1.8-2.22-2.32Z"/>
        <path class="cls-3" d="M795.98,459.53l-75.22-42.68c-2.03-1.15-4.14-.55-4.72,1.33-.21,1.07-.06,2.19,.41,3.17,.47,.99,1.25,1.8,2.22,2.32l75.22,42.68c2.04,1.15,4.15,.55,4.73-1.33,.2-1.07,.06-2.19-.41-3.17-.47-.99-1.26-1.8-2.22-2.32Z"/>
        <path class="cls-3" d="M654.42,415.19l-114.84-65.15c-2.03-1.15-4.14-.55-4.71,1.33-.21,1.07-.06,2.19,.41,3.17,.47,.99,1.25,1.8,2.22,2.32l114.82,65.15c2.04,1.15,4.15,.55,4.73-1.31,.2-1.08,.06-2.19-.41-3.18-.47-.99-1.25-1.8-2.22-2.33Z"/>
        <path class="cls-3" d="M765.88,478.5l-86.28-48.97c-2.03-1.14-4.14-.55-4.71,1.33-.21,1.07-.07,2.19,.4,3.18,.47,.99,1.26,1.8,2.23,2.31l86.27,48.97c2.04,1.15,4.15,.56,4.73-1.33,.2-1.07,.06-2.19-.42-3.17-.47-.99-1.25-1.8-2.22-2.32Z"/>
        <path class="cls-3" d="M595.71,418.02l-65.62-37.19c-2.04-1.15-4.15-.57-4.73,1.31-.21,1.08-.06,2.19,.41,3.18,.47,.99,1.25,1.8,2.22,2.33l65.57,37.19c2.03,1.15,4.14,.57,4.71-1.31,.21-1.07,.08-2.18-.38-3.17-.47-.99-1.23-1.81-2.19-2.34Z"/>
        <path class="cls-3" d="M699.28,476.8l-81.12-46.07c-2.03-1.15-4.14-.55-4.71,1.33-.2,1.07-.06,2.19,.42,3.17,.47,.99,1.25,1.8,2.22,2.32l81.17,46.07c2.04,1.15,4.16,.55,4.73-1.33,.2-1.08,.05-2.2-.44-3.19-.49-.99-1.28-1.8-2.27-2.3Z"/>
        <path class="cls-3" d="M872.24,430.31l-30.41-17.25c-2.03-1.15-4.14-.55-4.71,1.33-.2,1.07-.06,2.19,.41,3.17,.47,.99,1.25,1.8,2.22,2.32l30.4,17.25c2.03,1.15,4.14,.55,4.73-1.33,.2-1.07,.06-2.19-.41-3.17-.47-.99-1.26-1.8-2.22-2.32Z"/>
        <path class="cls-3" d="M941.63,469.76l-46.66-26.47c-2.03-1.15-4.14-.56-4.71,1.33-.2,1.07-.06,2.19,.41,3.17,.47,.99,1.25,1.8,2.22,2.32l46.66,26.47c2.04,1.15,4.15,.57,4.72-1.31,.21-1.08,.07-2.19-.4-3.18s-1.25-1.8-2.22-2.33Z"/>
        <path class="cls-3" d="M866.62,463.31l121.92,69.24c.97,.52,1.75,1.33,2.22,2.32,.47,.99,.61,2.1,.41,3.17-.59,1.88-2.7,2.48-4.73,1.33l-121.84-69.18c-.97-.52-1.75-1.33-2.22-2.32-.47-.99-.61-2.1-.4-3.18,.49-1.94,2.61-2.54,4.64-1.39Z"/>
        <path class="cls-3" d="M828.41,479.55l121.84,69.18c.97,.52,1.75,1.33,2.22,2.32,.47,.99,.62,2.1,.42,3.17-.59,1.88-2.69,2.48-4.73,1.33l-121.84-69.18c-.97-.52-1.74-1.33-2.22-2.32-.47-.99-.62-2.1-.41-3.17,.57-1.88,2.68-2.48,4.72-1.33Z"/>
        <path class="cls-3" d="M626.16,326.86l108.63,61.68c.97,.52,1.75,1.33,2.22,2.32,.47,.99,.61,2.1,.4,3.18-.57,1.88-2.68,2.47-4.72,1.33l-108.63-61.67c-.97-.52-1.75-1.33-2.22-2.32-.47-.99-.61-2.1-.41-3.17,.59-1.88,2.7-2.48,4.73-1.33Z"/>
        <path class="cls-3" d="M813.83,433.35l30.4,17.25c.97,.52,1.75,1.33,2.22,2.32,.47,.99,.61,2.11,.4,3.18-.57,1.88-2.69,2.47-4.71,1.31l-30.4-17.25c-.97-.51-1.76-1.33-2.23-2.31-.48-.99-.62-2.1-.42-3.18,.59-1.88,2.7-2.47,4.73-1.33Z"/>
        <path class="cls-3" d="M760.37,403.01l30.4,17.25c.97,.52,1.75,1.34,2.22,2.33,.47,.99,.61,2.1,.41,3.18-.57,1.88-2.69,2.47-4.73,1.33l-30.4-17.25c-.97-.52-1.74-1.34-2.22-2.33-.47-.99-.61-2.1-.41-3.18,.52-1.88,2.69-2.47,4.73-1.33Z"/>
        <path class="cls-3" d="M558.46,288.46l46.65,26.44c.97,.51,1.76,1.32,2.23,2.31,.47,.99,.62,2.1,.41,3.18-.59,1.89-2.7,2.48-4.72,1.33l-46.65-26.44c-.97-.52-1.75-1.33-2.23-2.32-.47-.99-.61-2.11-.4-3.18,.57-1.88,2.69-2.47,4.71-1.31Z"/>
        <path class="cls-3" d="M586.27,448.81l-65.56-37.21c-2.03-1.15-4.14-.55-4.73,1.33-.21,1.07-.06,2.19,.41,3.17,.47,.99,1.25,1.8,2.22,2.32l65.58,37.21c2.03,1.15,4.14,.55,4.72-1.33,.21-1.08,.06-2.19-.41-3.18-.48-.99-1.26-1.8-2.23-2.31Z"/>
        <path class="cls-3" d="M769.38,552.71l-108.63-61.66c-2.05-1.15-4.16-.57-4.73,1.31-.21,1.08-.06,2.19,.41,3.18s1.25,1.8,2.22,2.33l108.63,61.66c2.03,1.15,4.14,.55,4.73-1.33,.2-1.07,.06-2.19-.41-3.17-.47-.99-1.25-1.8-2.22-2.32Z"/>
        <path class="cls-3" d="M639.08,478.78l-30.4-17.25c-2.04-1.15-4.16-.55-4.73,1.33-.19,1.07-.04,2.16,.43,3.14,.47,.98,1.24,1.78,2.2,2.29l30.4,17.25c2.04,1.15,4.16,.56,4.73-1.33,.19-1.07,.04-2.16-.43-3.14-.47-.98-1.24-1.78-2.19-2.29Z"/>
        <path class="cls-3" d="M523.15,485.28l-21.31-12.1c-2.03-1.14-4.14-.55-4.71,1.33-.21,1.08-.07,2.19,.4,3.18,.47,.99,1.25,1.81,2.23,2.32l21.3,12.08c2.04,1.15,4.15,.57,4.73-1.31,.21-1.08,.06-2.19-.41-3.18-.47-.99-1.25-1.8-2.22-2.33Z"/>
        <path class="cls-3" d="M615.46,537.76l-75.22-42.67c-2.03-1.15-4.14-.57-4.73,1.31-.21,1.08-.06,2.19,.41,3.18,.47,.99,1.25,1.8,2.22,2.33l75.22,42.67c2.04,1.15,4.15,.57,4.73-1.31,.2-1.08,.06-2.19-.41-3.18-.47-.99-1.25-1.8-2.22-2.33Z"/>
        <path class="cls-3" d="M656.49,560.95l-21.31-12.1c-2.03-1.15-4.14-.55-4.71,1.33-.21,1.07-.07,2.19,.4,3.18,.47,.99,1.26,1.8,2.23,2.31l21.3,12.1c2.04,1.15,4.15,.55,4.73-1.33,.2-1.07,.06-2.19-.42-3.17-.47-.99-1.25-1.8-2.22-2.32Z"/>
        <path class="cls-3" d="M748.81,613.42l-75.22-42.68c-2.03-1.14-4.14-.56-4.73,1.33-.2,1.08-.06,2.19,.41,3.18,.47,.99,1.25,1.8,2.22,2.32l75.2,42.66c2.05,1.15,4.16,.56,4.73-1.33,.2-1.07,.06-2.17-.41-3.15-.47-.98-1.24-1.79-2.2-2.31Z"/>
        <path class="cls-3" d="M607.24,569.08l-114.84-65.17c-2.03-1.15-4.14-.56-4.71,1.33-.21,1.08-.07,2.19,.41,3.18,.47,.99,1.25,1.8,2.22,2.32l114.82,65.17c2.05,1.14,4.14,.55,4.73-1.33,.21-1.07,.07-2.19-.4-3.18s-1.26-1.8-2.22-2.32Z"/>
        <path class="cls-3" d="M796.39,676.46l-163.98-93.04c-2.03-1.15-4.14-.57-4.73,1.31-.2,1.08-.06,2.19,.42,3.18,.47,.99,1.26,1.8,2.22,2.32l164,93.05c2.03,1.14,4.14,.55,4.71-1.33,.2-1.07,.06-2.19-.41-3.18-.48-.99-1.26-1.8-2.24-2.32Z"/>
        <path class="cls-3" d="M548.53,572.01l-65.56-37.24c-2.04-1.15-4.15-.55-4.73,1.33-.21,1.07-.06,2.19,.41,3.17,.47,.99,1.25,1.8,2.22,2.32l65.57,37.21c2.03,1.15,4.14,.56,4.71-1.33,.2-1.07,.06-2.18-.42-3.16-.47-.98-1.25-1.79-2.21-2.3Z"/>
        <path class="cls-3" d="M601.32,601.93l-30.4-17.25c-2.02-1.14-4.14-.55-4.71,1.33-.21,1.08-.07,2.19,.4,3.18,.47,.99,1.25,1.8,2.22,2.31l30.4,17.25c2.03,1.15,4.14,.57,4.72-1.31,.21-1.08,.06-2.19-.41-3.18-.48-.99-1.26-1.8-2.23-2.32Z"/>
        <path class="cls-3" d="M825.06,584.29l-30.42-17.25c-2.03-1.15-4.14-.55-4.71,1.33-.21,1.08-.07,2.19,.4,3.18,.47,.99,1.25,1.8,2.22,2.32l30.4,17.25c2.03,1.15,4.14,.55,4.72-1.33,.21-1.07,.06-2.19-.41-3.17-.47-.99-1.25-1.8-2.22-2.32Z"/>
        <path class="cls-3" d="M826.3,512.53l-30.4-17.25c-2.03-1.15-4.14-.57-4.71,1.31-.2,1.08-.06,2.19,.41,3.18,.47,.99,1.25,1.8,2.22,2.32l30.4,17.33c2.03,1.15,4.14,.56,4.73-1.33,.23-1.09,.09-2.22-.39-3.22-.47-1-1.26-1.83-2.25-2.34Z"/>
        <path class="cls-3" d="M894.45,623.68l-46.66-26.48c-2.03-1.15-4.14-.55-4.71,1.33-.21,1.07-.07,2.19,.4,3.18,.47,.99,1.26,1.8,2.22,2.32l46.66,26.48c2.04,1.15,4.14,.56,4.72-1.33,.21-1.07,.07-2.19-.4-3.18-.47-.99-1.25-1.8-2.22-2.32Z"/>
        <path class="cls-3" d="M819.44,617.29l121.84,69.18c.97,.52,1.76,1.33,2.23,2.32,.47,.98,.62,2.1,.42,3.17-.59,1.89-2.7,2.49-4.73,1.33l-121.84-69.19c-.97-.51-1.75-1.33-2.22-2.32-.47-.99-.61-2.1-.41-3.18,.58-1.91,2.69-2.5,4.71-1.33Z"/>
        <path class="cls-3" d="M578.98,480.82l108.63,61.66c.97,.52,1.74,1.33,2.22,2.32,.47,.99,.61,2.1,.41,3.17-.57,1.88-2.69,2.48-4.73,1.33l-108.63-61.66c-.97-.52-1.74-1.34-2.22-2.33-.47-.99-.61-2.1-.41-3.18,.59-1.88,2.7-2.47,4.73-1.31Z"/>
        <path class="cls-3" d="M766.65,587.31l30.4,17.25c.97,.52,1.74,1.33,2.22,2.32,.47,.99,.62,2.1,.41,3.18-.57,1.88-2.69,2.48-4.71,1.33l-30.41-17.25c-.97-.52-1.74-1.33-2.22-2.32-.47-.99-.62-2.1-.42-3.17,.59-1.88,2.7-2.48,4.73-1.33Z"/>
        <path class="cls-3" d="M713.18,556.97l30.42,17.25c.97,.52,1.74,1.33,2.22,2.32,.47,.99,.61,2.1,.41,3.17-.59,1.88-2.7,2.48-4.73,1.33l-30.4-17.25c-.97-.52-1.75-1.33-2.22-2.32-.47-.99-.61-2.1-.41-3.17,.57-1.88,2.69-2.48,4.71-1.33Z"/>
        <path class="cls-3" d="M511.27,442.41l46.71,26.47c.97,.51,1.75,1.32,2.23,2.31,.47,.99,.61,2.1,.4,3.18-.57,1.88-2.69,2.48-4.71,1.33l-46.71-26.4c-.97-.51-1.75-1.33-2.23-2.31-.48-.99-.62-2.1-.41-3.18,.59-1.96,2.7-2.56,4.73-1.4Z"/>
      </g>
      <g>
        <path d="M518.4,156.94l3.16-11.99,11.85,6.81-15.11,57.36-13.35-7.79-6.73-30.22c-2.02-9.38-3.36-16.13-4.01-20.26-1.73,7.44-3.95,16.29-6.65,26.56l-3.14,11.95-11.71-6.83,14.98-57.04,13.28,7.63,6.73,30.16c1.91,8.77,3.24,15.59,3.99,20.47,1.77-7.57,4.01-16.5,6.72-26.8Z"/>
        <path d="M543.47,224.93c-6.06-3.54-10.38-8.35-12.97-14.45-2.59-6.09-3.02-12.41-1.29-18.97,1.74-6.61,4.96-10.85,9.65-12.72,4.63-1.85,10.01-1.01,16.13,2.52,6.13,3.54,10.49,8.33,13.07,14.36,2.58,6.04,2.99,12.4,1.22,19.1-1.75,6.64-4.96,10.88-9.62,12.71-4.72,1.85-10.11,1.01-16.18-2.54Zm2.66-10.09c2.67,1.55,4.98,1.75,6.94,.59,1.96-1.16,3.45-3.65,4.46-7.48s1.06-7.16,.15-9.98c-.91-2.82-2.7-5.01-5.36-6.55-2.72-1.57-5.05-1.77-7.01-.61-1.96,1.16-3.44,3.66-4.44,7.48-1.01,3.82-1.06,7.14-.16,9.96,.9,2.82,2.71,5.02,5.42,6.6Z"/>
        <path d="M605.18,217.21l5.56-20.99,11.75,6.75-15.36,57.97-11.41-6.66,1.44-5.44c-3.73,2.76-8.17,2.64-13.3-.35-5.18-3.02-8.74-7.37-10.68-13.06-1.99-5.71-2.1-11.91-.33-18.6,1.77-6.7,4.69-11.14,8.77-13.33,4.03-2.22,8.64-1.84,13.83,1.16,4.9,2.83,8.14,7.01,9.73,12.56Zm-15.43,23.01c5.54,3.23,9.36,.91,11.44-6.94,2.08-7.86,.35-13.4-5.2-16.61-2.6-1.5-4.89-1.63-6.89-.38-2,1.25-3.51,3.82-4.54,7.71-2.02,7.63-.29,13.03,5.2,16.23Z"/>
        <path d="M657.85,267.59l-.67,2.54-28.98-16.83c-.36,3.12,.04,5.89,1.2,8.32,1.16,2.43,2.95,4.35,5.37,5.76,3.84,2.23,6.89,2.19,9.14-.15l11.25,6.54c-2.22,3.74-5.4,5.88-9.51,6.4-4.11,.53-8.57-.61-13.36-3.41-6.05-3.53-10.4-8.39-13.06-14.58-2.65-6.18-3.1-12.59-1.35-19.21,1.77-6.68,5.02-10.94,9.74-12.78,4.69-1.93,10.1-1.13,16.21,2.4s10.43,8.44,13.07,14.81c2.52,6.37,2.84,13.1,.96,20.2Zm-16.67-25.7c-4.85-2.81-8.44-1.68-10.76,3.37l17.28,10.02c.29-2.85-.13-5.45-1.26-7.8-1.13-2.35-2.88-4.21-5.25-5.59Z"/>
        <path d="M692.98,312.57c-5.94-3.47-10.16-7.86-12.67-13.18-2.51-5.31-2.99-10.87-1.44-16.67l.98-3.69,12.35,7.17-.99,3.7c-.6,2.25-.47,4.33,.38,6.25,.85,1.92,2.3,3.47,4.35,4.67,2.05,1.19,3.83,1.52,5.34,.97,1.51-.55,2.57-1.94,3.17-4.19l10.98-41.17,13.07,7.51-11,41.24c-1.47,5.49-4.37,9.01-8.7,10.54-4.38,1.5-9.65,.46-15.81-3.14Z"/>
        <path d="M741.54,340.91c-7.72-4.51-13.19-9.8-16.4-15.87-3.21-6.07-3.98-12.36-2.3-18.87l12.72,7.38c-.92,3.66-.6,6.78,.96,9.34,1.56,2.56,4.36,5.02,8.41,7.38,6.28,3.66,10.04,3.23,11.25-1.3,.53-1.99,.24-3.86-.88-5.63-1.12-1.77-3.53-4.17-7.22-7.2l-4.27-3.53c-11.74-9.35-16.25-19.05-13.57-29.12,1.42-5.34,4.43-8.5,9.02-9.48,4.6-.98,10.35,.51,17.26,4.49,7.39,4.25,12.61,9.16,15.63,14.73,3.03,5.57,3.85,11.54,2.45,17.88l-12.52-7.23c.61-2.96,.27-5.58-1.01-7.85-1.29-2.27-3.7-4.43-7.24-6.46-5.66-3.26-9.02-2.91-10.08,1.06-.53,1.98-.25,3.9,.85,5.74,1.09,1.84,3.31,4.14,6.65,6.9l4.44,3.62c6.38,5.16,10.71,10.04,13,14.66,2.29,4.62,2.77,9.44,1.42,14.47-1.61,6.03-4.94,9.43-9.97,10.2-5.02,.77-11.23-1-18.6-5.3Z"/>
      </g>
      <path class="cls-7" d="M1073.95,538.12c-1.25-.63-2.34-1.58-3.29-2.74l-9.59-12.65c-1.47-1.83-.55-1.76,0-1.68,2.45,.36,2.91,.39,5.58,.17,.29-.05,.61,.21,.82,.52l7.32,9.74c.29,.35,.71,.56,1,.51l37.71-3.44c.37,0,.62-.27,.72-.71l9.59-40.85c.1-.45,.02-.89-.26-1.25l-28.54-38.54c-.3-.36-.72-.59-1.01-.54l-38.7,3c-.38,0-.66,.37-.74,.74l-9.16,41.99c-.08,.36,0,.9,.3,1.26l8.03,10.43c4.4,5.25,8.23,3.72,8.92,.59l9.14-41.09c.12-.55,.67-.87,1.26-.56l4.33,2.28c.51,.27,.92,.99,.77,1.63l-9.18,40.99c-1.58,7.04-6.11,9.29-12.44,6.06-1.95-.99-3.47-1.77-7.3-6.22l-7.77-9.97c-1.93-2.49-2.75-5.73-2.16-8.44l9.12-42.1c.6-2.77,2.54-4.62,5.08-4.81l38.81-3.06c2.41-.15,5.28,1.4,7.1,3.82l28.46,38.7c1.83,2.48,2.56,5.68,1.92,8.36l-9.63,40.74c-.62,2.63-2.51,4.4-4.94,4.62l-37.62,3.47c-1.2-.02-2.51-.39-3.68-.98h0Zm16.62-22.77c-14.63-7.53-16.04-16.25-14.67-22.35,.12-.54,.66-.86,1.25-.55l4.37,2.27c.5,.26,.84,.84,.72,1.38-.4,5.09,1,8.41,9.85,12.99,6.98,3.61,10.36,3.47,11.28-.52,.53-2.31,.1-4.43-10.54-11.26-8.9-5.74-14.14-10.88-12.37-18.73,1.65-7.33,8.37-8.66,17.95-3.6,10.69,5.64,15.01,12.35,13.68,21.28-.06,.27-.21,.49-.44,.67-.21,.09-.5,.14-.75,0l-4.31-2.26c-.42-.22-.75-.79-.73-1.28,.14-5.45-2.07-8.42-8.92-12.02-7.72-4.06-9.3-1.66-9.79,.51-.59,2.61,.32,3.99,10.37,10.86,9.9,6.77,14.23,11.33,12.45,18.95-1.9,7.74-8.87,9.08-19.41,3.66h0Z"/>
      <g>
        <path class="cls-13" d="M1040.34,767.82c-2.51,8.13-5.02,16.27-7.56,24.39-.2,.64-.18,1.09,.37,1.81,1.35,1.76,1.77,3.62,1.24,5.39-1.26,4.16-2.54,8.31-3.85,12.43-.64,2-2.12,2.87-4.28,2.59-2.14-.28-3.81-1.63-4.93-3.82-.31-.61-.45-.76-.96-.44-4.88,3-10.41,2.74-16.6-.8-15.01-8.59-30.07-17.19-45.17-25.84-6.16-3.53-10.18-8.75-12.07-15.55-.21-.77-.38-.89-1.05-.74-1.93,.42-3.81-.31-5.45-2.18-1.65-1.89-2.28-3.95-1.69-5.94,1.27-4.28,2.59-8.52,3.94-12.75,.55-1.72,1.87-2.57,3.72-2.47,.78,.04,1.03-.26,1.23-.9,2.52-8.21,5.07-16.41,7.61-24.62,1.17,.41,2.27,1.05,3.31,1.91-2.54,8.2-5.07,16.4-7.61,24.6-.23,.75,.3,2.2,1.03,2.73,.44,.32,.51-.14,.67-.32,1.61-1.88,3.38-3.57,5.43-4.93,9.86-6.56,21.41-7.29,34.62-1.65,19.4,8.28,33.69,28.67,34.81,49.32,.02,.39-.14,1.12,.29,1.14,.65,.02,1.54,.45,1.95-.26,.13-.22,.17-.51,.25-.77,2.5-8.07,5-16.13,7.5-24.2,1.15,.41,2.23,1.03,3.25,1.88Z"/>
        <path class="cls-7" d="M958.17,720.27c-1.17-.4-2.28-1.04-3.31-1.91-1.69-2.18-2.63-4.38-1.86-6.66,.67-1.98,2.93-2.93,5.38-2.07,2.17,.77,3.89,2.62,4.58,5.44,.56,2.31-.48,4.36-2.4,4.98-.75,.25-1.54,.31-2.39,.22Z"/>
        <path class="cls-7" d="M1040.34,767.82c-1.15-.4-2.24-1.02-3.25-1.88-1.66-2.15-2.58-4.33-1.81-6.59,.67-1.97,2.89-2.92,5.3-2.07,2.14,.75,3.82,2.58,4.49,5.37,.55,2.28-.48,4.32-2.37,4.94-.74,.25-1.52,.31-2.35,.23Z"/>
        <path class="cls-9" d="M985.14,783.99c-4.9-2.81-9.82-5.6-14.72-8.45-6.75-3.92-10.3-11.97-8.07-18.23,1.89-5.31,8.37-7.29,14.12-4.04,10.33,5.83,20.62,11.71,30.82,17.78,4.59,2.73,7.25,7.06,7.88,12.16,.62,5.06-1.17,8.53-5.06,10.32-3.16,1.45-6.67,.93-10.37-1.18-4.86-2.77-9.71-5.57-14.58-8.36Z"/>
        <path class="cls-19" d="M975.54,771.11c-2.73-1.58-4.29-5-3.45-7.59,.82-2.53,3.71-3.32,6.4-1.76,2.73,1.58,4.28,5,3.44,7.59-.82,2.53-3.7,3.32-6.4,1.76Z"/>
        <path class="cls-19" d="M1001.46,774.98c2.73,1.56,4.31,4.95,3.5,7.54-.79,2.54-3.64,3.38-6.32,1.86-2.73-1.55-4.32-4.95-3.51-7.54,.79-2.55,3.65-3.38,6.33-1.85Z"/>
      </g>
    </g>
  </g>
</svg>