<?xml version="1.0" encoding="UTF-8"?>
<svg id="Layer_2" data-name="Layer 2" xmlns="http://www.w3.org/2000/svg" xmlns:xlink="http://www.w3.org/1999/xlink" viewBox="0 0 1195.25 1325.74">
  <defs>
    <style>
      .cls-1 {
        fill: url(#linear-gradient-2);
      }

      .cls-2 {
        fill: #f4f4f4;
      }

      .cls-3, .cls-4 {
        fill: #fff;
      }

      .cls-5 {
        fill: #2a5699;
      }

      .cls-6 {
        fill: #20744a;
      }

      .cls-6, .cls-4 {
        fill-rule: evenodd;
      }

      .cls-7 {
        fill: #020230;
        opacity: .1;
      }

      .cls-7, .cls-8 {
        isolation: isolate;
      }

      .cls-9 {
        fill: url(#linear-gradient-6);
      }

      .cls-10 {
        fill: url(#linear-gradient-5);
      }

      .cls-11, .cls-8 {
        fill: #06033e;
      }

      .cls-12 {
        opacity: .3;
      }

      .cls-13 {
        fill: url(#linear-gradient-7);
      }

      .cls-14 {
        fill: url(#linear-gradient-3);
      }

      .cls-8, .cls-15 {
        opacity: .4;
      }

      .cls-16 {
        fill: url(#linear-gradient);
      }

      .cls-17 {
        fill: url(#linear-gradient-4);
      }

      .cls-18 {
        fill: url(#linear-gradient-8);
      }
    </style>
    <linearGradient id="linear-gradient" x1="408.08" y1="-3665.96" x2="1147.4" y2="-3678.88" gradientTransform="translate(0 -3142.9) scale(1 -1)" gradientUnits="userSpaceOnUse">
      <stop offset="0" stop-color="#20744a"/>
      <stop offset=".19" stop-color="#227055"/>
      <stop offset=".48" stop-color="#246966"/>
      <stop offset=".84" stop-color="#124554"/>
      <stop offset="1" stop-color="#0e3554"/>
    </linearGradient>
    <linearGradient id="linear-gradient-2" x1=".17" y1="-4031.14" x2="978.54" y2="-4031.14" gradientTransform="translate(0 -3142.9) scale(1 -1)" gradientUnits="userSpaceOnUse">
      <stop offset="0" stop-color="#20744a"/>
      <stop offset=".14" stop-color="#227055"/>
      <stop offset=".36" stop-color="#246966"/>
      <stop offset=".65" stop-color="#27607d"/>
      <stop offset=".97" stop-color="#2a5796"/>
      <stop offset="1" stop-color="#2a5699"/>
    </linearGradient>
    <linearGradient id="linear-gradient-3" x1="0" y1="-4014.3" x2="978.71" y2="-4014.3" xlink:href="#linear-gradient-2"/>
    <linearGradient id="linear-gradient-4" x1="397.6" y1="-3674.35" x2="1125.79" y2="-3674.35" xlink:href="#linear-gradient-2"/>
    <linearGradient id="linear-gradient-5" x1="409.77" y1="-3674.54" x2="1113.85" y2="-3674.54" gradientTransform="translate(0 -3142.9) scale(1 -1)" gradientUnits="userSpaceOnUse">
      <stop offset="0" stop-color="#3919ba"/>
      <stop offset="1" stop-color="#6507f9"/>
    </linearGradient>
    <linearGradient id="linear-gradient-6" x1="935.79" y1="-3911.68" x2="1106.02" y2="-3911.68" gradientTransform="translate(0 -3142.9) scale(1 -1)" gradientUnits="userSpaceOnUse">
      <stop offset="0" stop-color="#0cf"/>
      <stop offset=".14" stop-color="#00c3ff"/>
      <stop offset=".36" stop-color="#01acff"/>
      <stop offset=".65" stop-color="#0185ff"/>
      <stop offset=".97" stop-color="#0250ff"/>
      <stop offset="1" stop-color="#024bff"/>
    </linearGradient>
    <linearGradient id="linear-gradient-7" x1="1025" y1="-3636.8" x2="1195.25" y2="-3636.8" xlink:href="#linear-gradient-6"/>
    <linearGradient id="linear-gradient-8" x1="441.39" y1="-3380.04" x2="896.95" y2="-3380.04" xlink:href="#linear-gradient-6"/>
  </defs>
  <g id="Layer_1-2" data-name="Layer 1">
    <g>
      <path class="cls-7" d="M573.8,1322.52L5.59,994.46c-8.28-4.78-7.24-13.14,2.33-18.66l364.67-210.54c9.57-5.52,24.03-6.13,32.29-1.36l568.23,328.06c8.29,4.79,7.25,13.21-2.32,18.66l-364.68,210.54c-9.56,5.52-24.03,6.13-32.31,1.36Z"/>
      <path class="cls-16" d="M1124.08,465.02L558.09,138.25c-1.71-1.05-3.62-1.74-5.6-2.03-1.99-.29-4.01-.16-5.95,.37l-10.57,3.68,3.68,.88c-1.58,1.9-2.76,4.1-3.46,6.47l-127.93,415.55c-3.17,10.28,1.47,22.83,10.38,27.96l565.97,326.77c1.31,.75,2.71,1.32,4.16,1.7l-1.47,3.06,10.01-3.51c2.22-.97,4.19-2.42,5.77-4.25,1.57-1.84,2.72-4,3.34-6.34l127.99-415.58c3.2-10.32-1.44-22.84-10.33-27.98Z"/>
      <path class="cls-1" d="M964.33,933.44l.2,.25L405.49,610.91c-8.22-4.74-22.59-4.14-32.07,1.34L12.22,820.79l-12.05-4.59,3.39,16.97c.35,1.45,1.02,2.79,1.96,3.95,.94,1.16,2.12,2.09,3.46,2.73l564.21,325.74c8.21,4.76,22.58,4.15,32.07-1.33l362.15-209.06c4.4-2.58,7.03-5.78,7.68-8.96l3.47-16.44-14.21,3.64Z"/>
      <path class="cls-14" d="M573.8,1150.71L5.59,822.66c-8.28-4.78-7.24-13.21,2.33-18.66l364.67-210.55c9.57-5.53,24.03-6.12,32.29-1.35l568.23,328.06c8.29,4.79,7.25,13.21-2.32,18.66l-364.68,210.54c-9.56,5.52-24.03,6.13-32.31,1.34Z"/>
      <path class="cls-3" d="M970.8,934.44l-364.69,210.5c-9.56,5.52-24.03,6.13-32.29,1.34L5.59,818.22c-2.41-1.23-4.25-3.33-5.17-5.87-1.09,3.8,.51,7.61,5.17,10.28l568.21,328.07c8.28,4.79,22.75,4.18,32.29-1.34l364.7-210.52c6.31-3.64,8.81-8.5,7.48-12.75-.85,2.94-3.3,5.89-7.48,8.35Z"/>
      <g class="cls-15">
        <path class="cls-11" d="M276.63,769.41l-19.19-11.12c-1.54-.88-1.35-2.44,.43-3.47l22.68-13.04c.91-.51,1.93-.8,2.97-.84,1.04-.04,2.08,.16,3.03,.59l19.19,11.09c1.54,.9,1.35,2.43-.44,3.47l-22.64,13.08c-.92,.51-1.94,.8-2.99,.85-1.05,.04-2.09-.16-3.05-.6Z"/>
        <path class="cls-11" d="M306.25,786.53l-19.19-11.09c-1.54-.88-1.35-2.43,.43-3.46l22.65-13.07c.91-.51,1.93-.8,2.97-.84,1.04-.04,2.08,.16,3.03,.59l19.19,11.07c1.54,.9,1.35,2.46-.43,3.47l-22.65,13.08c-.91,.52-1.93,.8-2.97,.85-1.04,.04-2.08-.16-3.03-.59Z"/>
        <path class="cls-11" d="M335.87,803.62l-19.19-11.07c-1.54-.9-1.35-2.45,.43-3.48l22.65-13.06c.91-.51,1.93-.8,2.97-.84,1.04-.04,2.08,.16,3.03,.59l19.19,11.07c1.54,.9,1.35,2.45-.43,3.48l-22.65,13.06c-.91,.51-1.93,.8-2.97,.84-1.04,.05-2.08-.16-3.03-.59Z"/>
        <path class="cls-11" d="M376.85,789.5l-19.19-11.08c-1.47-.88-1.35-2.44,.44-3.47l19-10.97c.91-.51,1.93-.8,2.98-.84,1.05-.04,2.09,.16,3.04,.59l19.19,11.07c1.54,.9,1.34,2.43-.44,3.47l-19.01,10.98c-.91,.51-1.93,.79-2.97,.83-1.04,.04-2.08-.16-3.03-.59Z"/>
        <path class="cls-11" d="M406.46,806.59l-19.19-11.07c-1.47-.9-1.34-2.46,.44-3.48l19.07-10.97c.91-.51,1.93-.8,2.97-.84,1.04-.04,2.08,.16,3.03,.59l19.19,11.07c1.54,.9,1.35,2.45-.44,3.48l-19,10.97c-.92,.52-1.95,.81-3.01,.85-1.06,.04-2.11-.16-3.07-.61Z"/>
        <path class="cls-11" d="M436.14,823.69l-19.24-11.09c-1.47-.9-1.34-2.46,.44-3.48l19.01-10.97c.91-.51,1.93-.8,2.97-.84,1.04-.04,2.08,.16,3.03,.59l19.19,11.07c1.54,.9,1.35,2.45-.44,3.48l-19,10.97c-.9,.5-1.91,.79-2.95,.84-1.03,.05-2.07-.15-3.01-.56Z"/>
        <path class="cls-11" d="M465.71,840.81l-19.17-11.07c-1.54-.9-1.35-2.43,.43-3.47l19.01-10.97c.91-.52,1.93-.8,2.97-.85,1.04-.04,2.08,.16,3.03,.59l19.19,11.09c1.47,.88,1.35,2.43-.43,3.47l-19.01,10.9c-.91,.52-1.93,.82-2.97,.87-1.05,.06-2.09-.13-3.05-.56Z"/>
        <path class="cls-11" d="M495.35,857.91l-19.19-11.09c-1.54-.88-1.35-2.43,.43-3.46l19.01-10.98c.91-.51,1.93-.8,2.97-.84,1.04-.04,2.08,.16,3.03,.59l19.19,11.09c1.47,.88,1.35,2.43-.43,3.47l-19.01,10.98c-.91,.5-1.93,.79-2.97,.83-1.04,.04-2.08-.16-3.03-.59Z"/>
        <path class="cls-11" d="M524.97,875.01l-19.19-11.04c-1.54-.88-1.35-2.43,.43-3.47l19.01-10.98c.91-.5,1.93-.79,2.97-.83,1.04-.04,2.08,.16,3.03,.59l19.19,11.08c1.54,.88,1.35,2.44-.43,3.47l-19.01,10.98c-.92,.5-1.94,.78-2.98,.82-1.04,.04-2.08-.18-3.03-.61Z"/>
        <path class="cls-11" d="M554.59,892.11l-19.19-11.08c-1.54-.88-1.35-2.43,.43-3.47l19.01-10.97c.91-.51,1.93-.8,2.98-.84,1.05-.04,2.09,.16,3.04,.59l19.14,11.07c1.54,.9,1.35,2.43-.43,3.47l-19.08,10.98c-.9,.49-1.9,.77-2.92,.81-1.02,.05-2.04-.15-2.98-.56Z"/>
        <path class="cls-11" d="M584.22,909.23l-19.19-11.07c-1.54-.9-1.35-2.46,.43-3.48l19.08-10.97c.92-.51,1.93-.8,2.99-.84,1.04-.04,2.08,.16,3.03,.59l19.19,11.07c1.47,.9,1.33,2.45-.44,3.48l-19.08,10.97c-.91,.51-1.93,.8-2.97,.84-1.04,.04-2.08-.16-3.03-.59Z"/>
        <path class="cls-11" d="M613.83,926.32l-19.15-11.07c-1.54-.9-1.35-2.46,.44-3.48l19-10.97c.91-.51,1.93-.8,2.98-.84,1.04-.05,2.09,.16,3.04,.59l19.18,11.07c1.55,.9,1.34,2.45-.44,3.48l-19.08,10.97c-.9,.5-1.92,.78-2.95,.83-1.04,.04-2.07-.16-3.01-.58Z"/>
        <path class="cls-11" d="M643.47,943.42l-19.19-11.07c-1.47-.89-1.33-2.43,.44-3.46l19.01-10.98c.91-.52,1.93-.8,2.97-.85,1.04-.04,2.08,.16,3.03,.59l19.19,11.09c1.47,.88,1.35,2.43-.44,3.47l-18.99,11.04c-.92,.49-1.95,.77-2.99,.8-1.04,.03-2.08-.18-3.03-.63Z"/>
        <path class="cls-11" d="M420.5,781.4l-19.19-11.07c-1.47-.9-1.35-2.45,.43-3.48l19.01-10.96c.91-.52,1.93-.8,2.97-.85,1.04-.04,2.08,.16,3.03,.59l19.19,11.07c1.54,.89,1.35,2.45-.43,3.48l-19.01,10.96c-.91,.52-1.93,.8-2.97,.85-1.04,.04-2.08-.16-3.03-.59Z"/>
        <path class="cls-11" d="M390.43,764.04l-19.17-11.08c-1.54-.88-1.35-2.44,.43-3.47l18.97-10.98c.91-.51,1.93-.79,2.97-.84,1.04-.04,2.08,.16,3.03,.59l19.19,11.08c1.54,.88,1.35,2.43-.43,3.47l-18.89,10.98c-.92,.52-1.96,.81-3.02,.85-1.06,.04-2.11-.16-3.08-.61Z"/>
        <path class="cls-11" d="M360.31,746.65l-41.32-23.85c-1.54-.88-1.35-2.43,.44-3.47l19-10.95c.91-.5,1.93-.79,2.98-.83,1.04-.04,2.09,.16,3.04,.59l41.31,23.85c1.54,.9,1.35,2.45-.43,3.48l-19.01,10.97c-.91,.5-1.93,.79-2.98,.83-1.04,.04-2.08-.17-3.03-.61Z"/>
        <path class="cls-11" d="M381.36,725.5l-33.53-19.36c-1.47-.9-1.35-2.43,.43-3.47l19.01-10.98c.91-.51,1.93-.79,2.97-.83,1.04-.04,2.08,.16,3.03,.59l33.51,19.36c1.54,.88,1.35,2.44-.43,3.47l-19.08,10.98c-.9,.49-1.9,.77-2.93,.81-1.03,.05-2.05-.15-2.99-.56Z"/>
        <path class="cls-11" d="M450.13,798.5l-19.19-11.07c-1.54-.9-1.35-2.43,.43-3.47l19.01-10.99c.91-.52,1.93-.8,2.98-.85,1.05-.04,2.09,.16,3.04,.59l19.17,11.09c1.47,.88,1.35,2.43-.43,3.46l-19.01,10.97c-.91,.52-1.93,.8-2.97,.85-1.04,.04-2.08-.16-3.03-.59Z"/>
        <path class="cls-11" d="M479.75,815.62l-19.19-11.09c-1.54-.88-1.35-2.43,.43-3.47l19.01-10.97c.91-.51,1.94-.8,2.98-.84,1.05-.04,2.09,.16,3.04,.59l19.13,11.02c1.54,.88,1.35,2.44-.43,3.47l-19.01,10.98c-.9,.51-1.91,.8-2.94,.85-1.03,.06-2.07-.13-3.02-.54Z"/>
        <path class="cls-11" d="M509.37,832.71l-19.19-11.09c-1.54-.88-1.35-2.43,.44-3.47l19-10.98c.91-.5,1.94-.79,2.98-.83,1.04-.04,2.09,.16,3.04,.59l19.19,11.09c1.47,.88,1.34,2.43-.44,3.46l-18.97,10.98c-.92,.52-1.94,.8-2.99,.85-1.05,.04-2.1-.16-3.05-.59Z"/>
        <path class="cls-11" d="M539,849.81l-19.17-11.09c-1.54-.88-1.34-2.43,.44-3.47l19-10.92c.91-.51,1.93-.8,2.97-.84,1.04-.05,2.08,.16,3.03,.59l19.19,11.07c1.54,.9,1.34,2.43-.44,3.47l-19,10.98c-.92,.5-1.94,.78-2.98,.82-1.05,.04-2.08-.18-3.03-.61Z"/>
        <path class="cls-11" d="M568.6,866.91l-19.19-11.07c-1.47-.9-1.34-2.46,.44-3.48l19.01-10.97c.91-.51,1.93-.8,2.97-.84,1.04-.05,2.08,.16,3.03,.59l19.18,11.09c1.55,.9,1.35,2.45-.44,3.48l-19,10.97c-.91,.51-1.93,.79-2.98,.83s-2.09-.16-3.04-.6Z"/>
        <path class="cls-11" d="M598.24,884.03l-19.18-11.07c-1.54-.9-1.35-2.45,.43-3.48l19.08-10.96c.91-.52,1.93-.8,2.97-.85,1.04-.04,2.08,.16,3.03,.59l19.19,11.07c1.47,.89,1.35,2.45-.42,3.48l-19.08,10.96c-.92,.52-1.93,.8-2.99,.85-1.04,.04-2.08-.16-3.03-.59Z"/>
        <path class="cls-11" d="M627.88,901.13l-19.18-11.07c-1.55-.9-1.36-2.43,.42-3.47l19.01-10.98c.92-.51,1.93-.8,2.98-.84,1.04-.04,2.08,.16,3.03,.59l19.19,11.09c1.47,.88,1.35,2.43-.43,3.46l-19.01,10.97c-.91,.51-1.93,.8-2.97,.84-1.04,.05-2.08-.16-3.03-.59Z"/>
        <path class="cls-11" d="M657.49,918.28l-19.18-11.09c-1.55-.88-1.36-2.43,.42-3.47l19.08-10.98c.91-.5,1.93-.79,2.97-.83,1.04-.04,2.08,.16,3.03,.59l19.11,11.1c1.47,.88,1.35,2.43-.42,3.46l-19.08,10.98c-.9,.49-1.91,.77-2.94,.81-1.02,.04-2.05-.16-2.99-.57Z"/>
        <path class="cls-11" d="M687.17,935.35l-19.18-11.09c-1.47-.88-1.36-2.43,.42-3.47l19.01-10.98c.91-.5,1.93-.79,2.98-.83,1.04-.04,2.08,.16,3.03,.59l19.18,11.08c1.54,.88,1.35,2.44-.43,3.47l-19.08,10.98c-.9,.49-1.91,.78-2.94,.82-1.02,.04-2.05-.15-2.99-.56Z"/>
        <path class="cls-11" d="M739.8,965.74l-41.86-24.16c-1.55-.9-1.35-2.44,.44-3.47l19-11.01c.91-.51,1.93-.8,2.98-.84,1.04-.04,2.08,.16,3.04,.59l41.85,24.16c1.54,.9,1.35,2.45-.43,3.48l-19.01,10.97c-.91,.52-1.93,.8-2.97,.85-1.04,.05-2.08-.15-3.03-.58Z"/>
        <path class="cls-11" d="M797.46,932.45l-35.33-20.4c-1.55-.88-1.36-2.44,.42-3.47l19.01-10.98c.91-.51,1.93-.79,2.98-.84,1.04-.04,2.08,.16,3.03,.59l35.32,20.4c1.47,.88,1.35,2.43-.42,3.47l-19.01,10.98c-.91,.5-1.93,.79-2.97,.83-1.04,.04-2.08-.16-3.03-.59Z"/>
        <path class="cls-11" d="M502.01,795.15l-19.19-11.07c-1.54-.9-1.35-2.44,.43-3.47l18.97-10.98c.91-.51,1.93-.8,2.98-.84,1.05-.05,2.09,.16,3.04,.59l19.19,11.08c1.47,.88,1.34,2.43-.44,3.47l-18.89,11.05c-.93,.51-1.96,.78-3.02,.81-1.06,.03-2.1-.2-3.06-.65Z"/>
        <path class="cls-11" d="M471.64,777.62l-19.19-11.07c-1.54-.9-1.35-2.45,.43-3.48l19.08-10.97c.91-.51,1.93-.8,2.97-.84,1.04-.04,2.08,.16,3.03,.59l19.19,11.07c1.54,.9,1.35,2.46-.43,3.48l-19.08,10.97c-.91,.51-1.93,.8-2.97,.84-1.04,.05-2.08-.16-3.03-.59Z"/>
        <path class="cls-11" d="M441.27,760.08l-19.19-11.07c-1.47-.9-1.34-2.46,.44-3.48l19.01-10.97c.91-.51,1.93-.8,2.97-.84,1.04-.04,2.08,.16,3.03,.59l19.19,11.07c1.54,.9,1.35,2.45-.44,3.48l-19,10.97c-.91,.51-1.93,.8-2.98,.84-1.05,.04-2.09-.16-3.04-.59Z"/>
        <path class="cls-11" d="M410.92,742.55l-19.19-11.07c-1.54-.89-1.35-2.45,.43-3.47l19.08-10.97c.91-.52,1.93-.8,2.98-.84,1.05-.05,2.09,.16,3.04,.59l19.19,11.07c1.47,.9,1.34,2.43-.44,3.47l-19.08,10.97c-.91,.52-1.93,.8-2.97,.85-1.04,.04-2.08-.16-3.03-.59Z"/>
        <path class="cls-11" d="M531.57,812.25l-19.08-11.08c-1.54-.88-1.35-2.44,.44-3.47l19-10.98c.91-.51,1.94-.79,2.98-.83,1.05-.05,2.09,.16,3.04,.59l19.19,11.08c1.54,.88,1.34,2.43-.44,3.47l-19.01,10.98c-.93,.52-1.96,.82-3.02,.86-1.06,.04-2.12-.17-3.08-.61Z"/>
        <path class="cls-11" d="M561.24,829.36l-19.19-11.08c-1.47-.88-1.34-2.43,.44-3.47l19.01-11.02c.91-.51,1.93-.79,2.97-.84,1.04-.04,2.08,.16,3.03,.59l19.18,11.08c1.55,.9,1.35,2.43-.44,3.47l-19,10.98c-.91,.52-1.93,.8-2.97,.85-1.05,.06-2.09-.14-3.04-.56Z"/>
        <path class="cls-11" d="M590.87,846.45l-19.18-11.08c-1.47-.88-1.35-2.43,.42-3.47l19.01-10.97c.91-.51,1.93-.8,2.97-.84,1.04-.04,2.08,.16,3.03,.59l19.18,11.07c1.47,.9,1.36,2.44-.42,3.47l-19.08,10.98c-.9,.5-1.91,.78-2.94,.83-1.03,.04-2.06-.16-3-.58Z"/>
        <path class="cls-11" d="M620.49,863.57l-19.18-11.07c-1.47-.9-1.35-2.45,.43-3.48l19.01-10.97c.91-.51,1.93-.8,2.97-.84,1.04-.04,2.08,.16,3.03,.59l19.18,11.07c1.55,.9,1.36,2.46-.42,3.48l-19.08,10.97c-.9,.49-1.91,.78-2.94,.83-1.03,.04-2.06-.16-3-.58Z"/>
        <path class="cls-11" d="M650.13,880.67l-19.18-11.07c-1.55-.9-1.36-2.46,.42-3.48l19.08-10.97c.91-.51,1.93-.8,2.97-.84,1.04-.04,2.08,.16,3.03,.59l19.18,11.07c1.47,.9,1.36,2.45-.42,3.48l-19.01,10.97c-.92,.52-1.95,.81-3.01,.86-1.06,.04-2.11-.17-3.07-.61Z"/>
        <path class="cls-11" d="M679.82,897.75l-19.18-11.07c-1.47-.9-1.36-2.43,.42-3.47l19.08-10.98c.92-.51,1.93-.79,2.98-.83,1.04-.04,2.09,.16,3.04,.59l19.02,11.08c1.55,.88,1.36,2.44-.42,3.47l-19.08,10.98c-.9,.48-1.88,.76-2.9,.79-1.02,.04-2.03-.15-2.96-.56Z"/>
        <path class="cls-11" d="M709.38,914.89l-19.19-11.08c-1.47-.88-1.35-2.44,.42-3.47l19.01-10.98c.92-.51,1.93-.79,2.98-.84,1.04-.04,2.09,.16,3.04,.59l19.17,11.08c1.47,.88,1.35,2.43-.42,3.47l-19.01,10.98c-.91,.51-1.93,.79-2.97,.83-1.04,.04-2.08-.16-3.03-.59Z"/>
        <path class="cls-11" d="M739.01,931.98l-19.19-11.08c-1.47-.88-1.35-2.44,.44-3.47l18.99-10.98c.92-.51,1.93-.8,2.98-.84,1.04-.04,2.09,.16,3.04,.59l19.18,11.08c1.55,.9,1.34,2.43-.44,3.47l-19.08,10.98c-.9,.49-1.91,.77-2.94,.82-1.03,.04-2.05-.16-2.99-.57Z"/>
        <path class="cls-11" d="M768.62,949.12l-19.18-11.07c-1.47-.9-1.34-2.45,.44-3.48l19.01-10.97c.91-.51,1.93-.8,2.97-.84,1.04-.04,2.08,.16,3.03,.59l19.19,11.08c1.47,.9,1.35,2.44-.44,3.47l-19.01,10.98c-.91,.51-1.93,.8-2.97,.83-1.04,.04-2.08-.16-3.03-.6Z"/>
        <path class="cls-11" d="M486.4,752.84l-19.19-11.08c-1.54-.9-1.34-2.44,.44-3.47l19.08-10.98c.91-.51,1.93-.79,2.97-.83,1.04-.05,2.08,.16,3.03,.59l19.19,11.08c1.54,.88,1.35,2.43-.44,3.47l-19,10.98c-.93,.52-1.96,.8-3.02,.85-1.06,.04-2.11-.16-3.08-.6Z"/>
        <path class="cls-11" d="M456.93,735.83l-19.19-11.07c-1.54-.9-1.34-2.45,.44-3.48l19.01-10.96c.91-.52,1.93-.8,2.97-.85,1.04-.04,2.08,.16,3.03,.59l19.19,11.07c1.54,.89,1.35,2.45-.44,3.48l-19,10.96c-.91,.52-1.93,.8-2.98,.85-1.05,.04-2.09-.16-3.04-.59Z"/>
        <path class="cls-11" d="M427.43,718.83l-19.19-11.09c-1.54-.88-1.35-2.43,.44-3.46l19-10.98c.91-.51,1.94-.8,2.98-.84,1.05-.04,2.09,.16,3.04,.59l19.19,11.09c1.47,.88,1.34,2.43-.44,3.47l-19.01,10.98c-.91,.5-1.93,.79-2.97,.83-1.04,.04-2.08-.16-3.03-.59Z"/>
        <path class="cls-11" d="M397.98,701.79l-19.2-11.02c-1.54-.9-1.35-2.45,.44-3.47l19-10.98c.91-.51,1.93-.8,2.98-.84,1.05-.04,2.09,.16,3.04,.59l19.19,11.07c1.54,.9,1.34,2.46-.44,3.48l-19.01,10.97c-.91,.5-1.93,.78-2.97,.82-1.04,.04-2.07-.18-3.02-.61Z"/>
        <path class="cls-11" d="M428.28,684.29l-19.19-11.07c-1.54-.9-1.35-2.45,.43-3.48l6.3-3.63c.91-.51,1.93-.79,2.97-.83,1.04-.04,2.08,.16,3.03,.59l19.19,11.08c1.54,.88,1.34,2.43-.44,3.47l-6.28,3.63c-.91,.51-1.93,.8-2.97,.84-1.04,.04-2.08-.16-3.03-.59Z"/>
        <path class="cls-11" d="M466.75,706.51l-19.17-11.07c-1.47-.9-1.35-2.45,.43-3.48l6.28-3.62c.91-.51,1.93-.8,2.97-.84,1.04-.04,2.08,.16,3.03,.59l19.19,11.09c1.54,.88,1.35,2.43-.43,3.47l-6.28,3.62c-.91,.52-1.93,.8-2.98,.85-1.05,.04-2.09-.16-3.04-.59Z"/>
        <path class="cls-11" d="M496.1,723.44l-19.19-11.09c-1.47-.88-1.34-2.43,.44-3.46l6.28-3.63c.91-.51,1.93-.8,2.97-.84,1.04-.05,2.08,.16,3.03,.59l19.19,11.07c1.54,.9,1.35,2.45-.43,3.48l-6.28,3.62c-.91,.51-1.94,.8-2.98,.84-1.05,.04-2.09-.16-3.04-.59Z"/>
        <path class="cls-11" d="M525.47,740.39l-19.19-11.07c-1.47-.9-1.35-2.45,.43-3.48l6.3-3.63c.91-.5,1.93-.79,2.97-.83,1.04-.04,2.08,.16,3.03,.59l19.19,11.08c1.54,.88,1.34,2.44-.44,3.47l-6.28,3.63c-.91,.51-1.93,.8-2.97,.84-1.04,.04-2.08-.16-3.03-.59Z"/>
        <path class="cls-11" d="M554.81,757.35l-19.19-11.08c-1.47-.88-1.35-2.43,.43-3.47l6.28-3.63c.91-.51,1.93-.8,2.98-.84,1.05-.04,2.09,.16,3.04,.59l19.17,11.07c1.54,.9,1.35,2.46-.43,3.48l-6.28,3.63c-.91,.51-1.93,.79-2.97,.84-1.04,.04-2.08-.16-3.03-.59Z"/>
        <path class="cls-11" d="M718.69,851.95l-19.19-11.07c-1.47-.9-1.35-2.43,.43-3.47l6.28-3.64c.92-.5,1.93-.78,2.98-.83,1.04-.04,2.09,.16,3.04,.59l19.18,11.08c1.55,.9,1.34,2.44-.44,3.47l-6.28,3.63c-.91,.51-1.93,.8-2.97,.84-1.04,.04-2.08-.16-3.03-.59Z"/>
        <path class="cls-11" d="M748.05,868.92l-19.18-11.09c-1.47-.88-1.36-2.43,.42-3.46l6.31-3.6c.91-.51,1.93-.8,2.97-.84,1.04-.04,2.08,.16,3.03,.59l19.19,11.08c1.54,.88,1.35,2.43-.43,3.47l-6.28,3.63c-.92,.51-1.94,.79-2.99,.83-1.04,.04-2.09-.18-3.04-.61Z"/>
        <path class="cls-11" d="M777.4,885.87l-19.18-11.08c-1.47-.9-1.33-2.43,.44-3.47l6.28-3.63c.92-.51,1.93-.8,2.98-.84,1.04-.04,2.08,.16,3.03,.59l19.19,11.07c1.54,.9,1.35,2.44-.43,3.47l-6.28,3.64c-.91,.51-1.93,.79-2.98,.84-1.04,.04-2.09-.16-3.04-.59Z"/>
        <path class="cls-11" d="M806.75,902.82l-19.18-11.07c-1.47-.9-1.35-2.46,.44-3.48l6.28-3.63c.92-.51,1.93-.79,2.98-.83,1.04-.05,2.07,.16,3.03,.59l19.19,11.08c1.54,.88,1.35,2.43-.44,3.47l-6.28,3.63c-.91,.51-1.93,.8-2.97,.84-1.04,.04-2.08-.16-3.03-.59Z"/>
        <path class="cls-11" d="M516.01,770.02l-19.17-11.09c-1.54-.88-1.35-2.43,.43-3.47l19.01-10.97c.91-.51,1.93-.8,2.97-.84,1.04-.04,2.08,.16,3.03,.59l19.19,11.09c1.54,.88,1.35,2.43-.43,3.47l-19.01,10.97c-.91,.51-1.94,.8-2.98,.84-1.05,.04-2.09-.16-3.04-.59Z"/>
        <path class="cls-11" d="M545.65,787.06l-19.19-11.09c-1.47-.88-1.35-2.43,.43-3.46l19.01-10.98c.91-.51,1.93-.8,2.97-.84,1.04-.04,2.08,.16,3.03,.59l19.19,11.09c1.54,.9,1.35,2.43-.42,3.47l-19.01,10.97c-.91,.51-1.93,.8-2.97,.84-1.04,.04-2.08-.16-3.03-.59Z"/>
        <path class="cls-11" d="M575.28,804.16l-19.19-11.07c-1.47-.9-1.35-2.45,.43-3.48l19.08-10.97c.91-.51,1.93-.8,2.98-.84,1.04-.04,2.08,.16,3.03,.59l19.19,11.07c1.54,.9,1.35,2.46-.43,3.47l-19.01,10.98c-.92,.52-1.95,.82-3.01,.86-1.05,.04-2.1-.17-3.06-.61Z"/>
        <path class="cls-11" d="M604.96,821.26l-19.19-11.07c-1.54-.9-1.35-2.46,.43-3.48l19.01-10.97c.92-.51,1.93-.8,2.99-.84,1.04-.04,2.08,.16,3.03,.59l19.18,11.07c1.54,.9,1.35,2.45-.43,3.48l-19.01,10.97c-.91,.51-1.93,.8-2.97,.84-1.04,.04-2.08-.16-3.03-.59Z"/>
        <path class="cls-11" d="M634.52,838.37l-19.18-11.08c-1.54-.9-1.35-2.46,.42-3.48l19.01-10.97c.91-.51,1.93-.8,2.98-.84,1.04-.04,2.09,.16,3.04,.59l19.18,11.07c1.47,.9,1.33,2.45-.44,3.48l-19.01,10.97c-.91,.51-1.93,.8-2.97,.85-1.04,.04-2.08-.16-3.03-.59Z"/>
        <path class="cls-11" d="M664.14,855.48l-19.18-11.08c-1.47-.9-1.36-2.44,.44-3.47l19-10.98c.91-.51,1.93-.79,2.98-.83,1.04-.05,2.08,.16,3.03,.59l19.19,11.08c1.54,.88,1.33,2.43-.44,3.47l-19.08,10.98c-.9,.49-1.91,.78-2.94,.82-1.03,.04-2.05-.16-3-.57Z"/>
        <path class="cls-11" d="M693.78,872.57l-19.19-11.08c-1.47-.88-1.33-2.44,.44-3.47l19.01-10.98c.91-.51,1.93-.79,2.97-.84,1.04-.04,2.08,.16,3.03,.59l19.18,11.08c1.47,.88,1.35,2.43-.44,3.47l-18.99,10.98c-.92,.5-1.94,.79-2.99,.83-1.04,.04-2.08-.16-3.03-.59Z"/>
        <path class="cls-11" d="M723.4,889.68l-19.19-11.02c-1.47-.88-1.33-2.43,.44-3.47l19.08-10.98c.91-.5,1.93-.78,2.97-.83,1.04-.04,2.08,.16,3.03,.59l19.08,11.01c1.54,.9,1.35,2.43-.43,3.47l-19.08,10.98c-.9,.49-1.9,.77-2.93,.81-1.02,.04-2.05-.15-2.99-.56Z"/>
        <path class="cls-11" d="M753.03,906.77l-19.17-11.07c-1.47-.9-1.36-2.45,.42-3.48l18.95-10.97c.91-.51,1.93-.8,2.97-.84,1.04-.04,2.08,.16,3.03,.59l19.18,11.07c1.47,.9,1.36,2.46-.42,3.47l-18.89,11c-.92,.52-1.95,.81-3.01,.85-1.06,.04-2.11-.17-3.07-.61Z"/>
        <path class="cls-11" d="M346.61,772.07l-56.49-32.63c-1.54-.88-1.35-2.43,.43-3.47l19.08-10.96c.91-.52,1.93-.8,2.97-.85,1.04-.04,2.08,.16,3.03,.59l56.5,32.62c1.54,.88,1.35,2.43-.43,3.47l-19.01,10.98c-.92,.52-1.96,.81-3.02,.85-1.06,.04-2.11-.16-3.08-.61Z"/>
        <path class="cls-11" d="M710.66,982.2l-56.5-32.62c-1.54-.9-1.35-2.46,.42-3.47l19.08-10.98c.91-.51,1.93-.8,2.97-.84,1.04-.04,2.08,.16,3.03,.59l56.5,32.62c1.54,.89,1.35,2.43-.42,3.46l-19.08,10.98c-.92,.51-1.93,.8-2.98,.84-1.04,.04-2.07-.16-3.03-.59Z"/>
        <path class="cls-11" d="M592.13,951.58l-19.19-11.09c-1.54-.88-1.35-2.43,.42-3.47l22.65-13.06c.91-.51,1.93-.8,2.97-.84,1.04-.04,2.08,.16,3.03,.59l19.18,11.07c1.47,.9,1.35,2.43-.42,3.47l-22.65,13.08c-.91,.51-1.93,.8-2.97,.84-1.04,.05-2.08-.16-3.03-.59Z"/>
        <path class="cls-11" d="M376.98,827.36l-30.68-17.69c-1.54-.9-1.35-2.45,.44-3.48l22.64-13.06c.91-.51,1.93-.8,2.97-.84,1.04-.04,2.08,.16,3.03,.59l30.68,17.71c1.54,.88,1.35,2.43-.43,3.47l-22.65,13.08c-.91,.5-1.93,.78-2.98,.83-1.04,.04-2.08-.17-3.03-.6Z"/>
        <path class="cls-11" d="M563.57,935.08l-30.68-17.7c-1.54-.9-1.34-2.45,.44-3.48l22.64-13.06c.91-.52,1.93-.8,2.98-.85,1.05-.04,2.09,.16,3.04,.59l30.68,17.71c1.55,.9,1.33,2.45-.44,3.48l-22.64,13.06c-.91,.51-1.93,.8-2.98,.84-1.05,.04-2.09-.16-3.04-.59Z"/>
        <path class="cls-11" d="M419.73,852.04l-30.68-17.72c-1.54-.9-1.35-2.43,.43-3.47l22.65-13.08c.91-.51,1.93-.8,2.97-.84,1.04-.04,2.08,.16,3.03,.59l30.68,17.71c1.54,.88,1.35,2.44-.43,3.47l-22.65,13.08c-.91,.5-1.93,.79-2.97,.83-1.04,.04-2.08-.16-3.03-.59Z"/>
        <path class="cls-11" d="M418.34,817.64l133.39,77c.36,.13,.67,.36,.89,.67,.22,.31,.34,.68,.34,1.07s-.12,.75-.34,1.06c-.22,.31-.53,.54-.89,.67l-23.11,13.33c-.93,.47-1.95,.71-2.99,.71s-2.07-.24-2.99-.71l-133.39-77.01,29.09-16.79Z"/>
        <path class="cls-11" d="M674.93,982.58l21.37,12.34c1.26,.73,1.1,2-.35,2.84l-9.27,5.34c-.75,.42-1.59,.66-2.44,.69-.85,.04-1.71-.13-2.49-.49l-21.36-12.34c-1.26-.72-1.12-2,.35-2.83l9.26-5.36c.75-.42,1.58-.65,2.43-.68,.85-.04,1.71,.13,2.48,.49Z"/>
        <path class="cls-11" d="M645.05,965.34l21.37,12.33c1.26,.73,1.1,2.01-.35,2.85l-9.26,5.29c-.75,.42-1.59,.66-2.44,.7-.86,.04-1.71-.13-2.49-.49l-21.36-12.34c-1.26-.73-1.12-2.01,.35-2.84l9.27-5.34c.75-.42,1.58-.64,2.43-.67,.86-.03,1.71,.14,2.48,.51Z"/>
        <path class="cls-11" d="M615.43,948.23l21.38,12.33c1.26,.73,1.1,2-.35,2.85l-9.27,5.34c-.75,.42-1.58,.66-2.44,.69-.85,.04-1.71-.13-2.49-.49l-21.36-12.34c-1.26-.72-1.12-2,.35-2.83l9.26-5.36c.75-.41,1.59-.64,2.44-.68,.85-.04,1.7,.13,2.48,.49Z"/>
        <path class="cls-11" d="M661.41,955.9l21.35,12.32c1.26,.72,1.12,2-.35,2.84l-9.27,5.36c-.75,.41-1.58,.64-2.43,.68-.85,.04-1.7-.13-2.48-.48l-21.38-12.34c-1.26-.72-1.1-2,.35-2.84l9.27-5.36c.75-.41,1.59-.64,2.45-.67,.86-.04,1.71,.13,2.49,.49Z"/>
      </g>
      <path class="cls-3" d="M276.63,769.41l-19.19-11.12c-1.54-.88-1.35-2.44,.43-3.47l22.68-13.04c.91-.51,1.93-.8,2.97-.84,1.04-.04,2.08,.16,3.03,.59l19.19,11.09c1.54,.9,1.35,2.43-.44,3.47l-22.64,13.08c-.92,.51-1.94,.8-2.99,.85-1.05,.04-2.09-.16-3.05-.6Z"/>
      <path class="cls-3" d="M306.25,786.53l-19.19-11.09c-1.54-.88-1.35-2.43,.43-3.46l22.65-13.07c.91-.51,1.93-.8,2.97-.84,1.04-.04,2.08,.16,3.03,.59l19.19,11.07c1.54,.9,1.35,2.46-.43,3.47l-22.65,13.08c-.91,.52-1.93,.8-2.97,.85-1.04,.04-2.08-.16-3.03-.59Z"/>
      <path class="cls-3" d="M335.87,803.62l-19.19-11.07c-1.54-.89-1.35-2.45,.43-3.48l22.65-13.06c.91-.51,1.93-.8,2.97-.84,1.04-.04,2.08,.16,3.03,.59l19.19,11.07c1.54,.9,1.35,2.46-.43,3.48l-22.65,13.06c-.91,.52-1.93,.8-2.97,.85-1.04,.04-2.08-.16-3.03-.59Z"/>
      <path class="cls-3" d="M376.85,789.5l-19.19-11.08c-1.47-.88-1.35-2.44,.44-3.47l19-10.97c.91-.51,1.93-.8,2.98-.84,1.05-.04,2.09,.16,3.04,.59l19.19,11.07c1.54,.9,1.34,2.43-.44,3.47l-19.01,10.98c-.91,.5-1.93,.79-2.97,.83-1.04,.04-2.08-.16-3.03-.59Z"/>
      <path class="cls-3" d="M406.46,806.59l-19.19-11.07c-1.47-.9-1.34-2.46,.44-3.48l19.07-10.97c.91-.51,1.93-.8,2.97-.84,1.04-.04,2.08,.16,3.03,.59l19.19,11.07c1.54,.9,1.35,2.45-.44,3.48l-19,10.97c-.92,.52-1.95,.81-3.01,.85-1.06,.04-2.11-.16-3.07-.61Z"/>
      <path class="cls-3" d="M436.14,823.71l-19.24-11.09c-1.47-.9-1.34-2.46,.44-3.48l19.01-10.97c.91-.51,1.93-.8,2.97-.84,1.04-.05,2.08,.16,3.03,.59l19.19,11.07c1.54,.9,1.35,2.45-.44,3.48l-19,10.97c-.9,.5-1.91,.79-2.95,.84-1.03,.05-2.07-.15-3.01-.56Z"/>
      <path class="cls-3" d="M465.71,840.81l-19.17-11.07c-1.54-.9-1.35-2.43,.43-3.47l19.01-10.97c.91-.52,1.93-.8,2.97-.85,1.04-.04,2.08,.16,3.03,.59l19.19,11.09c1.47,.88,1.35,2.43-.43,3.47l-19.01,10.9c-.91,.52-1.93,.82-2.97,.87-1.05,.06-2.09-.13-3.05-.56Z"/>
      <path class="cls-3" d="M495.35,857.94l-19.19-11.09c-1.54-.88-1.35-2.43,.43-3.46l19.01-10.98c.91-.51,1.93-.8,2.97-.84,1.04-.04,2.08,.16,3.03,.59l19.19,11.09c1.47,.88,1.35,2.43-.43,3.47l-19.01,10.97c-.91,.51-1.93,.8-2.97,.84-1.04,.04-2.08-.16-3.03-.59Z"/>
      <path class="cls-3" d="M524.97,875.01l-19.19-11.04c-1.54-.88-1.35-2.43,.43-3.47l19.01-10.98c.91-.5,1.93-.79,2.97-.83,1.04-.04,2.08,.16,3.03,.59l19.19,11.08c1.54,.88,1.35,2.44-.43,3.47l-19.01,10.98c-.92,.5-1.94,.78-2.98,.82-1.04,.04-2.08-.18-3.03-.61Z"/>
      <path class="cls-3" d="M554.59,892.14l-19.19-11.08c-1.54-.88-1.35-2.44,.43-3.47l19.01-10.97c.91-.51,1.93-.8,2.98-.84,1.05-.04,2.09,.16,3.04,.59l19.14,11.07c1.54,.9,1.35,2.43-.43,3.47l-19.08,10.98c-.9,.49-1.9,.77-2.92,.81-1.02,.05-2.04-.15-2.98-.56Z"/>
      <path class="cls-3" d="M584.22,909.23l-19.19-11.07c-1.54-.9-1.35-2.46,.43-3.48l19.08-10.97c.92-.51,1.93-.8,2.99-.84,1.04-.04,2.08,.16,3.03,.59l19.19,11.07c1.47,.9,1.33,2.45-.44,3.48l-19.08,10.97c-.91,.51-1.93,.8-2.97,.84-1.04,.04-2.08-.16-3.03-.59Z"/>
      <path class="cls-3" d="M613.85,926.32l-19.15-11.07c-1.54-.9-1.35-2.46,.44-3.48l19-10.97c.91-.51,1.93-.8,2.98-.84,1.04-.05,2.09,.16,3.04,.59l19.18,11.07c1.55,.9,1.34,2.45-.44,3.48l-19.08,10.97c-.9,.5-1.92,.78-2.95,.83-1.04,.04-2.07-.16-3.01-.58Z"/>
      <path class="cls-3" d="M643.47,943.44l-19.19-11.07c-1.47-.9-1.33-2.43,.44-3.47l19.01-10.97c.91-.52,1.93-.8,2.97-.85,1.04-.04,2.08,.16,3.03,.59l19.19,11.09c1.47,.88,1.35,2.43-.44,3.47l-18.99,11.04c-.92,.49-1.95,.77-2.99,.8-1.04,.03-2.08-.18-3.03-.63Z"/>
      <path class="cls-3" d="M420.5,781.4l-19.19-11.07c-1.47-.9-1.35-2.45,.43-3.48l19.01-10.96c.91-.52,1.93-.8,2.97-.85,1.04-.04,2.08,.16,3.03,.59l19.19,11.07c1.54,.89,1.35,2.45-.43,3.48l-19.01,10.96c-.91,.52-1.93,.8-2.97,.85-1.04,.04-2.08-.16-3.03-.59Z"/>
      <path class="cls-3" d="M390.43,764.04l-19.17-11.08c-1.54-.88-1.35-2.44,.43-3.47l18.97-10.98c.91-.51,1.93-.79,2.97-.84,1.04-.04,2.08,.16,3.03,.59l19.19,11.08c1.54,.88,1.35,2.43-.43,3.47l-18.89,10.98c-.92,.52-1.96,.81-3.02,.85-1.06,.04-2.11-.16-3.08-.61Z"/>
      <path class="cls-3" d="M360.31,746.65l-41.32-23.85c-1.54-.88-1.35-2.43,.44-3.47l19-10.95c.91-.5,1.93-.79,2.98-.83,1.04-.04,2.09,.16,3.04,.59l41.31,23.85c1.54,.9,1.35,2.45-.43,3.48l-19.01,10.97c-.91,.5-1.93,.79-2.98,.83-1.04,.04-2.08-.17-3.03-.61Z"/>
      <path class="cls-3" d="M381.36,725.5l-33.53-19.36c-1.47-.9-1.35-2.43,.43-3.47l19.01-10.98c.91-.51,1.93-.79,2.97-.83,1.04-.04,2.08,.16,3.03,.59l33.51,19.36c1.54,.88,1.35,2.44-.43,3.47l-19.08,10.98c-.9,.49-1.9,.77-2.93,.81-1.03,.05-2.05-.15-2.99-.56Z"/>
      <path class="cls-3" d="M450.13,798.5l-19.19-11.07c-1.54-.9-1.35-2.43,.43-3.47l19.01-10.99c.91-.52,1.93-.8,2.98-.85,1.05-.04,2.09,.16,3.04,.59l19.17,11.09c1.47,.88,1.35,2.43-.43,3.46l-19.01,10.97c-.91,.52-1.93,.8-2.97,.85-1.04,.04-2.08-.16-3.03-.59Z"/>
      <path class="cls-3" d="M479.75,815.62l-19.19-11.09c-1.54-.88-1.35-2.43,.43-3.47l19.01-10.97c.91-.51,1.94-.8,2.98-.84,1.05-.04,2.09,.16,3.04,.59l19.13,11.02c1.54,.88,1.35,2.44-.43,3.47l-19.01,10.98c-.9,.51-1.91,.8-2.94,.85-1.03,.06-2.07-.13-3.02-.54Z"/>
      <path class="cls-3" d="M509.37,832.71l-19.19-11.09c-1.54-.88-1.35-2.43,.44-3.47l19-10.98c.91-.5,1.94-.79,2.98-.83,1.04-.04,2.09,.16,3.04,.59l19.19,11.09c1.47,.88,1.34,2.43-.44,3.46l-18.97,10.98c-.92,.52-1.94,.8-2.99,.85-1.05,.04-2.1-.16-3.05-.59Z"/>
      <path class="cls-3" d="M539,849.83l-19.17-11.09c-1.54-.88-1.34-2.43,.44-3.47l19-10.92c.91-.51,1.93-.8,2.97-.84,1.04-.05,2.08,.16,3.03,.59l19.19,11.07c1.54,.9,1.34,2.43-.44,3.47l-19,10.97c-.92,.51-1.94,.79-2.98,.83-1.05,.04-2.08-.18-3.03-.61Z"/>
      <path class="cls-3" d="M568.62,866.91l-19.19-11.07c-1.47-.9-1.34-2.46,.44-3.48l19.01-10.97c.91-.51,1.93-.8,2.97-.84,1.04-.05,2.08,.16,3.03,.59l19.18,11.09c1.54,.9,1.35,2.45-.44,3.48l-19,10.97c-.91,.51-1.93,.79-2.98,.83s-2.09-.16-3.04-.6Z"/>
      <path class="cls-3" d="M598.24,884.03l-19.18-11.07c-1.54-.9-1.35-2.45,.43-3.48l19.08-10.96c.91-.52,1.93-.8,2.97-.85,1.04-.04,2.08,.16,3.03,.59l19.19,11.07c1.47,.89,1.35,2.45-.42,3.48l-19.08,10.96c-.92,.52-1.93,.8-2.99,.85-1.04,.04-2.08-.16-3.03-.59Z"/>
      <path class="cls-3" d="M627.87,901.13l-19.18-11.07c-1.55-.9-1.36-2.43,.42-3.47l19.01-10.98c.92-.51,1.93-.8,2.98-.84,1.04-.04,2.08,.16,3.03,.59l19.19,11.09c1.47,.88,1.35,2.43-.43,3.46l-19.01,10.97c-.91,.51-1.93,.8-2.97,.84-1.04,.05-2.08-.16-3.03-.59Z"/>
      <path class="cls-3" d="M657.49,918.3l-19.18-11.08c-1.55-.88-1.36-2.43,.42-3.47l19.08-10.98c.91-.5,1.93-.79,2.97-.83,1.04-.04,2.08,.16,3.03,.59l19.11,11.09c1.47,.88,1.35,2.44-.42,3.47l-19.08,10.98c-.9,.49-1.91,.77-2.94,.81-1.02,.04-2.05-.16-2.99-.58Z"/>
      <path class="cls-3" d="M687.17,935.35l-19.18-11.09c-1.47-.88-1.36-2.43,.42-3.47l19.01-10.98c.91-.5,1.93-.79,2.98-.83,1.04-.04,2.08,.16,3.03,.59l19.18,11.08c1.54,.88,1.35,2.44-.43,3.47l-19.08,10.98c-.9,.49-1.91,.78-2.94,.82-1.02,.04-2.05-.15-2.99-.56Z"/>
      <path class="cls-3" d="M739.79,965.74l-41.86-24.16c-1.54-.9-1.35-2.44,.44-3.47l19-11.01c.91-.51,1.93-.8,2.98-.84,1.04-.04,2.09,.16,3.04,.59l41.85,24.16c1.54,.9,1.35,2.45-.43,3.48l-19.01,10.97c-.91,.52-1.93,.8-2.97,.85-1.04,.05-2.08-.15-3.03-.58Z"/>
      <path class="cls-3" d="M797.46,932.45l-35.33-20.4c-1.55-.88-1.36-2.44,.42-3.47l19.01-10.98c.91-.51,1.93-.79,2.98-.84,1.04-.04,2.08,.16,3.03,.59l35.32,20.4c1.47,.88,1.35,2.43-.42,3.47l-19.01,10.98c-.91,.5-1.93,.79-2.97,.83-1.04,.04-2.08-.16-3.03-.59Z"/>
      <path class="cls-3" d="M502.01,795.15l-19.19-11.07c-1.54-.9-1.35-2.44,.43-3.47l18.97-10.98c.91-.51,1.93-.8,2.98-.84,1.05-.05,2.09,.16,3.04,.59l19.19,11.08c1.47,.88,1.34,2.43-.44,3.47l-18.89,11.05c-.93,.51-1.96,.78-3.02,.81-1.06,.03-2.1-.2-3.06-.65Z"/>
      <path class="cls-3" d="M471.64,777.62l-19.19-11.07c-1.54-.9-1.35-2.45,.43-3.48l19.08-10.97c.91-.51,1.93-.8,2.97-.84,1.04-.04,2.08,.16,3.03,.59l19.19,11.07c1.54,.9,1.35,2.46-.43,3.48l-19.08,10.97c-.91,.51-1.93,.8-2.97,.84-1.04,.05-2.08-.16-3.03-.59Z"/>
      <path class="cls-3" d="M441.27,760.08l-19.19-11.07c-1.47-.9-1.34-2.46,.44-3.48l19.01-10.97c.91-.51,1.93-.8,2.97-.84,1.04-.04,2.08,.16,3.03,.59l19.19,11.07c1.54,.9,1.35,2.45-.44,3.48l-19,10.97c-.91,.51-1.93,.8-2.98,.84-1.05,.04-2.09-.16-3.04-.59Z"/>
      <path class="cls-3" d="M410.92,742.58l-19.19-11.07c-1.54-.89-1.35-2.45,.43-3.48l19.08-10.96c.91-.52,1.93-.8,2.98-.85,1.05-.04,2.09,.16,3.04,.59l19.19,11.07c1.47,.9,1.34,2.43-.44,3.47l-19.08,10.97c-.91,.52-1.93,.8-2.97,.85-1.04,.04-2.08-.16-3.03-.59Z"/>
      <path class="cls-3" d="M531.57,812.25l-19.08-11.08c-1.54-.88-1.35-2.44,.44-3.47l19-10.98c.91-.51,1.94-.79,2.98-.83,1.05-.05,2.09,.16,3.04,.59l19.19,11.08c1.54,.88,1.34,2.43-.44,3.47l-19.01,10.98c-.93,.52-1.96,.82-3.02,.86-1.06,.04-2.12-.17-3.08-.61Z"/>
      <path class="cls-3" d="M561.24,829.36l-19.19-11.08c-1.47-.88-1.34-2.43,.44-3.47l19.01-11.02c.91-.51,1.93-.79,2.97-.84,1.04-.04,2.08,.16,3.03,.59l19.18,11.08c1.55,.9,1.35,2.43-.44,3.47l-19,10.98c-.91,.52-1.93,.8-2.97,.85-1.05,.06-2.09-.14-3.04-.56Z"/>
      <path class="cls-3" d="M590.87,846.48l-19.18-11.08c-1.47-.88-1.35-2.43,.42-3.47l19.01-10.97c.91-.51,1.93-.8,2.97-.84,1.04-.04,2.08,.16,3.03,.59l19.18,11.07c1.47,.9,1.36,2.44-.42,3.47l-19.08,10.98c-.9,.5-1.91,.78-2.94,.83-1.03,.04-2.06-.16-3-.58Z"/>
      <path class="cls-3" d="M620.49,863.57l-19.18-11.07c-1.47-.9-1.35-2.45,.43-3.48l19.01-10.97c.91-.51,1.93-.8,2.97-.84,1.04-.04,2.08,.16,3.03,.59l19.18,11.07c1.55,.9,1.36,2.46-.42,3.48l-19.08,10.97c-.9,.49-1.91,.78-2.94,.83-1.03,.04-2.06-.16-3-.58Z"/>
      <path class="cls-3" d="M650.13,880.67l-19.18-11.07c-1.55-.9-1.36-2.46,.42-3.48l19.08-10.97c.91-.51,1.93-.8,2.97-.84,1.04-.04,2.08,.16,3.03,.59l19.18,11.07c1.47,.9,1.36,2.45-.42,3.48l-19.01,10.97c-.92,.52-1.95,.81-3.01,.86-1.06,.04-2.11-.17-3.07-.61Z"/>
      <path class="cls-3" d="M679.82,897.75l-19.18-11.07c-1.47-.9-1.36-2.43,.42-3.47l19.08-10.98c.92-.51,1.93-.79,2.98-.83,1.04-.04,2.09,.16,3.04,.59l19.02,11.08c1.55,.88,1.36,2.44-.42,3.47l-19.08,10.98c-.9,.48-1.88,.76-2.9,.79-1.02,.04-2.03-.15-2.96-.56Z"/>
      <path class="cls-3" d="M709.38,914.89l-19.19-11.08c-1.47-.88-1.35-2.44,.42-3.47l19.01-10.98c.92-.51,1.93-.79,2.98-.84,1.04-.04,2.09,.16,3.04,.59l19.17,11.08c1.47,.88,1.35,2.43-.42,3.47l-19.01,10.98c-.91,.51-1.93,.79-2.97,.83-1.04,.04-2.08-.16-3.03-.59Z"/>
      <path class="cls-3" d="M739,931.98l-19.19-11.08c-1.47-.88-1.35-2.44,.44-3.47l18.99-10.98c.92-.51,1.93-.8,2.98-.84,1.04-.04,2.09,.16,3.04,.59l19.18,11.08c1.55,.9,1.34,2.43-.44,3.47l-19.08,10.98c-.9,.49-1.91,.77-2.94,.82-1.03,.04-2.05-.16-2.99-.57Z"/>
      <path class="cls-3" d="M768.62,949.12l-19.18-11.07c-1.47-.9-1.34-2.45,.44-3.48l19.01-10.97c.91-.51,1.93-.8,2.97-.84,1.04-.04,2.08,.16,3.03,.59l19.19,11.08c1.47,.9,1.35,2.44-.44,3.47l-19.01,10.98c-.91,.51-1.93,.79-2.97,.83-1.04,.04-2.08-.16-3.03-.6Z"/>
      <path class="cls-3" d="M486.4,752.87l-19.19-11.08c-1.54-.9-1.34-2.44,.44-3.47l19.08-10.98c.91-.51,1.93-.79,2.97-.84,1.04-.04,2.08,.16,3.03,.59l19.19,11.08c1.54,.88,1.35,2.43-.44,3.47l-19,10.98c-.93,.52-1.96,.8-3.02,.85-1.06,.04-2.11-.16-3.08-.6Z"/>
      <path class="cls-3" d="M456.93,735.83l-19.19-11.07c-1.54-.9-1.34-2.45,.44-3.48l19.01-10.96c.91-.52,1.93-.8,2.97-.85,1.04-.04,2.08,.16,3.03,.59l19.19,11.07c1.54,.89,1.35,2.45-.44,3.48l-19,10.96c-.91,.52-1.93,.8-2.98,.85-1.05,.04-2.09-.16-3.04-.59Z"/>
      <path class="cls-3" d="M427.45,718.83l-19.19-11.09c-1.54-.88-1.35-2.43,.44-3.46l19-10.98c.92-.51,1.94-.8,2.98-.84,1.04-.04,2.08,.16,3.04,.59l19.19,11.09c1.47,.88,1.34,2.43-.44,3.47l-19.01,10.98c-.91,.5-1.93,.79-2.97,.83-1.04,.04-2.08-.16-3.03-.59Z"/>
      <path class="cls-3" d="M397.98,701.79l-19.2-11.02c-1.54-.9-1.35-2.45,.44-3.47l19-10.98c.91-.51,1.93-.8,2.98-.84,1.05-.04,2.09,.16,3.04,.59l19.19,11.07c1.54,.9,1.34,2.46-.44,3.48l-19.01,10.97c-.91,.5-1.93,.78-2.97,.82-1.04,.04-2.07-.18-3.02-.61Z"/>
      <path class="cls-3" d="M428.28,684.29l-19.19-11.07c-1.54-.9-1.35-2.45,.43-3.48l6.3-3.63c.91-.51,1.93-.79,2.97-.83,1.04-.04,2.08,.16,3.03,.59l19.19,11.08c1.54,.88,1.34,2.43-.44,3.47l-6.28,3.63c-.91,.51-1.93,.8-2.97,.84-1.04,.04-2.08-.16-3.03-.59Z"/>
      <path class="cls-3" d="M466.75,706.51l-19.17-11.07c-1.47-.9-1.35-2.45,.43-3.48l6.28-3.62c.91-.51,1.93-.8,2.97-.84,1.04-.04,2.08,.16,3.03,.59l19.19,11.09c1.54,.88,1.35,2.43-.43,3.47l-6.28,3.62c-.91,.52-1.93,.8-2.98,.85-1.05,.04-2.09-.16-3.04-.59Z"/>
      <path class="cls-3" d="M496.1,723.47l-19.19-11.09c-1.47-.88-1.34-2.43,.44-3.47l6.28-3.62c.91-.52,1.93-.8,2.97-.85,1.04-.04,2.08,.16,3.03,.59l19.19,11.07c1.54,.9,1.35,2.45-.43,3.48l-6.28,3.62c-.91,.51-1.94,.8-2.98,.84-1.05,.04-2.09-.16-3.04-.59Z"/>
      <path class="cls-3" d="M525.47,740.39l-19.19-11.07c-1.47-.9-1.35-2.45,.43-3.48l6.3-3.63c.91-.5,1.93-.79,2.97-.83,1.04-.04,2.08,.16,3.03,.59l19.19,11.08c1.54,.88,1.34,2.44-.44,3.47l-6.28,3.63c-.91,.51-1.93,.8-2.97,.84-1.04,.04-2.08-.16-3.03-.59Z"/>
      <path class="cls-3" d="M554.81,757.35l-19.19-11.09c-1.47-.88-1.35-2.43,.43-3.47l6.28-3.63c.91-.51,1.93-.8,2.98-.84,1.05-.04,2.09,.16,3.04,.59l19.17,11.07c1.54,.9,1.35,2.46-.43,3.48l-6.28,3.63c-.91,.51-1.93,.8-2.97,.84-1.04,.04-2.08-.16-3.03-.59Z"/>
      <path class="cls-3" d="M718.69,851.95l-19.19-11.07c-1.47-.9-1.35-2.43,.43-3.47l6.28-3.64c.92-.5,1.93-.78,2.98-.83,1.04-.04,2.09,.16,3.04,.59l19.18,11.08c1.55,.9,1.34,2.44-.44,3.47l-6.28,3.63c-.91,.51-1.93,.8-2.97,.84-1.04,.04-2.08-.16-3.03-.59Z"/>
      <path class="cls-3" d="M748.05,868.92l-19.18-11.09c-1.47-.88-1.36-2.43,.42-3.46l6.31-3.6c.91-.51,1.93-.8,2.97-.84,1.04-.04,2.08,.16,3.03,.59l19.19,11.08c1.54,.88,1.35,2.43-.43,3.47l-6.28,3.63c-.92,.51-1.94,.79-2.99,.83-1.04,.04-2.09-.18-3.04-.61Z"/>
      <path class="cls-3" d="M777.4,885.87l-19.18-11.08c-1.47-.9-1.33-2.43,.44-3.47l6.28-3.63c.92-.51,1.93-.8,2.98-.84,1.04-.04,2.08,.16,3.03,.59l19.19,11.07c1.54,.9,1.35,2.44-.43,3.47l-6.28,3.64c-.91,.51-1.93,.79-2.98,.84-1.04,.04-2.09-.16-3.04-.59Z"/>
      <path class="cls-3" d="M806.75,902.82l-19.18-11.07c-1.47-.9-1.35-2.46,.44-3.48l6.28-3.63c.92-.51,1.93-.79,2.98-.83,1.04-.05,2.07,.16,3.03,.59l19.19,11.08c1.54,.88,1.35,2.43-.44,3.47l-6.28,3.63c-.91,.51-1.93,.8-2.97,.84-1.04,.04-2.08-.16-3.03-.59Z"/>
      <path class="cls-3" d="M516.01,770.05l-19.17-11.09c-1.54-.88-1.35-2.43,.43-3.47l19.01-10.97c.91-.51,1.93-.8,2.97-.84,1.04-.04,2.08,.16,3.03,.59l19.19,11.09c1.54,.88,1.35,2.43-.43,3.46l-19.01,10.98c-.91,.51-1.94,.8-2.98,.84-1.05,.04-2.09-.16-3.04-.59Z"/>
      <path class="cls-3" d="M545.65,787.06l-19.19-11.09c-1.47-.88-1.35-2.43,.43-3.46l19.01-10.98c.91-.51,1.93-.8,2.97-.84,1.04-.04,2.08,.16,3.03,.59l19.19,11.09c1.54,.9,1.35,2.43-.42,3.47l-19.01,10.97c-.91,.51-1.93,.8-2.97,.84-1.04,.04-2.08-.16-3.03-.59Z"/>
      <path class="cls-3" d="M575.28,804.16l-19.19-11.07c-1.47-.9-1.35-2.45,.43-3.48l19.08-10.97c.91-.51,1.93-.8,2.98-.84,1.04-.04,2.08,.16,3.03,.59l19.19,11.07c1.54,.9,1.35,2.46-.43,3.47l-19.01,10.98c-.92,.52-1.95,.82-3.01,.86-1.05,.04-2.1-.17-3.06-.61Z"/>
      <path class="cls-3" d="M604.96,821.26l-19.19-11.07c-1.54-.9-1.35-2.46,.43-3.48l19.01-10.97c.92-.51,1.93-.8,2.99-.84,1.04-.04,2.08,.16,3.03,.59l19.18,11.07c1.54,.9,1.35,2.45-.43,3.48l-19.01,10.97c-.91,.51-1.93,.8-2.97,.84-1.04,.04-2.08-.16-3.03-.59Z"/>
      <path class="cls-3" d="M634.52,838.37l-19.18-11.08c-1.54-.9-1.35-2.46,.42-3.48l19.01-10.97c.91-.51,1.93-.8,2.98-.84,1.04-.04,2.09,.16,3.04,.59l19.18,11.07c1.47,.9,1.33,2.45-.44,3.48l-19.01,10.97c-.91,.51-1.93,.8-2.97,.85-1.04,.04-2.08-.16-3.03-.59Z"/>
      <path class="cls-3" d="M664.14,855.48l-19.18-11.08c-1.47-.9-1.36-2.44,.44-3.47l19-10.98c.91-.51,1.93-.79,2.98-.83,1.04-.05,2.08,.16,3.03,.59l19.19,11.08c1.54,.88,1.33,2.43-.44,3.47l-19.08,10.98c-.9,.49-1.91,.78-2.94,.82-1.03,.04-2.05-.16-3-.57Z"/>
      <path class="cls-3" d="M693.78,872.57l-19.19-11.08c-1.47-.88-1.33-2.44,.44-3.47l19.01-10.98c.91-.51,1.93-.79,2.97-.84,1.04-.04,2.08,.16,3.03,.59l19.18,11.08c1.47,.88,1.35,2.43-.44,3.47l-18.99,10.98c-.92,.5-1.94,.79-2.99,.83-1.04,.04-2.08-.16-3.03-.59Z"/>
      <path class="cls-3" d="M723.4,889.68l-19.19-11.02c-1.47-.88-1.33-2.43,.44-3.47l19.08-10.98c.91-.5,1.93-.78,2.97-.83,1.04-.04,2.08,.16,3.03,.59l19.08,11.01c1.54,.9,1.35,2.43-.43,3.47l-19.08,10.98c-.9,.49-1.9,.77-2.93,.81-1.02,.04-2.05-.15-2.99-.56Z"/>
      <path class="cls-3" d="M753.01,906.8l-19.17-11.07c-1.47-.9-1.36-2.45,.42-3.48l18.95-10.97c.91-.51,1.93-.8,2.97-.84,1.04-.04,2.08,.16,3.03,.59l19.19,11.07c1.47,.9,1.35,2.46-.43,3.47l-18.89,11c-.92,.52-1.95,.81-3.01,.85-1.06,.04-2.11-.17-3.07-.61Z"/>
      <path class="cls-3" d="M346.61,772.07l-56.49-32.63c-1.54-.88-1.35-2.43,.43-3.47l19.08-10.96c.91-.52,1.93-.8,2.97-.85,1.04-.04,2.08,.16,3.03,.59l56.5,32.62c1.54,.88,1.35,2.43-.43,3.47l-19.01,10.98c-.92,.52-1.96,.81-3.02,.85-1.06,.04-2.11-.16-3.08-.61Z"/>
      <path class="cls-3" d="M710.66,982.2l-56.5-32.62c-1.54-.9-1.35-2.46,.42-3.47l19.08-10.98c.91-.51,1.93-.8,2.97-.84,1.04-.04,2.08,.16,3.03,.59l56.5,32.62c1.54,.89,1.35,2.43-.42,3.46l-19.08,10.98c-.92,.51-1.93,.8-2.98,.84-1.04,.04-2.07-.16-3.03-.59Z"/>
      <path class="cls-3" d="M592.13,951.58l-19.19-11.09c-1.54-.88-1.35-2.43,.42-3.47l22.65-13.06c.91-.51,1.93-.8,2.97-.84,1.04-.04,2.08,.16,3.03,.59l19.18,11.07c1.47,.9,1.35,2.43-.42,3.47l-22.65,13.08c-.91,.51-1.93,.8-2.97,.84-1.04,.05-2.08-.16-3.03-.59Z"/>
      <path class="cls-3" d="M376.98,827.36l-30.68-17.69c-1.54-.9-1.35-2.45,.44-3.48l22.64-13.06c.91-.51,1.93-.8,2.97-.84,1.04-.04,2.08,.16,3.03,.59l30.68,17.71c1.54,.88,1.35,2.43-.43,3.47l-22.65,13.08c-.91,.5-1.93,.78-2.98,.83-1.04,.04-2.08-.17-3.03-.6Z"/>
      <path class="cls-3" d="M563.57,935.08l-30.68-17.7c-1.54-.9-1.34-2.45,.44-3.48l22.64-13.06c.91-.52,1.93-.8,2.98-.85,1.05-.04,2.09,.16,3.04,.59l30.68,17.71c1.55,.9,1.33,2.45-.44,3.48l-22.64,13.06c-.91,.51-1.93,.8-2.98,.84-1.05,.04-2.09-.16-3.04-.59Z"/>
      <path class="cls-3" d="M419.73,852.06l-30.68-17.72c-1.54-.9-1.35-2.43,.43-3.47l22.65-13.08c.91-.51,1.93-.8,2.97-.84,1.04-.04,2.08,.16,3.03,.59l30.68,17.71c1.54,.88,1.35,2.44-.43,3.47l-22.65,13.08c-.91,.51-1.93,.8-2.97,.84-1.04,.04-2.08-.16-3.03-.59Z"/>
      <path class="cls-3" d="M418.34,817.64l133.39,77c.36,.13,.67,.36,.89,.67,.22,.31,.34,.68,.34,1.07s-.12,.75-.34,1.06c-.22,.31-.53,.54-.89,.67l-23.11,13.33c-.93,.47-1.95,.71-2.99,.71s-2.07-.24-2.99-.71l-133.39-77.01,29.09-16.79Z"/>
      <path class="cls-3" d="M674.93,982.61l21.37,12.34c1.26,.73,1.1,1.99-.35,2.84l-9.27,5.34c-.75,.42-1.59,.66-2.44,.69-.85,.04-1.71-.13-2.49-.49l-21.36-12.34c-1.26-.72-1.12-2,.35-2.83l9.26-5.36c.75-.41,1.58-.64,2.43-.68,.85-.04,1.71,.13,2.48,.49Z"/>
      <path class="cls-3" d="M645.05,965.34l21.37,12.33c1.26,.73,1.1,2.01-.35,2.85l-9.26,5.29c-.75,.42-1.59,.66-2.44,.7-.86,.04-1.71-.13-2.49-.49l-21.36-12.34c-1.26-.73-1.12-2.01,.35-2.84l9.27-5.34c.75-.42,1.58-.64,2.43-.67,.86-.03,1.71,.14,2.48,.51Z"/>
      <path class="cls-3" d="M615.43,948.26l21.38,12.33c1.26,.73,1.1,2-.35,2.85l-9.27,5.34c-.75,.42-1.58,.66-2.44,.69-.85,.04-1.71-.13-2.49-.49l-21.36-12.34c-1.26-.72-1.12-2,.35-2.84l9.26-5.36c.75-.41,1.59-.65,2.44-.68,.85-.04,1.7,.13,2.48,.49Z"/>
      <path class="cls-3" d="M661.41,955.9l21.35,12.32c1.26,.72,1.12,2-.35,2.84l-9.27,5.36c-.75,.41-1.58,.64-2.43,.68-.85,.04-1.7-.13-2.48-.48l-21.38-12.34c-1.26-.72-1.1-2,.35-2.84l9.27-5.36c.75-.41,1.59-.64,2.45-.67,.86-.04,1.71,.13,2.49,.49Z"/>
      <path class="cls-17" d="M974.88,921.23L408.98,594.52c-8.9-5.14-13.55-17.62-10.38-27.96l127.99-415.56c3.17-10.28,12.96-14.5,21.86-9.37l565.98,326.76c8.9,5.14,13.54,17.62,10.37,27.97l-127.99,415.57c-3.17,10.3-12.94,14.49-21.91,9.29Z"/>
      <path class="cls-10" d="M969.62,906.74L420.65,589.48c-8.51-4.92-12.96-16.9-9.92-26.76l122.31-397.23c3.02-9.86,12.39-13.87,20.92-8.95l549.01,317.21c8.51,4.92,12.96,16.9,9.92,26.76l-122.35,397.24c-3.03,9.91-12.41,13.92-20.92,9Z"/>
      <path class="cls-8" d="M969.62,906.74L420.65,589.48c-8.51-4.92-12.96-16.9-9.92-26.76l122.31-397.23c3.02-9.86,12.39-13.87,20.92-8.95l549.01,317.21c8.51,4.92,12.96,16.9,9.92,26.76l-122.35,397.24c-3.03,9.91-12.41,13.92-20.92,9Z"/>
      <path d="M969.62,906.74L420.65,589.48c-8.51-4.92-12.96-16.9-9.92-26.76l122.31-397.23c3.02-9.86,12.39-13.87,20.92-8.95l549.01,317.21c8.51,4.92,12.96,16.9,9.92,26.76l-122.35,397.24c-3.03,9.91-12.41,13.92-20.92,9Z"/>
      <path class="cls-3" d="M421.23,1014.74c-4.79,.12-9.54-1-13.78-3.23l-148.91-85.97c-3.95-2.27-6.12-5.53-6.12-9.17,0-4.21,2.94-8.36,8.21-11.38l76.64-44.24c9.37-5.4,23.11-5.87,31.31-1.2l148.91,85.95c3.95,2.27,6.12,5.53,6.12,9.17,0,4.23-2.94,8.37-8.21,11.38l-76.64,44.26c-5.37,2.95-11.4,4.47-17.53,4.43Zm-66.34-154.13c-5.39-.06-10.7,1.26-15.44,3.82l-76.64,44.24c-3.86,2.22-6.06,5.02-6.06,7.65s2.16,4.4,3.96,5.46l148.89,86.07c6.75,3.89,19.08,3.35,27-1.22l76.64-44.29c3.86-2.23,6.06-5.02,6.06-7.66s-2.16-4.4-3.96-5.45l-148.89-85.96c-3.57-1.83-7.54-2.72-11.55-2.6v-.06Z"/>
      <path class="cls-2" d="M1044.03,905.32l-159.03-86.83c-1.85-1.21-3.26-2.98-4.03-5.05-.76-2.07-.85-4.33-.23-6.45l52.61-170.85c1.31-4.23,5.33-5.96,8.98-3.85l159.02,86.86c1.86,1.21,3.27,2.97,4.04,5.04,.77,2.07,.85,4.33,.23,6.46l-52.63,170.83c-1.31,4.24-5.33,5.96-8.98,3.85Z"/>
      <path class="cls-9" d="M1101.35,719.14l-159.02-86.86c-1-.62-2.15-.92-3.31-.88-1.16,.04-2.29,.43-3.24,1.12,1.18-.05,2.34,.25,3.36,.85l159.04,86.85c1.86,1.2,3.27,2.97,4.04,5.05,.76,2.07,.84,4.34,.22,6.46l-52.63,170.84c-.4,1.44-1.26,2.71-2.43,3.63,1.32-.08,2.58-.58,3.59-1.43,1.01-.85,1.72-2,2.03-3.29l52.61-170.84c.61-2.12,.54-4.38-.23-6.45-.76-2.07-2.18-3.84-4.03-5.04Z"/>
      <path class="cls-2" d="M1133.24,630.47l-159.03-86.84c-1.85-1.2-3.27-2.97-4.03-5.04-.77-2.07-.85-4.33-.23-6.45l52.61-170.84c1.31-4.24,5.33-5.96,8.98-3.85l159.03,86.84c1.86,1.2,3.27,2.97,4.04,5.04,.77,2.07,.85,4.33,.23,6.45l-52.61,170.84c-1.33,4.24-5.35,5.96-9,3.85Z"/>
      <path class="cls-13" d="M1190.57,444.27l-159.03-86.84c-.99-.62-2.14-.93-3.3-.89-1.16,.04-2.29,.42-3.24,1.11,1.18-.03,2.34,.27,3.36,.87l159.03,86.84c1.85,1.2,3.26,2.97,4.03,5.04,.76,2.07,.85,4.33,.23,6.45l-52.61,170.78c-.4,1.44-1.26,2.71-2.43,3.63,1.31-.07,2.57-.56,3.59-1.4,1.01-.84,1.73-1.98,2.05-3.25l52.61-170.84c.62-2.12,.54-4.38-.23-6.45-.77-2.07-2.19-3.84-4.04-5.04Z"/>
      <path class="cls-2" d="M825.34,474.17L382.72,216.09c-2.12-1.39-3.75-3.42-4.63-5.8-.88-2.38-.99-4.98-.29-7.41L438.57,5.55c1.47-4.89,6.15-6.88,10.38-4.4l442.61,258.05c2.12,1.39,3.75,3.42,4.64,5.8,.88,2.38,.99,4.97,.3,7.41l-60.77,197.31c-1.51,4.89-6.17,6.88-10.38,4.45Z"/>
      <path class="cls-18" d="M891.57,259.19L448.95,1.05c-1.14-.73-2.47-1.09-3.82-1.05-1.35,.04-2.65,.5-3.74,1.3,1.36-.03,2.7,.31,3.88,1l442.62,258.06c2.12,1.39,3.74,3.42,4.63,5.8,.89,2.38,1,4.97,.3,7.41l-60.77,197.32c-.22,.71-.52,1.4-.91,2.04-.09,.17-.13,.37-.1,.56,.03,.19,.12,.37,.26,.51,.13,.14,.32,.23,.51,.26,.2,.03,.4,0,.56-.1,1.64-1.04,2.84-2.65,3.36-4.52l60.78-197.25c.69-2.44,.59-5.04-.3-7.41-.89-2.38-2.51-4.41-4.63-5.8Z"/>
      <g class="cls-12">
        <path class="cls-3" d="M633.45,296.32l-65.56-37.39c-2.03-1.16-4.14-.56-4.73,1.34-.21,1.08-.06,2.2,.41,3.19,.47,.99,1.25,1.81,2.22,2.33l65.59,37.45c2.03,1.16,4.14,.56,4.73-1.34,.22-1.09,.08-2.23-.4-3.23-.48-1.01-1.27-1.83-2.26-2.35Z"/>
        <path class="cls-3" d="M816.57,400.74l-108.63-61.98c-2.04-1.14-4.15-.56-4.73,1.34-.2,1.08-.06,2.2,.41,3.19,.47,.99,1.25,1.81,2.22,2.33l108.63,61.98c2.04,1.16,4.15,.56,4.73-1.34,.2-1.08,.06-2.2-.42-3.19-.47-.99-1.25-1.81-2.22-2.33Z"/>
        <path class="cls-3" d="M686.26,326.41l-30.4-17.31c-2.04-1.14-4.15-.56-4.72,1.34-.21,1.08-.07,2.2,.4,3.19,.47,.99,1.26,1.81,2.22,2.33l30.47,17.32c2.04,1.14,4.16,.56,4.73-1.34,.2-1.09,.04-2.22-.44-3.21-.49-1-1.28-1.81-2.27-2.32Z"/>
        <path class="cls-3" d="M570.33,332.96l-21.32-12.11c-2.03-1.16-4.14-.56-4.71,1.34-.21,1.08-.07,2.2,.41,3.19,.47,.99,1.25,1.81,2.22,2.33l21.33,12.11c2.04,1.16,4.15,.56,4.73-1.34,.2-1.08,.06-2.2-.42-3.2-.47-.99-1.26-1.81-2.23-2.32Z"/>
        <path class="cls-3" d="M662.63,385.7l-75.22-42.82c-2.03-1.16-4.14-.56-4.73,1.34-.2,1.08-.06,2.2,.41,3.19,.47,.99,1.25,1.81,2.22,2.33l75.22,42.89c2.04,1.16,4.16,.56,4.73-1.34,.23-1.09,.09-2.22-.39-3.23-.47-1.01-1.26-1.84-2.24-2.36Z"/>
        <path class="cls-3" d="M703.69,409.01l-21.31-12.16c-2.03-1.16-4.14-.56-4.71,1.34-.2,1.08-.06,2.2,.41,3.19,.47,.99,1.25,1.81,2.22,2.33l21.3,12.15c2.04,1.16,4.15,.56,4.73-1.34,.2-1.08,.06-2.2-.42-3.19-.47-.99-1.25-1.81-2.22-2.33Z"/>
        <path class="cls-3" d="M795.98,461.77l-75.22-42.89c-2.03-1.16-4.14-.56-4.72,1.34-.21,1.08-.06,2.2,.41,3.19,.47,.99,1.25,1.81,2.22,2.33l75.22,42.89c2.04,1.16,4.15,.56,4.73-1.34,.2-1.08,.06-2.2-.41-3.19-.47-.99-1.26-1.81-2.22-2.33Z"/>
        <path class="cls-3" d="M654.42,417.22l-114.84-65.47c-2.03-1.16-4.14-.56-4.71,1.34-.21,1.08-.06,2.2,.41,3.19,.47,.99,1.25,1.81,2.22,2.33l114.82,65.47c2.04,1.16,4.15,.56,4.73-1.32,.2-1.08,.06-2.2-.41-3.2-.47-1-1.25-1.81-2.22-2.34Z"/>
        <path class="cls-3" d="M765.88,480.84l-86.28-49.21c-2.03-1.14-4.14-.56-4.71,1.34-.21,1.08-.07,2.2,.4,3.19,.47,.99,1.26,1.81,2.23,2.33l86.27,49.21c2.04,1.16,4.15,.56,4.73-1.34,.2-1.08,.06-2.2-.42-3.19-.47-.99-1.25-1.81-2.22-2.33Z"/>
        <path class="cls-3" d="M595.71,420.06l-65.62-37.37c-2.04-1.16-4.15-.57-4.73,1.32-.21,1.08-.06,2.2,.41,3.2,.47,1,1.25,1.81,2.22,2.34l65.57,37.37c2.03,1.16,4.14,.57,4.71-1.32,.21-1.08,.08-2.19-.38-3.19-.47-1-1.23-1.82-2.19-2.35Z"/>
        <path class="cls-3" d="M699.28,479.13l-81.12-46.3c-2.03-1.16-4.14-.56-4.71,1.34-.2,1.08-.06,2.2,.42,3.19,.47,.99,1.25,1.81,2.22,2.33l81.17,46.3c2.04,1.16,4.16,.56,4.73-1.34,.2-1.09,.05-2.21-.44-3.21-.49-.99-1.28-1.81-2.27-2.31Z"/>
        <path class="cls-3" d="M872.24,432.41l-30.41-17.34c-2.03-1.16-4.14-.56-4.71,1.34-.2,1.08-.06,2.2,.41,3.19,.47,.99,1.25,1.81,2.22,2.33l30.4,17.34c2.03,1.16,4.14,.56,4.73-1.34,.2-1.08,.06-2.2-.41-3.19-.47-.99-1.26-1.81-2.22-2.33Z"/>
        <path class="cls-3" d="M941.63,472.06l-46.66-26.6c-2.03-1.16-4.14-.56-4.71,1.34-.2,1.08-.06,2.2,.41,3.19,.47,.99,1.25,1.81,2.22,2.33l46.66,26.6c2.04,1.16,4.15,.57,4.72-1.32,.21-1.08,.07-2.2-.4-3.2-.47-1-1.25-1.81-2.22-2.34Z"/>
        <path class="cls-3" d="M866.62,465.58l121.92,69.58c.97,.52,1.75,1.34,2.22,2.33,.47,.99,.61,2.11,.41,3.19-.59,1.89-2.7,2.5-4.73,1.34l-121.84-69.52c-.97-.52-1.75-1.34-2.22-2.33-.47-.99-.61-2.11-.4-3.19,.49-1.95,2.61-2.55,4.64-1.39Z"/>
        <path class="cls-3" d="M828.41,481.9l121.84,69.52c.97,.52,1.75,1.34,2.22,2.33,.47,.99,.62,2.11,.42,3.19-.59,1.89-2.69,2.5-4.73,1.34l-121.84-69.52c-.97-.52-1.74-1.34-2.22-2.33-.47-.99-.62-2.11-.41-3.19,.57-1.89,2.68-2.5,4.72-1.34Z"/>
        <path class="cls-3" d="M626.16,328.46l108.63,61.98c.97,.52,1.75,1.33,2.22,2.33,.47,.99,.61,2.11,.4,3.19-.57,1.89-2.68,2.48-4.72,1.34l-108.63-61.98c-.97-.52-1.75-1.34-2.22-2.33-.47-.99-.61-2.11-.41-3.19,.59-1.89,2.7-2.5,4.73-1.34Z"/>
        <path class="cls-3" d="M813.83,435.47l30.4,17.34c.97,.52,1.75,1.34,2.22,2.34s.61,2.12,.4,3.2c-.57,1.89-2.69,2.48-4.71,1.32l-30.4-17.34c-.97-.52-1.76-1.33-2.23-2.32-.48-.99-.62-2.11-.42-3.19,.59-1.89,2.7-2.48,4.73-1.34Z"/>
        <path class="cls-3" d="M760.37,404.98l30.4,17.34c.97,.52,1.75,1.34,2.22,2.34,.47,1,.61,2.12,.41,3.2-.57,1.89-2.69,2.48-4.73,1.34l-30.4-17.34c-.97-.52-1.74-1.34-2.22-2.34-.47-1-.61-2.12-.41-3.2,.52-1.89,2.69-2.48,4.73-1.34Z"/>
        <path class="cls-3" d="M558.46,289.87l46.65,26.57c.97,.52,1.76,1.33,2.23,2.32,.47,.99,.62,2.11,.41,3.19-.59,1.89-2.7,2.5-4.72,1.34l-46.65-26.57c-.97-.52-1.75-1.34-2.23-2.33-.47-1-.61-2.12-.4-3.2,.57-1.89,2.69-2.48,4.71-1.32Z"/>
        <path class="cls-3" d="M586.27,451l-65.56-37.39c-2.03-1.16-4.14-.56-4.73,1.34-.21,1.08-.06,2.2,.41,3.19,.47,.99,1.25,1.81,2.22,2.33l65.58,37.39c2.03,1.16,4.14,.56,4.72-1.34,.21-1.08,.06-2.2-.41-3.19-.48-.99-1.26-1.81-2.23-2.32Z"/>
        <path class="cls-3" d="M769.38,555.42l-108.63-61.96c-2.05-1.16-4.16-.57-4.73,1.32-.21,1.08-.06,2.2,.41,3.2,.47,1,1.25,1.81,2.22,2.34l108.63,61.96c2.03,1.16,4.14,.56,4.73-1.34,.2-1.08,.06-2.2-.41-3.19-.47-.99-1.25-1.81-2.22-2.33Z"/>
        <path class="cls-3" d="M639.08,481.13l-30.4-17.34c-2.04-1.16-4.16-.56-4.73,1.34-.19,1.07-.04,2.18,.43,3.16,.47,.98,1.24,1.79,2.2,2.3l30.4,17.34c2.04,1.16,4.16,.56,4.73-1.34,.19-1.07,.04-2.18-.43-3.16-.47-.98-1.24-1.79-2.19-2.3Z"/>
        <path class="cls-3" d="M523.15,487.65l-21.31-12.16c-2.03-1.14-4.14-.56-4.71,1.34-.21,1.08-.07,2.2,.4,3.2,.47,1,1.25,1.81,2.23,2.33l21.3,12.14c2.04,1.16,4.15,.57,4.73-1.32,.21-1.08,.06-2.2-.41-3.2-.47-1-1.25-1.81-2.22-2.34Z"/>
        <path class="cls-3" d="M615.46,540.39l-75.22-42.88c-2.03-1.16-4.14-.57-4.73,1.32-.21,1.08-.06,2.2,.41,3.2,.47,1,1.25,1.81,2.22,2.34l75.22,42.88c2.04,1.16,4.15,.57,4.73-1.32,.2-1.08,.06-2.2-.41-3.2s-1.25-1.81-2.22-2.34Z"/>
        <path class="cls-3" d="M656.49,563.69l-21.31-12.15c-2.03-1.16-4.14-.56-4.71,1.34-.21,1.08-.07,2.2,.4,3.19,.47,.99,1.26,1.81,2.23,2.33l21.3,12.15c2.04,1.16,4.15,.56,4.73-1.34,.2-1.08,.06-2.2-.42-3.19-.47-.99-1.25-1.81-2.22-2.33Z"/>
        <path class="cls-3" d="M748.81,616.43l-75.22-42.89c-2.03-1.15-4.14-.56-4.73,1.34-.2,1.08-.06,2.2,.41,3.19,.47,.99,1.25,1.81,2.22,2.33l75.2,42.86c2.05,1.16,4.16,.56,4.73-1.34,.2-1.07,.06-2.18-.41-3.17-.47-.99-1.24-1.8-2.2-2.32Z"/>
        <path class="cls-3" d="M607.24,571.87l-114.84-65.48c-2.03-1.16-4.14-.56-4.71,1.34-.21,1.08-.07,2.2,.41,3.19,.47,.99,1.25,1.81,2.22,2.33l114.82,65.49c2.05,1.14,4.14,.56,4.73-1.34,.21-1.08,.07-2.2-.4-3.19-.47-.99-1.26-1.81-2.22-2.33Z"/>
        <path class="cls-3" d="M796.39,679.77l-163.98-93.49c-2.03-1.16-4.14-.57-4.73,1.32-.2,1.08-.06,2.2,.42,3.2,.47,1,1.26,1.81,2.22,2.33l164,93.51c2.03,1.14,4.14,.56,4.71-1.34,.2-1.08,.06-2.2-.41-3.2-.48-1-1.26-1.81-2.24-2.34Z"/>
        <path class="cls-3" d="M548.53,574.81l-65.56-37.42c-2.04-1.16-4.15-.56-4.73,1.34-.21,1.08-.06,2.2,.41,3.19,.47,.99,1.25,1.81,2.22,2.33l65.57,37.39c2.03,1.16,4.14,.56,4.71-1.34,.2-1.08,.06-2.19-.42-3.17-.47-.99-1.25-1.8-2.21-2.32Z"/>
        <path class="cls-3" d="M601.32,604.87l-30.4-17.34c-2.02-1.14-4.14-.56-4.71,1.34-.21,1.08-.07,2.2,.4,3.19,.47,.99,1.25,1.81,2.22,2.33l30.4,17.34c2.03,1.16,4.14,.57,4.72-1.32,.21-1.08,.06-2.2-.41-3.2-.48-1-1.26-1.81-2.23-2.33Z"/>
        <path class="cls-3" d="M825.06,587.15l-30.42-17.34c-2.03-1.16-4.14-.56-4.71,1.34-.21,1.08-.07,2.2,.4,3.19,.47,.99,1.25,1.81,2.22,2.33l30.4,17.34c2.03,1.16,4.14,.56,4.72-1.34,.21-1.08,.06-2.2-.41-3.19-.47-.99-1.25-1.81-2.22-2.33Z"/>
        <path class="cls-3" d="M826.3,515.04l-30.4-17.34c-2.03-1.16-4.14-.57-4.71,1.32-.2,1.08-.06,2.2,.41,3.2,.47,1,1.25,1.81,2.22,2.34l30.4,17.41c2.03,1.16,4.14,.56,4.73-1.34,.23-1.09,.09-2.23-.39-3.24-.47-1.01-1.26-1.84-2.25-2.36Z"/>
        <path class="cls-3" d="M894.45,626.73l-46.66-26.61c-2.03-1.16-4.14-.56-4.71,1.34-.21,1.08-.07,2.2,.4,3.19s1.26,1.81,2.22,2.33l46.66,26.61c2.04,1.16,4.14,.56,4.72-1.34,.21-1.08,.07-2.2-.4-3.19-.47-.99-1.25-1.81-2.22-2.33Z"/>
        <path class="cls-3" d="M819.44,620.31l121.84,69.52c.97,.52,1.76,1.33,2.23,2.33,.47,.99,.62,2.11,.42,3.19-.59,1.9-2.7,2.5-4.73,1.34l-121.84-69.52c-.97-.52-1.75-1.33-2.22-2.33-.47-.99-.61-2.11-.41-3.19,.58-1.92,2.69-2.51,4.71-1.34Z"/>
        <path class="cls-3" d="M578.98,483.18l108.63,61.96c.97,.52,1.74,1.34,2.22,2.33,.47,.99,.61,2.11,.41,3.19-.57,1.89-2.69,2.5-4.73,1.34l-108.63-61.96c-.97-.52-1.74-1.34-2.22-2.34-.47-1-.61-2.12-.41-3.2,.59-1.89,2.7-2.48,4.73-1.32Z"/>
        <path class="cls-3" d="M766.65,590.19l30.4,17.34c.97,.52,1.74,1.34,2.22,2.33s.62,2.11,.41,3.19c-.57,1.89-2.69,2.5-4.71,1.34l-30.41-17.34c-.97-.52-1.74-1.34-2.22-2.33-.47-.99-.62-2.11-.42-3.19,.59-1.89,2.7-2.5,4.73-1.34Z"/>
        <path class="cls-3" d="M713.18,559.7l30.42,17.34c.97,.52,1.74,1.34,2.22,2.33,.47,.99,.61,2.11,.41,3.19-.59,1.89-2.7,2.5-4.73,1.34l-30.4-17.34c-.97-.52-1.75-1.34-2.22-2.33-.47-.99-.61-2.11-.41-3.19,.57-1.89,2.69-2.5,4.71-1.34Z"/>
        <path class="cls-3" d="M511.27,444.57l46.71,26.6c.97,.52,1.75,1.33,2.23,2.32,.47,.99,.61,2.11,.4,3.19-.57,1.89-2.69,2.5-4.71,1.34l-46.71-26.53c-.97-.52-1.75-1.33-2.23-2.32-.48-.99-.62-2.11-.41-3.19,.59-1.97,2.7-2.57,4.73-1.41Z"/>
      </g>
      <g>
        <path d="M500.84,110.02l10.67,6.28-19.33,6.82,8.19,31.25-10.31-6.18-5.74-22.68-6.39,2.13-3.29,11.31-8.61-5.16,10.98-37.81,8.65,5.09-4.77,16.4,19.96-7.46Z"/>
        <path d="M517.29,165.51c-5.65-3.39-9.69-7.94-12.11-13.66-2.41-5.75-2.75-11.59-1.01-17.54,1.74-5.95,4.89-9.74,9.47-11.35,4.57-1.58,9.69-.71,15.37,2.64,5.69,3.35,9.78,7.9,12.24,13.65,2.46,5.79,2.8,11.7,1.03,17.69-1.77,6-4.97,9.78-9.59,11.36-4.6,1.54-9.74,.61-15.41-2.79Zm-3.88-15.34c1.14,3.2,3.2,5.69,6.19,7.47,2.96,1.76,5.67,2.13,8.15,1.08,2.44-1.03,4.21-3.44,5.33-7.24,1.12-3.8,1.08-7.3-.12-10.49-1.22-3.25-3.31-5.75-6.28-7.5-3-1.77-5.69-2.1-8.09-1.01-2.42,1.04-4.19,3.45-5.3,7.24-1.11,3.78-1.07,7.26,.11,10.44Z"/>
        <path d="M570.81,170.51l9.85-13.5,13.6,8.01-11.53,38.7-8.62-5.17,3.37-11.32c2.14-7.19,4.1-13.36,5.87-18.48-1.47,2.24-3.19,4.67-5.19,7.27l-12.86,17.26-7.34-4.39-.27-25.01c-.02-3.02,0-6.41,.08-10.18-1.61,6.16-3.35,12.38-5.21,18.68l-3.33,11.27-8.49-5.09,11.33-38.38,13.42,7.9,.1,19.52c-.02,2.75-.1,6.45-.23,11.13,1.87-2.92,3.68-5.66,5.45-8.22Z"/>
        <path d="M600.09,168.45l17.59,10.36c4.47,2.63,7.64,5.88,9.48,9.74,1.85,3.86,2.16,7.83,.95,11.88-1.22,4.05-3.46,6.5-6.71,7.34-3.25,.84-7.11-.08-11.57-2.73l-8.41-5.01-3.77,12.63-9.11-5.46,11.55-38.74Zm3.66,23.78l7.82,4.64c1.81,1.08,3.35,1.46,4.63,1.14,1.27-.32,2.16-1.33,2.68-3.05,.51-1.71,.4-3.33-.35-4.84-.75-1.51-2.01-2.8-3.79-3.85l-7.83-4.62-3.16,10.58Z"/>
        <path d="M653.92,206.76l5.03-3.66,10.35,6.1-21.9,15.3-4.59,15.21-9.3-5.57,4.57-15.19-7.49-32.55,10.5,6.18,1.71,7.68c.6,2.9,1.06,5.11,1.38,6.64,.13,.72,.29,1.58,.5,2.56,.2,.98,.37,1.77,.49,2.36,.12,.59,.23,1.09,.33,1.49,3.2-2.55,6.01-4.74,8.43-6.56Z"/>
        <path d="M676.55,260.97c-5.18-3.11-8.93-6.98-11.26-11.63-2.34-4.57-2.74-9.4-1.19-14.51l7.37-24.35,9.46,5.57-7.43,24.51c-.76,2.5-.66,4.82,.31,6.93,.96,2.12,2.7,3.93,5.2,5.42,2.5,1.5,4.65,2,6.44,1.52,1.79-.48,3.06-1.98,3.83-4.49l7.48-24.58,9.57,5.63-7.48,24.51c-1.55,5.07-4.29,8.06-8.24,8.98-3.94,.91-8.62-.26-14.04-3.5Z"/>
        <path d="M709.04,232.59l34.74,20.45-2.6,8.46-12.58-7.44-9.59,31.29-9.68-5.8,9.56-31.23-12.4-7.33,2.57-8.41Z"/>
        <path d="M779.06,273.81l-2.64,8.52-21.84-12.9-2.23,7.24,19.83,11.76-2.47,7.99-19.81-11.79-2.4,7.79,21.72,12.96-2.63,8.49-31.43-18.83,12.26-39.85,31.64,18.63Z"/>
        <path d="M808.57,327.12l-1.47,5.84c-.53,1.83-.58,3.53-.17,5.07l-10.3-6.17c-.28-1.51-.16-3.18,.37-5.01l1.23-4.63c.61-2.27,.57-4.12-.13-5.54-.7-1.42-2.11-2.77-4.24-4.03l-8.12-4.84-4.59,14.77-9.89-5.93,12.44-40.13,19.87,11.7c4.94,2.91,8.4,6.19,10.38,9.84,1.98,3.66,2.41,7.29,1.29,10.88-1.45,4.65-4.73,6.5-9.82,5.53,1.96,1.97,3.15,3.91,3.57,5.81,.41,1.9,.28,4.18-.4,6.82Zm-17.31-37.1l-3.3,10.62,8.78,5.21c1.93,1.14,3.57,1.57,4.92,1.28,1.35-.29,2.3-1.31,2.84-3.05,1.09-3.51-.45-6.51-4.63-8.98l-8.62-5.09Z"/>
        <path d="M466.75,186.94c-4.21-2.57-7.17-5.52-8.89-8.85-1.72-3.33-2.09-6.73-1.11-10.21l6.93,4.22c-.54,1.96-.39,3.64,.45,5.05,.84,1.41,2.36,2.79,4.56,4.13,3.43,2.09,5.49,1.93,6.2-.48,.31-1.06,.16-2.08-.44-3.05-.6-.97-1.91-2.31-3.91-4.01l-2.32-1.98c-6.38-5.26-8.78-10.57-7.22-15.95,.83-2.85,2.51-4.5,5.04-4.94,2.54-.44,5.69,.47,9.46,2.74,4.03,2.43,6.86,5.18,8.48,8.23,1.62,3.06,2.02,6.29,1.2,9.68l-6.83-4.14c.36-1.58,.2-3-.49-4.25-.69-1.25-2-2.46-3.93-3.62-3.09-1.87-4.94-1.74-5.56,.38-.31,1.06-.17,2.1,.42,3.11,.59,1.01,1.79,2.29,3.6,3.84l2.41,2.03c3.47,2.9,5.81,5.61,7.03,8.14,1.22,2.53,1.44,5.14,.66,7.82-.94,3.21-2.8,4.98-5.57,5.3-2.77,.32-6.17-.75-10.18-3.21Z"/>
        <path d="M511.27,213.33l-7.74-4.73-.2-6.61-12.73-7.76-3.36,4.42-7.4-4.52,20.46-24.73,8.67,5.23,2.29,38.72Zm-13.47-28.47l-3.35,4.34,8.65,5.26-.18-6.49c-.08-1.93-.16-5.12-.24-9.57-2.94,3.91-4.56,6.06-4.88,6.46Z"/>
        <path d="M531.04,204.39l8.64-11.28,7.65,4.61-20.32,25.23-8.71-5.32-1.83-38.5,7.87,4.74,.42,16.71c.08,5.41,.05,9.78-.11,13.09,2.22-3.46,4.35-6.55,6.39-9.28Z"/>
        <path d="M552.86,239.6c-4.79-2.93-8.21-6.82-10.27-11.67-2.05-4.88-2.33-9.8-.86-14.79,1.47-4.99,4.15-8.12,8.02-9.41,3.87-1.26,8.21-.45,13.03,2.45,4.82,2.9,8.28,6.79,10.37,11.67,2.08,4.91,2.37,9.87,.88,14.89-1.49,5.02-4.2,8.15-8.11,9.42-3.9,1.23-8.25,.37-13.05-2.56Zm-3.29-12.97c.97,2.71,2.72,4.83,5.25,6.37,2.5,1.53,4.81,1.87,6.91,1.03,2.06-.83,3.57-2.84,4.51-6.02s.91-6.12-.1-8.82c-1.03-2.75-2.81-4.88-5.32-6.4-2.54-1.53-4.82-1.86-6.86-.97-2.05,.84-3.55,2.84-4.49,6.01-.94,3.17-.91,6.1,.1,8.79Z"/>
        <path d="M582.29,218.79l13.1,7.89c5.29,3.19,8.92,7.06,10.9,11.63,1.98,4.57,2.21,9.39,.7,14.44-1.51,5.05-4.11,8.13-7.8,9.26-3.68,1.13-8.15,.08-13.42-3.14l-13.05-7.98,9.57-32.1Zm-.1,30.27l5.38,3.28c2.75,1.68,5.11,2.16,7.08,1.46,1.97-.71,3.43-2.66,4.39-5.86,.96-3.2,.94-6.06-.07-8.58-1-2.51-2.89-4.61-5.65-6.27l-5.39-3.26-5.74,19.24Z"/>
        <path d="M640.94,254.14l-15.35,9.43,6.23,23.46-8.95-5.47-1.47-5.69c-.7-2.69-1.45-5.69-2.25-9.01-.68,.48-2.71,1.79-6.07,3.93l-3.89,2.4-8.68-5.31,16.11-9.6-5.75-22.27,8.85,5.34,1.32,5.26c0,.11,.66,2.87,1.97,8.29,2.13-1.47,4-2.71,5.6-3.72l3.65-2.27,8.66,5.22Z"/>
        <path d="M646.71,296.99c-5-3.06-8.58-7.08-10.73-12.07-2.14-5.01-2.45-10.05-.91-15.13,1.53-5.08,4.32-8.25,8.36-9.52,4.04-1.24,8.57-.35,13.59,2.68,5.03,3.03,8.64,7.05,10.83,12.06,2.17,5.05,2.49,10.13,.93,15.24-1.55,5.11-4.37,8.28-8.45,9.52-4.06,1.21-8.6,.28-13.62-2.79Zm-3.45-13.3c1.01,2.78,2.84,4.97,5.48,6.59,2.61,1.59,5.02,1.97,7.21,1.14,2.15-.82,3.72-2.85,4.7-6.09,.98-3.24,.94-6.25-.12-9.02-1.08-2.82-2.93-5.03-5.56-6.61-2.65-1.6-5.03-1.96-7.15-1.08-2.14,.83-3.7,2.86-4.67,6.09s-.94,6.22,.11,8.99Z"/>
        <path d="M697.01,296.08l2.1-6.88,7.6,4.58-10.06,32.88-8.56-5.23-4.17-18.04c-1.25-5.6-2.08-9.62-2.48-12.08-1.16,4.28-2.63,9.36-4.42,15.24l-2.08,6.84-7.5-4.59,9.95-32.7,8.51,5.13,4.17,18.02c1.19,5.24,2.01,9.3,2.46,12.2,1.18-4.35,2.67-9.47,4.48-15.38Z"/>
        <path d="M719.86,301.7l-7.97,25.98,15.52,9.46-2.16,7-23.5-14.37,10.08-32.91,8.03,4.84Z"/>
        <path d="M736.54,351.04l-8.09-4.95,10.19-33.08,8.12,4.9-10.23,33.13Z"/>
        <path d="M762.55,352.23l1.91-6.17,15.98,9.69-5.78,18.59-5.75-3.51,.39-4.99c-3.4,2-7.67,1.43-12.8-1.71-5-3.05-8.49-7.08-10.5-12.06-2.03-4.92-2.22-10.02-.59-15.29s4.51-8.62,8.6-9.85c4.06-1.25,8.8-.23,14.24,3.04,4.51,2.72,7.93,6.06,10.25,10.02,2.35,4.02,3.22,8.01,2.6,11.99l-8.44-5.11c.02-1.92-.53-3.75-1.65-5.5-1.11-1.75-2.73-3.26-4.83-4.53-2.82-1.7-5.31-2.1-7.49-1.2-2.18,.9-3.77,3-4.79,6.3-1.02,3.3-.99,6.38,.09,9.25,1.08,2.88,3.09,5.21,6.03,7,2.13,1.3,4.15,1.84,6.05,1.61,1.9-.23,3.29-1.19,4.16-2.89l-7.68-4.67Z"/>
        <path d="M787.72,382.33l-8.28-5.06,10.4-33.4,8.31,5.01-10.44,33.45Z"/>
      </g>
      <g id="g3103">
        <path id="path6" class="cls-5" d="M1093.6,453.5l5.45,2.8c-.75,2.45-1.5,4.9-2.25,7.35,9.79,5.13,19.71,10.08,29.61,15.38,2.2,.89,3.37,3.4,2.52,5.43-5.44,18.44-11.25,36.7-16.73,55.14-.67,1.83-1.03,4.08-2.63,5.15-1.65,.23-3.37-.85-4.97-1.64-9.23-5.1-18.4-10.09-27.51-15.07-.75,2.46-1.5,4.91-2.25,7.37l-5.65-3.11c-12.88-10.05-25.71-19.81-38.37-29.56,6.45-21.08,12.92-42.13,19.38-63.17,14.31,4.59,28.76,9.29,43.39,13.93Z"/>
        <path id="path46" class="cls-3" d="M1095.96,466.41c10.08,5.23,20.24,10.49,30.48,15.8-6.06,19.85-12.13,39.72-18.19,59.59-10.18-5.55-20.27-11.06-30.29-16.52,.75-2.46,1.5-4.91,2.25-7.36,7.9,4.28,15.83,8.58,23.82,12.91,.38-1.24,.76-2.48,1.14-3.72-8-4.32-15.93-8.61-23.83-12.88,.47-1.54,.94-3.06,1.41-4.6,7.9,4.25,15.84,8.53,23.84,12.84,.38-1.24,.76-2.48,1.14-3.72-8-4.29-15.95-8.56-23.85-12.8,.47-1.54,.94-3.06,1.41-4.6,7.91,4.23,15.86,8.48,23.86,12.76,.38-1.24,.76-2.48,1.13-3.72-8.01-4.27-15.96-8.51-23.87-12.72,.47-1.54,.94-3.06,1.41-4.6,7.92,4.2,15.87,8.42,23.89,12.68,.38-1.24,.76-2.48,1.13-3.71-8.02-4.24-15.98-8.45-23.89-12.64,.47-1.54,.94-3.06,1.41-4.6,7.92,4.17,15.89,8.37,23.91,12.6,.38-1.24,.76-2.48,1.13-3.71-8.02-4.21-15.99-8.4-23.92-12.56,.47-1.53,.94-3.06,1.41-4.6,7.93,4.15,15.9,8.32,23.93,12.52,.38-1.23,.76-2.48,1.13-3.71-8.03-4.19-16-8.35-23.94-12.48,.66-2.14,1.31-4.29,1.97-6.43Z"/>
        <path id="path88" class="cls-3" d="M1062.77,467.81c1.72,.79,3.44,1.61,5.17,2.41-.69,6.78-1.36,13.57-1.95,20.39,2.95-5.8,6.01-11.52,9.03-17.28,1.82,.88,3.65,1.73,5.48,2.56-4.75,7.79-9.27,15.78-14.19,23.4-1.74,0-3.72-2.04-5.53-2.87,.66-6.67,1.11-13.4,1.91-20.02-2.84,5.33-5.98,10.43-8.96,15.63-1.68-1.01-3.35-2.03-5.02-3.07,.98-8.77,1.68-17.6,2.76-26.31,1.53,.72,3.07,1.46,4.61,2.2-.86,6.26-1.58,12.56-2.56,18.78,3.07-5.27,6.17-10.54,9.24-15.82Z"/>
      </g>
      <g>
        <g>
          <path class="cls-6" d="M1034.42,754.71l-28.64-16.17,2.07-6.71-49.62-19.54-19.56,63.51,45,34.55,3.06-9.93,28.69,16.02c1.9,1.06,3.87,.55,4.39-1.15l17.12-55.57c.52-1.69-.59-3.94-2.49-5.01Zm-17.78,59.42l-29.24-16.33,1.59-5.33,7.05,3.94,1.9-6.17-7.11-3.98,1.09-3.67,7.14,4,1.9-6.17-7.2-4.03,1.09-3.67,7.23,4.06,1.9-6.17-7.25-4.07,1.13-3.65,7.25,4.07,1.9-6.17-7.25-4.08,1.13-3.65,7.25,4.08,1.9-6.17-7.25-4.08,1.73-5.61,29.44,16.61-17.33,56.27Z"/>
          <polygon class="cls-6" points="1012.12 759.36 1024.34 766.24 1026.24 760.07 1014.02 753.19 1012.12 759.36"/>
          <polygon class="cls-6" points="1009.09 769.18 1021.32 776.05 1023.22 769.88 1011 763.01 1009.09 769.18"/>
          <polygon class="cls-6" points="1006.07 779 1018.3 785.86 1020.2 779.69 1007.97 772.83 1006.07 779"/>
          <polygon class="cls-6" points="1003.05 788.82 1015.28 795.67 1017.18 789.5 1004.95 782.65 1003.05 788.82"/>
          <polygon class="cls-6" points="1000.02 798.64 1012.26 805.48 1014.15 799.31 1001.92 792.47 1000.02 798.64"/>
        </g>
        <polygon class="cls-4" points="965.36 736.44 971.58 739.54 972.21 752.14 980.1 743.83 986.31 746.92 974.33 757.56 977.18 776.56 970.85 772.52 969.97 758.75 962.25 767.19 956.46 763.34 967.41 754.09 965.36 736.44"/>
      </g>
    </g>
  </g>
</svg>